<?xml version="1.0" encoding="utf-8"?>
<!-- Generator: Adobe Illustrator 24.3.0, SVG Export Plug-In . SVG Version: 6.00 Build 0)  -->
<svg version="1.1" id="_x2018_ëîé_x5F_1" xmlns="http://www.w3.org/2000/svg" xmlns:xlink="http://www.w3.org/1999/xlink"
	 x="0px" y="0px" viewBox="0 0 1800 2000" style="enable-background:new 0 0 1800 2000;" xml:space="preserve">
<style type="text/css">
	.st0{fill:#282A2D;}
	.st1{fill:#1179FE;}
	.st2{fill:#FFFFFF;}
	.st3{fill:#23393D;}
	.st4{fill:#30545D;}
	.st5{fill:#F2BEB7;}
	.st6{fill:#4A7DF5;}
	.st7{fill:#495A63;}
	.st8{fill:#3C5FB6;}
	.st9{fill:#EDA8A2;}
	.st10{fill:#4A190C;}
	.st11{opacity:0.2;enable-background:new    ;}
	.st12{fill:#424750;}
	.st13{fill:#3A474E;}
	.st14{fill:#283237;}
	.st15{fill:#82A6DA;}
	.st16{fill:#2B72CC;}
	.st17{fill:#AE6EC2;}
	.st18{opacity:0.1;enable-background:new    ;}
	.st19{fill:#F2ABA8;}
	.st20{opacity:0.3;enable-background:new    ;}
	.st21{fill:#E49390;}
	.st22{fill:#37474F;}
	.st23{opacity:0.4;fill:#FFFFFF;enable-background:new    ;}
	.st24{fill:#BA68C8;}
	.st25{fill:#E0E0E0;}
	.st26{fill:#263238;}
	.st27{fill:#455A64;}
	.st28{opacity:0.5;fill:#FFFFFF;enable-background:new    ;}
	.st29{font-family:'MyriadPro-Regular';}
	.st30{font-size:415.095px;}
	.st31{font-size:149.1786px;}
	.st32{font-size:195.6997px;}
	.st33{font-size:284.7002px;}
</style>
<path class="st0" d="M-180.4,2248v1261.3c0,22.1-15.9,40-35.6,40h-1819.8c-19.6,0-35.6-17.9-35.6-40V2248c0-22.1,15.9-40,35.6-40
	H-216C-196.3,2208-180.4,2225.9-180.4,2248z"/>
<path class="st1" d="M-270.4,2175.9v102.3h-2030.9v-102.3c0-21.1,17.1-38.2,38.2-38.2h1954.5
	C-287.5,2137.7-270.4,2154.8-270.4,2175.9z"/>
<g>
	<path class="st2" d="M-2239.2,2208c0-9.8,8-17.8,17.8-17.8s17.8,8,17.8,17.8s-8,17.8-17.8,17.8S-2239.2,2217.8-2239.2,2208z"/>
	<path class="st2" d="M-2169.1,2208c0-9.8,8-17.8,17.8-17.8s17.8,8,17.8,17.8s-8,17.8-17.8,17.8S-2169.1,2217.8-2169.1,2208z"/>
	<path class="st2" d="M-2097.2,2208c0-9.8,8-17.8,17.8-17.8s17.8,8,17.8,17.8s-8,17.8-17.8,17.8
		C-2089.3,2225.8-2097.2,2217.8-2097.2,2208z"/>
</g>
<path class="st2" d="M-419.8,2392c2.5,18.2-2.5,35.8-12.6,49.4c-10.1,13.6-25.2,23.3-43,25.7l-753.4,103.5
	c-38.5,5.3-74-20.2-79-56.6c-2.5-18.2,3.1-35.8,14.1-49.6c11-13.7,27.5-23.6,46.7-26.2l753.4-103.5
	C-458,2329.8-424.8,2355.6-419.8,2392z"/>
<path class="st1" d="M-418.8,2392.9c2.5,18.2-2.5,35.8-12.6,49.4c-10.1,13.6-25.2,23.3-43,25.7l-136.3,18.7l-18.2-132.4l136.3-18.7
	C-457,2330.7-423.8,2356.5-418.8,2392.9z"/>
<g>
	<g>
		<path class="st2" d="M-506.7,2422.8c-1.7,0.2-3.4,0.3-5.1,0.3c-9.1-0.1-17.6-3.7-24-10.3c-13.1-13.4-12.9-35,0.6-48.2l0,0
			c13.4-13.1,35-12.9,48.2,0.6c13.1,13.4,12.9,35-0.6,48.2C-492.9,2418.6-499.6,2421.9-506.7,2422.8z M-531.3,2368.7
			c-11.2,11-11.4,29-0.5,40.2c5.3,5.4,12.4,8.5,20,8.6s14.8-2.8,20.2-8.1c11.2-11,11.4-29,0.5-40.2
			C-502.1,2358-520.1,2357.8-531.3,2368.7L-531.3,2368.7z"/>
	</g>
	
		<rect x="-573.6" y="2424.4" transform="matrix(0.7152 -0.6989 0.6989 0.7152 -1853.1157 306.5864)" class="st2" width="46.5" height="5.6"/>
	<path class="st2" d="M-578.6,2454.7L-578.6,2454.7c-1.9-2-1.9-5.2,0.1-7.1l19.6-19.1c2-1.9,5.1-1.9,7.1,0.1l0,0
		c1.9,2,1.9,5.2-0.1,7.1l-19.6,19.1C-573.5,2456.7-576.7,2456.7-578.6,2454.7z"/>
</g>
<path class="st1" d="M-1791.8,3092.1h-162.5c-1.9,0-3.4-1.5-3.4-3.4v-7.6c0-1.9,1.5-3.4,3.4-3.4h162.5c1.9,0,3.4,1.5,3.4,3.4v7.6
	C-1788.4,3090.6-1789.9,3092.1-1791.8,3092.1z"/>
<g>
	<path class="st1" d="M-1875.1,3141.5h-77.7c-2.7,0-4.9-2.2-4.9-4.9l0,0c0-2.7,2.2-4.9,4.9-4.9h77.7c2.7,0,4.9,2.2,4.9,4.9l0,0
		C-1870.2,3139.3-1872.4,3141.5-1875.1,3141.5z"/>
	<g>
		<path class="st1" d="M-1813.7,3121h-141.4c-1.4,0-2.6-1.2-2.6-2.6v-4.6c0-1.4,1.2-2.6,2.6-2.6h141.4c1.4,0,2.6,1.2,2.6,2.6v4.6
			C-1811.1,3119.8-1812.2,3121-1813.7,3121z"/>
		<path class="st1" d="M-1663.3,3121h-131.9c-1.4,0-2.5-1.1-2.5-2.5v-4.8c0-1.4,1.1-2.5,2.5-2.5h131.9c1.4,0,2.5,1.1,2.5,2.5v4.8
			C-1660.8,3119.8-1661.9,3121-1663.3,3121z"/>
		<path class="st1" d="M-1778.2,3141.5h-77.7c-2.7,0-4.9-2.2-4.9-4.9l0,0c0-2.7,2.2-4.9,4.9-4.9h77.7c2.7,0,4.9,2.2,4.9,4.9l0,0
			C-1773.3,3139.3-1775.5,3141.5-1778.2,3141.5z"/>
	</g>
</g>
<path class="st1" d="M-1600.1,3092.1h-162.5c-1.9,0-3.4-1.5-3.4-3.4v-7.6c0-1.9,1.5-3.4,3.4-3.4h162.5c1.9,0,3.4,1.5,3.4,3.4v7.6
	C-1596.7,3090.6-1598.2,3092.1-1600.1,3092.1z"/>
<path class="st1" d="M-1791.8,3200.3h-162.5c-1.9,0-3.4-1.5-3.4-3.4v-7.6c0-1.9,1.5-3.4,3.4-3.4h162.5c1.9,0,3.4,1.5,3.4,3.4v7.6
	C-1788.4,3198.8-1789.9,3200.3-1791.8,3200.3z"/>
<path class="st1" d="M-1875.1,3249.6h-77.7c-2.7,0-4.9-2.2-4.9-4.9l0,0c0-2.7,2.2-4.9,4.9-4.9h77.7c2.7,0,4.9,2.2,4.9,4.9l0,0
	C-1870.2,3247.5-1872.4,3249.6-1875.1,3249.6z"/>
<g>
	<path class="st1" d="M-1813.7,3229.1h-141.4c-1.4,0-2.6-1.2-2.6-2.6v-4.6c0-1.4,1.2-2.6,2.6-2.6h141.4c1.4,0,2.6,1.2,2.6,2.6v4.6
		C-1811.1,3227.9-1812.2,3229.1-1813.7,3229.1z"/>
	<path class="st1" d="M-1663.3,3229.1h-131.9c-1.4,0-2.5-1.1-2.5-2.5v-4.8c0-1.4,1.1-2.5,2.5-2.5h131.9c1.4,0,2.5,1.1,2.5,2.5v4.8
		C-1660.8,3228-1661.9,3229.1-1663.3,3229.1z"/>
	<path class="st1" d="M-1778.2,3249.6h-77.7c-2.7,0-4.9-2.2-4.9-4.9l0,0c0-2.7,2.2-4.9,4.9-4.9h77.7c2.7,0,4.9,2.2,4.9,4.9l0,0
		C-1773.3,3247.5-1775.5,3249.6-1778.2,3249.6z"/>
</g>
<path class="st1" d="M-1600.1,3200.3h-162.5c-1.9,0-3.4-1.5-3.4-3.4v-7.6c0-1.9,1.5-3.4,3.4-3.4h162.5c1.9,0,3.4,1.5,3.4,3.4v7.6
	C-1596.7,3198.8-1598.2,3200.3-1600.1,3200.3z"/>
<g>
	<polygon class="st1" points="-612.6,2555.2 -707.4,2576.2 -754.4,2657.4 -790.2,2472.4 	"/>
	<polygon class="st1" points="-726.5,2568.2 -712.7,2558.2 -652,2634.2 -665.9,2644.2 	"/>
</g>
<path class="st2" d="M-1028,2924.1h-235.1c-5.1,0-9.2-4.1-9.2-9.2v-235c0-5.1,4.1-9.2,9.2-9.2h235.1c5.1,0,9.2,4.1,9.2,9.2v235
	C-1018.8,2920-1023,2924.1-1028,2924.1z"/>
<g>
	<path class="st1" d="M-1239.9,2871.1l49.2-88.8c5.7-10.3,20.2-11.3,27.2-1.7l28.4,38.7c6,8.2,18.1,8.9,25,1.4l0,0
		c7.2-7.8,19.8-6.8,25.5,2.1l30.7,47.3c7,10.8-0.8,25-13.6,25h-158.3C-1238.1,2895.2-1245.9,2881.9-1239.9,2871.1z"/>
	<path class="st1" d="M-1142.7,2740.8c0-10.7,8.7-19.4,19.4-19.4c10.7,0,19.4,8.7,19.4,19.4s-8.7,19.4-19.4,19.4
		S-1142.7,2751.5-1142.7,2740.8z"/>
</g>
<path class="st2" d="M-710.8,2930.9l-219,29.9c-8.9,1.2-17-5-18.2-13.9l-29.9-219c-1.2-8.9,5-17,13.9-18.2l219-29.9
	c8.9-1.2,17,5,18.2,13.9l29.9,219C-695.7,2921.6-701.9,2929.7-710.8,2930.9z"/>
<g>
	<path class="st1" d="M-921,2906.1l36.8-94.6c4.3-11,18.5-13.9,26.7-5.4l33.4,34.6c7.1,7.4,19.2,6.4,25-2l0,0
		c6-8.7,18.7-9.4,25.6-1.3l36.8,42.8c8.4,9.7,2.6,24.9-10.1,26.6l-156.9,21.4C-915.9,2929.7-925.4,2917.6-921,2906.1z"/>
	<path class="st1" d="M-842.3,2763.9c-1.4-10.6,6-20.4,16.6-21.8c10.6-1.4,20.4,6,21.8,16.6c1.4,10.6-6,20.4-16.6,21.8
		C-831.1,2781.9-840.8,2774.5-842.3,2763.9z"/>
</g>
<path class="st3" d="M336.9,926c1.1,0,2,1.1,2,2.5v1.3c0,1.4-0.9,2.5-2,2.5"/>
<g>
	<path class="st4" d="M-1410.1,2934.1h-13.9c-1.3,0-2.3-1-2.3-2.3s1-2.3,2.3-2.3h13.8c1.3,0,2.3,1,2.3,2.3
		C-1407.8,2933.1-1408.8,2934.1-1410.1,2934.1z M-1437.8,2934.1h-13.8c-1.3,0-2.3-1-2.3-2.3s1-2.3,2.3-2.3h13.8c1.3,0,2.3,1,2.3,2.3
		S-1436.5,2934.1-1437.8,2934.1z M-1465.4,2934.1h-13.8c-1.3,0-2.3-1-2.3-2.3s1-2.3,2.3-2.3h13.8c1.3,0,2.3,1,2.3,2.3
		S-1464.1,2934.1-1465.4,2934.1z M-1493,2934.1h-13.8c-1.3,0-2.3-1-2.3-2.3s1-2.3,2.3-2.3h13.8c1.3,0,2.3,1,2.3,2.3
		S-1491.7,2934.1-1493,2934.1z M-1520.6,2934.1h-13.8c-1.3,0-2.3-1-2.3-2.3s1-2.3,2.3-2.3h13.8c1.3,0,2.3,1,2.3,2.3
		S-1519.4,2934.1-1520.6,2934.1z M-1548.2,2934.1h-13.8c-1.3,0-2.3-1-2.3-2.3s1-2.3,2.3-2.3h13.8c1.3,0,2.3,1,2.3,2.3
		C-1545.9,2933.1-1547,2934.1-1548.2,2934.1z M-1575.8,2934.1h-13.8c-1.3,0-2.3-1-2.3-2.3s1-2.3,2.3-2.3h13.8c1.3,0,2.3,1,2.3,2.3
		S-1574.6,2934.1-1575.8,2934.1z M-1603.4,2934.1h-13.8c-1.3,0-2.3-1-2.3-2.3s1-2.3,2.3-2.3h13.8c1.3,0,2.3,1,2.3,2.3
		C-1601.2,2933.1-1602.2,2934.1-1603.4,2934.1z M-1631,2934.1h-13.8c-1.3,0-2.3-1-2.3-2.3s1-2.3,2.3-2.3h13.8c1.3,0,2.3,1,2.3,2.3
		C-1628.8,2933.1-1629.8,2934.1-1631,2934.1z M-1658.7,2934.1h-13.8c-1.3,0-2.3-1-2.3-2.3s1-2.3,2.3-2.3h13.8c1.3,0,2.3,1,2.3,2.3
		S-1657.4,2934.1-1658.7,2934.1z M-1686.3,2934.1h-13.8c-1.3,0-2.3-1-2.3-2.3s1-2.3,2.3-2.3h13.8c1.3,0,2.3,1,2.3,2.3
		S-1685,2934.1-1686.3,2934.1z M-1713.9,2934.1h-13.8c-1.3,0-2.3-1-2.3-2.3s1-2.3,2.3-2.3h13.8c1.3,0,2.3,1,2.3,2.3
		S-1712.6,2934.1-1713.9,2934.1z M-1741.5,2934.1h-13.8c-1.3,0-2.3-1-2.3-2.3s1-2.3,2.3-2.3h13.8c1.3,0,2.3,1,2.3,2.3
		S-1740.2,2934.1-1741.5,2934.1z M-1769.1,2934.1h-13.8c-1.3,0-2.3-1-2.3-2.3s1-2.3,2.3-2.3h13.8c1.3,0,2.3,1,2.3,2.3
		S-1767.8,2934.1-1769.1,2934.1z M-1796.7,2934.1h-13.8c-1.3,0-2.3-1-2.3-2.3s1-2.3,2.3-2.3h13.8c1.3,0,2.3,1,2.3,2.3
		S-1795.4,2934.1-1796.7,2934.1z M-1824.3,2934.1h-13.8c-1.3,0-2.3-1-2.3-2.3s1-2.3,2.3-2.3h13.8c1.3,0,2.3,1,2.3,2.3
		S-1823.1,2934.1-1824.3,2934.1z M-1851.9,2934.1h-13.8c-1.3,0-2.3-1-2.3-2.3s1-2.3,2.3-2.3h13.8c1.3,0,2.3,1,2.3,2.3
		S-1850.7,2934.1-1851.9,2934.1z M-1879.5,2934.1h-12.3c-0.6,0-1.1,0-1.6-0.1c-1.3-0.1-2.2-1.2-2.1-2.4c0.1-1.3,1.2-2.2,2.4-2.1
		c0.4,0,0.9,0,1.4,0h12.3c1.3,0,2.3,1,2.3,2.3C-1877.2,2933.1-1878.3,2934.1-1879.5,2934.1z M-1397.1,2930.1c-0.7,0-1.4-0.4-1.9-1
		c-0.7-1-0.4-2.5,0.6-3.2c3.5-2.4,6.1-5.7,7.7-9.5c0.5-1.2,1.8-1.7,3-1.3c1.2,0.5,1.7,1.8,1.3,3c-1.9,4.7-5.1,8.7-9.4,11.6
		C-1396.2,2929.9-1396.6,2930.1-1397.1,2930.1z M-1906.1,2929.2c-0.5,0-1-0.2-1.4-0.5c-4.1-3.1-7.1-7.3-8.7-12.2
		c-0.4-1.2,0.2-2.5,1.4-2.9c1.2-0.4,2.5,0.2,2.9,1.4c1.3,4,3.8,7.4,7.1,10c1,0.8,1.2,2.2,0.4,3.2
		C-1904.7,2928.9-1905.4,2929.2-1906.1,2929.2z M-1386.9,2905.9c-1.3,0-2.3-1-2.3-2.3v-13.8c0-1.3,1-2.3,2.3-2.3s2.3,1,2.3,2.3v13.8
		C-1384.6,2904.9-1385.6,2905.9-1386.9,2905.9z M-1915.2,2904.5c-1.3,0-2.3-1-2.3-2.3v-13.8c0-1.3,1-2.3,2.3-2.3s2.3,1,2.3,2.3v13.8
		C-1912.9,2903.5-1913.9,2904.5-1915.2,2904.5z M-1386.9,2878.3c-1.3,0-2.3-1-2.3-2.3v-13.8c0-1.3,1-2.3,2.3-2.3s2.3,1,2.3,2.3v13.8
		C-1384.6,2877.3-1385.6,2878.3-1386.9,2878.3z M-1915.2,2876.9c-1.3,0-2.3-1-2.3-2.3v-13.8c0-1.3,1-2.3,2.3-2.3s2.3,1,2.3,2.3v13.8
		C-1912.9,2875.8-1913.9,2876.9-1915.2,2876.9z M-1386.9,2850.7c-1.3,0-2.3-1-2.3-2.3v-13.8c0-1.3,1-2.3,2.3-2.3s2.3,1,2.3,2.3v13.8
		C-1384.6,2849.6-1385.6,2850.7-1386.9,2850.7z M-1915.2,2849.3c-1.3,0-2.3-1-2.3-2.3v-13.8c0-1.3,1-2.3,2.3-2.3s2.3,1,2.3,2.3v13.8
		C-1912.9,2848.2-1913.9,2849.3-1915.2,2849.3z M-1386.9,2823.1c-1.3,0-2.3-1-2.3-2.3V2807c0-1.3,1-2.3,2.3-2.3s2.3,1,2.3,2.3v13.8
		C-1384.6,2822-1385.6,2823.1-1386.9,2823.1z M-1915.2,2821.7c-1.3,0-2.3-1-2.3-2.3v-13.8c0-1.3,1-2.3,2.3-2.3s2.3,1,2.3,2.3v13.8
		C-1912.9,2820.6-1913.9,2821.7-1915.2,2821.7z M-1386.9,2795.4c-1.3,0-2.3-1-2.3-2.3v-13.8c0-1.3,1-2.3,2.3-2.3s2.3,1,2.3,2.3v13.8
		C-1384.6,2794.4-1385.6,2795.4-1386.9,2795.4z M-1915.2,2794c-1.3,0-2.3-1-2.3-2.3v-13.8c0-1.3,1-2.3,2.3-2.3s2.3,1,2.3,2.3v13.8
		C-1912.9,2793-1913.9,2794-1915.2,2794z M-1386.9,2767.8c-1.3,0-2.3-1-2.3-2.3v-13.8c0-1.3,1-2.3,2.3-2.3s2.3,1,2.3,2.3v13.8
		C-1384.6,2766.8-1385.6,2767.8-1386.9,2767.8z M-1915.2,2766.4c-1.3,0-2.3-1-2.3-2.3v-13.8c0-1.3,1-2.3,2.3-2.3s2.3,1,2.3,2.3v13.8
		C-1912.9,2765.4-1913.9,2766.4-1915.2,2766.4z M-1386.9,2740.2c-1.3,0-2.3-1-2.3-2.3v-13.8c0-1.3,1-2.3,2.3-2.3s2.3,1,2.3,2.3v13.8
		C-1384.6,2739.2-1385.6,2740.2-1386.9,2740.2z M-1915.2,2738.8c-1.3,0-2.3-1-2.3-2.3v-13.8c0-1.3,1-2.3,2.3-2.3s2.3,1,2.3,2.3v13.8
		C-1912.9,2737.8-1913.9,2738.8-1915.2,2738.8z M-1386.9,2712.6c-1.3,0-2.3-1-2.3-2.3v-13.8c0-1.3,1-2.3,2.3-2.3s2.3,1,2.3,2.3v13.8
		C-1384.6,2711.6-1385.6,2712.6-1386.9,2712.6z M-1915.2,2711.2c-1.3,0-2.3-1-2.3-2.3v-13.8c0-1.3,1-2.3,2.3-2.3s2.3,1,2.3,2.3v13.8
		C-1912.9,2710.2-1913.9,2711.2-1915.2,2711.2z M-1386.9,2685c-1.3,0-2.3-1-2.3-2.3v-13.8c0-1.3,1-2.3,2.3-2.3s2.3,1,2.3,2.3v13.8
		C-1384.6,2684-1385.6,2685-1386.9,2685z M-1915.2,2683.6c-1.3,0-2.3-1-2.3-2.3v-13.8c0-1.3,1-2.3,2.3-2.3s2.3,1,2.3,2.3v13.8
		C-1912.9,2682.6-1913.9,2683.6-1915.2,2683.6z M-1386.9,2657.4c-1.3,0-2.3-1-2.3-2.3v-6.2c0-2.3-0.4-4.6-1.1-6.7
		c-0.4-1.2,0.2-2.5,1.4-2.9c1.2-0.4,2.5,0.2,2.9,1.4c0.9,2.6,1.3,5.4,1.3,8.2v6.2C-1384.6,2656.4-1385.6,2657.4-1386.9,2657.4z
		 M-1915.2,2656c-1.3,0-2.3-1-2.3-2.3v-4.8c0-3.3,0.6-6.6,1.9-9.6c0.5-1.2,1.8-1.7,3-1.3c1.2,0.5,1.7,1.8,1.3,3
		c-1,2.5-1.5,5.2-1.5,7.9v4.8C-1912.9,2655-1913.9,2656-1915.2,2656z M-1396,2632.7c-0.5,0-1-0.2-1.4-0.5c-3.3-2.6-7.3-4-11.5-4.3
		c-1.3-0.1-2.2-1.2-2.1-2.4c0.1-1.3,1.2-2.2,2.4-2.1c5.1,0.3,9.9,2.1,14,5.2c1,0.8,1.2,2.2,0.4,3.2
		C-1394.6,2632.4-1395.3,2632.7-1396,2632.7z M-1904.9,2631.8c-0.7,0-1.5-0.4-1.9-1c-0.7-1-0.4-2.5,0.6-3.2
		c4.2-2.9,9.2-4.4,14.3-4.4l0,0c1.3,0,2.3,1,2.3,2.3s-1,2.3-2.3,2.3c-4.2,0-8.3,1.3-11.7,3.6
		C-1904,2631.7-1904.4,2631.8-1904.9,2631.8z M-1422.5,2627.9h-13.8c-1.3,0-2.3-1-2.3-2.3s1-2.3,2.3-2.3h13.8c1.3,0,2.3,1,2.3,2.3
		C-1420.2,2626.8-1421.3,2627.9-1422.5,2627.9z M-1450.1,2627.9h-13.8c-1.3,0-2.3-1-2.3-2.3s1-2.3,2.3-2.3h13.8c1.3,0,2.3,1,2.3,2.3
		C-1447.9,2626.8-1448.9,2627.9-1450.1,2627.9z M-1477.7,2627.9h-13.9c-1.3,0-2.3-1-2.3-2.3s1-2.3,2.3-2.3h13.8c1.3,0,2.3,1,2.3,2.3
		C-1475.5,2626.8-1476.5,2627.9-1477.7,2627.9z M-1505.4,2627.9h-13.8c-1.3,0-2.3-1-2.3-2.3s1-2.3,2.3-2.3h13.8c1.3,0,2.3,1,2.3,2.3
		C-1503.1,2626.8-1504.1,2627.9-1505.4,2627.9z M-1533,2627.9h-13.8c-1.3,0-2.3-1-2.3-2.3s1-2.3,2.3-2.3h13.8c1.3,0,2.3,1,2.3,2.3
		C-1530.7,2626.8-1531.7,2627.9-1533,2627.9z M-1560.6,2627.9h-13.8c-1.3,0-2.3-1-2.3-2.3s1-2.3,2.3-2.3h13.8c1.3,0,2.3,1,2.3,2.3
		C-1558.3,2626.8-1559.3,2627.9-1560.6,2627.9z M-1588.2,2627.9h-13.8c-1.3,0-2.3-1-2.3-2.3s1-2.3,2.3-2.3h13.8c1.3,0,2.3,1,2.3,2.3
		C-1585.9,2626.8-1586.9,2627.9-1588.2,2627.9z M-1615.8,2627.9h-13.8c-1.3,0-2.3-1-2.3-2.3s1-2.3,2.3-2.3h13.8c1.3,0,2.3,1,2.3,2.3
		C-1613.5,2626.8-1614.5,2627.9-1615.8,2627.9z M-1643.4,2627.9h-13.8c-1.3,0-2.3-1-2.3-2.3s1-2.3,2.3-2.3h13.8c1.3,0,2.3,1,2.3,2.3
		C-1641.1,2626.8-1642.1,2627.9-1643.4,2627.9z M-1671,2627.9h-13.8c-1.3,0-2.3-1-2.3-2.3s1-2.3,2.3-2.3h13.8c1.3,0,2.3,1,2.3,2.3
		C-1668.7,2626.8-1669.7,2627.9-1671,2627.9z M-1698.6,2627.9h-13.8c-1.3,0-2.3-1-2.3-2.3s1-2.3,2.3-2.3h13.8c1.3,0,2.3,1,2.3,2.3
		C-1696.3,2626.8-1697.4,2627.9-1698.6,2627.9z M-1726.2,2627.9h-13.8c-1.3,0-2.3-1-2.3-2.3s1-2.3,2.3-2.3h13.8c1.3,0,2.3,1,2.3,2.3
		C-1723.9,2626.8-1725,2627.9-1726.2,2627.9z M-1753.8,2627.9h-13.8c-1.3,0-2.3-1-2.3-2.3s1-2.3,2.3-2.3h13.8c1.3,0,2.3,1,2.3,2.3
		C-1751.6,2626.8-1752.6,2627.9-1753.8,2627.9z M-1781.4,2627.9h-13.8c-1.3,0-2.3-1-2.3-2.3s1-2.3,2.3-2.3h13.8c1.3,0,2.3,1,2.3,2.3
		C-1779.2,2626.8-1780.2,2627.9-1781.4,2627.9z M-1809.1,2627.9h-13.8c-1.3,0-2.3-1-2.3-2.3s1-2.3,2.3-2.3h13.8c1.3,0,2.3,1,2.3,2.3
		C-1806.8,2626.8-1807.8,2627.9-1809.1,2627.9z M-1836.7,2627.9h-13.8c-1.3,0-2.3-1-2.3-2.3s1-2.3,2.3-2.3h13.8c1.3,0,2.3,1,2.3,2.3
		C-1834.4,2626.8-1835.4,2627.9-1836.7,2627.9z M-1864.3,2627.9h-13.8c-1.3,0-2.3-1-2.3-2.3s1-2.3,2.3-2.3h13.8c1.3,0,2.3,1,2.3,2.3
		C-1862,2626.8-1863,2627.9-1864.3,2627.9z"/>
</g>
<g>
	<path class="st2" d="M-625.4,3317.2h-12.3c-1.1,0-2-0.9-2-2s0.9-2,2-2h12.2c1.1,0,2.1,0.9,2.1,2S-624.2,3317.2-625.4,3317.2z
		 M-649.9,3317.2h-12.2c-1.1,0-2-0.9-2-2s0.9-2,2-2h12.2c1.1,0,2,0.9,2,2S-648.8,3317.2-649.9,3317.2z M-674.4,3317.2h-12.2
		c-1.1,0-2-0.9-2-2s0.9-2,2-2h12.2c1.1,0,2,0.9,2,2C-672.3,3316.3-673.2,3317.2-674.4,3317.2z M-726.2,3343.2h-34.4
		c-1.5,0-2.8-1.2-2.8-2.8c0-1.5,1.2-2.8,2.8-2.8h34.4c1.5,0,2.8,1.2,2.8,2.8C-723.5,3342-724.7,3343.2-726.2,3343.2z M-777.4,3343.2
		h-16.7c-1.5,0-2.8-1.2-2.8-2.8c0-1.5,1.2-2.8,2.8-2.8h16.7c1.5,0,2.8,1.2,2.8,2.8S-775.8,3343.2-777.4,3343.2z M-810.9,3343.2
		h-16.7c-1.5,0-2.8-1.2-2.8-2.8c0-1.5,1.2-2.8,2.8-2.8h16.7c1.5,0,2.8,1.2,2.8,2.8S-809.3,3343.2-810.9,3343.2z M-844.3,3343.2H-861
		c-1.5,0-2.8-1.2-2.8-2.8c0-1.5,1.2-2.8,2.8-2.8h16.7c1.5,0,2.8,1.2,2.8,2.8C-841.6,3342-842.8,3343.2-844.3,3343.2z M-877.8,3343.2
		h-16.8c-1.5,0-2.8-1.2-2.8-2.8c0-1.5,1.2-2.8,2.8-2.8h16.7c1.5,0,2.8,1.2,2.8,2.8S-876.3,3343.2-877.8,3343.2z M-911.3,3343.2H-928
		c-1.5,0-2.8-1.2-2.8-2.8c0-1.5,1.2-2.8,2.8-2.8h16.7c1.5,0,2.8,1.2,2.8,2.8S-909.8,3343.2-911.3,3343.2z M-944.8,3343.2H-961
		c-0.2,0-0.5,0-0.7,0c-1.5-0.1-2.7-1.4-2.6-2.9s1.3-2.7,2.9-2.6c0.1,0,0.3,0,0.4,0h16.2c1.5,0,2.8,1.2,2.8,2.8
		C-942,3342-943.3,3343.2-944.8,3343.2z M-617.4,3309.4C-617.5,3309.4-617.5,3309.4-617.4,3309.4c-1.2,0-2.1-1-2-2.1v-0.2v-12
		c0-1.1,0.9-2,2-2s2,0.9,2,2v12.3C-615.5,3308.6-616.4,3309.4-617.4,3309.4z M-971.9,3332.2c-1.5,0-2.8-1.2-2.8-2.8v-16.7
		c0-1.5,1.2-2.8,2.8-2.8c1.5,0,2.8,1.2,2.8,2.8v16.7C-969.2,3330.9-970.4,3332.2-971.9,3332.2z M-617.4,3285c-1.1,0-2-0.9-2-2v-12.2
		c0-1.1,0.9-2,2-2s2,0.9,2,2v12.2C-615.4,3284.1-616.3,3285-617.4,3285z M-971.9,3298.7c-1.5,0-2.8-1.2-2.8-2.8v-16.7
		c0-1.5,1.2-2.8,2.8-2.8c1.5,0,2.8,1.2,2.8,2.8v16.7C-969.2,3297.4-970.4,3298.7-971.9,3298.7z M-617.4,3260.5c-1.1,0-2-0.9-2-2
		v-12.2c0-1.1,0.9-2,2-2s2,0.9,2,2v12.2C-615.4,3259.6-616.3,3260.5-617.4,3260.5z M-971.9,3265.2c-1.5,0-2.8-1.2-2.8-2.8v-16.3
		c0-0.2,0-0.4,0-0.5c0.1-1.5,1.3-2.7,2.9-2.7c1.5,0.1,2.7,1.4,2.7,2.9v0.3v16.3C-969.2,3263.9-970.4,3265.2-971.9,3265.2z
		 M-625.1,3240.3L-625.1,3240.3h-0.4h-11.9c-1.1,0-2-0.9-2-2s0.9-2,2-2h11.9c0.2,0,0.3,0,0.5,0c1.1,0,2,1,1.9,2.1
		C-623.1,3239.4-624,3240.3-625.1,3240.3z M-649.5,3240.3h-12.2c-1.1,0-2-0.9-2-2s0.9-2,2-2h12.2c1.1,0,2,0.9,2,2
		C-647.5,3239.4-648.4,3240.3-649.5,3240.3z M-674,3240.3h-12.2c-1.1,0-2-0.9-2-2s0.9-2,2-2h12.2c1.1,0,2,0.9,2,2
		C-672,3239.4-672.9,3240.3-674,3240.3z M-725.7,3237.9h-34.4c-1.5,0-2.8-1.2-2.8-2.8c0-1.5,1.2-2.8,2.8-2.8h34.4
		c1.5,0,2.8,1.2,2.8,2.8C-723,3236.7-724.2,3237.9-725.7,3237.9z M-776.9,3237.9h-16.7c-1.5,0-2.8-1.2-2.8-2.8
		c0-1.5,1.2-2.8,2.8-2.8h16.7c1.5,0,2.8,1.2,2.8,2.8S-775.3,3237.9-776.9,3237.9z M-810.3,3237.9H-827c-1.5,0-2.8-1.2-2.8-2.8
		c0-1.5,1.2-2.8,2.8-2.8h16.7c1.5,0,2.8,1.2,2.8,2.8C-807.6,3236.7-808.8,3237.9-810.3,3237.9z M-843.8,3237.9h-16.8
		c-1.5,0-2.8-1.2-2.8-2.8c0-1.5,1.2-2.8,2.8-2.8h16.7c1.5,0,2.8,1.2,2.8,2.8S-842.3,3237.9-843.8,3237.9z M-877.3,3237.9H-894
		c-1.5,0-2.8-1.2-2.8-2.8c0-1.5,1.2-2.8,2.8-2.8h16.7c1.5,0,2.8,1.2,2.8,2.8S-875.8,3237.9-877.3,3237.9z M-910.8,3237.9h-16.7
		c-1.5,0-2.8-1.2-2.8-2.8c0-1.5,1.2-2.8,2.8-2.8h16.7c1.5,0,2.8,1.2,2.8,2.8S-909.3,3237.9-910.8,3237.9z M-944.3,3237.9H-961
		c-1.5,0-2.8-1.2-2.8-2.8c0-1.5,1.2-2.8,2.7-2.8h16.7c1.5,0,2.8,1.2,2.8,2.8C-941.5,3236.7-942.8,3237.9-944.3,3237.9z"/>
</g>
<g>
	<path class="st2" d="M-1498.8,2587.4h-13.6c-1.3,0-2.3-1-2.3-2.3s1-2.3,2.3-2.3h13.5c1.3,0,2.3,1,2.3,2.3
		S-1497.6,2587.4-1498.8,2587.4z M-1526,2587.4h-13.5c-1.3,0-2.3-1-2.3-2.3s1-2.3,2.3-2.3h13.5c1.3,0,2.3,1,2.3,2.3
		S-1524.7,2587.4-1526,2587.4z M-1553.1,2587.4h-13.5c-1.3,0-2.3-1-2.3-2.3s1-2.3,2.3-2.3h13.5c1.3,0,2.3,1,2.3,2.3
		C-1550.8,2586.4-1551.8,2587.4-1553.1,2587.4z M-1580.1,2587.4h-13.5c-1.3,0-2.3-1-2.3-2.3s1-2.3,2.3-2.3h13.5c1.3,0,2.3,1,2.3,2.3
		C-1577.8,2586.4-1578.9,2587.4-1580.1,2587.4z M-1607.2,2587.4h-13.5c-1.3,0-2.3-1-2.3-2.3s1-2.3,2.3-2.3h13.5c1.3,0,2.3,1,2.3,2.3
		C-1604.9,2586.4-1605.9,2587.4-1607.2,2587.4z M-1634.2,2587.4h-13.5c-1.3,0-2.3-1-2.3-2.3s1-2.3,2.3-2.3h13.5c1.3,0,2.3,1,2.3,2.3
		C-1632,2586.4-1633,2587.4-1634.2,2587.4z M-1661.3,2587.4h-13.5c-1.3,0-2.3-1-2.3-2.3s1-2.3,2.3-2.3h13.5c1.3,0,2.3,1,2.3,2.3
		S-1660.1,2587.4-1661.3,2587.4z M-1688.1,2585.9c-0.4,0-0.8-0.1-1.1-0.3c-4.2-2.4-6.9-6.9-6.9-11.8v-1.7c0-1.3,1-2.3,2.3-2.3
		s2.3,1,2.3,2.3v1.7c0,3.2,1.7,6.2,4.5,7.8c1.1,0.6,1.5,2,0.9,3.1C-1686.6,2585.5-1687.3,2585.9-1688.1,2585.9z M-1488.4,2580.1
		c-0.3,0-0.5,0-0.8-0.1c-1.2-0.4-1.8-1.8-1.3-2.9c0.4-1,0.6-2.1,0.6-3.2v-9.5c0-1.3,1-2.3,2.3-2.3s2.3,1,2.3,2.3v9.5
		c0,1.6-0.3,3.2-0.9,4.8C-1486.6,2579.5-1487.5,2580.1-1488.4,2580.1z M-1693.8,2561c-1.3,0-2.3-1-2.3-2.3v-13.5
		c0-1.3,1-2.3,2.3-2.3s2.3,1,2.3,2.3v13.5C-1691.5,2559.9-1692.6,2561-1693.8,2561z M-1487.7,2553.1c-1.3,0-2.3-1-2.3-2.3v-13.5
		c0-1.3,1-2.3,2.3-2.3s2.3,1,2.3,2.3v13.5C-1485.4,2552.1-1486.4,2553.1-1487.7,2553.1z M-1693.8,2533.9c-1.3,0-2.3-1-2.3-2.3v-13.5
		c0-1.3,1-2.3,2.3-2.3s2.3,1,2.3,2.3v13.5C-1691.5,2532.9-1692.6,2533.9-1693.8,2533.9z M-1487.7,2526.1c-1.3,0-2.3-1-2.3-2.3v-13.5
		c0-1.3,1-2.3,2.3-2.3s2.3,1,2.3,2.3v13.5C-1485.4,2525-1486.4,2526.1-1487.7,2526.1z M-1693.8,2506.8c-1.3,0-2.3-1-2.3-2.3V2491
		c0-1.3,1-2.3,2.3-2.3s2.3,1,2.3,2.3v13.5C-1691.5,2505.8-1692.6,2506.8-1693.8,2506.8z M-1487.7,2499c-1.3,0-2.3-1-2.3-2.3v-13.5
		c0-1.3,1-2.3,2.3-2.3s2.3,1,2.3,2.3v13.5C-1485.4,2498-1486.4,2499-1487.7,2499z M-1693.8,2479.8c-1.3,0-2.3-1-2.3-2.3v-13.6
		c0-1.3,1-2.3,2.3-2.3s2.3,1,2.3,2.3v13.5C-1691.5,2478.7-1692.6,2479.8-1693.8,2479.8z M-1487.7,2471.9c-1.3,0-2.3-1-2.3-2.3v-13.5
		c0-1.3,1-2.3,2.3-2.3s2.3,1,2.3,2.3v13.5C-1485.4,2470.9-1486.4,2471.9-1487.7,2471.9z M-1693.8,2452.7c-1.3,0-2.3-1-2.3-2.3v-13.5
		c0-1.3,1-2.3,2.3-2.3s2.3,1,2.3,2.3v13.5C-1691.5,2451.7-1692.6,2452.7-1693.8,2452.7z M-1487.7,2444.9c-1.3,0-2.3-1-2.3-2.3v-13.5
		c0-1.3,1-2.3,2.3-2.3s2.3,1,2.3,2.3v13.5C-1485.4,2443.8-1486.4,2444.9-1487.7,2444.9z M-1693.8,2425.6c-1.3,0-2.3-1-2.3-2.3v-9.4
		c0-1.7,0.3-3.3,0.9-4.8c0.4-1.2,1.8-1.8,2.9-1.3c1.2,0.4,1.8,1.8,1.3,2.9c-0.4,1-0.6,2.1-0.6,3.2v9.4
		C-1691.5,2424.6-1692.6,2425.6-1693.8,2425.6z M-1487.7,2417.8c-1.3,0-2.3-1-2.3-2.3v-1.6c0-3.2-1.8-6.2-4.6-7.8
		c-1.1-0.6-1.5-2-0.9-3.1s2-1.5,3.1-0.9c4.3,2.4,6.9,6.9,6.9,11.8v1.6C-1485.4,2416.8-1486.4,2417.8-1487.7,2417.8z M-1506.7,2404.9
		h-13.5c-1.3,0-2.3-1-2.3-2.3s1-2.3,2.3-2.3h13.5c1.3,0,2.3,1,2.3,2.3C-1504.4,2403.9-1505.4,2404.9-1506.7,2404.9z M-1533.8,2404.9
		h-13.5c-1.3,0-2.3-1-2.3-2.3s1-2.3,2.3-2.3h13.5c1.3,0,2.3,1,2.3,2.3S-1532.5,2404.9-1533.8,2404.9z M-1560.8,2404.9h-13.5
		c-1.3,0-2.3-1-2.3-2.3s1-2.3,2.3-2.3h13.5c1.3,0,2.3,1,2.3,2.3C-1558.6,2403.9-1559.6,2404.9-1560.8,2404.9z M-1587.9,2404.9h-13.5
		c-1.3,0-2.3-1-2.3-2.3s1-2.3,2.3-2.3h13.5c1.3,0,2.3,1,2.3,2.3S-1586.6,2404.9-1587.9,2404.9z M-1615,2404.9h-13.5
		c-1.3,0-2.3-1-2.3-2.3s1-2.3,2.3-2.3h13.5c1.3,0,2.3,1,2.3,2.3S-1613.7,2404.9-1615,2404.9z M-1642,2404.9h-13.6
		c-1.3,0-2.3-1-2.3-2.3s1-2.3,2.3-2.3h13.5c1.3,0,2.3,1,2.3,2.3C-1639.7,2403.9-1640.8,2404.9-1642,2404.9z M-1669.1,2404.9h-13.5
		c-1.3,0-2.3-1-2.3-2.3s1-2.3,2.3-2.3h13.5c1.3,0,2.3,1,2.3,2.3C-1666.8,2403.9-1667.8,2404.9-1669.1,2404.9z"/>
</g>
<g>
	<path class="st2" d="M-625.4,3430.1h-12.3c-1.1,0-2-0.9-2-2s0.9-2,2-2h12.2c1.1,0,2.1,0.9,2.1,2
		C-623.4,3429.2-624.2,3430.1-625.4,3430.1z M-649.9,3430.1h-12.2c-1.1,0-2-0.9-2-2s0.9-2,2-2h12.2c1.1,0,2,0.9,2,2
		C-647.9,3429.2-648.8,3430.1-649.9,3430.1z M-674.4,3430.1h-12.2c-1.1,0-2-0.9-2-2s0.9-2,2-2h12.2c1.1,0,2,0.9,2,2
		C-672.3,3429.2-673.2,3430.1-674.4,3430.1z M-726.2,3497.7h-34.4c-1.5,0-2.8-1.2-2.8-2.8c0-1.5,1.2-2.8,2.8-2.8h34.4
		c1.5,0,2.8,1.2,2.8,2.8C-723.5,3496.5-724.7,3497.7-726.2,3497.7z M-777.4,3497.7h-16.7c-1.5,0-2.8-1.2-2.8-2.8
		c0-1.5,1.2-2.8,2.8-2.8h16.7c1.5,0,2.8,1.2,2.8,2.8S-775.8,3497.7-777.4,3497.7z M-810.9,3497.7h-16.7c-1.5,0-2.8-1.2-2.8-2.8
		c0-1.5,1.2-2.8,2.8-2.8h16.7c1.5,0,2.8,1.2,2.8,2.8S-809.3,3497.7-810.9,3497.7z M-844.3,3497.7H-861c-1.5,0-2.8-1.2-2.8-2.8
		c0-1.5,1.2-2.8,2.8-2.8h16.7c1.5,0,2.8,1.2,2.8,2.8C-841.6,3496.5-842.8,3497.7-844.3,3497.7z M-877.8,3497.7h-16.8
		c-1.5,0-2.8-1.2-2.8-2.8c0-1.5,1.2-2.8,2.8-2.8h16.7c1.5,0,2.8,1.2,2.8,2.8S-876.3,3497.7-877.8,3497.7z M-911.3,3497.7H-928
		c-1.5,0-2.8-1.2-2.8-2.8c0-1.5,1.2-2.8,2.8-2.8h16.7c1.5,0,2.8,1.2,2.8,2.8S-909.8,3497.7-911.3,3497.7z M-944.8,3497.7H-961
		c-0.2,0-0.5,0-0.7,0c-1.5-0.1-2.7-1.4-2.6-2.9s1.3-2.7,2.9-2.6c0.1,0,0.3,0,0.4,0h16.2c1.5,0,2.8,1.2,2.8,2.8
		C-942,3496.5-943.3,3497.7-944.8,3497.7z M-617.4,3422.3C-617.5,3422.3-617.5,3422.3-617.4,3422.3c-1.2,0-2.1-1-2-2.1v-0.2v-12
		c0-1.1,0.9-2,2-2s2,0.9,2,2v12.3C-615.5,3421.4-616.4,3422.3-617.4,3422.3z M-971.9,3486.7c-1.5,0-2.8-1.2-2.8-2.8v-16.7
		c0-1.5,1.2-2.8,2.8-2.8c1.5,0,2.8,1.2,2.8,2.8v16.7C-969.2,3485.4-970.4,3486.7-971.9,3486.7z M-617.4,3397.9c-1.1,0-2-0.9-2-2
		v-12.2c0-1.1,0.9-2,2-2s2,0.9,2,2v12.2C-615.4,3396.9-616.3,3397.9-617.4,3397.9z M-971.9,3453.2c-1.5,0-2.8-1.2-2.8-2.8v-16.7
		c0-1.5,1.2-2.8,2.8-2.8c1.5,0,2.8,1.2,2.8,2.8v16.7C-969.2,3452-970.4,3453.2-971.9,3453.2z M-617.4,3373.4c-1.1,0-2-0.9-2-2v-12.2
		c0-1.1,0.9-2,2-2s2,0.9,2,2v12.2C-615.4,3372.5-616.3,3373.4-617.4,3373.4z M-971.9,3419.7c-1.5,0-2.8-1.2-2.8-2.8v-16.3
		c0-0.2,0-0.4,0-0.5c0.1-1.5,1.3-2.7,2.9-2.7c1.5,0.1,2.7,1.4,2.7,2.9v0.3v16.3C-969.2,3418.5-970.4,3419.7-971.9,3419.7z
		 M-625.1,3353.1L-625.1,3353.1h-0.4h-11.9c-1.1,0-2-0.9-2-2s0.9-2,2-2h11.9c0.2,0,0.3,0,0.5,0c1.1,0,2,1,1.9,2.1
		C-623.1,3352.3-624,3353.1-625.1,3353.1z M-649.5,3353.1h-12.2c-1.1,0-2-0.9-2-2s0.9-2,2-2h12.2c1.1,0,2,0.9,2,2
		C-647.5,3352.2-648.4,3353.1-649.5,3353.1z M-674,3353.1h-12.2c-1.1,0-2-0.9-2-2s0.9-2,2-2h12.2c1.1,0,2,0.9,2,2
		C-672,3352.2-672.9,3353.1-674,3353.1z M-725.7,3392.4h-34.4c-1.5,0-2.8-1.2-2.8-2.8c0-1.5,1.2-2.8,2.8-2.8h34.4
		c1.5,0,2.8,1.2,2.8,2.8C-723,3391.2-724.2,3392.4-725.7,3392.4z M-776.9,3392.4h-16.7c-1.5,0-2.8-1.2-2.8-2.8
		c0-1.5,1.2-2.8,2.8-2.8h16.7c1.5,0,2.8,1.2,2.8,2.8S-775.3,3392.4-776.9,3392.4z M-810.3,3392.4H-827c-1.5,0-2.8-1.2-2.8-2.8
		c0-1.5,1.2-2.8,2.8-2.8h16.7c1.5,0,2.8,1.2,2.8,2.8C-807.6,3391.2-808.8,3392.4-810.3,3392.4z M-843.8,3392.4h-16.8
		c-1.5,0-2.8-1.2-2.8-2.8c0-1.5,1.2-2.8,2.8-2.8h16.7c1.5,0,2.8,1.2,2.8,2.8S-842.3,3392.4-843.8,3392.4z M-877.3,3392.4H-894
		c-1.5,0-2.8-1.2-2.8-2.8c0-1.5,1.2-2.8,2.8-2.8h16.7c1.5,0,2.8,1.2,2.8,2.8S-875.8,3392.4-877.3,3392.4z M-910.8,3392.4h-16.7
		c-1.5,0-2.8-1.2-2.8-2.8c0-1.5,1.2-2.8,2.8-2.8h16.7c1.5,0,2.8,1.2,2.8,2.8S-909.3,3392.4-910.8,3392.4z M-944.3,3392.4H-961
		c-1.5,0-2.8-1.2-2.8-2.8c0-1.5,1.2-2.8,2.7-2.8h16.7c1.5,0,2.8,1.2,2.8,2.8C-941.5,3391.2-942.8,3392.4-944.3,3392.4z"/>
</g>
<g>
	<path class="st2" d="M-1590.4,3345h-12.2c-1.1,0-2-0.9-2-2s0.9-2,2-2h12.1c1.1,0,2.1,0.9,2.1,2S-1589.3,3345-1590.4,3345z
		 M-1614.8,3345h-12.1c-1.1,0-2-0.9-2-2s0.9-2,2-2h12.1c1.1,0,2,0.9,2,2C-1612.7,3344.1-1613.6,3345-1614.8,3345z M-1639,3345h-12.1
		c-1.1,0-2-0.9-2-2s0.9-2,2-2h12.1c1.1,0,2,0.9,2,2S-1637.9,3345-1639,3345z M-1663.3,3345h-12.1c-1.1,0-2-0.9-2-2s0.9-2,2-2h12.1
		c1.1,0,2,0.9,2,2C-1661.2,3344.1-1662.1,3345-1663.3,3345z M-1687.5,3345h-12.1c-1.1,0-2-0.9-2-2s0.9-2,2-2h12.1c1.1,0,2,0.9,2,2
		S-1686.4,3345-1687.5,3345z M-1711.7,3345h-12.1c-1.1,0-2-0.9-2-2s0.9-2,2-2h12.1c1.1,0,2,0.9,2,2S-1710.6,3345-1711.7,3345z
		 M-1736,3345h-12.1c-1.1,0-2-0.9-2-2s0.9-2,2-2h12.1c1.1,0,2,0.9,2,2S-1734.9,3345-1736,3345z M-1760.2,3345h-12.1
		c-1.1,0-2-0.9-2-2s0.9-2,2-2h12.1c1.1,0,2,0.9,2,2S-1759.1,3345-1760.2,3345z M-1784.5,3345h-12.1c-1.1,0-2-0.9-2-2s0.9-2,2-2h12.1
		c1.1,0,2,0.9,2,2S-1783.4,3345-1784.5,3345z M-1808.7,3345h-12.1c-1.1,0-2-0.9-2-2s0.9-2,2-2h12.1c1.1,0,2,0.9,2,2
		S-1807.6,3345-1808.7,3345z M-1833,3345h-12.1c-1.1,0-2-0.9-2-2s0.9-2,2-2h12.1c1.1,0,2,0.9,2,2S-1831.9,3345-1833,3345z
		 M-1857.2,3345h-12.1c-1.1,0-2-0.9-2-2s0.9-2,2-2h12.1c1.1,0,2,0.9,2,2S-1856.1,3345-1857.2,3345z M-1881.5,3345h-12.1
		c-1.1,0-2-0.9-2-2s0.9-2,2-2h12.1c1.1,0,2,0.9,2,2S-1880.4,3345-1881.5,3345z M-1905.7,3345h-12.1c-1.1,0-2-0.9-2-2s0.9-2,2-2h12.1
		c1.1,0,2,0.9,2,2S-1904.6,3345-1905.7,3345z M-1930,3345h-12.1c-1.1,0-2-0.9-2-2s0.9-2,2-2h12.1c1.1,0,2,0.9,2,2
		C-1927.9,3344.1-1928.9,3345-1930,3345z M-1954.2,3345h-9.7c-0.9,0-1.8-0.1-2.7-0.2c-1.1-0.1-1.9-1.1-1.8-2.2
		c0.1-1.1,1.1-1.9,2.2-1.8c0.7,0.1,1.5,0.1,2.2,0.1h9.7c1.1,0,2,0.9,2,2C-1952.2,3344.1-1953.1,3345-1954.2,3345z M-1579,3341.5
		c-0.7,0-1.3-0.3-1.7-0.9c-0.6-0.9-0.4-2.2,0.6-2.8c3.1-2.1,5.4-4.9,6.8-8.3c0.4-1,1.6-1.5,2.6-1.1s1.5,1.6,1.1,2.6
		c-1.7,4.1-4.6,7.6-8.3,10.1C-1578.2,3341.4-1578.6,3341.5-1579,3341.5z M-1977.3,3340.1c-0.5,0-0.9-0.2-1.3-0.5
		c-3.4-2.9-5.9-6.7-7.1-11c-0.3-1.1,0.3-2.2,1.4-2.5s2.2,0.3,2.5,1.4c1,3.5,3,6.7,5.8,9.1c0.9,0.7,1,2,0.2,2.9
		C-1976.1,3339.9-1976.7,3340.1-1977.3,3340.1z M-1569.9,3320.4c-1.1,0-2-0.9-2-2v-12.1c0-1.1,0.9-2,2-2s2,0.9,2,2v12.1
		C-1567.8,3319.5-1568.7,3320.4-1569.9,3320.4z M-1984.5,3318c-1.1,0-2-0.9-2-2v-12.1c0-1.1,0.9-2,2-2s2,0.9,2,2v12.1
		C-1982.5,3317.1-1983.4,3318-1984.5,3318z M-1569.9,3296.1c-1.1,0-2-0.9-2-2V3282c0-1.1,0.9-2,2-2s2,0.9,2,2v12.1
		C-1567.8,3295.2-1568.7,3296.1-1569.9,3296.1z M-1984.5,3293.8c-1.1,0-2-0.9-2-2v-12.1c0-1.1,0.9-2,2-2s2,0.9,2,2v12.1
		C-1982.5,3292.9-1983.4,3293.8-1984.5,3293.8z M-1569.9,3271.9c-1.1,0-2-0.9-2-2v-12.1c0-1.1,0.9-2,2-2s2,0.9,2,2v12.1
		C-1567.8,3271-1568.7,3271.9-1569.9,3271.9z M-1984.5,3269.5c-1.1,0-2-0.9-2-2v-12.1c0-1.1,0.9-2,2-2s2,0.9,2,2v12.1
		C-1982.5,3268.6-1983.4,3269.5-1984.5,3269.5z M-1569.9,3247.6c-1.1,0-2-0.9-2-2v-12.1c0-1.1,0.9-2,2-2s2,0.9,2,2v12.1
		C-1567.8,3246.7-1568.7,3247.6-1569.9,3247.6z M-1984.5,3245.3c-1.1,0-2-0.9-2-2v-12.1c0-1.1,0.9-2,2-2s2,0.9,2,2v12.1
		C-1982.5,3244.4-1983.4,3245.3-1984.5,3245.3z M-1569.9,3223.4c-1.1,0-2-0.9-2-2v-12.1c0-1.1,0.9-2,2-2s2,0.9,2,2v12.1
		C-1567.8,3222.5-1568.7,3223.4-1569.9,3223.4z M-1984.5,3221c-1.1,0-2-0.9-2-2v-12.1c0-1.1,0.9-2,2-2s2,0.9,2,2v12.1
		C-1982.5,3220.1-1983.4,3221-1984.5,3221z M-1569.9,3199.1c-1.1,0-2-0.9-2-2V3185c0-1.1,0.9-2,2-2s2,0.9,2,2v12.1
		C-1567.8,3198.2-1568.7,3199.1-1569.9,3199.1z M-1984.5,3196.8c-1.1,0-2-0.9-2-2v-12.1c0-1.1,0.9-2,2-2s2,0.9,2,2v12.1
		C-1982.5,3195.9-1983.4,3196.8-1984.5,3196.8z M-1569.9,3174.9c-1.1,0-2-0.9-2-2v-12.1c0-1.1,0.9-2,2-2s2,0.9,2,2v12.1
		C-1567.8,3174-1568.7,3174.9-1569.9,3174.9z M-1984.5,3172.5c-1.1,0-2-0.9-2-2v-12.1c0-1.1,0.9-2,2-2s2,0.9,2,2v12.1
		C-1982.5,3171.6-1983.4,3172.5-1984.5,3172.5z M-1569.9,3150.6c-1.1,0-2-0.9-2-2v-12.1c0-1.1,0.9-2,2-2s2,0.9,2,2v12.1
		C-1567.8,3149.7-1568.7,3150.6-1569.9,3150.6z M-1984.5,3148.3c-1.1,0-2-0.9-2-2v-12.1c0-1.1,0.9-2,2-2s2,0.9,2,2v12.1
		C-1982.5,3147.4-1983.4,3148.3-1984.5,3148.3z M-1569.9,3126.4c-1.1,0-2-0.9-2-2v-12.1c0-1.1,0.9-2,2-2s2,0.9,2,2v12.1
		C-1567.8,3125.5-1568.7,3126.4-1569.9,3126.4z M-1984.5,3124c-1.1,0-2-0.9-2-2v-12.1c0-1.1,0.9-2,2-2s2,0.9,2,2v12.1
		C-1982.5,3123.1-1983.4,3124-1984.5,3124z M-1569.9,3102.2c-1.1,0-2-0.9-2-2v-12.1c0-1.1,0.9-2,2-2s2,0.9,2,2v12.1
		C-1567.8,3101.2-1568.7,3102.2-1569.9,3102.2z M-1984.5,3099.8c-1.1,0-2-0.9-2-2v-12.1c0-1.1,0.9-2,2-2s2,0.9,2,2v12.1
		C-1982.5,3098.9-1983.4,3099.8-1984.5,3099.8z M-1569.9,3077.9c-1.1,0-2-0.9-2-2v-12.1c0-1.1,0.9-2,2-2s2,0.9,2,2v12.1
		C-1567.8,3077-1568.7,3077.9-1569.9,3077.9z M-1984.5,3075.5c-1.1,0-2-0.9-2-2v-12.1c0-1.1,0.9-2,2-2s2,0.9,2,2v12.1
		C-1982.5,3074.6-1983.4,3075.5-1984.5,3075.5z M-1570.7,3053.7c-0.9,0-1.7-0.6-1.9-1.5c-1-3.5-3-6.7-5.9-9c-0.9-0.7-1-2-0.2-2.9
		c0.7-0.9,2-1,2.9-0.2c3.4,2.9,5.9,6.7,7.1,11c0.3,1.1-0.3,2.2-1.4,2.5C-1570.3,3053.7-1570.5,3053.7-1570.7,3053.7z M-1983,3051.5
		c-0.3,0-0.5-0.1-0.8-0.2c-1-0.4-1.5-1.6-1.1-2.6c1.7-4.1,4.6-7.6,8.3-10.1c0.9-0.6,2.2-0.4,2.8,0.6c0.6,0.9,0.4,2.2-0.6,2.8
		c-3.1,2-5.4,4.9-6.9,8.3C-1981.4,3051-1982.2,3051.5-1983,3051.5z M-1588.1,3039c-0.1,0-0.2,0-0.2,0c-0.7-0.1-1.4-0.1-2.2-0.1h-9.7
		c-1.1,0-2-0.9-2-2s0.9-2,2-2h9.7c0.9,0,1.8,0.1,2.6,0.1c1.1,0.1,1.9,1.1,1.8,2.2C-1586.2,3038.2-1587.1,3039-1588.1,3039z
		 M-1612.4,3038.8h-12.1c-1.1,0-2-0.9-2-2s0.9-2,2-2h12.1c1.1,0,2,0.9,2,2C-1610.3,3037.9-1611.2,3038.8-1612.4,3038.8z
		 M-1636.6,3038.8h-12.1c-1.1,0-2-0.9-2-2s0.9-2,2-2h12.1c1.1,0,2,0.9,2,2C-1634.6,3037.9-1635.5,3038.8-1636.6,3038.8z
		 M-1660.9,3038.8h-12.1c-1.1,0-2-0.9-2-2s0.9-2,2-2h12.1c1.1,0,2,0.9,2,2C-1658.8,3037.9-1659.7,3038.8-1660.9,3038.8z
		 M-1685.1,3038.8h-12.1c-1.1,0-2-0.9-2-2s0.9-2,2-2h12.1c1.1,0,2,0.9,2,2C-1683.1,3037.9-1684,3038.8-1685.1,3038.8z
		 M-1709.3,3038.8h-12.1c-1.1,0-2-0.9-2-2s0.9-2,2-2h12.1c1.1,0,2,0.9,2,2C-1707.3,3037.9-1708.2,3038.8-1709.3,3038.8z
		 M-1733.6,3038.8h-12.1c-1.1,0-2-0.9-2-2s0.9-2,2-2h12.1c1.1,0,2,0.9,2,2C-1731.6,3037.9-1732.5,3038.8-1733.6,3038.8z
		 M-1757.8,3038.8h-12.1c-1.1,0-2-0.9-2-2s0.9-2,2-2h12.1c1.1,0,2,0.9,2,2C-1755.8,3037.9-1756.7,3038.8-1757.8,3038.8z
		 M-1782.1,3038.8h-12.1c-1.1,0-2-0.9-2-2s0.9-2,2-2h12.1c1.1,0,2,0.9,2,2C-1780.1,3037.9-1781,3038.8-1782.1,3038.8z
		 M-1806.3,3038.8h-12.1c-1.1,0-2-0.9-2-2s0.9-2,2-2h12.1c1.1,0,2,0.9,2,2C-1804.3,3037.9-1805.2,3038.8-1806.3,3038.8z
		 M-1830.6,3038.8h-12.1c-1.1,0-2-0.9-2-2s0.9-2,2-2h12.1c1.1,0,2,0.9,2,2C-1828.6,3037.9-1829.5,3038.8-1830.6,3038.8z
		 M-1854.8,3038.8h-12.1c-1.1,0-2-0.9-2-2s0.9-2,2-2h12.1c1.1,0,2,0.9,2,2C-1852.8,3037.9-1853.7,3038.8-1854.8,3038.8z
		 M-1879.1,3038.8h-12.1c-1.1,0-2-0.9-2-2s0.9-2,2-2h12.1c1.1,0,2,0.9,2,2C-1877,3037.9-1878,3038.8-1879.1,3038.8z M-1903.3,3038.8
		h-12.1c-1.1,0-2-0.9-2-2s0.9-2,2-2h12.1c1.1,0,2,0.9,2,2C-1901.3,3037.9-1902.2,3038.8-1903.3,3038.8z M-1927.6,3038.8h-12.1
		c-1.1,0-2-0.9-2-2s0.9-2,2-2h12.1c1.1,0,2,0.9,2,2C-1925.5,3037.9-1926.4,3038.8-1927.6,3038.8z M-1951.8,3038.8h-12.1
		c-1.1,0-2-0.9-2-2s0.9-2,2-2h12.1c1.1,0,2,0.9,2,2C-1949.8,3037.9-1950.7,3038.8-1951.8,3038.8z"/>
</g>
<path class="st2" d="M-1464.3,2973.4h-506.6c-6,0-10.9-4.9-10.9-10.9v-284.4c0-6,4.9-10.9,10.9-10.9h506.6c6,0,10.9,4.9,10.9,10.9
	v284.5C-1453.4,2968.6-1458.3,2973.4-1464.3,2973.4z"/>
<path class="st1" d="M-1777.2,2759.6v121.5c0,7.6,8.4,12.1,14.8,8l92.3-60.7c5.7-3.8,5.7-12.2,0-15.9l-92.3-60.7
	C-1768.8,2747.4-1777.2,2752-1777.2,2759.6z"/>
<g>
	<path class="st4" d="M-1954.3,2945.8c0-5.2,4.2-9.5,9.5-9.5c5.2,0,9.5,4.2,9.5,9.5c0,5.2-4.2,9.5-9.5,9.5
		C-1950,2955.3-1954.3,2951-1954.3,2945.8z"/>
	<path class="st4" d="M-1513.4,2948.4h-428.8c-1.4,0-2.6-1.1-2.6-2.6l0,0c0-1.4,1.1-2.6,2.6-2.6h428.8c1.4,0,2.6,1.1,2.6,2.6l0,0
		C-1510.9,2947.2-1512,2948.4-1513.4,2948.4z"/>
</g>
<rect x="-1487.7" y="3036.8" class="st2" width="273.3" height="408"/>
<g>
	<path class="st2" d="M-264.3,2344.5h-94.4c-4,0-7.2-3.2-7.2-7.2l0,0c0-4,3.2-7.2,7.2-7.2h94.4c4,0,7.2,3.2,7.2,7.2l0,0
		C-257.1,2341.3-260.3,2344.5-264.3,2344.5z"/>
	<path class="st2" d="M-264.3,2372.7h-94.4c-4,0-7.2-3.2-7.2-7.2l0,0c0-4,3.2-7.2,7.2-7.2h94.4c4,0,7.2,3.2,7.2,7.2l0,0
		C-257.1,2369.5-260.3,2372.7-264.3,2372.7z"/>
	<path class="st2" d="M-264.3,2401.6h-94.4c-4,0-7.2-3.2-7.2-7.2l0,0c0-4,3.2-7.2,7.2-7.2h94.4c4,0,7.2,3.2,7.2,7.2l0,0
		C-257.1,2398.4-260.3,2401.6-264.3,2401.6z"/>
</g>
<path class="st1" d="M-424,3035.9h-412.8c-9.1,0-16.6-5.9-16.6-13.1l0,0c0-7.2,7.5-13.1,16.6-13.1H-424c9.1,0,16.6,5.9,16.6,13.1
	l0,0C-407.3,3030-414.8,3035.9-424,3035.9z"/>
<path class="st2" d="M-1733,2425.7h-224.8c-5.3,0-9.6-4.3-9.6-9.6l0,0c0-5.3,4.3-9.6,9.6-9.6h224.8c5.3,0,9.6,4.3,9.6,9.6l0,0
	C-1723.4,2421.4-1727.7,2425.7-1733,2425.7z"/>
<path class="st1" d="M-424,3165.9h-412.8c-9.1,0-16.6-5.9-16.6-13.1l0,0c0-7.2,7.5-13.1,16.6-13.1H-424c9.1,0,16.6,5.9,16.6,13.1
	l0,0C-407.3,3160-414.8,3165.9-424,3165.9z"/>
<path class="st1" d="M-446.4,3100.9h-467c13.2,0,5.7-5.9,5.7-13.1l0,0c0-7.2,7.5-13.1-5.7-13.1h467c31.5,0,38.9,5.9,38.9,13.1l0,0
	C-407.3,3095-414.8,3100.9-446.4,3100.9z"/>
<g>
	<path class="st2" d="M-1796.6,2485.9h-133.1c-2.3,0-4.1-1.9-4.1-4.1v-10.9c0-2.3,1.9-4.1,4.1-4.1h133.1c2.3,0,4.1,1.9,4.1,4.1v10.9
		C-1792.4,2484-1794.3,2485.9-1796.6,2485.9z"/>
	<path class="st2" d="M-1975.9,2476.3c0-5.3,4.3-9.6,9.6-9.6c5.3,0,9.6,4.3,9.6,9.6s-4.3,9.6-9.6,9.6
		C-1971.6,2485.9-1975.9,2481.6-1975.9,2476.3z"/>
</g>
<g>
	<path class="st2" d="M-1772.2,2523.9h-157.2c-2.5,0-4.5-2-4.5-4.5v-10.2c0-2.5,2-4.5,4.5-4.5h157.2c2.5,0,4.5,2,4.5,4.5v10.2
		C-1767.7,2521.9-1769.8,2523.9-1772.2,2523.9z"/>
	<path class="st2" d="M-1975.9,2514.4c0-5.3,4.3-9.6,9.6-9.6c5.3,0,9.6,4.3,9.6,9.6s-4.3,9.6-9.6,9.6
		C-1971.6,2523.9-1975.9,2519.7-1975.9,2514.4z"/>
</g>
<g>
	<path class="st2" d="M-1796.6,2565.3h-133.1c-2.3,0-4.1-1.9-4.1-4.1v-10.9c0-2.3,1.9-4.1,4.1-4.1h133.1c2.3,0,4.1,1.9,4.1,4.1v10.9
		C-1792.4,2563.4-1794.3,2565.3-1796.6,2565.3z"/>
	<path class="st2" d="M-1975.9,2555.7c0-5.3,4.3-9.6,9.6-9.6c5.3,0,9.6,4.3,9.6,9.6s-4.3,9.6-9.6,9.6S-1975.9,2561-1975.9,2555.7z"
		/>
</g>
<g>
	<path class="st2" d="M-2710.3,1376.4L-2710.3,1376.4c-4.3,0-8.8-3.1-10.1-7l-259.4-789.8c-1.3-3.9,1.2-7,5.5-7l0,0
		c4.3,0,8.8,3.1,10.1,7l259.4,789.8C-2703.5,1373.3-2706,1376.4-2710.3,1376.4z"/>
	<path class="st2" d="M-2501.2,1375.2L-2501.2,1375.2c-4.3,0-8.8-3.1-10.1-7l-259.4-789.8c-1.3-3.9,1.2-7,5.5-7l0,0
		c4.3,0,8.8,3.1,10.1,7l259.4,789.8C-2494.4,1372-2496.9,1375.2-2501.2,1375.2z"/>
	<path class="st2" d="M-2726.3,688.5l-209.9,1.2c-4,0-8.3-2.9-9.5-6.6l0,0c-1.2-3.6,1.1-6.6,5.2-6.6l209.9-1.2c4,0,8.3,2.9,9.5,6.6
		l0,0C-2719.9,685.5-2722.3,688.5-2726.3,688.5z"/>
	<path class="st2" d="M-2681,826.4l-209.9,1.2c-4,0-8.3-2.9-9.5-6.6l0,0c-1.2-3.6,1.1-6.6,5.2-6.6l209.9-1.2c4,0,8.3,2.9,9.5,6.6
		l0,0C-2674.6,823.4-2677,826.4-2681,826.4z"/>
	<path class="st2" d="M-2637.4,959.2l-209.9,1.2c-4,0-8.3-2.9-9.5-6.6l0,0c-1.2-3.6,1.1-6.6,5.2-6.6l209.9-1.2c4,0,8.3,2.9,9.5,6.6
		l0,0C-2631,956.2-2633.3,959.2-2637.4,959.2z"/>
	<path class="st2" d="M-2588.3,1108.7l-209.9,1.2c-4,0-8.3-2.9-9.5-6.6l0,0c-1.2-3.6,1.1-6.6,5.2-6.6l209.9-1.2c4,0,8.3,2.9,9.5,6.6
		l0,0C-2581.9,1105.7-2584.2,1108.7-2588.3,1108.7z"/>
	<path class="st2" d="M-2536.9,1265.2l-209.9,1.2c-4,0-8.3-2.9-9.5-6.6l0,0c-1.2-3.6,1.1-6.6,5.2-6.6l209.9-1.2c4,0,8.3,2.9,9.5,6.6
		l0,0C-2530.5,1262.2-2532.8,1265.2-2536.9,1265.2z"/>
</g>
<g>
	<path class="st4" d="M-3014.7,210.6L-3014.7,210.6c-1.6,0.3-3.3-0.8-3.6-2.4l-3.4-17.4c-0.3-1.6,0.8-3.3,2.4-3.6l0,0
		c1.6-0.3,3.3,0.8,3.6,2.4l3.4,17.4C-3012,208.6-3013.1,210.2-3014.7,210.6z"/>
	
		<rect x="-3023.5" y="157.9" transform="matrix(0.9818 -0.19 0.19 0.9818 -87.4717 -571.1453)" class="st4" width="2.1" height="25.5"/>
	<path class="st5" d="M-3023.9,16.6c0,0-2-17.3-6.2-23.9c-4.2-6.6-20-10.8-21-9.9c-3.1,3,9.2,13.6,9.6,17.5c0.5,3.9-6.2,1.2-3,8.8
		c2.7,6.4,11.7,14.8,11.7,14.8L-3023.9,16.6z"/>
	<path class="st6" d="M-3031.5,14.6c5.8-4.5,7-4.4,7-4.4s53.4,46.2,58.6,50.4c5.2,4.1,85.4,27.4,85.4,27.4l12.7,65.2
		c0,0-108.5-52.4-121.4-63.1c-21.4-17.7-48.4-67.1-48.4-67.1S-3036.1,18.2-3031.5,14.6z"/>
	<path class="st2" d="M-2878.9,641c0,0-0.9,22.3-5.2,27.7l-59.5,0.3c0.4-2.3,0.7-7.6,8.9-9c10.4-1.8,22.6-9.1,28.9-22.8
		C-2899.1,622.7-2878.9,641-2878.9,641z"/>
	<path class="st2" d="M-2762.1,637.8c0,0,4.1,29.6-1.5,30.1c-0.7,0.1-24,0.4-34,0.6c-11.8,0.2-31.3-0.2-31.3-0.2
		c-2.4,0.1-4-2.5-2.8-4.7c1.4-2.3,4-4.8,8.9-5.7c10.4-2,27.6-9.6,33.7-23.5C-2782.7,619.9-2762.1,637.8-2762.1,637.8z"/>
	<path class="st3" d="M-2909.8,334.6c0,0,16.5,57.9,64,158.4c47.4,100.5,49.5,149,49.5,149s7.2,2.5,16.7,1.5
		c10.3-1.1,17.6-5.7,17.6-5.7s-3.1-119.7-25.5-170.4c-22.4-50.7-27-189.6-27-189.6L-2909.8,334.6z"/>
	<path class="st7" d="M-2936.4,284.7c0,0-1.3,89.6,14.2,199.7s8.3,161.3,8.3,161.3s4.1,3,16.8,2.9c14.8-0.1,22.4-6.2,22.4-6.2
		s22.2-110.1,15.8-165.2s30.4-189.1,30.4-189.1L-2936.4,284.7z"/>
	<path class="st5" d="M-2863.1,75l-17.5,13l-25.3-5.3c0.4-2.3,2-11.9,3.5-20.5c0.1-0.5,0.2-1,0.3-1.5c1.3-7.4,2.4-13.7,2.4-13.7
		l23.7-11.8l8.8-4.4c0,0.2-0.7,8.2-0.8,9.4C-2869.6,60.8-2863.1,75-2863.1,75z"/>
	<path class="st8" d="M-2812.9,295.8c-5.7,26.2-128.3,14.7-126.7-1.3c0.1-0.5,0.4-7.9,0.8-17.9c0.9-21.6,2.3-55.3,2.5-57.9v-0.1
		c2.2-22.3,4.3-44.1,4.5-58.3c0.1-12.3,1.8-25,4.1-36.4c2.1-10.6,4.6-20.2,6.9-27.6c1.6-5.3,4.5-9.9,8.4-13.5c2.8-2.6,6-4.7,9.6-6.1
		c1-0.4,2-0.7,3-1c14.4-4.2,34.4-9.4,39.8-7.8c14.7,4.3,25.5,30.1,33.3,63C-2812.5,192.3-2809.1,278.7-2812.9,295.8z"/>
	<path class="st9" d="M-2869.7,40.4c-5.2,9.9-24.5,18.5-32.6,21.7c0.1-0.5,0.2-1,0.3-1.5c1.3-7.4,2.4-13.7,2.4-13.7l23.7-11.8
		C-2870.8,35-2867.6,36.3-2869.7,40.4z"/>
	<path class="st5" d="M-2911.1,45.4c0,0,42.7,13.3,50.5-13.4c7.9-26.7,18.7-43-8.2-52.6s-35.2-1-40,7.3
		C-2913.6-5-2922,41.3-2911.1,45.4z"/>
	<path class="st10" d="M-2907.2-15.9c0,0,2.7,31.1,9.1,29.7c6.4-1.3,12.3-2.3,11.3,7c-0.9,9.4-9.9,20.2,10,21.8
		c19.8,1.7,48.3-49.4,42.8-59.1C-2849.6-44.3-2929.9-49.9-2907.2-15.9z"/>
	<path class="st11" d="M-2938.8,276.6c0.9-21.6,2.3-55.3,2.5-57.9v-0.1l72.4-43.3C-2863.8,175.2-2861,276.3-2938.8,276.6z"/>
	<path class="st5" d="M-2996.4,186c0,0-14.7-10-17.5-10.8c-2.8-0.9-11.9-1.8-12.4-1.1c-0.4,0.7-1.7,2.9-0.1,3.7c1.6,0.8,3.6,0.5,3,1
		c-0.6,0.5-6.6-2.3-8,0.7c-1.4,3.1-2.6,13.6,4.5,16.8c7.1,3.2,24.5,0.3,25.7,0.7C-2990.5,200-2996.4,186-2996.4,186z"/>
	<path class="st6" d="M-2996.5,183.3c0,0,71.8,12.2,78.2,9.1c10.2-4.9-3.9-77.8-3.9-77.8s-0.6-16.5,18.7-20.4
		c16.8-3.4,33,9.2,33,9.2s14.7,13.2,12.8,27.8c-4.2,32.4-10.7,98.2-32.3,108.3c-27.9,13-108.7-36.1-108.7-36.1s-2.7-3.3-2.3-9.4
		C-3000.8,188.5-2996.5,183.3-2996.5,183.3z"/>
	<path class="st5" d="M-3044.8,8.3c0,0-4.6-9.1-5.3-10.9c-0.7-1.7,1.1-1.3,2.8-0.4c1.8,1,4.2,6.3,6.9,5.6
		C-3038.2,2.2-3044.8,8.3-3044.8,8.3z"/>
</g>
<g id="freepik--Shadow--inject-243">
	<ellipse id="freepik--path--inject-243" class="st12" cx="-2386.6" cy="1211.5" rx="635.1" ry="37"/>
</g>
<g>
	<g>
		<path class="st13" d="M550.1,1163.7l-82,50.3h-0.2l-31.1-19.2c-5.4-3.8-8.5-10.7-7.5-17.6l11.5-63.8l81.7-50.3l-11.5,63.8
			c-1,6.8,2,13.7,7.5,17.6L550.1,1163.7z"/>
		<polygon class="st14" points="440.9,1113.2 429.6,1176.6 511.3,1126.3 521.9,1067.8 516.8,1066.5 		"/>
		<path class="st14" d="M468.1,1213.9l-31.3-19.4c-5.4-3.8-8.5-10.7-7.5-17.6l11.5-63.8l-13.5-8.5l-13.1,73.1
			c-1.8,9.7,3.5,21.6,11.3,26.4l42.8,26.3L468.1,1213.9z"/>
		<polygon class="st7" points="550.1,1163.7 468.1,1213.9 468.1,1230.7 550.1,1180.4 		"/>
		<path class="st7" d="M630,749.7c4.1,3,6.7,7.9,6.8,13.1v267.3c-0.2,5.4-3,10.5-7.3,13.3l-313,192.4c-4.4,2.4-9.7,2.7-14.1,0.2
			c-4.1-3-6.7-7.9-6.8-13.1V955.8c0.2-5.4,3-10.5,7.3-13.3l313-192.4C620.4,747.5,625.6,747.5,630,749.7z"/>
		<path class="st14" d="M315.7,1236.7c-4.3,2-9.1,2-13.3-0.2c-4.1-3-6.7-7.9-6.8-13.1V955.9c0-2.7,0.8-5.2,2.2-7.6l13.5,8.5
			c-1.2,2.2-2,4.9-2.2,7.6v267.5C309.4,1236.4,312.3,1238.3,315.7,1236.7z"/>
		<path class="st13" d="M636.9,1030.4V762.9c0-4.9-3.2-6.8-7.3-4.4l-313,192.4c-4.3,3-7.1,7.9-7.3,13.3v267.3c0,4.9,3.2,6.8,7.3,4.4
			l313-192.4C633.9,1040.7,636.7,1035.8,636.9,1030.4z"/>
		<path class="st8" d="M618.9,772.2L320.2,956.1c-3.5,2.4-5.7,6.5-5.9,10.7v237.4c0,4.1,2.7,5.7,5.9,3.6l298.8-183.9
			c3.5-2.4,5.7-6.5,5.9-10.7V775.6C624.8,771.7,622.2,770.1,618.9,772.2z"/>
		<path class="st15" d="M614.1,811.8V1007c-0.2,3.8-2.2,7.5-5.2,9.7l-276.2,169.8c-0.6,0.4-1.2,0.6-2,0.6c-1.6,0-1.8-2-1.8-3V987
			L614.1,811.8 M615.7,808.9L327.4,986.2v198.1c0,2.8,1.4,4.6,3.5,4.6c1,0,1.8-0.4,2.7-0.8l276.2-170c3.6-2.4,5.9-6.7,6-11.1
			L615.7,808.9L615.7,808.9L615.7,808.9z"/>
		<path class="st13" d="M327.4,972.8c0.2-4.4,2.4-8.7,6-11.1L609.7,792c3.2-2,6-0.4,6,3.6v13.5L327.4,986.4V972.8z"/>
		<path class="st16" d="M581.6,816c-1.6,1.2-2.7,3-2.8,5.2c0,1.8,1.2,2.7,2.8,1.8c1.6-1.2,2.7-3,2.8-5.2
			C584.4,815.8,583.2,815,581.6,816z"/>
		<path class="st16" d="M591.5,809.9c-1.6,1.2-2.8,3.2-2.8,5.2c0,2,1.2,2.7,2.8,1.8c1.6-1.2,2.8-3,2.8-5.2
			C594.3,809.7,593.1,808.9,591.5,809.9z"/>
		<path class="st16" d="M601.6,803.9c-1.6,1.2-2.8,3-2.8,5.2c0,2,1.2,2.7,2.8,1.8c1.6-1.2,2.7-3,2.8-5.2
			C604.2,803.7,603,802.9,601.6,803.9z"/>
	</g>
</g>
<g>
	<path class="st17" d="M942.3,1052.5l6.7-110.5c1.8-30.5-12.1-60-37.4-78.5l-41-29.9l6,237L942.3,1052.5z"/>
	<path class="st8" d="M942.3,1052.5l6.7-110.5c1.8-30.5-12.1-60-37.4-78.5l-41-29.9l6,237L942.3,1052.5z"/>
	<path class="st18" d="M878.8,931.6c19.6,6.5,40,10.9,60.8,12.9c-9.7,7.1-22,10.1-33.9,8.1C893.9,949.6,884.2,941.9,878.8,931.6z"/>
	<path class="st14" d="M803,1906.4c-3.5,10.1-14.9,16-25.8,16.8c-11.1,0-22-1.4-32.7-4.1c-24.2-4.3-47.7,0-71.9-0.6
		c-7.9,0-16-0.8-23.6-2.4c-7.9-1.8-14.9-5.9-20.2-11.5c-3-3.5-5.1-7.6-5.9-12.3c-1,6.8,1.2,13.9,5.9,19.2
		c5.4,5.9,12.5,9.7,20.2,11.5c7.6,1.8,15.7,2.7,23.6,2.4c24.2,0.6,47.7-3.6,71.9,0.6c10.7,2.7,21.6,4.1,32.7,4.1
		c10.9-0.8,22.6-6.7,25.8-17c1-3.5,1.4-7.3,0.8-10.9C803.6,1903.8,803.4,1905.2,803,1906.4z"/>
	<path class="st13" d="M802.5,1887l-4.4-21.4c-0.6-3.8-1.8-7.5-3.8-10.9c-2-3.5-5.7-5.4-9.9-5.4c-13.3-1.8-31.9-6.5-43,1
		c-17.6,11.5-38.3,17.4-59.4,16.8c-10.9-0.4-22-2.7-32.9-1.2c-10.9,1.4-22.2,7.1-25.2,17.4c-0.8,3-1,6.3-0.6,9.3
		c0.8,4.4,2.8,8.7,5.9,12.3c5.4,5.9,12.5,9.9,20.2,11.5c7.6,1.8,15.7,2.7,23.6,2.4c24.2,0.6,47.7-3.6,71.9,0.6
		c10.7,2.7,21.6,4.1,32.7,4.1c10.9-0.8,22.6-6.7,25.8-16.8c0.4-1.2,0.6-2.7,0.8-4.1C804.2,1897.3,803.9,1892.1,802.5,1887z"/>
	<path class="st19" d="M738,1827.9l-1,27.9c-0.2,5.9,4.4,10.9,10.5,11.3c9.7,0.8,19.4,0.8,28.8,0c8.1-0.8,14.4-6.8,14.7-14.7
		l1.2-20.6L738,1827.9z"/>
	<path class="st14" d="M926,1813.1c-0.2,4.1-1.4,8.1-3.8,11.5c-3.5,4.1-8.3,6.7-13.5,7.5c-12.9,2.2-26.1-3-33.7-13.5
		c-3.6-4.9-5.7-11.1-9.1-16.2c-5.2-6.8-11.5-12.9-18.8-17.8c-7.3-4.9-13.7-10.7-19-17.6c-5.1-6.8-6.5-15.5-3.6-23.6
		c-0.8,1-1.4,2-1.8,3c-3.2,8.5-2,17.8,3.5,25c5.4,7.1,11.9,13.1,19.4,18.2c7.5,5.1,13.9,11.1,19.2,18.4c3.5,5.2,5.7,11.5,9.3,16.8
		c7.6,10.7,21,16,34.3,13.7c5.4-0.8,10.3-3.5,13.9-7.6c3-4.9,4.4-10.5,4.1-16C926,1814.1,926,1813.7,926,1813.1z"/>
	<path class="st13" d="M916.9,1778.2c-8.7-14.7-26.6-25.6-40.4-36.1c-7.6-6.5-17-10.5-26.9-11.9c-10.3-1.2-20.2,3.6-25.2,12.3
		c0,0.2,0,0.6-0.2,0.8c-2.8,7.9-1.4,16.8,3.6,23.6c5.2,6.8,11.7,12.9,19,17.6c7.3,4.9,13.7,10.9,18.8,17.8
		c3.5,5.2,5.4,11.1,9.1,16.2c7.6,10.3,20.8,15.5,33.7,13.5c5.2-0.8,10.1-3.5,13.5-7.5c2.4-3.5,3.6-7.5,3.8-11.5c0-1.4,0-2.7,0-4.1
		C925.4,1798.2,922.5,1787.5,916.9,1778.2z"/>
	<path class="st19" d="M879.1,1765.3v25.2c12.9,5.9,28,5.2,40.4-1.8l2.4-22.8L879.1,1765.3z"/>
	<path class="st7" d="M929,1306.2c7.9,22.8-1.8,130.8-6.5,234.6c17,39.1,17.4,151.6,7.6,230.6c0,0-33.1,9.9-63.8-0.4l-27.2-218.8
		l-5.4-123.4c0,0-9.7,109.4-20.8,179.7c10.5,53.9,11.5,65-14.1,230.6c0,0-41.8,12.1-73.1-2.7c-14.5-232.4,2.4-442.6,5.1-518.7
		L929,1306.2z"/>
	<path class="st20" d="M837,1504l-4.4-100.5c26.9,0,51.7-19.6,70.9-38c-18.2,31.3-53.5,45.2-53.5,45.2L837,1504z"/>
	<path class="st8" d="M724.5,1103.6l-0.8,220.1c119.7,48.6,197.3,4.9,207.7-18.2c-5.4-80.1,13.9-174,12.5-213.8
		c-1.4-39.8-6.5-84.8-70.3-75.7l-67.8,6.5l-34.3,8.1L724.5,1103.6z"/>
	<path class="st7" d="M876.7,984.5c4.9,0.4,9.7-1.2,13.3-4.4c2.8-3,4.1-7.1,3.2-11.1c4.1-0.8,7.5-3.5,9.1-7.1
		c1.2-4.1,0.4-8.5-2.2-12.1c5.9-1.4,10.7-5.4,13.5-10.7c2.8-5.4,3-11.7,0.6-17.4c6.5-1.6,11.7-6.5,13.5-12.7
		c2-6.5,0.6-13.5-3.8-18.8c5.7-7.3,6.7-17,3-25.2c-4.3-8.3-12.7-13.9-22.4-14.7c1.4-8.7-2-17.6-8.7-23.2c-6.8-5.7-16.2-7.3-24.7-4.6
		c-5.1-11.7-18.8-17.4-30.9-12.3c-3.2,1.2-6.3,3.2-8.5,5.9c-4.1-4.4-10.1-6.5-16-5.7c-6,0.6-11.5,4.1-14.4,9.3
		c-12.1-5.4-26.6-0.2-32.1,11.7c-1.6,3.5-2.4,7.1-2.2,10.9c-6.3,1.8-10.3,7.5-10.1,13.7c0.6,6.5,5.2,11.7,11.7,13.1
		c6,31.5,16.8,61.8,31.7,90.2c6.7,12.7,15.2,25.6,28,32.1C842.6,998.4,864.6,994.4,876.7,984.5z"/>
	<polygon class="st21" points="763.9,910.2 749.8,933.8 765.3,939.5 	"/>
	<path class="st19" d="M768.7,869c-9.3,32.7-10.7,67.3-4.1,100.5c0.8,5.9,3,11.3,6.5,16c4.6,4.9,11.1,7.6,17.8,7.9
		c6.8,0.2,13.5-0.4,20.2-1.8v30.9c24,5.4,48.9,7.6,67.8-6.5v-31.5c-13.5,4.3-28,5.1-42.2,2.4c-16.6-8.7-20-38.2-17.6-46
		c3,3.8,8.1,5.7,12.9,4.4c4.6-1.2,8.5-4.3,10.9-8.3c2.2-4.1,3.6-8.5,4.1-13.1c1.2-5.4,0.2-11.3-2.4-16.2c-4.4-5.7-11.9-8.1-18.8-6.3
		c-6.8,2-12.5,6.7-16,12.9c-1,1.8-2,3.8-2.8,5.9c-0.6,1.8-2.8,3-4.6,2.2c-1.4-0.4-2.4-1.8-2.7-3.2c-0.8-8.9,0.8-17.8,4.9-25.8
		c-5.7-0.6-10.5-3.6-13.5-8.1c-3.2-4.3-4.3-9.7-2.7-14.7C780.5,871.2,774.4,870.6,768.7,869z"/>
	<path class="st19" d="M787.9,913c22.4,0.6,44-7.9,59.4-23.8c2.2-2.2,2.7-5.7,1-8.3l0,0c-2-3.2-6.3-4.3-9.5-2.2
		c-0.2,0.2-0.4,0.2-0.6,0.4c-6.5,4.9-14.1,8.1-22.4,9.3c0.6-11.5,17-33.7,25.2-41.8c2.7-1.8,4.6-4.6,5.7-7.6c0.2-2-0.6-4.1-2-5.4
		c-1.4-1.4-3.6-2-5.7-1.6c2-0.8,3.2-2.8,3.2-4.9c-0.4-2.2-2-4.1-4.1-4.6c-2-0.8-4.4-0.8-6.5,0c-0.4-1.8-1.6-3.5-3.6-3.8
		c-1.8-0.6-3.8-0.6-5.7,0s-3.6,1.4-5.2,2.4c-2-2.8-6-3.8-9.3-2.7c-21.4,10.5-46.9,44.2-47,67.3C761.2,899.9,772.9,911.8,787.9,913z"
		/>
	<path class="st21" d="M838.6,831.3c-11.9,5.7-21.6,14.9-27.2,26.6C813.6,840.2,831.5,832.1,838.6,831.3z"/>
	<path class="st21" d="M831.3,821.6c-17.9,8.3-26.1,17-30.9,24.4C805.7,833.3,817.4,824.2,831.3,821.6z"/>
	<path class="st21" d="M816.8,820.4c-10.3,4.3-19.2,11.3-25.6,20.2C795.4,829.6,805.2,822,816.8,820.4z"/>
	<path class="st21" d="M823.7,901.5c-11.7,5.4-25,7.5-37.7,5.4c-1.8-7.1-6-13.5-11.9-18.2c-3.8-3-8.3-5.4-13.1-6.7c0,1,0,2,0,3
		c0.4,14.7,12.3,26.9,27.4,28c22.2,0.6,43.8-8.1,59.2-23.8c2.2-2.2,2.7-5.4,1.2-8.1C842,889.8,833.5,896.9,823.7,901.5z"/>
	<path class="st11" d="M793,1095.1c-20.2,0.4-40.4,1.4-61,2l-4.3,6.7v41.2C756.2,1139.2,780.2,1120.8,793,1095.1z"/>
	<path class="st6" d="M794.8,1025.7l-135.2-37.2l119.1-55.1c17.4-30.7-14.4-56.7-41.4-53.1l-137.5,66c-20.6,9.1-33.9,29.3-33.9,51.3
		l0,0c0,22.2,13.5,42.6,34.5,51.5l156.9,67.4C804.4,1131.7,837.6,1037.4,794.8,1025.7z"/>
	<path class="st11" d="M659.7,988.6l-38.6-10.7l0,0c20-4.1,40.4-4.9,60.8-2.8l5.7,0.6L659.7,988.6z"/>
</g>
<g>
	<path class="st8" d="M727.4,371.6L727.4,371.6l-7.8-4.1l0,0c-1.1-0.7-2.5-0.8-3.6-0.2l-134.2,76.4c-2.2,1.2-3.6,3.5-3.6,6V609
		c0.1,1.4,0.9,2.7,2.2,3.2l0,0l7.9,4.2l0,0c1,0.6,2.3,0.6,3.3,0l134.2-76.4c2.2-1.2,3.6-3.5,3.6-6V374.7
		C729.4,373.4,728.6,372.2,727.4,371.6z"/>
	<path class="st22" d="M578.1,449.7V609c0.1,1.4,0.9,2.7,2.2,3.2l0,0l7.9,4.2c-1-0.6-1.7-1.7-1.7-3V454.1c0-0.9,0.2-1.8,0.6-2.7
		l-8.2-4.7C578.4,447.6,578.1,448.6,578.1,449.7z"/>
	<path class="st23" d="M719.6,367.5L719.6,367.5c-1.1-0.7-2.5-0.8-3.6-0.2l-134.2,76.4c-1.2,0.7-2.2,1.7-2.8,3l8.2,4.7
		c0.6-1.4,1.7-2.5,3-3.3l134.2-76.4c1-0.6,2.2-0.6,3.2,0l0,0L719.6,367.5z"/>
	<path class="st2" d="M670.6,427.4c1.9-1.1,3.9-2.2,6.1-3.3c2.2-1,4.3-2.1,6.3-2.9v18.8c-0.7,0.1-1.3,0.4-1.9,0.7l-2.5,1.3
		c-1.7,1-3.2,2.4-4.3,4c-1.2,1.7-1.9,3.8-1.8,5.9v5.5l10.5-6.1v20.1l-10.5,6.1v69.9l-26,15l-0.2-69.8l-8.9,5.2v-20.1l9-5.2v-6.4
		c-0.1-4.1,0.4-8.2,1.2-12.2c0.8-3.5,2.2-6.8,4.1-9.9c2-3.2,4.4-6,7.3-8.5C662.5,432.3,666.4,429.7,670.6,427.4z"/>
</g>
<g>
	<path class="st8" d="M536.8,614.6L536.8,614.6l-5.9-3.1l0,0c-0.8-0.6-1.9-0.7-2.8-0.2l-102,58.1c-1.7,0.9-2.8,2.7-2.8,4.6v121
		c0.1,1,0.7,2,1.7,2.5l0,0l5.9,3.2l0,0c0.7,0.4,1.7,0.4,2.5,0l102-58.1c1.7-0.9,2.8-2.7,2.8-4.5V617
		C538.3,615.9,537.7,615,536.8,614.6z"/>
	<path class="st22" d="M423.3,673.9v121c0.1,1,0.7,2,1.7,2.5l0,0l5.9,3.2c-0.8-0.4-1.3-1.3-1.3-2.3v-121c0-0.7,0.1-1.4,0.4-2.1
		l-6.2-3.6C423.6,672.3,423.4,673.1,423.3,673.9z"/>
	<path class="st23" d="M530.8,611.5L530.8,611.5c-0.8-0.6-1.9-0.7-2.8-0.2l-102,58.1c-1,0.5-1.7,1.3-2.2,2.3l6.2,3.6
		c0.4-1,1.2-1.9,2.2-2.5l102-58.1c0.7-0.4,1.6-0.4,2.5,0l0,0L530.8,611.5z"/>
	<polygon class="st2" points="464.1,688.4 517.3,692.9 464.3,758.7 	"/>
</g>
<g>
	<path class="st8" d="M1158.5,902.3L1158.5,902.3l-6-3.2l0,0c-0.8-0.6-1.9-0.7-2.8-0.2l-103.4,58.9c-1.7,0.9-2.8,2.7-2.8,4.6v122.8
		c0,1.1,0.7,2.1,1.7,2.5l0,0l6,3.3l0,0c0.8,0.4,1.7,0.4,2.5,0l103.4-58.9c1.7-0.9,2.8-2.7,2.8-4.6V904.6
		C1160,903.6,1159.5,902.7,1158.5,902.3z"/>
	<path class="st22" d="M1043.5,962.4v122.8c0,1.1,0.7,2.1,1.7,2.5l0,0l6,3.3c-0.8-0.5-1.3-1.4-1.3-2.3V965.8c0-0.7,0.2-1.4,0.4-2.1
		l-6.3-3.6C1043.7,960.8,1043.5,961.6,1043.5,962.4z"/>
	<path class="st23" d="M1152.6,899.1L1152.6,899.1c-0.8-0.6-1.9-0.7-2.8-0.2l-103.4,58.9c-0.9,0.6-1.7,1.4-2.2,2.3l6.3,3.6
		c0.5-1,1.2-2,2.2-2.5l103.4-58.9c0.8-0.4,1.7-0.4,2.5,0l0,0L1152.6,899.1z"/>
	<path class="st2" d="M1127.8,959.4L1127.8,959.4c2.6-1.4,4.7-0.2,4.6,2.8c-0.2,3.3-2,6.2-4.7,8.1l0,0c-1.2,1-2.9,1-3.9-0.2
		c-0.7-0.7-0.9-1.7-0.6-2.7C1123.3,964.2,1125.1,961.2,1127.8,959.4z"/>
	<path class="st2" d="M1143.9,953.4c0.2,1,0.4,2,0.6,3c0,14,0,27.9,0,41.9c-0.2,1-0.4,2.1-0.6,3.1c-1.9,9.7-7,18.6-14.4,25.3
		c-1,0.9-2,1.5-3.1,2.5l-36.3,21c-0.9,0.2-1.7,0.4-2.5,0.8c-7.6,2-12.5-0.7-14.7-8.1c-0.1-0.9-0.3-1.9-0.6-2.8c0-14.1,0-28,0-42.1
		c0.2-0.3,0.2-0.5,0.2-0.7c0.4-3.1,1.1-6.3,2.3-9.2c3.2-9.1,9.4-16.9,17.6-22c4.4-2.6,8.8-5.2,13.3-7.7l18.5-10.7
		c1.5-0.9,3.2-1.7,5-2.2C1136.8,943.3,1141.7,946,1143.9,953.4z M1138.3,999.1c0-12.1,0-24.1,0-36.2c0.1-1.7-0.2-3.4-0.7-5
		c-2-5.4-7-6.6-13.2-3l-13.3,7.7l-18.2,10.5c-1.7,1-3.3,2.2-4.7,3.6c-5.5,5.3-8.8,12.6-9.1,20.3c0,12.2,0,24.3,0,36.5
		c0,5.4,1.9,8.7,5.6,9.7c2.9,0.5,5.9-0.2,8.2-1.8l5.3-3.1l10.5-6c5.2-3,10.4-6,15.7-9.1c1.8-1,3.4-2.2,4.9-3.6
		C1134.8,1014.1,1138.1,1006.8,1138.3,999.1"/>
	<path class="st2" d="M1108.6,976.7c10.2-5.9,18.6-1,18.6,10.7c-0.7,13-7.6,25-18.5,32.1c-10.2,5.9-18.6,1.1-18.6-10.7
		C1090.7,995.8,1097.6,983.9,1108.6,976.7z M1120.8,991.2c0-7.7-5.3-10.8-12.1-7.1l-0.2,0.1c-7.1,4.7-11.5,12.4-12,20.9
		c0,7.7,5.4,10.8,12.2,7l0,0c7.1-4.7,11.5-12.4,12-20.9"/>
</g>
<g id="freepik--like-icon--inject-2">
	<path class="st24" d="M-1496.3-245.3c0.1-3.5-0.4-7.1-1.4-10.5l38-43.6l-48.8-27.4c-4.6-3.2-11.2-3.6-20.1,1.6l-84.5,49.1
		l-11.4,6.5c2-9.8,3.3-19.7,4-29.7c0.3-4.2,0.4-8.1,0.4-12.1l1.6,0.8l28.5-33.4l-48.8-27.4l0,0c-16.4-10-44.1,9.8-44.1,17.8
		c0,9.6,4.2,60,0,74.5c-4.2,14.4-47.7,114-47.7,114v6.5v201l159-92c20.9-12.1,35.4-37.8,35.4-55.3c0.2-7.8-1.2-15.6-4.2-22.8
		c13.5-7.8,27-36,27-48c0-18.1-6.2-22.8-6.2-22.8C-1505.9-210.3-1497.5-227.2-1496.3-245.3z"/>
	<path class="st8" d="M-1496.3-245.3c0.1-3.5-0.4-7.1-1.4-10.5l38-43.6l-48.8-27.4c-4.6-3.2-11.2-3.6-20.1,1.6l-84.5,49.1l-11.4,6.5
		c2-9.8,3.3-19.7,4-29.7c0.3-4.2,0.4-8.1,0.4-12.1l1.6,0.8l28.5-33.4l-48.8-27.4l0,0c-16.4-10-44.1,9.8-44.1,17.8
		c0,9.6,4.2,60,0,74.5c-4.2,14.4-47.7,114-47.7,114v6.5v201l159-92c20.9-12.1,35.4-37.8,35.4-55.3c0.2-7.8-1.2-15.6-4.2-22.8
		c13.5-7.8,27-36,27-48c0-18.1-6.2-22.8-6.2-22.8C-1505.9-210.3-1497.5-227.2-1496.3-245.3z"/>
	<polygon class="st25" points="-1680.3,70.9 -1730.6,41.9 -1730.7,-165.7 -1680.5,-136.6 	"/>
	<polygon class="st24" points="-1680.3,70.9 -1730.6,41.9 -1730.7,-165.7 -1680.5,-136.6 	"/>
	<polygon class="st8" points="-1680.3,70.9 -1730.6,41.9 -1730.7,-165.7 -1680.5,-136.6 	"/>
	<path class="st6" d="M-1461.3-143.2c0,26.8-15.3,36.2-28.8,44c2.9,7.3,4.3,15.1,4.1,22.9c0,17.3-14.4,43.2-35.2,55.1l-159,92
		v-198.7v-8.8c0,0,43.7-99.6,47.8-114.1c4.1-14.5,0-65,0-74.3s39.5-36,52-8.5s13.6,55.7,6.5,92.3l96.1-55.6
		c20.3-11.7,28.6,5.1,28.6,18.2c0,18.7-8.7,37.1-20.3,44.1c0,0,22.1,1.1,22.1,26.9c-0.4,16.5-8.2,31.9-21.3,41.9
		C-1468.7-165.7-1461.3-161.1-1461.3-143.2z"/>
	<g>
		<polygon class="st22" points="-1787.6,153.2 -1718.1,113.2 -1718.3,-128.4 -1787.6,-88.4 		"/>
		<polygon class="st26" points="-1787.6,153.2 -1837.9,124.2 -1837.9,-117.4 -1787.6,-88.4 		"/>
		<polygon class="st27" points="-1768.6,-157.4 -1718.3,-128.4 -1787.6,-88.4 -1837.9,-117.4 		"/>
	</g>
	<path class="st24" d="M-1632.7-250.7c-4.1,14.5-47.8,114.1-47.8,114.1l-50.2-28.3c0,0,43.6-99.6,47.7-114c4.2-14.4,0-65,0-74.5
		l50.3,28.4C-1632.7-315.2-1628.5-265.1-1632.7-250.7z"/>
	<path class="st8" d="M-1632.7-250.7c-4.1,14.5-47.8,114.1-47.8,114.1l-50.2-28.3c0,0,43.6-99.6,47.7-114c4.2-14.4,0-65,0-74.5
		l50.3,28.4C-1632.7-315.2-1628.5-265.1-1632.7-250.7z"/>
</g>
<g>
	<path class="st22" d="M1169.7,839.4l-17.3-44.3l13.9-40.1v-24.8l-42.6,24.6v24.6l18.3,43.5c0.3,0.5,0.7,0.9,1.2,1.1l0,0
		L1169.7,839.4z"/>
	<path class="st8" d="M1272.4,651.2c-0.5-9-5.2-17.2-12.8-22.1l-4.7-3.1c-8-4.1-17.5-4.1-25.5,0L1056,726.2
		c-7.5,4.9-12.3,13.1-12.8,22.1v58.6c0.5,9,5.2,17.2,12.8,22.1l4.9,3c8,4.1,17.5,4.1,25.5,0l64.1-37.1l18.2,43.5
		c0.7,1.3,2.4,1.7,3.7,1c0.6-0.3,1-0.9,1.2-1.4l19.3-67.7l66.7-38.5c7.5-4.9,12.3-13.1,12.8-22.1L1272.4,651.2L1272.4,651.2z"/>
	<path class="st11" d="M1043.1,807c0.5,9,5.2,17.2,12.8,22.1l4.9,3c7.3,3.7,15.8,4.1,23.3,1c-6,2.2-10.6-1.1-10.6-8.4v-58.4
		c0.1-4.4,1.4-8.8,3.7-12.6l-30.4-17.7c-2.3,3.8-3.6,8.1-3.7,12.6L1043.1,807L1043.1,807z"/>
	<path class="st28" d="M1272.1,647.6c-1.5-5.4-6.5-7.2-12.3-3.8l-173.5,100.2c-3.8,2.3-6.9,5.6-9,9.5l-30.4-17.7
		c2.1-3.9,5.2-7.2,9-9.6l173.4-100.2c8-4.1,17.5-4.1,25.5,0l4.9,3C1266.1,633.4,1270.6,640,1272.1,647.6z"/>
	<path class="st2" d="M1097.2,805.1c-1.5,0.6-3.2,0.6-4.7,0c-0.6-0.4-0.9-1.1-0.9-1.8c0.1-1.5,0.4-3,1-4.4c0.4-1.3,1.2-2.4,2.2-3.3
		c0.6-0.2,1.1-0.4,1.7-0.3h1.7c1.7-0.1,3.2-0.6,4.6-1.4c1.4-0.8,2.7-1.8,3.6-3.1c1-1.2,1.6-2.8,1.5-4.3c0.1-0.9-0.2-1.9-0.8-2.7
		c-0.6-0.6-1.2-0.9-2-0.9c-1.1-0.1-2.3-0.1-3.4,0c-2.7,0.2-5.2-0.4-7.5-1.8c-1.8-2-2.6-4.7-2.3-7.4c0.1-4.3,1.5-8.4,4-11.8
		c2.7-3.9,6.2-7.1,10.3-9.4c1.5-0.9,3.2-1.6,4.9-2.1c1.3-0.5,2.7-0.7,4-0.6c0.9,0,1.2,0.6,1.2,1.7c-0.1,1.4-0.4,2.7-0.8,4
		c-0.2,1.2-0.9,2.3-1.9,3.1c-0.6,0.3-1.3,0.5-2,0.6c-1.5,0.2-3,0.7-4.4,1.5c-1.5,0.7-2.8,1.9-3.7,3.3c-0.6,1-1,2.1-1,3.2
		c0,1.7,0.4,2.7,1.3,3.1c1.3,0.4,2.7,0.6,4,0.5h1.5c2.4-0.2,4.8,0.5,6.7,1.9c1.6,2,2.3,4.5,2,7c0,2.8-0.6,5.5-1.6,8
		c-1.2,3-2.8,5.7-4.9,8c-2.3,2.7-5.1,4.9-8.2,6.7C1101.7,803.6,1099.5,804.5,1097.2,805.1z"/>
	<path class="st2" d="M1123.2,788.5v-43.3c0-1.4,1.3-2.9,4-4.4l2.8-1.7c2.6-1.5,4-1.5,4,0v16.7l11.6-6.7v-16.7c0-1.4,1.3-2.9,4-4.4
		l2.8-1.6c2.6-1.5,4-1.5,4,0v43.3c0,1.4-1.3,2.9-4,4.4l-2.8,1.6c-2.6,1.5-4,1.5-4,0v-17.6l-11.6,6.7v17.5c0,1.4-1.3,2.9-4,4.4
		l-2.8,1.7C1124.5,789.9,1123.2,790,1123.2,788.5z"/>
	<path class="st2" d="M1160.1,767.9c0-0.4,0.1-0.9,0.2-1.3l10.4-49.1c0.3-1.4,1.7-2.8,4-4.3l4.4-2.6c2.5-1.4,4-1.6,4-0.5l10.4,37
		c0,0.6,0,1,0,1.2c0,1-1,2-2.9,3.1l-3.6,2.1c-2.2,1.2-3.4,1.4-3.6,0.6l-1.8-7.3l-10.2,5.9l-1.8,9.3c0,1.1-1.2,2.2-3.1,3.3l-3.5,2
		C1161.2,768.8,1160.1,768.9,1160.1,767.9z M1181,739.4l-3-12.6c-0.3-1.4-0.6-3-0.9-4.7l-0.3,0.2c-0.2,1.9-0.5,3.8-0.8,5.6l-3,16
		L1181,739.4z"/>
	<path class="st2" d="M1197.8,745.4v-42.6c0-0.9,0.2-1.7,0.6-2.4c0.6-0.7,1.2-1.4,2.1-1.8l11.3-6.5c2.9-2.1,6.5-3.1,10-2.7
		c2.5,0.6,3.8,3.3,3.8,8c-0.2,5.7-2.5,11.1-6.5,15.1v0.3c1,0,2,0.4,2.7,1.2c0.8,0.9,1.4,1.8,1.8,3l4,10.7l0.2,0.7
		c0,1.2-1.4,2.6-4.2,4.2l-2.3,1.4c-2.3,1.4-3.7,1.5-4,0.5l-3.6-10.8c-0.2-0.6-0.7-1.1-1.4-1.3c-0.9,0-1.8,0.3-2.5,0.9l-1.6,0.9v15.3
		c0,1.4-1.4,3-4,4.5l-2.3,1.3C1199.1,746.9,1197.8,746.9,1197.8,745.4z M1212,712.1c1.1-0.7,2-1.7,2.6-3c0.7-1.5,1.1-3.2,1-4.9
		c0-1.9-0.4-3-1-3.5c-0.9-0.5-2-0.4-2.8,0.2l-3.6,2.1v11.2L1212,712.1z"/>
	<path class="st2" d="M1233.3,726.2c-0.4,0-0.6-0.8-0.6-1.7v-41.8c0-0.9,0.2-1.7,0.6-2.5c0.5-0.7,1.1-1.3,1.9-1.7l20-11.5
		c0.7-0.4,1.2-0.4,1.5,0c0.4,0.7,0.6,1.5,0.5,2.3v2.1c0.1,1-0.1,1.9-0.5,2.8c-0.3,0.7-0.8,1.3-1.5,1.7l-12,6.8v9.8l10.5-6.1
		c0.7-0.4,1.2-0.4,1.5,0c0.4,0.7,0.6,1.5,0.5,2.3v2.1c0.1,1-0.1,1.9-0.5,2.8c-0.3,0.7-0.8,1.3-1.5,1.7l-10.5,6.1v11l12-6.9
		c0.7-0.4,1.2-0.4,1.4,0c0.4,0.7,0.5,1.5,0.4,2.3v2.1c0,1-0.1,1.9-0.4,2.8c-0.3,0.7-0.8,1.3-1.4,1.7l-20,11.5
		C1234.6,726.4,1233.9,726.5,1233.3,726.2z"/>
</g>
<g id="freepik--speech-bubble--inject-2_3_">
	<g id="freepik--speech-bubble--inject-2_2_">
		<path class="st24" d="M-483.6,1772.9l-24.6-63.1l19.8-57.1v-35l-60.6,35v35l26.1,62c0.4,0.7,1,1.3,1.8,1.6l0,0L-483.6,1772.9z"/>
		<path class="st11" d="M-483.6,1772.9l-24.6-63.1l19.8-57.1v-35l-60.6,35v35l26.1,62c0.4,0.7,1,1.3,1.8,1.6l0,0L-483.6,1772.9z"/>
		<path class="st24" d="M-318.4,1493.6c-0.7-12.8-7.4-24.5-18.2-31.5l-7-4.3c-11.4-5.8-24.9-5.8-36.3,0l-285.2,164.7
			c-10.7,7-17.5,18.7-18.2,31.5v83.5c0.7,12.8,7.5,24.5,18.2,31.5l7,4.2c11.4,5.8,24.9,5.8,36.3,0l110.5-63.7l26.1,61.9
			c1.1,1.9,3.5,2.5,5.3,1.4c0.8-0.5,1.4-1.2,1.7-2.1l27.5-96.2l114.3-66c10.7-7,17.5-18.7,18.2-31.5L-318.4,1493.6z"/>
		<path class="st11" d="M-683.3,1737.5c0.7,12.8,7.5,24.5,18.2,31.5l7,4.2c10.4,5.2,22.5,5.8,33.2,1.5c-8.6,3.3-15.1-1.6-15.1-11.9
			v-83.5c0.2-6.3,2.1-12.5,5.3-17.9l-43.2-25.3c-3.3,5.4-5.1,11.6-5.3,17.9L-683.3,1737.5z"/>
		<path class="st28" d="M-319,1488.5c-2.1-7.7-9.2-10.2-17.6-5.4l-285.2,164.7c-5.4,3.3-9.8,8-12.8,13.6l-43.2-25.3
			c3-5.6,7.5-10.2,12.9-13.6l285.1-164.7c11.4-5.8,24.9-5.8,36.4,0l7,4.3C-327.3,1468.2-321,1477.7-319,1488.5z"/>
	</g>
	<path class="st2" d="M-610.4,1729.6V1675c0-1.1,0.2-2.2,0.8-3.1s1.4-1.7,2.4-2.2l23.9-13.8c0.9-0.5,1.5-0.5,1.9,0
		c0.5,0.9,0.7,1.9,0.6,3v2.7c0,1.2-0.2,2.5-0.6,3.7c-0.4,0.9-1,1.6-1.9,2.1l-13.5,7.8v12.7l12.7-7.4c0.9-0.5,1.5-0.5,1.9,0
		c0.5,0.9,0.7,1.9,0.6,2.9v2.7c0.1,1.2-0.1,2.5-0.6,3.7c-0.4,0.9-1.1,1.7-1.9,2.2l-12.7,7.4v22.9c0,1.8-1.7,3.7-5,5.7l-3.5,2
		C-608.7,1731.4-610.4,1731.5-610.4,1729.6z"/>
	<path class="st2" d="M-575,1681.6c0-20.7,7.5-35.4,22.9-44.2c7.4-4.2,13-5,16.9-2.2c3.8,2.8,5.7,9.5,5.7,20.2
		c0.3,9.3-1.7,18.5-5.7,26.9c-3.9,7.2-9.7,13.1-16.9,17.1C-567.8,1708.3-575,1702.3-575,1681.6z M-547.2,1683.5
		c1.4-2.3,2.4-4.9,2.9-7.7c0.7-4.1,1-8.3,1-12.5c0.1-3.8-0.2-7.7-1-11.4c-0.6-2.5-1.6-3.9-2.9-4.3c-1.8-0.4-3.6,0.1-5,1.1
		c-2,1.2-3.8,2.8-5.1,4.7c-1.5,2.3-2.5,5-2.9,7.7c-0.8,4.1-1.1,8.3-1,12.5c-0.1,3.8,0.2,7.7,1,11.4c0.6,2.5,1.6,3.9,2.9,4.3
		c1.8,0.3,3.6-0.1,5.1-1.2c1.9-1.2,3.5-2.7,4.7-4.6H-547.2z"/>
	<path class="st2" d="M-520.9,1679.7c-0.5,0-0.8-1-0.8-2.2v-54.7c0-1.8,1.7-3.8,5.1-5.7l3.4-2.1c3.4-1.9,5-1.9,5,0v46.8l13-7.5
		c0.9-0.5,1.6-0.6,2,0c0.5,0.9,0.7,1.9,0.6,3v2.7c0.1,1.2-0.1,2.5-0.6,3.7c-0.4,0.9-1.1,1.7-2,2.2l-23.3,13.4
		C-519.6,1679.8-520.4,1680-520.9,1679.7z"/>
	<path class="st2" d="M-485.5,1659.3c-0.5-0.3-0.8-1-0.8-2.2v-54.7c0-1.8,1.7-3.7,5-5.7l3.5-2c3.4-1.9,5-2,5,0v46.8l13-7.4
		c0.9-0.6,1.5-0.6,2,0c0.5,0.9,0.7,1.9,0.6,2.9v2.7c0.1,1.2-0.1,2.5-0.6,3.7c-0.4,0.9-1.1,1.7-2,2.2l-23.3,13.4
		C-484.2,1659.4-485,1659.5-485.5,1659.3z"/>
	<path class="st2" d="M-454.3,1611.7c0-20.7,7.6-35.5,22.9-44.2c7.4-4.3,13-5,16.9-2.2c3.8,2.9,5.7,9.5,5.7,20.2
		c0.3,9.3-1.6,18.5-5.7,26.9c-3.9,7.2-9.7,13.2-16.9,17.1C-446.6,1638.4-454.2,1632.4-454.3,1611.7z M-426.4,1613.6
		c1.4-2.3,2.4-4.9,2.9-7.7c0.7-4.1,1-8.3,0.9-12.5c0.1-3.8-0.2-7.7-0.9-11.4c-0.6-2.5-1.6-3.9-2.9-4.4c-1.8-0.3-3.6,0.1-5.1,1.2
		c-2,1.1-3.7,2.7-5,4.6c-1.5,2.4-2.5,5-3,7.8c-0.8,4.1-1.1,8.2-1,12.4c-0.1,3.8,0.2,7.7,1,11.4c0.7,2.5,1.7,4,3,4.4
		c1.8,0.3,3.6-0.1,5-1.2c2-1.2,3.7-2.8,5-4.7L-426.4,1613.6L-426.4,1613.6z"/>
	<path class="st2" d="M-393.9,1607c-0.4,0.2-0.9-0.1-1.1-0.5c0-0.1,0-0.1,0-0.2l-11.4-49.1c0-0.2,0-0.5,0-0.7s0-0.4,0-0.6
		c0-1.5,1.7-3.3,5.1-5.2l2.5-1.5c3.4-2,5.3-2.2,5.7-0.5l4.1,29.7l0.8,5.7l0.8,6.3l1.5-11.4c0.2-0.9,0.3-1.8,0.4-2.7l5.3-36
		c0.1-0.8,0.5-1.5,1.1-2c0.9-0.9,1.9-1.6,3-2.2l4.3-2.5c0.9-0.6,1.9-1,3-1.3c0.6,0,1,0,1.1,0.8l5.2,29.9l1.9,12.2l1.2-10l0.5-4.3
		l4.2-34.3c0-1.9,2.1-3.9,5.7-5.7l2-1.2c3.4-1.9,5.1-2.2,5.1-0.7c0,0.5,0,0.9,0,1.4l-11.4,62.4c0,1.3-1.6,2.7-4.1,4.2l-5.7,3.3
		c-2.3,1.3-3.6,1.5-3.9,0.4l-5.7-27.2l-1-8.7l-1.5,9.7l-6,34.3c0,1.3-1.5,2.7-3.9,4.1l-5.7,3.3
		C-391.7,1606.5-392.8,1606.9-393.9,1607z"/>
</g>
<text transform="matrix(0.9347 -0.1846 0.1938 0.981 858.7999 789.2025)" class="st2 st29 st30">?</text>
<text transform="matrix(1.0281 -0.1432 0.1379 0.9904 697.8803 756.3702)" class="st2 st29 st31">?</text>
<text transform="matrix(0.9007 0.3107 -0.3261 0.9453 1009.6714 567.7353)" class="st2 st29 st32">?</text>
<text transform="matrix(1.015 0.1094 -0.1072 0.9942 1215.6566 1122.8284)" class="st2 st29 st33">?</text>
</svg>
