<?xml version="1.0" standalone="no"?>
<!DOCTYPE svg PUBLIC "-//W3C//DTD SVG 1.1//EN" "http://www.w3.org/Graphics/SVG/1.1/DTD/svg11.dtd">
<svg xmlns="http://www.w3.org/2000/svg" xmlns:xlink="http://www.w3.org/1999/xlink" version="1.1" id="Layer_1" image-rendering="optimizeQuality" shape-rendering="geometricPrecision" text-rendering="geometricPrecision" x="0px" y="0px" viewBox="0 0 600 600" style="enable-background:new 0 0 600 600;" xml:space="preserve" width="600" height="600">
<style type="text/css">
	.st0{fill-rule:evenodd;clip-rule:evenodd;fill:#FFFFFF;}
	.st1{fill:none;}
	.st2{fill:#F58C1B;}
</style>
<g>
	<path class="st0" d="M502.6,422.8c-1.9-4.6-1.9-9.7,0-14.3c1.8-4.2,5.1-7.7,9.2-9.7v-29.7h-17.1v-16.7h25.4c2.3,0,4.4,0.9,5.9,2.4   c1.6,1.6,2.4,3.7,2.4,5.9v38.4c3.9,2,7,5.4,8.7,9.4c1.9,4.5,1.9,9.6,0,14.1l0,0.1c-2.9,7-9.7,11.5-17.3,11.5   C512.3,434.4,505.5,429.8,502.6,422.8L502.6,422.8z"/>
	<path class="st0" d="M571.4,311.8h-76.7v-16.7h68.3v-54.4c-3.6-2.1-6.4-5.2-8-9.1c-1.9-4.6-1.9-9.7,0-14.3   c2.9-7,9.7-11.6,17.3-11.6c7.6,0,14.4,4.6,17.3,11.6c1.9,4.5,1.9,9.6,0.1,14.1l-0.1,0.1c-1.9,4.5-5.4,8.1-9.9,10v61.8   c0,2.3-0.9,4.4-2.4,5.9C575.7,310.9,573.6,311.8,571.4,311.8L571.4,311.8z"/>
	<path class="st0" d="M506,241.6h-11.3v-11.6h0.1c0-1.7-0.2-3.4-0.5-5.1h3.4v-24.6c-4.1-2-7.4-5.4-9.1-9.7c-1.9-4.6-1.9-9.7,0-14.3   c2.9-7,9.7-11.6,17.3-11.6c7.5,0,14.3,4.5,17.2,11.4l0.1,0.1c1.9,4.6,1.9,9.7,0,14.3c-1.7,4.1-4.8,7.5-8.8,9.5v33.1   c0,2.3-0.9,4.4-2.5,5.9C510.3,240.7,508.2,241.6,506,241.6L506,241.6z"/>
</g>
<g>
	<path class="st0" d="M178.4,449.5c4.6-1.9,9.7-1.9,14.3,0c4.2,1.8,7.7,5.1,9.7,9.2h29.7v-17.1h16.7v25.4c0,2.3-0.9,4.4-2.4,5.9   c-1.6,1.6-3.7,2.4-5.9,2.4h-38.4c-2,3.9-5.4,7-9.4,8.7c-4.5,1.9-9.6,1.9-14.1,0l-0.1,0c-7-2.9-11.5-9.7-11.5-17.3   C166.8,459.2,171.4,452.4,178.4,449.5L178.4,449.5z"/>
	<path class="st0" d="M296.8,502.5v-60.8l16.7,0v60.8c4,2,7.2,5.4,8.9,9.6c1.9,4.5,1.9,9.6,0,14.2l0,0.1c-2.9,7-9.7,11.5-17.3,11.5   c-7.6,0-14.4-4.6-17.3-11.6c-1.9-4.5-1.9-9.6,0-14.1l0-0.1C289.6,507.9,292.8,504.5,296.8,502.5L296.8,502.5z"/>
	<path class="st0" d="M359.6,453v-11.3h11.6v0.1c1.7,0,3.4-0.2,5-0.5v3.4h24.6c2-4.1,5.4-7.4,9.7-9.1c4.6-1.9,9.7-1.9,14.3,0   c7,2.9,11.5,9.7,11.5,17.3c0,7.5-4.5,14.3-11.4,17.2l-0.1,0.1c-4.6,1.9-9.7,1.9-14.3,0c-4.1-1.7-7.5-4.8-9.5-8.8H368   c-2.3,0-4.4-0.9-5.9-2.5C360.5,457.3,359.6,455.2,359.6,453L359.6,453z"/>
</g>
<g>
	<path class="st0" d="M101.4,176.3c1.9,4.6,1.9,9.8,0,14.3c-1.8,4.3-5.1,7.7-9.2,9.7v29.7h17.1v16.7H83.9c-2.3,0-4.4-0.9-5.9-2.4   c-1.6-1.6-2.4-3.7-2.4-5.9v-38.4c-3.9-2-7-5.4-8.7-9.4c-1.9-4.5-1.9-9.6-0.1-14.1l0.1-0.2c2.9-7,9.7-11.5,17.3-11.5   C91.7,164.8,98.5,169.4,101.4,176.3L101.4,176.3z"/>
	<path class="st0" d="M48.5,294.8h60.8v16.6H48.5c-2,4-5.4,7.2-9.6,9c-4.5,1.9-9.6,1.9-14.1,0l-0.1,0c-7-2.9-11.5-9.7-11.5-17.3   c0-7.6,4.6-14.4,11.6-17.3c4.5-1.9,9.6-1.9,14.1,0l0.1,0.1C43,287.6,46.5,290.8,48.5,294.8L48.5,294.8z"/>
	<path class="st0" d="M98,357.6h11.3v12.5h-0.1c0,1.4,0.1,2.8,0.3,4.2h-3.2v24.6c4.1,2,7.3,5.4,9.1,9.7c1.9,4.6,1.9,9.7,0,14.3   c-2.9,7-9.7,11.6-17.3,11.6c-7.5,0-14.3-4.5-17.2-11.4l-0.1-0.1c-3.7-9,0.1-19.4,8.8-23.8v-33.1c0-2.3,0.9-4.4,2.4-5.9   C93.7,358.5,95.8,357.6,98,357.6z"/>
</g>
<g>
	<path class="st0" d="M428.2,153.8c-4.6,1.9-9.8,1.9-14.3,0c-4.3-1.8-7.7-5.1-9.7-9.2h-29.7v17.1h-16.7v-25.4c0-2.3,0.9-4.4,2.4-5.9   c1.6-1.6,3.7-2.4,5.9-2.4h38.4c2-3.9,5.4-7,9.4-8.7c4.5-1.9,9.6-1.9,14.2-0.1l0.1,0.1c7,2.9,11.5,9.7,11.5,17.3   C439.7,144.1,435.2,150.9,428.2,153.8L428.2,153.8z"/>
	<path class="st0" d="M307.1,85v76.7h-16.7V93.4H236c-2.1,3.6-5.2,6.4-9.1,8c-4.6,1.9-9.7,1.9-14.3,0c-7-2.9-11.5-9.7-11.5-17.3   c0-10.3,8.4-18.7,18.7-18.7c2.4,0,4.8,0.5,7,1.4l0.1,0.1c4.5,1.9,8.1,5.4,10,9.9h61.8c2.3,0,4.4,0.9,5.9,2.4   C306.3,80.7,307.1,82.8,307.1,85L307.1,85z"/>
	<path class="st0" d="M246.9,150.4v11.3h-12.5v-0.1c-1.4,0-2.8,0.1-4.2,0.3v-3.2h-24.6c-2,4.1-5.4,7.3-9.7,9.1   c-4.6,1.9-9.7,1.9-14.3,0c-7-2.9-11.6-9.7-11.6-17.3c0-7.5,4.5-14.3,11.4-17.2l0.1-0.1c9-3.7,19.4,0.1,23.8,8.8h33.1   c2.3,0,4.4,0.9,5.9,2.4C246,146.1,246.9,148.2,246.9,150.4z"/>
</g>
<g>
	<path class="st1" d="M163,390.4h275.6V215.3h0V213c0-0.2-0.1-0.3-0.3-0.5c-0.1-0.1-0.3-0.2-0.4-0.3l-0.2,0H163.7   c-0.1,0-0.3,0.1-0.4,0.2c-0.1,0.1-0.2,0.3-0.3,0.5l0,2.2h0V390.4z M417.7,351.1H309.1v-19.7h108.7V351.1z M309.1,315.7v-19.7h31.1   v19.7H309.1z M417.7,315.7h-68.4v-19.7h68.4V315.7z M306.4,260.5h111.3v19.7H306.4V260.5z M183.9,333.2l1.2-0.5   c1.8-0.8,4.2-1.7,7.1-2.8c9.8-3.7,26.3-9.9,27.1-17.1c0-1-1.9-4.9-3.1-7.5c-1.3-2.7-2.6-5.5-3.2-7.5c-0.1-0.2-0.3-0.4-0.4-0.6   c-1.3-2-2.2-3.5-2.2-6.9c0-1.7,0-3.6,0.3-5.5l0.1-0.5c0.3-2,0.4-2.5,1.6-4.3c0.6-1,0.5-6.1,0.4-8.1c0-0.8,0-1.5,0-2   c0-13.8,11.9-21,23.6-21c11.7,0,23.6,7.2,23.6,21c0,0.7,0,1.5-0.1,2.4c-0.1,2.6-0.3,6.6,0.7,8.1c0.8,1.2,1,1.8,1.1,2.9   c0,0.2,0.1,0.4,0.1,0.7c0.4,2.1,0.4,4.2,0.4,6.3c0,3.4-0.9,4.9-2.1,7c-0.1,0.2-0.3,0.4-0.4,0.7c-0.7,2-2,4.5-3.3,7   c-1.3,2.4-3.4,6.5-3.4,7.6c1.3,6.5,16.4,12.1,25.4,15.5c2.7,1,5.1,1.9,6.7,2.6l1.2,0.5v21.6H183.9V333.2z"/>
	<rect x="309.1" y="331.4" class="st2" width="108.7" height="19.7"/>
	<path class="st2" d="M457.4,211.3c-0.4-4.6-2.4-8.9-5.6-12.3c-3.3-3.4-7.5-5.4-12-5.9v-0.1H163.9l-2,0v0.1c-4.5,0.5-8.7,2.5-12,5.9   c-3.2,3.4-5.2,7.7-5.7,12.3l-0.1,0l0,4v184c0,0.3,0,0.5,0,0.8c0,2.6,1,5,2.8,6.8c1.8,1.8,4.2,2.9,6.7,2.9c0,0,0,0,0,0h294.5l2,0   v-0.2c4.2-0.9,7.4-4.8,7.4-9.4l0-188.8H457.4z M163,213.1c0.1-0.2,0.2-0.4,0.3-0.5c0.1-0.1,0.2-0.2,0.4-0.2h274.1l0.2,0   c0.1,0,0.3,0.1,0.4,0.3c0.1,0.1,0.2,0.3,0.3,0.5v2.3h0v175.1H163V215.3h0L163,213.1z"/>
	<rect x="309.1" y="295.9" class="st2" width="31.1" height="19.7"/>
	<rect x="349.3" y="295.9" class="st2" width="68.4" height="19.7"/>
	<rect x="306.4" y="260.5" class="st2" width="111.3" height="19.7"/>
	<path class="st2" d="M286.2,331.1l-1.2-0.5c-1.7-0.8-4-1.6-6.7-2.6c-9-3.4-24.1-9-25.4-15.5c0-1.1,2.1-5.2,3.4-7.6   c1.3-2.5,2.6-5,3.3-7c0.1-0.2,0.3-0.5,0.4-0.7c1.3-2,2.2-3.5,2.1-7c0-2.1-0.1-4.2-0.4-6.3c-0.1-0.3-0.1-0.5-0.1-0.7   c-0.2-1.1-0.3-1.7-1.1-2.9c-1-1.4-0.8-5.4-0.7-8.1c0-0.9,0.1-1.7,0.1-2.4c0-13.8-11.9-21-23.6-21c-11.7,0-23.6,7.2-23.6,21   c0,0.5,0,1.2,0,2c0.1,1.9,0.2,7-0.4,8.1c-1.2,1.9-1.3,2.3-1.6,4.3l-0.1,0.5c-0.3,1.9-0.3,3.8-0.3,5.5c0,3.4,0.9,4.9,2.2,6.9   c0.1,0.2,0.3,0.4,0.4,0.6c0.6,2,1.9,4.8,3.2,7.5c1.2,2.6,3.1,6.5,3.1,7.5c-0.8,7.2-17.3,13.4-27.1,17.1c-2.8,1.1-5.3,2-7.1,2.8   l-1.2,0.5v19.4h102.3V331.1z"/>
</g>
</svg>