<?xml version="1.0" encoding="utf-8"?>
<!-- Generator: Adobe Illustrator 24.3.0, SVG Export Plug-In . SVG Version: 6.00 Build 0)  -->
<svg version="1.1"
	 id="Layer_1" image-rendering="optimizeQuality" text-rendering="geometricPrecision" shape-rendering="geometricPrecision"
	 xmlns="http://www.w3.org/2000/svg" xmlns:xlink="http://www.w3.org/1999/xlink" x="0px" y="0px" viewBox="0 0 600 600"
	 style="enable-background:new 0 0 600 600;" xml:space="preserve">
<style type="text/css">
	.st0{fill:none;}
	.st1{fill:#FFFFFF;}
	.st2{fill-rule:evenodd;clip-rule:evenodd;fill:#F58C1B;}
</style>
<g>
	<path class="st0" d="M398.5,175.1v-2.7c0-0.1-0.1-0.1-0.1-0.2c-0.1-0.1-0.2-0.1-0.2-0.2h-0.1H90.3c-0.1,0-0.2,0.1-0.2,0.1
		s-0.1,0.1-0.1,0.2v2.7l0,0v180.3h217.2c0.9-13.8,3.8-27.2,8.4-39.6h-62.5v-21.5h72.6c3.1-5.3,6.5-10.3,10.2-15.3h-37.7v-21.3h58.1
		c12.4-10.7,26.6-19.1,42.2-25.1L398.5,175.1L398.5,175.1z M228.2,317.4H112.6v-21.1l1.6-0.6c2-0.8,4.7-1.8,8-2.9
		c10.2-3.6,29.1-10.1,30.1-17.2c-0.1-1.1-2.1-4.9-3.4-7.5c-1.5-2.9-2.9-5.6-3.6-7.7c-0.1-0.2-0.3-0.4-0.4-0.6
		c-1.5-2.2-2.5-3.8-2.5-7.5c0-1.8,0-3.8,0.3-5.9l0.1-0.5c0.3-2.2,0.5-2.7,1.9-4.7c0.5-1,0.4-6.1,0.3-7.9c0-0.8,0-1.6,0-2.1
		c0-14.6,13.5-22.3,26.8-22.3c13.4,0,26.8,7.6,26.8,22.3c0,0.7,0,1.6-0.1,2.5c-0.1,2.5-0.3,6.7,0.6,7.9c0.9,1.4,1.2,2.1,1.4,3.2
		c0,0.2,0.1,0.4,0.1,0.7c0.4,2.2,0.5,4.5,0.5,6.7c0,3.8-1.1,5.3-2.5,7.6c-0.1,0.2-0.3,0.4-0.4,0.6c-0.8,2.1-2.2,4.6-3.8,7.3
		c-1.4,2.4-3.6,6.3-3.7,7.5c1.5,6.4,18.8,12.3,28.1,15.6c3.1,1,5.7,2,7.6,2.7l1.6,0.6v23.3L228.2,317.4L228.2,317.4z M288.8,279.2
		h-35.7v-21.5h35.7V279.2z M375.9,242.4H250v-21.5h125.7v21.5H375.9z"/>
	<path class="st0" d="M190.9,275.1L190.9,275.1L190.9,275.1z"/>
	<path class="st1" d="M253.1,315.9h62.5c2.7-7.5,6.2-14.7,10.1-21.5h-72.6V315.9L253.1,315.9z"/>
	<path class="st1" d="M307.2,355.6H90V175.1l0,0v-2.7c0-0.1,0.1-0.1,0.1-0.2c0.1-0.1,0.2-0.1,0.2-0.1H398h0.1c0.1,0,0.2,0.1,0.2,0.2
		c0.1,0.1,0.1,0.1,0.1,0.2v2.7l0,0v57.5c7.1-2.7,14.4-4.8,22-6.4V170h-0.2c-0.6-4.8-2.8-9.2-6.4-12.6c-3.6-3.4-8.3-5.6-13.3-6.2V151
		h-310h-2.6v0.1c-5.1,0.5-9.7,2.7-13.3,6.2c-3.6,3.4-5.9,7.8-6.4,12.6H68v5.2v190c0,0.3,0,0.5,0,0.8c0,2.8,1.2,5.5,3.3,7.5
		c2.1,2,4.8,3,7.8,3l0,0h228.4c-0.3-3.9-0.5-7.8-0.5-11.8C306.8,361.7,307,358.6,307.2,355.6z"/>
	<rect x="253.1" y="257.7" class="st1" width="35.7" height="21.5"/>
	<path class="st1" d="M298.3,279.2H336c6-7.8,12.8-15,20.4-21.5h-58.1V279.2L298.3,279.2z"/>
	<rect x="250" y="220.9" class="st1" width="125.7" height="21.5"/>
	<path class="st1" d="M219.1,290.8c-9.4-3.2-26.6-9.2-28.1-15.6c0.1-1.3,2.3-5.1,3.7-7.5c1.5-2.7,2.9-5.2,3.8-7.3
		c0.1-0.2,0.3-0.4,0.4-0.6c1.5-2.2,2.5-3.8,2.5-7.6c0-2.2-0.1-4.4-0.5-6.7c-0.1-0.3-0.1-0.5-0.1-0.7c-0.2-1.3-0.4-1.9-1.4-3.2
		c-0.9-1.4-0.7-5.4-0.6-7.9c0-0.9,0.1-1.8,0.1-2.5c0-14.6-13.5-22.3-26.8-22.3s-26.8,7.6-26.8,22.3c0,0.5,0,1.3,0,2.1
		c0.1,1.9,0.2,6.9-0.3,7.9c-1.4,2-1.6,2.6-1.9,4.7l-0.1,0.5c-0.3,2-0.3,4.1-0.3,5.9c0,3.8,1.1,5.3,2.5,7.5c0.1,0.2,0.2,0.4,0.4,0.6
		c0.7,2.1,2.1,4.9,3.6,7.7c1.3,2.5,3.3,6.4,3.4,7.5c-1.1,7.1-19.9,13.7-30.1,17.2c-3.2,1.1-6,2.1-8,2.9l-1.6,0.6v21.1h115.6v-23.3
		l-1.6-0.6C224.8,292.7,222.1,291.8,219.1,290.8z M190.9,275.1L190.9,275.1L190.9,275.1L190.9,275.1z"/>
</g>
<path class="st2" d="M512.6,287.6c1.7,0.9,3.3,2,4.6,3.4l12.4,14.2l0,0c1.2,1.4,2.2,3.1,2.8,4.9s0.9,3.9,0.7,5.7
	c-0.2,1.9-0.7,3.9-1.6,5.6c-0.8,1.7-2,3.2-3.4,4.4l-8.4,7.4c0,0.3,0.3,0.5,0.4,0.8c0.6,1.5,1.1,3.2,1.6,4.7c0,0,0,0,0,0.3
	c0.5,1.5,0.9,3.2,1.3,5v0.6l9.6,0.7c4,0.3,7.6,2.1,10,5.2l0,0c1.2,1.4,2.2,3.1,2.7,4.9c0.6,1.8,0.8,3.8,0.7,5.7l-1.4,19.1
	c-0.1,4-1.8,7.7-4.9,10.4c-2.9,2.6-6.9,3.9-10.7,3.4l-11.2-0.8c0,0.3-0.4,0.6-0.4,0.8c-0.7,1.5-1.5,3-2.3,4.7
	c-0.8,1.5-1.8,3.1-2.6,4.5l-0.3,0.4l6.3,7.2l0.3,0.3c1.2,1.4,2.1,3.2,2.6,5c1.1,3.7,0.8,7.7-0.8,11.2c-0.9,1.8-2,3.3-3.4,4.7H517
	l-14.3,12.3c-1.4,1.3-3.1,2.3-4.9,3c-1.8,0.6-3.9,0.9-5.9,0.7c-1.9-0.2-4-0.7-5.7-1.6c-1.7-0.8-3.2-2-4.5-3.4l-7-8.8
	c-0.3,0.1-0.6,0.3-0.9,0.3c-1.6,0.5-3.2,1.1-4.9,1.6c-1.7,0.5-3.3,0.9-5,1.3c-0.3,0.1-0.4,0.1-0.7,0l-0.7,9.5
	c-0.1,1.9-0.6,3.9-1.5,5.6c-0.9,1.7-2,3.2-3.4,4.5l0,0c-1.4,1.2-3.1,2.2-4.9,2.8c-1.8,0.6-3.8,0.8-5.7,0.7l-19.1-1.4
	c-8-0.4-14.2-7.3-13.7-15.4c0-0.2,0-0.3,0-0.4l0.5-11.1l-0.8-0.4c-1.5-0.7-3-1.5-4.6-2.4c-1.5-0.8-3.1-1.7-4.5-2.6l-0.4-0.3l-7,6.3
	l-0.3,0.3c-1.5,1.2-3.2,2.1-5,2.6s-3.8,0.8-5.7,0.6c-1.8-0.1-3.8-0.6-5.5-1.4c-1.8-0.8-3.3-2-4.6-3.4l0,0l-12.4-14.5
	c-1.3-1.5-2.4-3.3-3.1-5.3c-0.6-1.8-0.9-3.9-0.7-5.7c0.3-4,2.1-7.6,5.3-10l8.4-7.2c-0.2-0.3-0.3-0.6-0.4-0.9
	c-0.4-1.5-1.1-3.1-1.6-4.8c-0.4-1.7-1-3.4-1.2-5v-0.7l-9.5-0.7c-1.9-0.1-3.9-0.5-5.6-1.4c-1.7-0.9-3.2-2-4.5-3.4l0,0
	c-1.2-1.4-2.2-3.1-2.7-4.9c-0.6-1.8-0.9-3.8-0.7-5.7l1.4-19.1c0.1-1.9,0.6-3.9,1.4-5.6c0.9-1.7,2-3.3,3.4-4.6
	c1.5-1.2,3.2-2.2,5.1-2.8c1.8-0.6,3.8-0.9,5.7-0.8l11.2,0.8c0-0.3,0.3-0.6,0.4-0.8c0.7-1.5,1.5-3,2.3-4.7c0.8-1.5,1.8-3.1,2.6-4.5
	l0.4-0.4l-6.2-7.3c-1.3-1.4-2.2-3.2-2.8-5.1c-0.6-1.8-0.9-4-0.7-6c0.1-1.9,0.6-3.9,1.6-5.6c0.9-1.7,2-3.3,3.4-4.6l14.2-12.4l0,0
	c1.5-1.2,3.1-2.2,5-2.8c1.8-0.6,3.9-0.9,5.7-0.7c1.9,0.2,3.9,0.7,5.6,1.6c1.7,0.9,3.2,2,4.4,3.4l7.4,8.4l0.7-0.4
	c1.6-0.6,3.2-1.1,4.9-1.7c1.7-0.6,3.4-0.9,5-1.2c0.3,0,0.4,0,0.7,0l0.7-9.5c0.1-1.9,0.6-3.9,1.5-5.6c0.9-1.7,2-3.2,3.4-4.5l0,0
	c1.4-1.2,3.1-2.2,4.9-2.7c1.8-0.6,3.8-0.8,5.7-0.7l19.1,1.4c1.9,0.2,3.9,0.6,5.6,1.5c1.8,0.8,3.3,1.9,4.7,3.4c1.2,1.4,2.2,3.2,2.8,5
	c0.6,1.8,0.8,3.9,0.6,5.8l-0.5,11.4l0.8,0.4c1.5,0.7,3,1.5,4.6,2.4c1.5,0.8,3.1,1.7,4.5,2.6l0.5,0.3l7.3-6.2
	c1.5-1.3,3.3-2.3,5.3-2.9c1.8-0.6,3.9-0.9,5.7-0.7c1.9,0.1,3.9,0.6,5.6,1.6v0.2H512.6z M444.8,339.1c12.2-1.1,23,7.9,24,20.1
	s-7.9,23-20.1,24c-12.2,1.1-23-7.9-24-20.1C423.6,351,432.5,340.2,444.8,339.1C444.8,339.2,444.8,339.2,444.8,339.1L444.8,339.1z
	 M442.4,311.6c27.4-2.4,51.4,17.9,53.8,45.2s-17.9,51.4-45.2,53.8s-51.4-17.8-53.8-45.2C394.8,338.1,414.9,314,442.4,311.6
	C442.3,311.6,442.4,311.6,442.4,311.6z"/>
</svg>
