<?xml version="1.0" standalone="no"?>
<!DOCTYPE svg PUBLIC "-//W3C//DTD SVG 1.1//EN" "http://www.w3.org/Graphics/SVG/1.1/DTD/svg11.dtd">
<svg xmlns="http://www.w3.org/2000/svg" xmlns:xlink="http://www.w3.org/1999/xlink" version="1.1" id="Layer_1" image-rendering="optimizeQuality" shape-rendering="geometricPrecision" text-rendering="geometricPrecision" x="0px" y="0px" viewBox="0 0 600 600" style="enable-background:new 0 0 600 600;" xml:space="preserve" width="600" height="600">
<style type="text/css">
	.st0{fill:#FFFFFF;}
	.st1{fill:#F58C1B;stroke:#F58C1B;stroke-width:4;stroke-miterlimit:10;}
</style>
<path class="st0" d="M398.8,531.8h93.9l-52.5-174.3c-2.4-6.8-8.5-11-15.6-11h-10.8V121.3c0-19.9-15.8-35.6-35.6-35.6H186.5  c-21.1,0-39,17.9-39,39v310.5c0,20.2,18.6,37.3,38.6,37.3H376 M283.3,455.9c-5.4,0-9.5-4.1-9.5-9.5c0-5.2,4.3-9.5,9.5-9.5  c5.4,0,9.5,4.1,9.5,9.5C292.7,451.8,288.8,455.9,283.3,455.9z M388.7,421.6h-214V124.1h213.8v222.3h-33.3c-9,0-16.6,8-16.6,17  c0,9,7.6,17,16.6,17h33.6V421.6z"/>
<path class="st1" d="M294.8,338c5-0.7,8.9,4.2,7.2,8.9c-0.9,2.4-2.9,4.1-5.5,4.4c-5.8,0.8-11.7,0.9-17.6,0.5  c-21.6-1.5-41.1-10.8-55.6-25.3c-15.7-15.7-25.5-37.5-25.5-61.5c0-24,9.7-45.7,25.5-61.5s37.5-25.5,61.5-25.5  c8.3,0,16.4,1.2,24.2,3.4c6.3,1.8,12.5,4.4,18.2,7.6l-1.7-4.5c-1.4-3.8,0.5-8,4.2-9.4c3.8-1.4,8,0.5,9.4,4.2l7.2,19  c0.3,0.7,0.4,1.5,0.5,2.3c0.6,3.5-1.5,7-5.1,8.1l-19.4,5.9c-3.8,1.2-7.9-1-9.1-4.8c-1.2-3.8,1-7.9,4.8-9.1l1.6-0.5  c-4.6-2.5-9.5-4.5-14.5-5.9c-6.4-1.9-13.3-2.9-20.4-2.9c-20.3,0-38.7,8.2-52,21.5c-13.3,13.3-21.5,31.7-21.5,52  c0,20.3,8.2,38.7,21.5,52c12.1,12.1,28.3,19.9,46.3,21.3C284.4,338.8,289.7,338.7,294.8,338L294.8,338z M271.6,229.7  c0-3.7,3-6.7,6.7-6.7c3.7,0,6.7,3,6.7,6.7v40.9l28,12.3c3.4,1.5,4.9,5.5,3.4,8.8c-1.5,3.4-5.5,4.9-8.8,3.4L276,281.3  c-2.5-1-4.4-3.4-4.4-6.3V229.7L271.6,229.7z M318.3,330.8c-5.4,2.8-4.7,10.7,1.1,12.4c1.7,0.5,3.4,0.3,4.9-0.5  c4.3-2.2,8.5-4.7,12.4-7.6c1.9-1.4,2.9-3.7,2.7-6c-0.5-5.2-6.5-7.9-10.7-4.8C325.4,326.8,321.9,329,318.3,330.8z M345.7,306.7  c-3.1,4.6,0.4,10.7,5.9,10.5c2.2-0.1,4.1-1.2,5.3-3c2.7-4,5.1-8.3,7.1-12.7c1.9-4.4-1.1-9.3-5.9-9.5c-2.7-0.1-5.2,1.4-6.4,3.9  C350,299.7,348,303.3,345.7,306.7z M358,272.3c-0.2,2.6,1,5.1,3.3,6.5c4.3,2.4,9.6-0.3,10.1-5.2c0.5-4.9,0.5-9.7,0.2-14.5  c-0.2-2.3-1.5-4.4-3.6-5.5c-4.7-2.4-10.2,1.2-9.8,6.4C358.5,264.1,358.4,268.1,358,272.3L358,272.3z M352.4,236.1  c1.5,3.5,5.5,5,9,3.4c3.3-1.5,4.8-5.4,3.4-8.8c-1.9-4.5-4.2-8.8-6.8-12.8c-3.3-5.1-11-3.6-12.2,2.3c-0.3,1.7,0,3.4,0.9,4.9  C348.9,228.7,350.8,232.3,352.4,236.1z"/>
</svg>