<?xml version="1.0" encoding="utf-8"?>
<!-- Generator: Adobe Illustrator 24.3.0, SVG Export Plug-In . SVG Version: 6.00 Build 0)  -->
<svg version="1.1"
	 id="Layer_1" text-rendering="geometricPrecision" image-rendering="optimizeQuality" shape-rendering="geometricPrecision"
	 xmlns="http://www.w3.org/2000/svg" xmlns:xlink="http://www.w3.org/1999/xlink" x="0px" y="0px" viewBox="0 0 600 600"
	 style="enable-background:new 0 0 600 600;" xml:space="preserve">
<style type="text/css">
	.st0{fill:#FFFFFF;}
	.st1{fill:#F58C1B;stroke:#F58C1B;stroke-width:4;stroke-miterlimit:10;}
</style>
<path class="st0" d="M398.8,531.8h93.9l-52.5-174.3c-2.4-6.8-8.5-11-15.6-11h-10.8V121.3c0-19.9-15.8-35.6-35.6-35.6H186.5
	c-21.1,0-39,17.9-39,39v310.5c0,20.2,18.6,37.3,38.6,37.3H376 M283.3,455.9c-5.4,0-9.5-4.1-9.5-9.5c0-5.2,4.3-9.5,9.5-9.5
	c5.4,0,9.5,4.1,9.5,9.5C292.7,451.8,288.8,455.9,283.3,455.9z M388.7,421.6h-214V124.1h213.8v222.3h-33.3c-9,0-16.6,8-16.6,17
	s7.6,17,16.6,17h33.6v41.2H388.7z"/>
<path class="st1" d="M281.5,187.3c-46.1,0-83.5,37.4-83.5,83.5s37.4,83.5,83.5,83.5s83.5-37.4,83.5-83.5S327.6,187.3,281.5,187.3z
	 M328.9,256.1L278.8,302c-3.3,3-8.4,2.9-11.5-0.3l-25.1-25.1c-3.3-3.2-3.4-8.5-0.2-11.8s8.5-3.4,11.8-0.2c0.1,0.1,0.1,0.1,0.2,0.2
	l19.4,19.4l44.2-40.5c3.4-3.1,8.7-2.9,11.8,0.5S332.3,253,328.9,256.1z"/>
</svg>
