<?xml version="1.0" standalone="no"?>
<!DOCTYPE svg PUBLIC "-//W3C//DTD SVG 1.1//EN" "http://www.w3.org/Graphics/SVG/1.1/DTD/svg11.dtd">
<svg xmlns="http://www.w3.org/2000/svg" xmlns:xlink="http://www.w3.org/1999/xlink" version="1.1" id="Layer_1" image-rendering="optimizeQuality" shape-rendering="geometricPrecision" text-rendering="geometricPrecision" x="0px" y="0px" viewBox="0 0 600 600" style="enable-background:new 0 0 600 600;" xml:space="preserve" width="600" height="600">
<style type="text/css">
	.st0{fill:none;}
	.st1{fill:#FFFFFF;}
	.st2{fill-rule:evenodd;clip-rule:evenodd;fill:#F58C1B;}
</style>
<g>
	<path class="st0" d="M386.3,196v-2.6c0-0.1-0.1-0.1-0.1-0.2c-0.1-0.1-0.2-0.1-0.2-0.2l-0.1,0H93.6c-0.1,0-0.2,0.1-0.2,0.1   c0,0-0.1,0.1-0.1,0.2l0,2.6h0v172.6h206.3c0.9-13.2,3.6-26,8-37.9h-59.4v-20.6h69c2.9-5.1,6.2-9.9,9.7-14.6h-35.8V275h55.2   c11.8-10.2,25.3-18.3,40.1-24L386.3,196L386.3,196z M224.6,332.2H114.8V312l1.5-0.6c1.9-0.8,4.5-1.7,7.6-2.8   c9.7-3.4,27.6-9.7,28.6-16.5c-0.1-1.1-2-4.7-3.2-7.2c-1.4-2.8-2.8-5.4-3.4-7.4c-0.1-0.2-0.3-0.4-0.4-0.6c-1.4-2.1-2.4-3.6-2.4-7.2   c0-1.7,0-3.6,0.3-5.6l0.1-0.5c0.3-2.1,0.5-2.6,1.8-4.5c0.5-1,0.4-5.8,0.3-7.6c0-0.8,0-1.5,0-2c0-14,12.8-21.3,25.5-21.3   c12.7,0,25.5,7.3,25.5,21.3c0,0.7,0,1.5-0.1,2.4c-0.1,2.4-0.3,6.4,0.6,7.6c0.9,1.3,1.1,2,1.3,3.1c0,0.2,0.1,0.4,0.1,0.7   c0.4,2.1,0.5,4.3,0.5,6.4c0,3.6-1,5.1-2.4,7.3c-0.1,0.2-0.3,0.4-0.4,0.6c-0.8,2-2.1,4.4-3.6,7c-1.3,2.3-3.4,6-3.5,7.2   c1.4,6.1,17.9,11.8,26.7,14.9c2.9,1,5.4,1.9,7.2,2.6l1.5,0.6V332.2z M282.1,295.6h-33.9V275h33.9V295.6z M364.8,260.4H245.3v-20.6   h119.4V260.4z"/>
	<polygon class="st0" points="189.1,291.7 189.1,291.7 189.1,291.7  "/>
	<path class="st1" d="M248.2,330.7h59.4c2.6-7.2,5.9-14.1,9.6-20.6h-69V330.7z"/>
	<path class="st1" d="M299.6,368.7H93.3V196h0l0-2.6c0-0.1,0.1-0.1,0.1-0.2c0.1-0.1,0.2-0.1,0.2-0.1h292.2l0.1,0   c0.1,0,0.2,0.1,0.2,0.2c0.1,0.1,0.1,0.1,0.1,0.2v2.6h0v55c6.7-2.6,13.7-4.6,20.9-6.1l0-53.9h-0.2c-0.6-4.6-2.7-8.8-6.1-12.1   c-3.4-3.3-7.9-5.4-12.6-5.9v-0.2H93.8l-2.5,0v0.1c-4.8,0.5-9.2,2.6-12.6,5.9c-3.4,3.3-5.6,7.5-6.1,12.1h-0.2l0,5v181.9   c0,0.3,0,0.5,0,0.8c0,2.7,1.1,5.3,3.1,7.2c2,1.9,4.6,2.9,7.4,2.9c0,0,0,0,0,0h216.9c-0.3-3.7-0.5-7.5-0.5-11.3   C299.2,374.6,299.4,371.6,299.6,368.7z"/>
	<rect x="248.2" y="275" class="st1" width="33.9" height="20.6"/>
	<path class="st1" d="M291.1,295.6h35.8c5.7-7.5,12.2-14.4,19.4-20.6h-55.2V295.6z"/>
	<rect x="245.3" y="239.8" class="st1" width="119.4" height="20.6"/>
	<path class="st1" d="M215.9,306.7c-8.9-3.1-25.3-8.8-26.7-14.9c0.1-1.2,2.2-4.9,3.5-7.2c1.4-2.6,2.8-5,3.6-7   c0.1-0.2,0.3-0.4,0.4-0.6c1.4-2.1,2.4-3.6,2.4-7.3c0-2.1-0.1-4.2-0.5-6.4c-0.1-0.3-0.1-0.5-0.1-0.7c-0.2-1.2-0.4-1.8-1.3-3.1   c-0.9-1.3-0.7-5.2-0.6-7.6c0-0.9,0.1-1.7,0.1-2.4c0-14-12.8-21.3-25.5-21.3c-12.7,0-25.5,7.3-25.5,21.3c0,0.5,0,1.2,0,2   c0.1,1.8,0.2,6.6-0.3,7.6c-1.3,1.9-1.5,2.5-1.8,4.5l-0.1,0.5c-0.3,1.9-0.3,3.9-0.3,5.6c0,3.6,1,5.1,2.4,7.2   c0.1,0.2,0.2,0.4,0.4,0.6c0.7,2,2,4.7,3.4,7.4c1.2,2.4,3.1,6.1,3.2,7.2c-1,6.8-18.9,13.1-28.6,16.5c-3,1.1-5.7,2-7.6,2.8l-1.5,0.6   v20.2h109.8v-22.3l-1.5-0.6C221.3,308.5,218.8,307.7,215.9,306.7z M189.1,291.7L189.1,291.7C189.1,291.7,189.1,291.7,189.1,291.7   L189.1,291.7z"/>
</g>
<path class="st2" d="M508.8,295.6c1.9,1,3.7,2.3,5.1,3.9l13.9,16l0,0c1.4,1.6,2.5,3.5,3.2,5.5c0.7,2.1,1,4.3,0.8,6.4  c-0.2,2.2-0.8,4.3-1.8,6.3c-0.9,1.9-2.3,3.6-3.9,4.9l-9.5,8.3c0,0.3,0.3,0.6,0.4,0.9c0.7,1.7,1.2,3.6,1.8,5.3c0,0,0,0,0,0.3  c0.6,1.7,1,3.6,1.5,5.6v0.7l10.8,0.8c4.4,0.3,8.5,2.4,11.3,5.8l0,0c1.4,1.6,2.5,3.5,3.1,5.5c0.7,2.1,0.9,4.2,0.8,6.4l-1.6,21.4  c-0.1,4.5-2.1,8.7-5.5,11.7c-3.3,2.9-7.7,4.3-12.1,3.9l-12.5-0.9c0,0.3-0.4,0.7-0.5,0.9c-0.8,1.7-1.7,3.4-2.6,5.2  c-0.9,1.7-2,3.5-3,5l-0.3,0.5l7.1,8.1l0.3,0.3c1.4,1.6,2.4,3.6,3,5.6c1.3,4.1,0.9,8.6-0.9,12.5c-1,2-2.3,3.7-3.9,5.2h-0.2  l-16.1,13.8c-1.6,1.5-3.5,2.6-5.5,3.4c-2.1,0.7-4.3,1-6.6,0.8c-2.2-0.2-4.4-0.8-6.4-1.8c-1.9-0.9-3.6-2.3-5-3.9l-8-9.5  c-0.3,0.1-0.7,0.3-1,0.3c-1.8,0.6-3.6,1.2-5.5,1.8s-3.7,1-5.6,1.5c-0.3,0.1-0.5,0.1-0.8,0l-0.8,10.7c-0.1,2.2-0.7,4.3-1.7,6.3  c-1,1.9-2.3,3.6-3.9,5l0,0c-1.6,1.4-3.5,2.5-5.5,3.2c-2.1,0.7-4.2,0.9-6.4,0.8l-21.4-1.6c-9-0.5-15.9-8.2-15.4-17.3  c0-0.2,0-0.3,0-0.5l0.6-12.4l-0.9-0.5c-1.7-0.8-3.4-1.7-5.1-2.7c-1.7-0.9-3.5-1.9-5-2.9l-0.5-0.3l-7.9,7.1l-0.3,0.3  c-1.7,1.4-3.6,2.4-5.6,3c-2.1,0.6-4.2,0.9-6.4,0.7c-2.1-0.1-4.2-0.7-6.1-1.6c-2-0.9-3.7-2.3-5.1-3.9l0,0l-13.9-16.3  c-1.5-1.7-2.7-3.7-3.5-5.9c-0.7-2.1-1-4.3-0.8-6.4c0.3-4.4,2.4-8.5,5.9-11.3l9.5-8.1c-0.2-0.3-0.3-0.7-0.4-1  c-0.5-1.7-1.2-3.5-1.8-5.4c-0.5-1.9-1.1-3.9-1.4-5.6v-0.8l-10.7-0.8c-2.2-0.1-4.3-0.6-6.3-1.6c-1.9-1-3.6-2.3-5-3.9l0,0  c-1.4-1.6-2.5-3.5-3.1-5.5c-0.7-2.1-1-4.2-0.8-6.4l1.6-21.4c0.1-2.2,0.7-4.3,1.6-6.3c1-1.9,2.3-3.7,3.9-5.1c1.7-1.4,3.6-2.5,5.7-3.2  c2-0.7,4.2-1,6.4-0.9l12.5,0.9c0-0.3,0.3-0.7,0.5-0.9c0.8-1.7,1.7-3.4,2.6-5.2c0.9-1.7,2-3.5,2.9-5l0.4-0.5l-7-8.2  c-1.5-1.6-2.5-3.6-3.2-5.7c-0.7-2.1-1-4.4-0.8-6.7c0.1-2.2,0.7-4.3,1.8-6.3c1-1.9,2.3-3.7,3.9-5.1l16-13.9l0,0  c1.7-1.4,3.5-2.5,5.6-3.2c2.1-0.7,4.3-1,6.4-0.8c2.2,0.2,4.3,0.8,6.3,1.8c1.9,1,3.6,2.3,4.9,3.9l8.3,9.5l0.8-0.4  c1.8-0.7,3.6-1.2,5.5-1.9s3.9-1,5.6-1.4c0.3,0,0.5,0,0.8,0l0.8-10.7c0.1-2.2,0.7-4.3,1.7-6.3c1-1.9,2.3-3.6,3.9-5l0,0  c1.6-1.4,3.5-2.5,5.5-3.1c2.1-0.7,4.2-0.9,6.4-0.8l21.4,1.6c2.2,0.2,4.3,0.7,6.3,1.7c2,0.9,3.8,2.2,5.2,3.9c1.4,1.6,2.5,3.6,3.2,5.6  c0.7,2.1,0.9,4.3,0.7,6.5l-0.6,12.8l0.9,0.5c1.7,0.8,3.4,1.7,5.1,2.7c1.7,0.9,3.5,1.9,5,2.9l0.6,0.3l8.2-7c1.7-1.5,3.7-2.6,5.9-3.3  c2.1-0.7,4.3-1,6.4-0.8c2.2,0.1,4.3,0.7,6.3,1.8v0.2L508.8,295.6z M432.5,353.4c13.7-1.2,25.8,8.9,27,22.6  c1.2,13.7-8.9,25.8-22.6,27c-13.7,1.2-25.8-8.9-27-22.6C408.7,366.8,418.8,354.7,432.5,353.4C432.5,353.5,432.5,353.5,432.5,353.4  L432.5,353.4z M429.8,322.6c30.7-2.7,57.8,20.1,60.5,50.8c2.7,30.7-20.1,57.8-50.8,60.5c-30.7,2.7-57.8-20-60.5-50.8  c-2.7-30.7,20-57.8,50.7-60.6C429.7,322.6,429.8,322.6,429.8,322.6z"/>
</svg>