<?xml version="1.0" encoding="utf-8"?>
<!-- Generator: Adobe Illustrator 24.3.0, SVG Export Plug-In . SVG Version: 6.00 Build 0)  -->
<svg version="1.1"
	 id="Layer_1" shape-rendering="geometricPrecision" text-rendering="geometricPrecision" image-rendering="optimizeQuality"
	 xmlns="http://www.w3.org/2000/svg" xmlns:xlink="http://www.w3.org/1999/xlink" x="0px" y="0px" viewBox="0 0 600 600"
	 style="enable-background:new 0 0 600 600;" xml:space="preserve">
<style type="text/css">
	.st0{fill:none;}
	.st1{fill:#FFFFFF;}
	.st2{fill-rule:evenodd;clip-rule:evenodd;fill:#F58C1B;}
</style>
<g>
	<path class="st0" d="M398.5,175.1v-2.7c0-0.1-0.1-0.1-0.1-0.2c-0.1-0.1-0.2-0.1-0.2-0.2h-0.1H90.3c-0.1,0-0.2,0.1-0.2,0.1
		s-0.1,0.1-0.1,0.2v2.7l0,0v180.3h217.2c0.9-13.8,3.8-27.2,8.4-39.6h-62.5v-21.5h72.6c3.1-5.3,6.5-10.3,10.2-15.3h-37.7v-21.3h58.1
		c12.4-10.7,26.6-19.1,42.2-25.1L398.5,175.1L398.5,175.1z M228.2,317.4H112.6v-21.1l1.6-0.6c2-0.8,4.7-1.8,8-2.9
		c10.2-3.6,29.1-10.1,30.1-17.2c-0.1-1.1-2.1-4.9-3.4-7.5c-1.5-2.9-2.9-5.6-3.6-7.7c-0.1-0.2-0.3-0.4-0.4-0.6
		c-1.5-2.2-2.5-3.8-2.5-7.5c0-1.8,0-3.8,0.3-5.9l0.1-0.5c0.3-2.2,0.5-2.7,1.9-4.7c0.5-1,0.4-6.1,0.3-7.9c0-0.8,0-1.6,0-2.1
		c0-14.6,13.5-22.3,26.8-22.3c13.4,0,26.8,7.6,26.8,22.3c0,0.7,0,1.6-0.1,2.5c-0.1,2.5-0.3,6.7,0.6,7.9c0.9,1.4,1.2,2.1,1.4,3.2
		c0,0.2,0.1,0.4,0.1,0.7c0.4,2.2,0.5,4.5,0.5,6.7c0,3.8-1.1,5.3-2.5,7.6c-0.1,0.2-0.3,0.4-0.4,0.6c-0.8,2.1-2.2,4.6-3.8,7.3
		c-1.4,2.4-3.6,6.3-3.7,7.5c1.5,6.4,18.8,12.3,28.1,15.6c3.1,1,5.7,2,7.6,2.7l1.6,0.6v23.3H228.2z M288.8,279.2h-35.7v-21.5h35.7
		V279.2z M375.9,242.4H250v-21.5h125.7v21.5H375.9z"/>
	<path class="st0" d="M190.9,275.1L190.9,275.1L190.9,275.1z"/>
	<path class="st1" d="M253.1,315.9h62.5c2.7-7.5,6.2-14.7,10.1-21.5h-72.6L253.1,315.9L253.1,315.9z"/>
	<path class="st1" d="M307.2,355.6H90V175.1l0,0v-2.7c0-0.1,0.1-0.1,0.1-0.2c0.1-0.1,0.2-0.1,0.2-0.1H398h0.1c0.1,0,0.2,0.1,0.2,0.2
		c0.1,0.1,0.1,0.1,0.1,0.2v2.7l0,0v57.5c7.1-2.7,14.4-4.8,22-6.4V170h-0.2c-0.6-4.8-2.8-9.2-6.4-12.6c-3.6-3.4-8.3-5.6-13.3-6.2V151
		h-310h-2.6v0.1c-5.1,0.5-9.7,2.7-13.3,6.2c-3.6,3.4-5.9,7.8-6.4,12.6H68v5.2v190c0,0.3,0,0.5,0,0.8c0,2.8,1.2,5.5,3.3,7.5
		c2.1,2,4.8,3,7.8,3l0,0h228.4c-0.3-3.9-0.5-7.8-0.5-11.8C306.8,361.7,307,358.6,307.2,355.6z"/>
	<rect x="253.1" y="257.7" class="st1" width="35.7" height="21.5"/>
	<path class="st1" d="M298.3,279.2h37.7c6-7.8,12.8-15,20.4-21.5h-58.1L298.3,279.2L298.3,279.2z"/>
	<rect x="250" y="220.9" class="st1" width="125.7" height="21.5"/>
	<path class="st1" d="M219.1,290.8c-9.4-3.2-26.6-9.2-28.1-15.6c0.1-1.3,2.3-5.1,3.7-7.5c1.5-2.7,2.9-5.2,3.8-7.3
		c0.1-0.2,0.3-0.4,0.4-0.6c1.5-2.2,2.5-3.8,2.5-7.6c0-2.2-0.1-4.4-0.5-6.7c-0.1-0.3-0.1-0.5-0.1-0.7c-0.2-1.3-0.4-1.9-1.4-3.2
		c-0.9-1.4-0.7-5.4-0.6-7.9c0-0.9,0.1-1.8,0.1-2.5c0-14.6-13.5-22.3-26.8-22.3s-26.8,7.6-26.8,22.3c0,0.5,0,1.3,0,2.1
		c0.1,1.9,0.2,6.9-0.3,7.9c-1.4,2-1.6,2.6-1.9,4.7l-0.1,0.5c-0.3,2-0.3,4.1-0.3,5.9c0,3.8,1.1,5.3,2.5,7.5c0.1,0.2,0.2,0.4,0.4,0.6
		c0.7,2.1,2.1,4.9,3.6,7.7c1.3,2.5,3.3,6.4,3.4,7.5c-1.1,7.1-19.9,13.7-30.1,17.2c-3.2,1.1-6,2.1-8,2.9l-1.6,0.6v21.1h115.6v-23.3
		l-1.6-0.6C224.8,292.7,222.1,291.8,219.1,290.8z M190.9,275.1L190.9,275.1L190.9,275.1L190.9,275.1z"/>
</g>
<path class="st2" d="M523.3,282.2c1.9,1,3.7,2.3,5.2,3.9l14.1,16.2l0,0c1.4,1.6,2.5,3.5,3.2,5.6c0.7,2.1,1,4.4,0.8,6.5
	c-0.2,2.2-0.8,4.4-1.8,6.4c-0.9,1.9-2.3,3.6-3.9,5l-9.6,8.4c0,0.3,0.3,0.6,0.4,0.9c0.7,1.7,1.2,3.6,1.8,5.4c0,0,0,0,0,0.3
	c0.6,1.7,1,3.6,1.5,5.7v0.7l10.9,0.8c4.5,0.3,8.6,2.4,11.4,5.9l0,0c1.4,1.6,2.5,3.5,3.1,5.6c0.7,2.1,0.9,4.3,0.8,6.5l-1.6,21.7
	c-0.1,4.6-2.1,8.8-5.6,11.8c-3.3,2.9-7.8,4.4-12.2,3.9l-12.7-0.9c0,0.3-0.4,0.7-0.5,0.9c-0.8,1.7-1.7,3.4-2.6,5.3
	c-0.9,1.7-2,3.5-3,5.1l-0.3,0.5l7.2,8.2l0.3,0.3c1.4,1.6,2.4,3.6,3,5.7c1.3,4.2,0.9,8.7-0.9,12.7c-1,2-2.3,3.7-3.9,5.3h-0.2
	l-16.3,14c-1.6,1.5-3.5,2.6-5.6,3.4c-2.1,0.7-4.4,1-6.7,0.8c-2.2-0.2-4.5-0.8-6.5-1.8c-1.9-0.9-3.6-2.3-5.1-3.9L480,449
	c-0.3,0.1-0.7,0.3-1,0.3c-1.8,0.6-3.6,1.2-5.6,1.8c-1.9,0.6-3.7,1-5.7,1.5c-0.3,0.1-0.5,0.1-0.8,0l-0.8,10.8
	c-0.1,2.2-0.7,4.4-1.7,6.4c-1,1.9-2.3,3.6-3.9,5.1l0,0c-1.6,1.4-3.5,2.5-5.6,3.2c-2.1,0.7-4.3,0.9-6.5,0.8l-21.7-1.6
	c-9.1-0.5-16.1-8.3-15.6-17.5c0-0.2,0-0.3,0-0.5l0.6-12.6l-0.9-0.5c-1.7-0.8-3.4-1.7-5.2-2.7c-1.7-0.9-3.5-1.9-5.1-2.9l-0.5-0.3
	l-8,7.2l-0.3,0.3c-1.7,1.4-3.6,2.4-5.7,3c-2.1,0.6-4.3,0.9-6.5,0.7c-2.1-0.1-4.3-0.7-6.2-1.6c-2-0.9-3.7-2.3-5.2-3.9l0,0l-14.1-16.5
	c-1.5-1.7-2.7-3.7-3.5-6c-0.7-2.1-1-4.4-0.8-6.5c0.3-4.5,2.4-8.6,6-11.4l9.6-8.2c-0.2-0.3-0.3-0.7-0.4-1c-0.5-1.7-1.2-3.5-1.8-5.5
	c-0.5-1.9-1.1-3.9-1.4-5.7v-0.8l-10.8-0.8c-2.2-0.1-4.4-0.6-6.4-1.6c-1.9-1-3.6-2.3-5.1-3.9l0,0c-1.4-1.6-2.5-3.5-3.1-5.6
	c-0.7-2.1-1-4.3-0.8-6.5l1.6-21.7c0.1-2.2,0.7-4.4,1.6-6.4c1-1.9,2.3-3.7,3.9-5.2c1.7-1.4,3.6-2.5,5.8-3.2c2-0.7,4.3-1,6.5-0.9
	l12.7,0.9c0-0.3,0.3-0.7,0.5-0.9c0.8-1.7,1.7-3.4,2.6-5.3c0.9-1.7,2-3.5,2.9-5.1l0.4-0.5l-7.1-8.3c-1.5-1.6-2.5-3.6-3.2-5.8
	c-0.7-2.1-1-4.5-0.8-6.8c0.1-2.2,0.7-4.4,1.8-6.4c1-1.9,2.3-3.7,3.9-5.2l16.2-14.1l0,0c1.7-1.4,3.5-2.5,5.7-3.2
	c2.1-0.7,4.4-1,6.5-0.8c2.2,0.2,4.4,0.8,6.4,1.8c1.9,1,3.6,2.3,5,3.9l8.4,9.6l0.8-0.4c1.8-0.7,3.6-1.2,5.6-1.9
	c1.9-0.7,3.9-1,5.7-1.4c0.3,0,0.5,0,0.8,0l0.8-10.8c0.1-2.2,0.7-4.4,1.7-6.4c1-1.9,2.3-3.6,3.9-5.1l0,0c1.6-1.4,3.5-2.5,5.6-3.1
	c2.1-0.7,4.3-0.9,6.5-0.8l21.7,1.6c2.2,0.2,4.4,0.7,6.4,1.7c2,0.9,3.8,2.2,5.3,3.9c1.4,1.6,2.5,3.6,3.2,5.7c0.7,2.1,0.9,4.4,0.7,6.6
	l-0.6,13l0.9,0.5c1.7,0.8,3.4,1.7,5.2,2.7c1.7,0.9,3.5,1.9,5.1,2.9l0.6,0.3l8.3-7.1c1.7-1.5,3.7-2.6,6-3.3c2.1-0.7,4.4-1,6.5-0.8
	c2.2,0.1,4.4,0.7,6.4,1.8v0.2L523.3,282.2z M446.1,340.7c13.9-1.2,26.1,9,27.3,22.9c1.2,13.9-9,26.1-22.9,27.3
	c-13.9,1.2-26.1-9-27.3-22.9C422,354.3,432.2,342,446.1,340.7C446.1,340.8,446.1,340.8,446.1,340.7L446.1,340.7z M443.4,309.5
	c31.1-2.7,58.5,20.3,61.2,51.4c2.7,31.1-20.3,58.5-51.4,61.2s-58.5-20.2-61.2-51.4c-2.7-31.1,20.2-58.5,51.3-61.3
	C443.3,309.5,443.4,309.5,443.4,309.5z"/>
</svg>
