<?xml version="1.0" encoding="utf-8"?>
<!-- Generator: Adobe Illustrator 24.3.0, SVG Export Plug-In . SVG Version: 6.00 Build 0)  -->
<svg version="1.1" id="Layer_1" xmlns="http://www.w3.org/2000/svg" xmlns:xlink="http://www.w3.org/1999/xlink" x="0px" y="0px"
	 viewBox="0 0 800 800" style="enable-background:new 0 0 800 800;" xml:space="preserve">
<style type="text/css">
	.st0{fill:#FFFFFF;}
	.st1{fill:none;}
	.st2{fill:#F58C1B;}
</style>
<g>
	<path class="st0" d="M768,390.5c-1.2-3.1-3-5.9-5.2-8.2l-150-150c-9.8-9.8-25.7-9.8-35.5,0c-9.8,9.8-9.8,25.7,0,35.5L684.8,375H450
		V175c0-0.8-30-1.6-0.1-2.5v454.9c-30-0.8,0.1-1.6,0.1-2.5V425h234.8L577.2,532.2c-9.8,9.7-9.9,25.6-0.1,35.4c0,0,0.1,0.1,0.1,0.1
		c9.7,9.8,25.6,9.9,35.4,0.1c0,0,0.1-0.1,0.1-0.1l150-150c2.3-2.4,4.1-5.2,5.2-8.2C770.5,403.4,770.5,396.6,768,390.5z"/>
</g>
<g>
	<rect x="100" y="600" class="st1" width="100" height="100"/>
	<rect x="100" y="350" class="st1" width="100" height="100"/>
	<rect x="100" y="100" class="st1" width="100" height="100"/>
	<path class="st2" d="M350,125H250v-25c0-27.6-22.4-50-50-50H100c-27.6,0-50,22.4-50,50v100c0,27.6,22.4,50,50,50h100
		c27.6,0,50-22.4,50-50v-25h100v200H250v-25c0-27.6-22.4-50-50-50H100c-27.6,0-50,22.4-50,50v100c0,27.6,22.4,50,50,50h100
		c27.6,0,50-22.4,50-50v-25h100v200H250v-25c0-27.6-22.4-50-50-50H100c-27.6,0-50,22.4-50,50v100c0,27.6,22.4,50,50,50h100
		c27.6,0,50-22.4,50-50v-25h100c26.8,0,48.7-21.1,49.9-47.5V172.5C398.7,146.1,376.8,125,350,125z M200,200H100V100h100V200z
		 M200,450H100V350h100V450z M200,700H100V600h100V700z"/>
</g>
</svg>
