<?xml version="1.0" encoding="utf-8"?>
<!-- Generator: Adobe Illustrator 24.3.0, SVG Export Plug-In . SVG Version: 6.00 Build 0)  -->
<svg version="1.1"
	 id="Layer_1" shape-rendering="geometricPrecision" text-rendering="geometricPrecision" image-rendering="optimizeQuality"
	 xmlns="http://www.w3.org/2000/svg" xmlns:xlink="http://www.w3.org/1999/xlink" x="0px" y="0px" viewBox="0 0 600 600"
	 style="enable-background:new 0 0 600 600;" xml:space="preserve">
<style type="text/css">
	.st0{fill-rule:evenodd;clip-rule:evenodd;fill:#FFFFFF;}
	.st1{fill:none;}
	.st2{fill:#F58C1B;}
</style>
<g>
	<path class="st0" d="M491.6,421.1c-1.8-4.4-1.8-9.3,0-13.6c1.7-4,4.9-7.3,8.8-9.3v-28.3h-16.3v-15.9h24.2c2.2,0,4.2,0.9,5.6,2.3
		c1.5,1.5,2.3,3.5,2.3,5.6v36.6c3.7,1.9,6.7,5.2,8.3,9c1.8,4.3,1.8,9.2,0,13.5v0.1c-2.8,6.7-9.3,11-16.5,11
		C500.9,432.1,494.4,427.7,491.6,421.1L491.6,421.1z"/>
	<path class="st0" d="M557.3,315.1h-73.2v-15.9h65.2v-51.9c-3.4-2-6.1-5-7.6-8.7c-1.8-4.4-1.8-9.3,0-13.6
		c2.8-6.7,9.3-11.1,16.5-11.1c7.3,0,13.7,4.4,16.5,11.1c1.8,4.3,1.8,9.2,0.1,13.5l-0.1,0.1c-1.8,4.3-5.2,7.7-9.4,9.5v59
		c0,2.2-0.9,4.2-2.3,5.6C561.4,314.3,559.4,315.1,557.3,315.1L557.3,315.1z"/>
	<path class="st0" d="M494.9,248.1h-10.8v-11.1h0.1c0-1.6-0.2-3.2-0.5-4.9h3.2v-23.5c-3.9-1.9-7.1-5.2-8.7-9.3
		c-1.8-4.4-1.8-9.3,0-13.6c2.8-6.7,9.3-11.1,16.5-11.1c7.2,0,13.6,4.3,16.4,10.9l0.1,0.1c1.8,4.4,1.8,9.3,0,13.6
		c-1.6,3.9-4.6,7.2-8.4,9.1V240c0,2.2-0.9,4.2-2.4,5.6C499,247.3,497,248.1,494.9,248.1L494.9,248.1z"/>
</g>
<g>
	<path class="st0" d="M182.3,446.5c4.4-1.8,9.3-1.8,13.6,0c4,1.7,7.3,4.9,9.3,8.8h28.3V439h15.9v24.2c0,2.2-0.9,4.2-2.3,5.6
		c-1.5,1.5-3.5,2.3-5.6,2.3h-36.6c-1.9,3.7-5.2,6.7-9,8.3c-4.3,1.8-9.2,1.8-13.5,0h-0.1c-6.7-2.8-11-9.3-11-16.5
		C171.2,455.8,175.6,449.3,182.3,446.5L182.3,446.5z"/>
	<path class="st0" d="M295.3,497.1v-58h15.9v58c3.8,1.9,6.9,5.2,8.5,9.2c1.8,4.3,1.8,9.2,0,13.6v0.1c-2.8,6.7-9.3,11-16.5,11
		c-7.3,0-13.7-4.4-16.5-11.1c-1.8-4.3-1.8-9.2,0-13.5v-0.1C288.4,502.3,291.4,499,295.3,497.1L295.3,497.1z"/>
	<path class="st0" d="M355.2,449.9v-10.8h11.1v0.1c1.6,0,3.2-0.2,4.8-0.5v3.2h23.5c1.9-3.9,5.2-7.1,9.3-8.7c4.4-1.8,9.3-1.8,13.6,0
		c6.7,2.8,11,9.3,11,16.5c0,7.2-4.3,13.6-10.9,16.4l-0.1,0.1c-4.4,1.8-9.3,1.8-13.6,0c-3.9-1.6-7.2-4.6-9.1-8.4h-31.5
		c-2.2,0-4.2-0.9-5.6-2.4C356,454,355.2,452,355.2,449.9L355.2,449.9z"/>
</g>
<g>
	<path class="st0" d="M108.8,185.8c1.8,4.4,1.8,9.4,0,13.6c-1.7,4.1-4.9,7.3-8.8,9.3v28.3h16.3V253H92.1c-2.2,0-4.2-0.9-5.6-2.3
		c-1.5-1.5-2.3-3.5-2.3-5.6v-36.6c-3.7-1.9-6.7-5.2-8.3-9c-1.8-4.3-1.8-9.2-0.1-13.5l0.1-0.2c2.8-6.7,9.3-11,16.5-11
		C99.5,174.9,106,179.2,108.8,185.8L108.8,185.8z"/>
	<path class="st0" d="M58.3,298.9h58v15.8h-58c-1.9,3.8-5.2,6.9-9.2,8.6c-4.3,1.8-9.2,1.8-13.5,0h-0.1c-6.7-2.8-11-9.3-11-16.5
		s4.4-13.7,11.1-16.5c4.3-1.8,9.2-1.8,13.5,0l0.1,0.1C53.1,292,56.4,295.1,58.3,298.9L58.3,298.9z"/>
	<path class="st0" d="M105.5,358.8h10.8v11.9h-0.1c0,1.3,0.1,2.7,0.3,4h-3.1v23.5c3.9,1.9,7,5.2,8.7,9.3c1.8,4.4,1.8,9.3,0,13.6
		c-2.8,6.7-9.3,11.1-16.5,11.1c-7.2,0-13.6-4.3-16.4-10.9l-0.1-0.1c-3.5-8.6,0.1-18.5,8.4-22.7V367c0-2.2,0.9-4.2,2.3-5.6
		C101.4,359.7,103.4,358.8,105.5,358.8z"/>
</g>
<g>
	<path class="st0" d="M420.6,164.4c-4.4,1.8-9.4,1.8-13.6,0c-4.1-1.7-7.3-4.9-9.3-8.8h-28.3v16.3h-15.9v-24.2c0-2.2,0.9-4.2,2.3-5.6
		c1.5-1.5,3.5-2.3,5.6-2.3H398c1.9-3.7,5.2-6.7,9-8.3c4.3-1.8,9.2-1.8,13.6-0.1l0.1,0.1c6.7,2.8,11,9.3,11,16.5
		C431.6,155.1,427.3,161.6,420.6,164.4L420.6,164.4z"/>
	<path class="st0" d="M305.1,98.7v73.2h-15.9v-65.2h-51.9c-2,3.4-5,6.1-8.7,7.6c-4.4,1.8-9.3,1.8-13.6,0c-6.7-2.8-11-9.3-11-16.5
		c0-9.8,8-17.8,17.8-17.8c2.3,0,4.6,0.5,6.7,1.3l0.1,0.1c4.3,1.8,7.7,5.2,9.5,9.4h59c2.2,0,4.2,0.9,5.6,2.3
		C304.3,94.6,305.1,96.6,305.1,98.7L305.1,98.7z"/>
	<path class="st0" d="M247.6,161.1v10.8h-11.9v-0.1c-1.3,0-2.7,0.1-4,0.3V169h-23.5c-1.9,3.9-5.2,7-9.3,8.7c-4.4,1.8-9.3,1.8-13.6,0
		c-6.7-2.8-11.1-9.3-11.1-16.5c0-7.2,4.3-13.6,10.9-16.4l0.1-0.1c8.6-3.5,18.5,0.1,22.7,8.4h31.6c2.2,0,4.2,0.9,5.6,2.3
		C246.8,157,247.6,159,247.6,161.1z"/>
</g>
<g>
	<path class="st1" d="M167.6,390.1h263V223l0,0v-2.2c0-0.2-0.1-0.3-0.3-0.5c-0.1-0.1-0.3-0.2-0.4-0.3h-0.2H168.2
		c-0.1,0-0.3,0.1-0.4,0.2c-0.1,0.1-0.2,0.3-0.3,0.5v2.1l0,0V390.1z M410.6,352.6H307v-18.8h103.7L410.6,352.6L410.6,352.6z
		 M307,318.9v-18.8h29.7v18.8H307z M410.6,318.9h-65.3v-18.8h65.3V318.9z M304.4,266.2h106.2V285H304.4V266.2z M187.5,335.6l1.1-0.5
		c1.7-0.8,4-1.6,6.8-2.7c9.4-3.5,25.1-9.4,25.9-16.3c0-1-1.8-4.7-3-7.2c-1.2-2.6-2.5-5.2-3.1-7.2c-0.1-0.2-0.3-0.4-0.4-0.6
		c-1.2-1.9-2.1-3.3-2.1-6.6c0-1.6,0-3.4,0.3-5.2l0.1-0.5c0.3-1.9,0.4-2.4,1.5-4.1c0.6-1,0.5-5.8,0.4-7.7c0-0.8,0-1.4,0-1.9
		c0-13.2,11.4-20,22.5-20c11.2,0,22.5,6.9,22.5,20c0,0.7,0,1.4-0.1,2.3c-0.1,2.5-0.3,6.3,0.7,7.7c0.8,1.1,1,1.7,1,2.8
		c0,0.2,0.1,0.4,0.1,0.7c0.4,2,0.4,4,0.4,6c0,3.2-0.9,4.7-2,6.7c-0.1,0.2-0.3,0.4-0.4,0.7c-0.7,1.9-1.9,4.3-3.1,6.7
		c-1.2,2.3-3.2,6.2-3.2,7.3c1.2,6.2,15.7,11.5,24.2,14.8c2.6,1,4.9,1.8,6.4,2.5l1.1,0.5v20.6h-97.7V335.6z"/>
	<rect x="307" y="333.8" class="st2" width="103.7" height="18.8"/>
	<path class="st2" d="M448.5,219.2c-0.4-4.4-2.3-8.5-5.3-11.7c-3.1-3.2-7.2-5.2-11.5-5.6v-0.1H168.4h-1.9v0.1
		c-4.3,0.5-8.3,2.4-11.5,5.6c-3.1,3.2-5,7.3-5.4,11.7h-0.1v3.8v175.6c0,0.3,0,0.5,0,0.8c0,2.5,1,4.8,2.7,6.5c1.7,1.7,4,2.8,6.4,2.8
		l0,0h281h1.9v-0.2c4-0.9,7.1-4.6,7.1-9L448.5,219.2L448.5,219.2L448.5,219.2z M167.6,220.9c0.1-0.2,0.2-0.4,0.3-0.5
		c0.1-0.1,0.2-0.2,0.4-0.2h261.6h0.2c0.1,0,0.3,0.1,0.4,0.3c0.1,0.1,0.2,0.3,0.3,0.5v2.2l0,0v167.1H167.6V223l0,0V220.9z"/>
	<rect x="307" y="300" class="st2" width="29.7" height="18.8"/>
	<rect x="345.4" y="300" class="st2" width="65.3" height="18.8"/>
	<rect x="304.4" y="266.2" class="st2" width="106.2" height="18.8"/>
	<path class="st2" d="M285.1,333.6l-1.1-0.5c-1.6-0.8-3.8-1.5-6.4-2.5c-8.6-3.2-23-8.6-24.2-14.8c0-1,2-5,3.2-7.3
		c1.2-2.4,2.5-4.8,3.1-6.7c0.1-0.2,0.3-0.5,0.4-0.7c1.2-1.9,2.1-3.3,2-6.7c0-2-0.1-4-0.4-6c-0.1-0.3-0.1-0.5-0.1-0.7
		c-0.2-1-0.3-1.6-1-2.8c-1-1.3-0.8-5.2-0.7-7.7c0-0.9,0.1-1.6,0.1-2.3c0-13.2-11.4-20-22.5-20s-22.5,6.9-22.5,20c0,0.5,0,1.1,0,1.9
		c0.1,1.8,0.2,6.7-0.4,7.7c-1.1,1.8-1.2,2.2-1.5,4.1l-0.1,0.5c-0.3,1.8-0.3,3.6-0.3,5.2c0,3.2,0.9,4.7,2.1,6.6
		c0.1,0.2,0.3,0.4,0.4,0.6c0.6,1.9,1.8,4.6,3.1,7.2c1.1,2.5,3,6.2,3,7.2c-0.8,6.9-16.5,12.8-25.9,16.3c-2.7,1-5.1,1.9-6.8,2.7
		l-1.1,0.5V354H285L285.1,333.6L285.1,333.6z"/>
</g>
</svg>
