<?xml version="1.0" encoding="utf-8"?>
<!-- Generator: Adobe Illustrator 24.3.0, SVG Export Plug-In . SVG Version: 6.00 Build 0)  -->
<svg version="1.1"
	 id="Layer_1" image-rendering="optimizeQuality" text-rendering="geometricPrecision" shape-rendering="geometricPrecision"
	 xmlns="http://www.w3.org/2000/svg" xmlns:xlink="http://www.w3.org/1999/xlink" x="0px" y="0px" viewBox="0 0 600 600"
	 style="enable-background:new 0 0 600 600;" xml:space="preserve">
<style type="text/css">
	.st0{fill-rule:evenodd;clip-rule:evenodd;fill:#FFFFFF;}
	.st1{fill:none;}
	.st2{fill:#F58C1B;}
	.st3{fill:#FFFFFF;}
</style>
<g>
	<path class="st0" d="M491.6,1107.2c-1.8-4.4-1.8-9.3,0-13.6c1.7-4,4.9-7.3,8.8-9.3V1056h-16.3v-15.9h24.2c2.2,0,4.2,0.9,5.6,2.3
		c1.5,1.5,2.3,3.5,2.3,5.6v36.6c3.7,1.9,6.7,5.2,8.3,9c1.8,4.3,1.8,9.2,0,13.5v0.1c-2.8,6.7-9.3,11-16.5,11
		C500.9,1118.2,494.4,1113.8,491.6,1107.2L491.6,1107.2z"/>
	<path class="st0" d="M557.3,1001.2h-73.2v-15.9h65.2v-51.9c-3.4-2-6.1-5-7.6-8.7c-1.8-4.4-1.8-9.3,0-13.6
		c2.8-6.7,9.3-11.1,16.5-11.1c7.3,0,13.7,4.4,16.5,11.1c1.8,4.3,1.8,9.2,0.1,13.5l-0.1,0.1c-1.8,4.3-5.2,7.7-9.4,9.5v59
		c0,2.2-0.9,4.2-2.3,5.6C561.4,1000.4,559.4,1001.2,557.3,1001.2L557.3,1001.2z"/>
	<path class="st0" d="M494.9,934.2h-10.8v-11.1h0.1c0-1.6-0.2-3.2-0.5-4.9h3.2v-23.5c-3.9-1.9-7.1-5.2-8.7-9.3
		c-1.8-4.4-1.8-9.3,0-13.6c2.8-6.7,9.3-11.1,16.5-11.1s13.6,4.3,16.4,10.9l0.1,0.1c1.8,4.4,1.8,9.3,0,13.6c-1.6,3.9-4.6,7.2-8.4,9.1
		v31.7c0,2.2-0.9,4.2-2.4,5.6C499,933.4,497,934.2,494.9,934.2L494.9,934.2z"/>
</g>
<g>
	<path class="st0" d="M182.3,1132.6c4.4-1.8,9.3-1.8,13.6,0c4,1.7,7.3,4.9,9.3,8.8h28.3v-16.3h15.9v24.2c0,2.2-0.9,4.2-2.3,5.6
		c-1.5,1.5-3.5,2.3-5.6,2.3h-36.6c-1.9,3.7-5.2,6.7-9,8.3c-4.3,1.8-9.2,1.8-13.5,0h-0.1c-6.7-2.8-11-9.3-11-16.5
		C171.2,1141.9,175.6,1135.4,182.3,1132.6L182.3,1132.6z"/>
	<path class="st0" d="M295.3,1183.2v-58h15.9v58c3.8,1.9,6.9,5.2,8.5,9.2c1.8,4.3,1.8,9.2,0,13.6v0.1c-2.8,6.7-9.3,11-16.5,11
		c-7.3,0-13.7-4.4-16.5-11.1c-1.8-4.3-1.8-9.2,0-13.5v-0.1C288.4,1188.4,291.4,1185.1,295.3,1183.2L295.3,1183.2z"/>
	<path class="st0" d="M355.2,1136v-10.8h11.1v0.1c1.6,0,3.2-0.2,4.8-0.5v3.2h23.5c1.9-3.9,5.2-7.1,9.3-8.7c4.4-1.8,9.3-1.8,13.6,0
		c6.7,2.8,11,9.3,11,16.5s-4.3,13.6-10.9,16.4l-0.1,0.1c-4.4,1.8-9.3,1.8-13.6,0c-3.9-1.6-7.2-4.6-9.1-8.4h-31.5
		c-2.2,0-4.2-0.9-5.6-2.4C356,1140.1,355.2,1138.1,355.2,1136L355.2,1136z"/>
</g>
<g>
	<path class="st0" d="M108.8,871.9c1.8,4.4,1.8,9.4,0,13.6c-1.7,4.1-4.9,7.3-8.8,9.3v28.3h16.3v16H92.1c-2.2,0-4.2-0.9-5.6-2.3
		c-1.5-1.5-2.3-3.5-2.3-5.6v-36.6c-3.7-1.9-6.7-5.2-8.3-9c-1.8-4.3-1.8-9.2-0.1-13.5l0.1-0.2c2.8-6.7,9.3-11,16.5-11
		C99.5,861,106,865.3,108.8,871.9L108.8,871.9z"/>
	<path class="st0" d="M58.3,985h58v15.8h-58c-1.9,3.8-5.2,6.9-9.2,8.6c-4.3,1.8-9.2,1.8-13.5,0h-0.1c-6.7-2.8-11-9.3-11-16.5
		s4.4-13.7,11.1-16.5c4.3-1.8,9.2-1.8,13.5,0l0.1,0.1C53.1,978.1,56.4,981.2,58.3,985L58.3,985z"/>
	<path class="st0" d="M105.5,1044.9h10.8v11.9h-0.1c0,1.3,0.1,2.7,0.3,4h-3.1v23.5c3.9,1.9,7,5.2,8.7,9.3c1.8,4.4,1.8,9.3,0,13.6
		c-2.8,6.7-9.3,11.1-16.5,11.1s-13.6-4.3-16.4-10.9l-0.1-0.1c-3.5-8.6,0.1-18.5,8.4-22.7v-31.5c0-2.2,0.9-4.2,2.3-5.6
		C101.4,1045.8,103.4,1044.9,105.5,1044.9z"/>
</g>
<g>
	<path class="st0" d="M420.6,850.5c-4.4,1.8-9.4,1.8-13.6,0c-4.1-1.7-7.3-4.9-9.3-8.8h-28.3V858h-15.9v-24.2c0-2.2,0.9-4.2,2.3-5.6
		c1.5-1.5,3.5-2.3,5.6-2.3H398c1.9-3.7,5.2-6.7,9-8.3c4.3-1.8,9.2-1.8,13.6-0.1l0.1,0.1c6.7,2.8,11,9.3,11,16.5
		C431.6,841.2,427.3,847.7,420.6,850.5L420.6,850.5z"/>
	<path class="st0" d="M305.1,784.8V858h-15.9v-65.2h-51.9c-2,3.4-5,6.1-8.7,7.6c-4.4,1.8-9.3,1.8-13.6,0c-6.7-2.8-11-9.3-11-16.5
		c0-9.8,8-17.8,17.8-17.8c2.3,0,4.6,0.5,6.7,1.3l0.1,0.1c4.3,1.8,7.7,5.2,9.5,9.4h59c2.2,0,4.2,0.9,5.6,2.3
		C304.3,780.7,305.1,782.7,305.1,784.8L305.1,784.8z"/>
	<path class="st0" d="M247.6,847.2V858h-11.9v-0.1c-1.3,0-2.7,0.1-4,0.3v-3.1h-23.5c-1.9,3.9-5.2,7-9.3,8.7c-4.4,1.8-9.3,1.8-13.6,0
		c-6.7-2.8-11.1-9.3-11.1-16.5s4.3-13.6,10.9-16.4l0.1-0.1c8.6-3.5,18.5,0.1,22.7,8.4h31.6c2.2,0,4.2,0.9,5.6,2.3
		C246.8,843.1,247.6,845.1,247.6,847.2z"/>
</g>
<g>
	<path class="st1" d="M167.6,1076.2h263V909.1l0,0v-2.2c0-0.2-0.1-0.3-0.3-0.5c-0.1-0.1-0.3-0.2-0.4-0.3h-0.2H168.2
		c-0.1,0-0.3,0.1-0.4,0.2c-0.1,0.1-0.2,0.3-0.3,0.5v2.1l0,0v167.3H167.6z M410.6,1038.7H307v-18.8h103.7L410.6,1038.7L410.6,1038.7z
		 M307,1005v-18.8h29.7v18.8H307z M410.6,1005h-65.3v-18.8h65.3L410.6,1005L410.6,1005z M304.4,952.3h106.2v18.8H304.4V952.3z
		 M187.5,1021.7l1.1-0.5c1.7-0.8,4-1.6,6.8-2.7c9.4-3.5,25.1-9.4,25.9-16.3c0-1-1.8-4.7-3-7.2c-1.2-2.6-2.5-5.2-3.1-7.2
		c-0.1-0.2-0.3-0.4-0.4-0.6c-1.2-1.9-2.1-3.3-2.1-6.6c0-1.6,0-3.4,0.3-5.2l0.1-0.5c0.3-1.9,0.4-2.4,1.5-4.1c0.6-1,0.5-5.8,0.4-7.7
		c0-0.8,0-1.4,0-1.9c0-13.2,11.4-20,22.5-20c11.2,0,22.5,6.9,22.5,20c0,0.7,0,1.4-0.1,2.3c-0.1,2.5-0.3,6.3,0.7,7.7
		c0.8,1.1,1,1.7,1,2.8c0,0.2,0.1,0.4,0.1,0.7c0.4,2,0.4,4,0.4,6c0,3.2-0.9,4.7-2,6.7c-0.1,0.2-0.3,0.4-0.4,0.7
		c-0.7,1.9-1.9,4.3-3.1,6.7c-1.2,2.3-3.2,6.2-3.2,7.3c1.2,6.2,15.7,11.5,24.2,14.8c2.6,1,4.9,1.8,6.4,2.5l1.1,0.5v20.6h-97.7
		L187.5,1021.7L187.5,1021.7z"/>
	<rect x="307" y="1019.9" class="st2" width="103.7" height="18.8"/>
	<path class="st2" d="M448.5,905.3c-0.4-4.4-2.3-8.5-5.3-11.7c-3.1-3.2-7.2-5.2-11.5-5.6v-0.1H168.4h-1.9v0.1
		c-4.3,0.5-8.3,2.4-11.5,5.6c-3.1,3.2-5,7.3-5.4,11.7h-0.1v3.8v175.6c0,0.3,0,0.5,0,0.8c0,2.5,1,4.8,2.7,6.5s4,2.8,6.4,2.8l0,0h281
		h1.9v-0.2c4-0.9,7.1-4.6,7.1-9L448.5,905.3L448.5,905.3L448.5,905.3z M167.6,907c0.1-0.2,0.2-0.4,0.3-0.5s0.2-0.2,0.4-0.2h261.6
		h0.2c0.1,0,0.3,0.1,0.4,0.3c0.1,0.1,0.2,0.3,0.3,0.5v2.2l0,0v167.1H167.6V909.1l0,0V907z"/>
	<rect x="307" y="986.1" class="st2" width="29.7" height="18.8"/>
	<rect x="345.4" y="986.1" class="st2" width="65.3" height="18.8"/>
	<rect x="304.4" y="952.3" class="st2" width="106.2" height="18.8"/>
	<path class="st2" d="M285.1,1019.7l-1.1-0.5c-1.6-0.8-3.8-1.5-6.4-2.5c-8.6-3.2-23-8.6-24.2-14.8c0-1,2-5,3.2-7.3
		c1.2-2.4,2.5-4.8,3.1-6.7c0.1-0.2,0.3-0.5,0.4-0.7c1.2-1.9,2.1-3.3,2-6.7c0-2-0.1-4-0.4-6c-0.1-0.3-0.1-0.5-0.1-0.7
		c-0.2-1-0.3-1.6-1-2.8c-1-1.3-0.8-5.2-0.7-7.7c0-0.9,0.1-1.6,0.1-2.3c0-13.2-11.4-20-22.5-20s-22.5,6.9-22.5,20c0,0.5,0,1.1,0,1.9
		c0.1,1.8,0.2,6.7-0.4,7.7c-1.1,1.8-1.2,2.2-1.5,4.1l-0.1,0.5c-0.3,1.8-0.3,3.6-0.3,5.2c0,3.2,0.9,4.7,2.1,6.6
		c0.1,0.2,0.3,0.4,0.4,0.6c0.6,1.9,1.8,4.6,3.1,7.2c1.1,2.5,3,6.2,3,7.2c-0.8,6.9-16.5,12.8-25.9,16.3c-2.7,1-5.1,1.9-6.8,2.7
		l-1.1,0.5v18.6H285L285.1,1019.7L285.1,1019.7z"/>
</g>
<g>
	<path class="st3" d="M960.5,10h-29.9l3.1-16.5c1.2-5.1,2.2-11.6-0.7-16.4c-1.9-3.2-5.5-5.2-9.3-5.2l0,0c-2.5,0-7.3,0.9-11,7.2
		l-24,38.7H871c-2.1,0-3.9,1.7-3.9,3.9s1.7,3.9,3.9,3.9h19.9c1.3,0,2.6-0.7,3.3-1.8l25.2-40.6c1.3-2.2,2.9-3.4,4.4-3.4
		c1.2,0,2.2,0.7,2.6,1.4c1.6,2.7,0.2,8.7-0.3,10.8l-4,21.2c-0.2,1.1,0.1,2.3,0.8,3.2s1.8,1.4,3,1.4h34.6c2.3,0,4.2,1.8,4.2,3.9
		c0,2.2-1.9,3.9-4.2,3.9h-4.9c-0.1,0-0.1,0-0.2,0h-7.6c-2.1,0-3.9,1.7-3.9,3.9s1.7,3.9,3.9,3.9h8.4c0.4,0,0.8,0,1.2,0.1
		c3.4,0.1,3.4,0.1,3.4,3.9c0,1.8-0.9,3.8-3.5,3.8h-11.2c-2.1,0-3.9,1.7-3.9,3.9s1.7,3.9,3.9,3.9h5.8c2.1,0,5.6,0.5,5.6,4
		c0,2.1-1.7,3.6-4.1,3.6h-9.8c-2.1,0-3.9,1.7-3.9,3.9c0,2.1,1.7,3.9,3.9,3.9h0.8c7.3,0,8,0.7,8,4.1c0,1.3-0.3,2.3-0.8,2.8
		c-0.6,0.6-1.9,1-3.5,1h-43.7c-3.2,0-5.6-1.8-8.1-3.8s-5.4-4.2-9.2-4.2h-16.3c-2.1,0-3.9,1.7-3.9,3.9c0,2.1,1.7,3.9,3.9,3.9h16.3
		c1.1,0,2.7,1.3,4.4,2.6c3,2.3,7,5.4,12.8,5.4H948c3.8,0,6.9-1.1,9-3.2c2-2,3.1-4.8,3-8.3c0-2.2-0.4-4-1-5.5c3.7-1.9,6.1-5.6,6.1-10
		c0-2.1-0.5-4.1-1.6-6c3-2,4.8-5.5,4.8-9.6c0-2.6-0.4-4.7-1-6.3c3-2.1,4.9-5.6,4.9-9.4C972.4,15.3,967.1,10,960.5,10z"/>
</g>
<g>
	<path class="st0" d="M1139.2,455.9h-47.7v12.8h40.7v41.7c-2.9,1.6-5.3,4-6.6,7c-1.6,3.5-1.6,7.5,0,10.9c2.4,5.4,8,8.9,14.3,8.9
		c6.3,0,11.8-3.5,14.3-8.9c1.6-3.5,1.6-7.4,0.1-10.9l-0.1-0.1c-1.6-3.5-4.5-6.2-8.1-7.6v-47.4c0-1.8-0.8-3.4-2-4.5
		C1142.7,456.5,1141,455.9,1139.2,455.9L1139.2,455.9z"/>
	<path class="st0" d="M1116.5,418.7h-18V409h0.1c0-1.4-0.2-2.8-0.4-4.3h11.4v-20.6c-3.4-1.7-6.1-4.6-7.5-8.1
		c-1.6-3.9-1.6-8.1,0-11.9c2.4-5.9,8-9.7,14.3-9.7c6.2,0,11.8,3.8,14.2,9.5l0.1,0.1c1.6,3.9,1.6,8.1,0,11.9c-1.4,3.4-4,6.3-7.3,8
		v27.7c0,1.9-0.8,3.7-2.1,4.9C1120,418,1118.3,418.7,1116.5,418.7L1116.5,418.7z"/>
</g>
<g>
	<path class="st0" d="M871.3,585c3.8-1.6,8-1.6,11.8,0c3.5,1.5,6.3,4.3,8,7.7h24.5V569h13.7v30.6c0,1.9-0.8,3.7-2,4.9
		c-1.3,1.3-3,2-4.8,2h-31.6c-1.6,3.2-4.5,5.9-7.8,7.3c-3.7,1.6-8,1.6-11.7,0h-0.1c-5.8-2.5-9.5-8.1-9.5-14.4
		C861.7,593.2,865.5,587.5,871.3,585L871.3,585z"/>
	<path class="st0" d="M984.5,615.6v-39.8h13.7v39.8c3.3,1.7,6,4.6,7.3,8.1c1.6,3.8,1.6,8.1,0,11.9v0.1c-2.4,5.9-8,9.6-14.3,9.6
		s-11.8-3.9-14.3-9.7c-1.6-3.8-1.6-8.1,0-11.8v-0.1C978.5,620.1,981.1,617.3,984.5,615.6L984.5,615.6z"/>
</g>
<g>
	<path class="st0" d="M996.8,337.6c-3.8,1.6-8.1,1.6-11.8,0c-3.5-1.5-6.3-4.3-8-7.7h-24.5v25.6h-13.7V323c0-1.9,0.8-3.7,2-4.9
		c1.3-1.3,3-2,4.8-2h31.6c1.6-3.2,4.5-5.9,7.8-7.3c3.7-1.6,8-1.6,11.8-0.1l0.1,0.1c5.8,2.5,9.5,8.1,9.5,14.4
		C1006.3,329.5,1002.6,335.2,996.8,337.6L996.8,337.6z"/>
</g>
<path class="st1" d="M821.5,538.5h235.4V389l0,0v-2c0-0.2-0.1-0.3-0.3-0.4c-0.1-0.1-0.3-0.2-0.4-0.3h32.3H854.6
	c-32.6,0-32.8,0.1-32.9,0.2c-0.1,0.1-0.2,0.3-0.3,0.4v1.9v29v149.8L821.5,538.5z M1039.1,505h-92.7v-16.8h92.8L1039.1,505
	L1039.1,505z M946.3,474.8V458h26.6v16.8H946.3z M1039.1,474.8h-58.5V458h58.5V474.8L1039.1,474.8z M944,427.6h95.1v16.8H944V427.6z
	 M839.4,489.7l1-0.4c1.5-0.7,3.6-1.4,6.1-2.4c8.4-3.1,22.5-8.4,23.2-14.6c0-0.9-1.6-4.2-2.7-6.4c-1.1-2.3-2.2-4.7-2.8-6.4
	c-0.1-0.2-0.3-0.4-0.4-0.5c-1.1-1.7-1.9-3-1.9-5.9c0-1.4,0-3,0.3-4.7l0.1-0.4c0.3-1.7,0.4-2.1,1.3-3.7c0.5-0.9,0.4-5.2,0.4-6.9
	c0-0.7,0-1.3,0-1.7c0-11.8,10.2-17.9,20.1-17.9c10,0,20.1,6.2,20.1,17.9c0,0.6,0,1.3-0.1,2.1c-0.1,2.2-0.3,5.6,0.6,6.9
	c0.7,1,0.9,1.5,0.9,2.5c0,0.2,0.1,0.4,0.1,0.6c0.4,1.8,0.4,3.6,0.4,5.4c0,2.9-0.8,4.2-1.8,6c-0.1,0.2-0.3,0.4-0.4,0.6
	c-0.6,1.7-1.7,3.8-2.8,6c-1.1,2.1-2.9,5.5-2.9,6.5c1.1,5.5,14.1,10.3,21.7,13.2c2.3,0.9,4.4,1.6,5.7,2.2l1,0.4v18.4h-87.5
	L839.4,489.7L839.4,489.7z"/>
<rect x="952.3" y="488.1" class="st3" width="75.9" height="16.8"/>
<rect x="976.6" y="463.4" class="st3" width="51.6" height="14.9"/>
<rect x="944.2" y="436.6" class="st3" width="84" height="14.9"/>
<path class="st3" d="M934.5,498l-1-0.4c-1.4-0.7-3.3-1.3-5.6-2.2c-7.5-2.8-20-7.5-21-12.9c0-0.9,1.7-4.4,2.8-6.4
	c1-2.1,2.2-4.2,2.7-5.8c0.1-0.2,0.3-0.4,0.3-0.6c1-1.7,1.8-2.9,1.7-5.8c0-1.7-0.1-3.5-0.3-5.2c-0.1-0.3-0.1-0.4-0.1-0.6
	c-0.2-0.9-0.3-1.4-0.9-2.4c-0.9-1.1-0.7-4.5-0.6-6.7c0-0.8,0.1-1.4,0.1-2c0-11.5-9.9-17.4-19.5-17.4c-9.6,0-19.5,6-19.5,17.4
	c0,0.4,0,1,0,1.7c0.1,1.6,0.2,5.8-0.3,6.7c-1,1.6-1,1.9-1.3,3.6l-0.1,0.4c-0.3,1.6-0.3,3.1-0.3,4.5c0,2.8,0.8,4.1,1.8,5.7
	c0.1,0.2,0.3,0.3,0.3,0.5c0.5,1.7,1.6,4,2.7,6.3c1,2.2,2.6,5.4,2.6,6.3c-0.7,6-14.3,11.2-22.5,14.2c-2.3,0.9-4.4,1.7-5.9,2.4l-1,0.4
	v16.2h84.7L934.5,498L934.5,498z"/>
<g>
	<path class="st3" d="M1073,385.6c-0.4-3.9-2.1-7.6-4.7-10.5c-2.8-2.9-6.4-4.7-10.3-5V370H913.6c0.7,3.9,1.1,8,1.1,12.1
		c0,1.5-0.1,2.9-0.2,4.3h141.8h0.2c0.1,0,0.3,0.1,0.4,0.3c0.1,0.1,0.2,0.3,0.3,0.4v2v149.6H821.5v-65.2c-5.1,2-10.6,3.4-16.2,4.2
		v68.5c0,0.3,0,0.4,0,0.7c0,2.2,0.9,4.3,2.4,5.8s3.6,2.5,5.7,2.5h251.5h1.7V555c3.6-0.8,6.4-4.1,6.4-8.1V385.6z"/>
</g>
<path class="st2" d="M755.8,504.7v-23.6c0-3.2,1.8-6.1,4.8-7.8l47.9-18c3.3-1.9,7.1-2.9,11-2.9h37.8c5.7,0,10.3-4.1,10.3-9.2v-3.1
	c0-13.6-12.3-24.6-27.4-24.6h-27.6c-5.5,0-10.5-3-12.7-7.6l-9.2-24.3c-2.1-4.6,1.6-9.6,7.1-9.6h82.9c13.3,0,24-14.2,24-26.1v-6.1
	c0-5.1-4.6-9.2-10.3-9.2H767.2c-7.1,0-13.6,3.2-17.4,8.6l-60.7,88.5c-4.2,5.9-6.4,12.7-6.4,19.7"/>
<g>
	<rect x="301.3" y="309.2" class="st2" width="103.6" height="20.4"/>
	<path class="st2" d="M442.7,184.6c-0.4-4.8-2.3-9.2-5.3-12.7c-3.1-3.5-7.2-5.7-11.5-6.1v-0.1h-263H161v0.1
		c-4.3,0.5-8.3,2.6-11.5,6.1c-3.1,3.5-5,7.9-5.4,12.7H144v4.1v77.5h18.1v-77.5v-2.3c0.1-0.2,0.2-0.4,0.3-0.5
		c0.1-0.1,0.2-0.2,0.4-0.2h261.3h0.2c0.1,0,0.3,0.1,0.4,0.3c0.1,0.1,0.2,0.3,0.3,0.5v2.4v181.7H244.3v20h189.4h1.9v-0.2
		c4-1,7.1-5,7.1-9.8L442.7,184.6z"/>
	<rect x="301.3" y="272.4" class="st2" width="29.7" height="20.4"/>
	<rect x="339.7" y="272.4" class="st2" width="65.2" height="20.4"/>
	<rect x="298.7" y="235.7" class="st2" width="106.1" height="20.4"/>
	<path class="st2" d="M265.1,312.3l-1-0.4c-1.4-0.8-3.3-1.4-5.6-2.4c-7.5-3-20-8.2-21-14c0-1,1.7-4.8,2.8-7c1-2.3,2.2-4.6,2.7-6.3
		c0.1-0.2,0.3-0.4,0.3-0.7c1-1.8,1.8-3.2,1.7-6.3c0-1.8-0.1-3.8-0.3-5.7c-0.1-0.3-0.1-0.4-0.1-0.7c-0.2-1-0.3-1.5-0.9-2.6
		c-0.9-1.2-0.7-4.9-0.6-7.3c0-0.9,0.1-1.5,0.1-2.2c0-12.5-9.9-18.9-19.5-18.9s-19.5,6.5-19.5,18.9c0,0.4,0,1.1,0,1.8
		c0.1,1.7,0.2,6.3-0.3,7.3c-1,1.7-1,2.1-1.3,3.9l-0.1,0.4c-0.3,1.7-0.3,3.4-0.3,4.9c0,3,0.8,4.5,1.8,6.2c0.1,0.2,0.3,0.3,0.3,0.5
		c0.5,1.8,1.6,4.3,2.7,6.8c1,2.4,2.6,5.9,2.6,6.8c-0.7,6.5-14.3,12.2-22.5,15.4c-2.3,1-4.4,1.8-5.9,2.6l-1,0.4v17.6h84.6
		L265.1,312.3L265.1,312.3z"/>
</g>
<path class="st3" d="M233.3,488.8l-24.1-8.5c-3.2-1.1-5.6-3.8-6.4-7.1l-3.2-49.6c-0.9-3.6-0.7-7.4,0.6-10.9l12-34.1
	c1.8-5.1-0.9-10.7-6.1-12.6l-3.1-1.1c-13.8-4.9-28.9,2.2-33.8,15.9l-8.8,24.9c-1.8,5-6.4,8.4-11.7,8.7l-27.7-0.5
	c-5.3,0.3-9.2-4.9-7.5-9.8l26.3-74.6c4.2-11.9-6.9-26.7-19-31l-6.3-2.2c-5.2-1.8-10.9,0.8-12.7,6L61.5,416.8
	c-2.2,6.4-1,13.4,3.2,18.7l71,86.4c4.7,5.9,10.9,10.3,18,12.8"/>
<g>
	<g>
		<path class="st0" d="M516.9,284.8h-56.5V300h48.2v49.4c-3.4,1.9-6.3,4.7-7.8,8.3c-1.9,4.1-1.9,8.9,0,12.9
			c2.8,6.4,9.5,10.5,16.9,10.5c7.5,0,14-4.1,16.9-10.5c1.9-4.1,1.9-8.8,0.1-12.9l-0.1-0.1c-1.9-4.1-5.3-7.3-9.6-9v-56.2
			c0-2.1-0.9-4-2.4-5.3C521,285.5,519,284.8,516.9,284.8L516.9,284.8z"/>
		<path class="st0" d="M490,240.7h-21.3v-11.5h0.1c0-1.7-0.2-3.3-0.5-5.1h13.5v-24.4c-4-2-7.2-5.5-8.9-9.6c-1.9-4.6-1.9-9.6,0-14.1
			c2.8-7,9.5-11.5,16.9-11.5c7.3,0,14,4.5,16.8,11.3l0.1,0.1c1.9,4.6,1.9,9.6,0,14.1c-1.7,4-4.7,7.5-8.7,9.5v32.8
			c0,2.3-0.9,4.4-2.5,5.8C494.1,239.9,492.1,240.7,490,240.7L490,240.7z"/>
	</g>
	<g>
		<path class="st0" d="M310.9,455.3v-47.2h16.2v47.2c3.9,2,7.1,5.5,8.7,9.6c1.9,4.5,1.9,9.6,0,14.1v0.1c-2.8,7-9.5,11.4-16.9,11.4
			s-14-4.6-16.9-11.5c-1.9-4.5-1.9-9.6,0-14v-0.1C303.8,460.6,306.9,457.3,310.9,455.3L310.9,455.3z"/>
	</g>
	<g>
		<path class="st0" d="M385.4,113.7c-4.5,1.9-9.6,1.9-14,0c-4.1-1.8-7.5-5.1-9.5-9.1h-29V145h-16.2V96.4c0-2.3,0.9-4.4,2.4-5.8
			c1.5-1.5,3.6-2.4,5.7-2.4h37.5c1.9-3.8,5.3-7,9.2-8.7c4.4-1.9,9.5-1.9,14-0.1l0.1,0.1c6.9,3,11.3,9.6,11.3,17.1
			C396.6,104.1,392.2,110.9,385.4,113.7L385.4,113.7z"/>
	</g>
</g>
<path class="st0" d="M257.5,124.1V148h-14.1v-0.1c-1.5,0-3.2,0.1-4.7,0.4v-14.8h-27.9c-2.3,4.6-6.2,8.3-11,10.3
	c-5.2,2.1-11,2.1-16.1,0c-7.9-3.3-13.2-11-13.2-19.6s5.1-16.1,12.9-19.4l0.1-0.1c10.2-4.1,21.9,0.1,26.9,10h37.5
	c2.6,0,5,1.1,6.6,2.7C256.6,119.2,257.5,121.6,257.5,124.1z"/>
</svg>
