<?xml version="1.0" encoding="utf-8"?>
<!-- Generator: Adobe Illustrator 24.3.0, SVG Export Plug-In . SVG Version: 6.00 Build 0)  -->
<svg version="1.1" id="Layer_1" xmlns="http://www.w3.org/2000/svg" xmlns:xlink="http://www.w3.org/1999/xlink" x="0px" y="0px"
	 viewBox="0 0 800 600" style="enable-background:new 0 0 800 600;" xml:space="preserve">
<style type="text/css">
	.st0{fill:#FF9A22;}
	.st1{opacity:0.2;enable-background:new    ;}
	.st2{fill:#FF9000;}
	.st3{fill:#AF5F00;}
	.st4{fill:#455A64;}
	.st5{fill:none;}
	.st6{fill:#FFFFFF;}
	.st7{fill:#222221;}
</style>
<g id="freepik--Card--inject-3_2_">
	<g id="freepik--card--inject-3_2_">
		<path class="st0" d="M416.3,308l-0.6,4.7c-0.1,1.7,0.6,3.1,1.6,3.9l122.2,76.5c1.3,0.6,2.9,0.6,4.2-0.3l213-136.7
			c1.4-1,2.4-2.6,2.6-4.2l0.6-4.7c0.1-1.7-0.5-3.2-1.6-3.9l-122.2-76.5c-1.3-0.6-2.9-0.6-4.2,0.3l-213,136.7
			C417.6,304.8,416.6,306.3,416.3,308z"/>
		<path class="st1" d="M545,382.9l213-136.7c1.3-0.8,1.4-2,0.3-2.7l-122.2-76.5c-1.3-0.6-2.9-0.6-4.2,0.3l-213,136.7
			c-1.3,0.8-1.4,2-0.3,2.7l122.2,76.5C542.2,383.8,543.7,383.8,545,382.9z"/>
		<path class="st2" d="M545,382.9l213-136.7c1.3-0.8,1.4-2,0.3-2.7l-122.2-76.5c-1.3-0.6-2.9-0.6-4.2,0.3l-213,136.7
			c-1.3,0.8-1.4,2-0.3,2.7l122.2,76.5C542.2,383.8,543.7,383.8,545,382.9z"/>
		<path class="st3" d="M542.9,383.5l-1.1,10.1c-0.8,0.1-1.5-0.1-2-0.5l-122.2-76.5c-1.2-0.9-1.8-2.3-1.6-3.9l0.6-4.7
			c0.3-1.4,1-2.8,2.2-3.8c-0.9,0.8-0.9,1.8,0.1,2.4L541,383.1C541.5,383.3,542.2,383.6,542.9,383.5z"/>
	</g>
	<path class="st4" d="M526.2,317.8l-18.4,9.5c-2.8,1.1-5.9,1.2-8.5-0.5l-4.8-3c-2.4-1.5-2.2-3.6,0.1-4.8l18.4-9.5
		c2.8-1.1,5.9-1.2,8.5,0.5l4.8,3C528.6,314.2,528.7,316.5,526.2,317.8z"/>
	<path class="st4" d="M560,298.8l-18.4,9.5c-2.8,1.1-5.9,1.2-8.5-0.5l-4.8-3c-2.4-1.5-2.2-3.6,0.1-4.8l18.4-9.5
		c2.8-1.1,5.9-1.2,8.5,0.5l4.8,3C562.4,295.5,562.3,297.6,560,298.8z"/>
	<path class="st4" d="M721.9,251.8L636.1,306c-3.9,1.7-8.3,1.9-11.8-0.3l-6.6-4.1c-3.3-2.1-2.9-5,0.4-6.8l85.7-54.2
		c3.9-1.7,8.3-1.9,11.8,0.3l6.6,4.1C725.3,246.9,725.1,250,721.9,251.8z"/>
	<path class="st4" d="M695,235l-55.8,34.3c-3.9,1.7-8.3,1.9-11.8-0.3l-6.6-4.1c-3.3-2.1-2.9-5,0.4-6.8l55.8-34.3
		c3.9-1.7,8.3-1.9,11.8,0.3l6.6,4.1C698.5,230.1,698.3,233.2,695,235z"/>
	<path class="st4" d="M467.5,301l135.7-86.1c2.4-1.4,2.6-3.7,0.6-5l-3-1.9c-2.3-1.3-5.3-1.1-8,0.4l-135.7,86.1
		c-2.4,1.5-2.6,3.7-0.6,5l3,1.9C461.9,302.6,464.9,302.5,467.5,301z"/>
	<path class="st4" d="M486.6,314.1L622.3,228c2.4-1.4,2.6-3.7,0.6-5l-3-1.9c-2.3-1.3-5.3-1.1-8,0.4l-135.7,86.1
		c-2.4,1.5-2.6,3.7-0.6,5l3,1.9C481,315.7,484,315.6,486.6,314.1z"/>
</g>
<g>
	<path class="st5" d="M483.1,260.6C483.1,260.6,483.1,260.5,483.1,260.6L483.1,260.6z"/>
	<path class="st5" d="M410,240.9c3.9,1.4,7.8,2.7,11.7,4.1c1.3,0.5,2.6,0.9,3.8,1.3c0.7,0.1,1.4,0.1,2.1,0.2
		c0.6-0.2,1.1-0.5,1.6-0.6c-0.1-0.1-0.1-0.3-0.2-0.4c-0.1-0.4-0.2-0.6-0.3-0.9c-1.2-0.3-2.3-0.6-3.5-0.9c-0.6,0-1.3,0.1-1.9,0.1
		c-2.7,0.1-4.8-0.2-7-1.3C414.4,241.7,412.4,241.1,410,240.9z"/>
	<path class="st5" d="M491.8,394.6c-0.1,0.1-0.2,0.1-0.3,0.2c0.6-0.3,1.2-0.6,1.8-1C492.7,394,492.2,394.3,491.8,394.6z"/>
	<path class="st5" d="M459.1,293.6c3.6-2.7,7.3-5.6,10.5-9c1.6-1.9,3.3-4.1,5-6.4c-4.1,5.5-9,10.1-14.3,14c-0.1,0.2-0.3,0.3-0.4,0.5
		C459.7,293,459.4,293.3,459.1,293.6z"/>
	<path class="st5" d="M470.3,255.3L470.3,255.3c0,0.1-2.2,4.7-2.3,4.8c0.1-0.1,0.2-0.2,0.3-0.4c1-1.3,2.1-2.7,3.3-4.2
		C471.3,255.5,470.8,255.4,470.3,255.3z"/>
	<path class="st5" d="M245.2,475c1.3,1.4,2.6,2.8,4,4.1c2.5,1.8,5,3.6,7.6,5.4c0.9,0.3,1.8,0.5,2.7,0.7c0.7,0.2,1.4,0.3,2.1,0.5
		c-5.8-3.9-10.5-7.1-14.4-9.8C246.5,475.6,245.8,475.3,245.2,475z"/>
	<path class="st5" d="M343.7,529.7c0.3,0.1,0.5,0.1,0.8,0.2c3,0.7,6,1.2,9,1.6c-4.6-0.9-9.7-2.2-15.2-4
		C340,528.3,341.9,529,343.7,529.7z"/>
	<path class="st5" d="M255,483.9c-0.8-0.6-1.7-1.2-2.5-1.8c0.4,0.8-5.9-2.2-12.1-5.4c0.2,0.2,0.4,0.4,0.6,0.7
		c2.7,1.3,5.4,2.6,8.1,3.9C251,482.3,253,483.2,255,483.9z"/>
	<path class="st5" d="M401.2,508.7c1.7-1.3,3.2-2.8,4.7-4.5c-2,1.8-3.9,3.4-5.7,4.8C400.5,508.9,400.9,508.8,401.2,508.7z"/>
	<path class="st5" d="M386.3,521.2c0.2-0.3,0.4-0.6,0.6-0.9c0.6-1,1.2-1.9,1.8-2.9c-0.9-0.1-1.8-0.1-2.7-0.2
		c-0.9,0.3-1.4,0.5-1.4,0.5S385.6,519.2,386.3,521.2z"/>
	<path class="st5" d="M464.7,284.9c4.2-4.1,8.4-9.1,11.1-14.4C471.7,274.6,468.8,280.7,464.7,284.9
		C464.7,284.8,464.7,284.9,464.7,284.9z"/>
	<path class="st5" d="M474.7,258.4c-0.3,0.4-0.6,0.9-0.9,1.4c-0.4,0.6-0.8,1.2-0.9,1.3l4.3-2.9c-0.1,0.9,0.6,1.9,1.2,3.2
		c0-1.5-0.5-2.7-1.4-3.5c-0.5-0.5-1.2-0.9-1.8-1.2c0,0,0,0-0.1,0.1c-0.6,0.7-1.3,1.3-1.9,2c0.4,0.5,0.2,1.4-0.2,2.3
		c0.3-0.5,0.6-0.9,0.9-1.3C474.2,259,474.7,258.3,474.7,258.4z"/>
	<path class="st5" d="M468.4,348.6c-0.6-0.1-1.2-0.3-1.8-0.3c-1.5-0.3-2.9-0.3-4.4-0.3C464.3,348.2,466.3,348.4,468.4,348.6z"/>
	<path class="st5" d="M369.4,338.3c-3.5-2.6-7.2-4.6-10.9-6.6l18.6,13.5C374.6,342.6,372.1,340.3,369.4,338.3z"/>
	<path class="st5" d="M439.3,421c0,0,0,0.2-0.1,0.7c0.3-0.2,0.5-0.4,0.8-0.6c0.8-0.6,1.6-1.2,2.4-1.8
		C440.5,420.3,439.3,421,439.3,421z"/>
	<path class="st6" d="M274.1,329.3c0,0,0,0.1,0,0.2L274.1,329.3C274.1,329.3,274.1,329.3,274.1,329.3z"/>
	<polygon class="st6" points="274.1,329.2 274.1,329.2 274.1,329.3 274.1,329.3 	"/>
	<path class="st6" d="M274.2,329.5C274.1,329.2,273.9,329.1,274.2,329.5L274.2,329.5z"/>
	<path class="st6" d="M162.3,154.8c5.7,3.4,11.6,6.5,17.7,8.9c1,0.4,2,0.8,3,1.2c-1.2-0.9-1.3-1.3,0.5-0.6c3.6,1.3,7.4,2.5,11.2,3.9
		c0.5,0.1,1,0.2,1.5,0.3c-0.1-0.1-0.2-0.2-0.3-0.2c-0.2,0-0.5-0.4-0.3-0.2c0-0.1,0-0.1,0-0.1c-3.2-1.8-6.6-3.7-9.7-5.5
		c-0.3,0.3-0.7,0.6-1,0.8c-0.4,0.1-0.5,0.4-0.9,0.5c-0.9,0.5-2.3-0.6-2.3-1.4c0-0.2,0-0.4,0-0.6c-0.6-0.5-0.8-1.4-0.8-2.2
		c-3.6-2.1-5.9-3.5-5.2-3.4c1.5,0.3,3,0.3,4.5,0.3c-14.6-5.5-28.8-10.8-40.6-15.2c1.6,1.1,3.3,2.2,5,3.3
		C150.7,148.1,156.6,151.4,162.3,154.8z"/>
	<path class="st6" d="M241.4,182.4c5.7,2.4,11.7,4.3,17.6,6.7c4.2,1.7,7.9,4.3,11.7,6.9c6.8,3.2,13.6,7,20.4,10.2
		c3,1.4,6.1,2.8,9.2,4.2c-0.4-0.3-0.7-0.6-1.1-0.9l0.1-0.3c-15.3-6.8-29-13.5-30.7-16.1c-1.4-2.2-20.3-10.2-44.6-19.7
		c0.1,0.1,0.1,0.1,0.2,0.2C229.7,177.1,235.5,179.8,241.4,182.4z"/>
	<path class="st6" d="M274.1,329.2C274.1,329.3,274.1,329.3,274.1,329.2C274.1,329.3,274.1,329.3,274.1,329.2
		C274.1,329.3,274.1,329.3,274.1,329.2z"/>
	<path class="st6" d="M395.3,358.5c1.4,1.2,2.9,2.5,4.4,3.2L395.3,358.5z"/>
	<path class="st6" d="M198.5,168.7c-0.2,0.2-0.5,0.2-0.8,0.2c0.3,0.2,0.5,0.3,0.8,0.4c0.7,0.2,1.4,0.5,2.1,0.7
		C199.9,169.7,199.2,169.2,198.5,168.7C198.5,168.7,198.5,168.7,198.5,168.7z"/>
	<path class="st6" d="M274.1,329.3C274.1,329.3,274.1,329.3,274.1,329.3c0,0.1,0,0.1,0.1,0.2C274.2,329.7,274.3,329.2,274.1,329.3
		L274.1,329.3C274.1,329.3,274.1,329.3,274.1,329.3z"/>
	<path class="st6" d="M136.9,145c-1.7-1.2-3.4-2.2-5.1-3.1c-0.3,0.2-0.7,0.3-1.1,0.3c-0.2,0-0.4,0-0.6-0.1c0,0.1,0,0.1,0,0.2
		c-0.1-0.1-0.2-0.2-0.4-0.3c-2.4-0.5-4.6-1.9-6.7-3.5c-0.5-0.1-0.9-0.2-1.4-0.4c-1.1-0.2-2.2-0.5-3.2-0.7c-0.1,0-0.3,0-0.4-0.1
		c0.6,0.2,1.2,0.5,1.8,0.8c2,1.2,3.8,1.7,6,2.6c2.1,0.9,4,1.7,6,2.8c3.8,1.7,7.7,3.6,11.4,5.6c0.3,0.2,0.7,0.3,1,0.5
		C141.8,148.3,139.4,146.7,136.9,145z"/>
	<path class="st6" d="M196.5,162.8c0.2,0.2,0.5,0.4,0.7,0.6c1.2,0.7,2.4,1.4,3.5,2c-1.1-0.7-2-1.9-3.2-2.2
		C197.2,163.1,196.9,162.9,196.5,162.8z"/>
	<polygon class="st6" points="274.1,329.2 274.1,329.2 274.1,329.2 	"/>
	<path class="st6" d="M432.3,434.3c0.1,3.8,0.2,7.8,0.1,11.8c0.3-2.5,0.6-4.9,0.7-7.6c0.1-1.7,0.2-3.5,0.1-5.4
		c-0.3,0.2-0.6,0.4-0.9,0.6C432.2,433.9,432.3,434.1,432.3,434.3z"/>
	<path class="st6" d="M430.1,426.4c-3.3,2.2-6.8,4.1-10,6.9c-2.2,1.8-4.4,3.7-6.6,5.4c0.7-0.4,1.5-0.8,2.2-1.2
		c4.9-2.9,9.7-6,14.5-9.3C430.1,427.6,430.1,427,430.1,426.4z"/>
	<path class="st6" d="M308.7,363.8c-2.6-1.6-5.6-2.5-8.2-4.4c0,0.2,0,0.4,0.1,0.7c-1,0-1.7-0.9-1.8-2.2c-0.4-0.4-0.8-0.9-1.2-1.4
		c0.3-0.1,0.5-0.2,0.8-0.4c0-1.8,2.2-2.2,3.3-0.9c1.3,1.8,3,2.6,4.9,3.6c2.1,0.9,4.1,1.9,6.1,3.1c4.2,2.6,8.2,5.4,11.9,9.3
		s8.4,6.6,12.5,9.4c1.1,0.7,2.2,1.3,3.2,2c0.2,0.1,0.3,0.1,0.5,0.2c3.8,1.7,7.5,2.9,11.7,3.4c4.1,0.4,7.8-0.3,11.3-2.3
		c3.9-2.2,7.6-4.5,11.7-6.1c1.2-0.4,2.5-0.7,3.7-1.1c0.4-0.4,0.9-0.8,1.3-1.2c3.3-3,7.2-5.2,11.2-7.1c2-0.9,4.1-1.7,6.1-2.3
		c-3.2-1.8-6-4.7-8.8-7.6c-4-4.4-7.8-9.1-11.8-13.3l-18.6-13.5c-4.1-2.2-8.2-4.3-12-7c-2.1-1.4-3.7-2.7-5.7-4.1
		c-2-1.2-3.5-2.3-5.5-3.4c-1-0.6-2-1.1-2.9-1.7c-1.5-0.4-3-0.9-4.3-1.6c-1.3-0.6-2.5-1.4-3.9-2.1c-2-0.5-4.1-1.1-6.2-1.6
		c-2.3-0.5-4.4-0.8-6.8-1.1c-2.4-0.3-4.9,0.3-7.6,0.1c-2.4-0.3-4.5-0.6-5.9-1.8c-1.4-1.2-3.3-1.4-5.5-1.5c-1.5,0-3.1,0.4-4.7,1
		c-0.2,0.8-0.5,1.6-0.8,2.4c-0.2,0.5-0.5,1.1-0.7,1.6c0.4,0.4,0.9,0.8,1.3,1.2l-1.8-0.2c-0.7,1.5-1.4,3-1.9,4.7
		c-0.2,1.4-0.3,3-0.4,4.5c0,1.4-0.8,2.1-1.7,2.1c-0.2,1.1-0.4,2.2-0.5,3.3c-0.7,5-1.6,9.6-1.6,14.9c0.1,1.2,0,2.4,0.1,3.6
		c-0.1,0.3,0,0.7,0,1c0,0.1,0,0.1,0,0c0,0,0,0.1,0,0.2c0.1,0.5,0.2,0.9,0.3,1.4c0,0.2,0.1,0.3,0.1,0.5c0.7-0.4,1.5-0.2,2.1,0.9
		c1.5,1.6,3,2.6,4.7,3.4c2,1.2,3.5,2,5.5,3.2c4.1,2.8,8.4,5.4,12.5,7.7c4.1,2.3,8.3,5,12.7,7C314.8,367.6,311.8,365.6,308.7,363.8z"
		/>
	<path class="st6" d="M442.4,419.2c1.1-0.8,2.3-1.6,3.4-2.3c-1.2,0.6-2.4,1-3.6,1.4c-1.7,0.7-3.5,2.1-5.1,3.2c-1.5,0.9-2.9,2-4.3,3
		c0,0.1,0,0.2,0,0.3c0.2,0,0.3,0,0.5,0.1c0.4-0.1,0.9,0,1.3,0.2c0,0,0,0,0,0c1.5-1.1,3.1-2.3,4.6-3.4c0.1-0.4,0.1-0.7,0.1-0.7
		S440.5,420.3,442.4,419.2z"/>
	<path class="st6" d="M274.1,329.2C274.1,329.2,274.1,329.2,274.1,329.2C274.1,329.2,274.1,329.2,274.1,329.2
		C274,329.1,274,329.2,274.1,329.2z"/>
	<path class="st6" d="M201.1,165.7c0.1,0.1,0.1,0.1,0.2,0.2c0.1,0,0.2,0.1,0.2,0.1c-0.3-0.2-0.5-0.3-0.8-0.5
		C200.9,165.5,201,165.6,201.1,165.7z"/>
	<path class="st6" d="M88.3,356.9c3.1,2,5.9,4.4,8.7,6.2c1.9,1.1,3.7,2.1,5.6,3.1c-2.3-1.6-4.7-3-7.1-4.7c-2.4-1.4-4.7-3.3-7.1-4.8
		C88.4,356.8,88.3,356.9,88.3,356.9z"/>
	<path class="st6" d="M360.9,389.4c-2.5,0.8-5.2,0.9-8,0.7c3.7,2,7.6,3.8,11.4,2.8c3.2-0.8,5.1-4.2,6.9-7c0.7-1,1.3-2,2.1-2.9
		c-0.3,0.1-0.6,0.3-1,0.5C368.7,385.5,365,387.9,360.9,389.4z"/>
	<path class="st6" d="M80.4,346c2.2,1.1,4.9,2.7,6.7,5c2.6,1.5,5.1,3.6,7.5,5.3c2.8,1.7,5.7,3.4,8.6,5.3c3.1,2.1,5.6,4.4,8.4,6.6
		c3,1.9,5.9,4.1,8.6,6.3c3.5,2.7,6.9,5.6,10.4,8.5c7.7,5.3,15.4,10.6,23.4,15.2c3.2,1.9,6.4,3.5,9.4,5.4c3,1.9,5.7,4.1,8.3,6.9
		c2.5,2.5,5.2,4.5,7.8,7.2c1.3,1.3,2.3,2.7,3.4,4.1c2.9,2.2,5.8,4.4,8.6,6.6c5.9,4.8,12,9.1,18.1,13.6c5.7,4.1,11.4,9.2,16.9,13.9
		c5.5,4.9,11.3,9.5,16.9,14.1c5.8,4.6,11.7,8.7,18,12.6c3.6,2.4-6.4-2.8-14.1-6.7c3.9,2.7,8.6,5.9,14.4,9.8c2.4,0.6,4.7,1.3,7.2,2
		c3.1,1.2,6.1,2.3,9.3,4c3.2,1.6,5.8,3.6,8.5,6.1c3,2.6,6.1,4,9.3,5.9c3.2,1.9,6.3,4,9.4,6.1c6.5,4.1,12.7,8,19.4,11.6
		c2.7,1.2,5.3,2.4,8,3.6c1.9,0.8,3.7,1.7,5.6,2.5c5.6,1.8,10.7,3.1,15.2,4c3.5,0.4,6.9,0.7,10.5,0.8c3.2,0.2,6.7,0.3,9.6-0.5
		c2.8-0.7,5.3-2.5,7.6-4.3c0.9-0.8,2.1-1.6,3.4-2.4c0.5-1.3,1-2.6,1.7-3.9c-0.7-2-1.8-3.5-1.8-3.5s0.5-0.2,1.4-0.5
		c-1.2-0.1-2.5-0.1-3.7-0.4c-4.7-0.8-8.8-1.9-12.8-4.3c-0.5-0.3-1-0.7-1.5-1c-6.4-1.6-12.5-5.3-18.2-9.2c-3.5-2.3-6.9-4.8-10.5-6.3
		c-2.1-0.9-3.9-1.9-5.7-3.2c-1.6-1.3-3.1-2.9-4.6-4.2c-2.4-1.9-4.8-3.5-7.1-5c-7.7-4.5-15.7-7.9-22.7-13.9c-2.7-2.3-5.1-4.9-7.5-7.5
		c-2.5-1.7-4.9-3.5-7-5.7c-1.4-1.3-2.6-2.7-4.1-3.6c-1-0.5-2.2-1.1-3.4-1.6c-2.7-1.3-5.6-2.9-6.8-6c-0.1-0.5-0.2-1-0.1-1.5
		c-0.4-0.2-0.8-0.4-1.3-0.6c-0.8-0.5-1.7-1-2.7-1.3c-0.9,0-1.8-0.3-2.7-0.5c-2-0.5-3.6-1.8-5.7-2.4c-0.7-0.3-1.5-1.8-1.4-4
		c0.3-1.3,1.3-1.5,2.4-1.3c1.8,0.3,3.2,1.6,5,2.1c2.1,0.7,3.6,0.8,5.5,1.8c1.9,1,3.6,1.5,5.5,2.5c3.7,2,7,5,10.2,8.3
		c2.5,2.8,5,5.6,7.5,8.3c7.5,5.4,14.8,10.8,22.2,16.1c3.1,2.3,6.1,4.2,9.1,6.3c1.4,0.8,2.8,1.6,4.2,2.5c2.1,1.4,3.7,2.7,5.7,4.1
		c1.9,1.5,3.5,2.3,5.5,3.4c4.1,2.1,8,4,11.9,6c3.9,2.2,7.9,4.3,11.7,7c1.8,1.3,3.5,2.7,5.2,3.9c2.9,0.8,5.6,1.1,8.5,1.6
		c7.1,1.4,14,2.5,21,1.7c0.9-0.1,1.8-0.2,2.7-0.4c1.8-1.4,3.8-3,5.7-4.8c2.1-2.4,3.9-5.2,5.5-7.9c2.1-3.7,3.8-7.7,5.4-11.7
		c1.8-4.6,4.2-8.5,6.1-13.1c1.1-2.4,1.9-4.3,2.8-6.7c0.6-2.1,1.7-3.7,2.9-5.2c0.2-1.4,0.5-2.8,0.7-4.2c0.9-5,1.2-9.5,1-14.5
		c-0.1-1.9-0.1-3.8-0.1-5.7c-3.5,2.3-7.2,4.6-10.7,6.5c-4.3,2.3-8.7,5.1-13.2,6.7c-3.5,1.3-7.2,2.4-10.7,3.5
		c-0.8,0.6-1.5,1.2-2.4,1.7c-2,1.2-3.9,2.4-5.7,3.4c-3.3,2-6.7,4.6-10.3,6.4s-7.5,3.1-11.6,3.6s-8.4,0.2-12.5-1.5
		c-0.7-0.3-1.4-0.7-2.1-1c-3.8-0.5-7.7-1-11.2-2.9c-4.6-2.5-8.9-6-12.9-9.3c-3-2.5-6-5-9.1-7.6c-1-0.7-1.9-1.3-2.9-2
		c-4.3-2.8-8.6-5.6-12.8-8.6c-4-3.1-7.8-6.5-11.7-9.6c-3.8-3.2-7.2-6.9-10.9-9.8c-1.9-1.5-3.9-2.2-5.6-3.7c-0.2-0.1-0.3-0.3-0.5-0.4
		c-0.9-0.4-1.9-0.8-2.9-1.1c-2.5-0.6-5.1-1.6-7.6-2.4c-3.1-1.2-6.5-2.2-9.6-3.4c-6.3-2.3-13.4-6.1-16.1-14.1
		c-0.5-1.8,1.1-3.4,2.5-2.8c3.1,2.1,5.1,5.2,7.6,8.5c0.3,0.3,0.6,0.6,0.9,0.9c1.8,1.1,3.7,1.9,5.7,2.7c1.3,0.2,2.6,0.2,4,0.3
		c4.3,0.1,8.6,0.3,12.7,1.6c8.1,2.8,14.7,9.4,20.6,16.3c3.3,3.8,7,6.9,10.9,9.8c3.9,2.9,8,5.5,11.8,8.9c1.3,1.2,2.6,2.4,3.9,3.6
		c3.2,2.2,6.5,4.3,9.6,6.3c2.1,1.4,4.2,2.6,6.4,4.2c2.3,1.4,4.1,2.8,6.3,4c2.2,1.1,4.2,1.6,6.4,2.7c2.3,0.9,4.1,2.1,6.3,3.2
		c0.3,0.2,0.6,0.3,0.9,0.4c1.8,0.2,3.7,0.3,5.4,0.2c2.1,0,4.3-0.6,6.3-1.1c2.1-0.8,4.5-1.4,6.7-2.2c2-0.5,3.8-1.9,5.7-2.9
		c3.8-2.6,7.9-4.9,12.3-6.2c1.4-0.5,2.7-0.9,4.1-1.4c1-0.8,1.9-1.6,2.8-2.3c3.7-2.9,7.3-5.7,11.1-8.1c1.7-0.9,3.5-2.1,5.1-3.4
		c1.6-1.1,3.1-2.7,4.7-4.1c3.3-3,7.3-5,10.9-7.5c2-1.2,3.9-2.9,6-4.1c1.8-1.2,3.3-2.8,5.3-3.5c1.5-0.6,3.1-1,4.6-1.9
		c1.2-1,2.6-2.3,3.8-3.4c1.8-1.4,3.9-2.4,6-3.3c-1.5-0.7-2.9-1.8-3.9-3c-1.5-1.8-2.1-4.1-2.2-6.4c-0.3-3.1,0.1-6.3,0.2-9.5
		c0.2-2.5,0.3-4.7,1-7c1.2-4.4,3.9-8,7.6-9.6c2.5-1.1,5.1-1.5,7.9-1.7c2.7-0.2,5.4-0.4,8.2-0.1c2,0.2,3.9,0.5,6.1,0.4s4,0,6.3,0.4
		c1.7,0.1,3.6,0.8,4.8,2.4c1.2,1.4,2.3,3.1,3.1,4.8c1.5,2.5,3.1,5.8,3.5,9.1c1-1,1.8-2.2,2.5-3.8c0.5-1.3,0.7-3.1,0.7-5
		c-0.1-1.9-0.7-3.5-1.8-4.8c-1-1.5-1.9-2.8-2.9-4.1c-2.7-2.4-5.8-4.2-8.6-6.3c-2.3-1.7-4.6-3.8-7-5.8c-4.3-1.4-8.4-1.6-12.6-1.9
		c-4.5-0.1-9-1.1-13.4-1s-8.9,0.8-13.1,1.8c-2.1,0.3-3.9,0.7-5.7,1.7c-1.7,0.7-3.4,1.8-5.3,2.5c-1.9,0.7-4.1,1.3-6.1,1.8
		c-2,0.5-3.6,1.6-5.5,2.6c-1.8,1.2-3.7,2.4-5.7,2.9c-1,0.2-1.9,0.4-2.9,0.7c0.5,0.1,1,0.3,1.5,0.4c1.9,0.7,3.5,2,5.6,2.7
		c1.2,0.4,1.6,2.2,1.2,3.1c-0.3,1.3-1.3,1.5-2.4,1.3c-1.8-0.5-3.2-1.9-5-2.4c-2-0.5-3.6-0.8-5.5-1.8c-0.4-0.2-0.7-0.4-1.1-0.5
		c-2.7,1.6-5.4,3.3-8,5c-3.5,2.3-7.4,4.3-11.5,5.8c-2.2,0.8-4.5,1.4-6.7,2c-0.2,0.2-0.3,0.3-0.5,0.5c-2.6,3.1-4.7,6.7-7.3,10
		c-6.3,7.9-15.9,2.8-23.3-1.4c-2.6-1.5-5.3-3.1-8-4.8c-0.2-0.1-0.5-0.2-0.7-0.3c-1.9-1-3.9-1.9-5.6-2.9s-3.2-2.6-5-3.8
		c-3.7-2.9-8.2-3.8-12-5.7c-4.4-2.3-8.6-4.8-12.8-7.2c-4.2-2.3-8.2-4.9-12.2-7.3c-2.7-1.8-5.7-2.9-8.3-5.1c-0.3,0.1-0.5,0.2-0.8,0.1
		c-5.2-1.4-5.2-8.8-5.1-13.7c0.3-5.6,1.1-11.6,1.9-16.9c0.5-2.5,1-4.9,1.6-7.3c-0.5,0.8-1,1.6-1.4,2.4c-0.6,0.9-1.2,2-1.6,3
		c-0.7,1.4-1.1,2.4-1.5,4c-0.2,0.8-0.5,1.6-0.5,2.3c-0.1,0.3-0.1,0.3-0.1,0.5c0.1,0.5,0,0.7,0,1c0,0.1,0,0.1,0,0.1
		c0.1,0,0.1,0.1,0,0.1c0.2,0,0.3,0.2,0.5,0.1c1.1,0.2,1.6,2,1.4,3c-0.3,1.3-1.3,1.5-2.4,1.3c-3.9-1-3.6-6.6-2.6-9.7
		c1.5-5.2,3.9-9.2,6.5-13.3l-11-1.5l1.3-3.9c1.5,0,3.1,0,4.6,0.2c0.4,0,0.9,0.1,1.3,0.2c2.4-1.5,4.9-2.9,7.4-3.9
		c4.3-1.8,8.5-2.8,12.6-3.1c4.9-2.1,9.8-3.8,14.1-3.5c1.5,0.1,1.5,1.6,0.7,3c0.2,0.1,0.4,0.2,0.6,0.3c0.2,0.1,0.3,0.2,0.5,0.3
		c0.1,0,0.1,0,0.2,0c4.6,0.1,9.3,0.8,13.4,2c8.5,2.6,15.6,7.3,23.1,11.5c2.7,0.5,5.4,0.9,8.1,1.2c6,0.4,12.3,0.4,18.3,0.8
		c2.9,0.1,6,0.4,9.2,0.1c3.2,0,6.2-0.6,9.5-1.1s6.9-1.3,10.1-1.5c3.2-0.2,6.2-0.4,9.4-0.6c5.5-0.4,12-3,18.2-5.6
		c0.6-0.2,1.2-0.5,1.8-0.7c0.1-0.1,0.2-0.1,0.3-0.2c2.8-1.3,5.6-2.8,8.2-3.6c0.1,0,0.1,0,0.2-0.1c2.6-1.3,5.3-2.6,7.9-4.2
		c3.1-1.6,6-3.7,8.9-5.5c2.4-1.6,5.2-3.4,7.5-5.8c0.2-0.2,0.5-0.5,0.7-0.7c4.1-4.2,7-10.2,11.1-14.4c1.3-2.7,2.3-5.5,2.5-7.9
		c0-0.5,0.1-0.9,0-1.3c-0.6-1.3-1.3-2.3-1.2-3.2l-4.3,2.9c0.1-0.1,0.5-0.7,0.9-1.3c-0.3,0.4-0.6,0.9-0.9,1.3c0,0,0,0,0,0
		c-0.1,0.2-0.2,0.4-0.3,0.6c-2.8,4.4-6.4,9-9.8,13.1c-3.4,4.1-6.7,8.4-10.3,12c-5.6,5.9-12.1,10.7-18.2,11.8
		c-3.3,0.5-6.1,0.1-9.2-0.1c-3.3-0.5-6.3-1.2-8.7-2.4c-0.6-0.3-1.2-0.7-1.8-1c-0.5,0-0.9-0.1-1.3-0.2c-4.2-0.9-7.4-3.5-10.4-6.2
		c-2.2-2-4.3-4.4-4.6-8.1c-0.1-3.5,2.5-8.1,4.4-11.7c0.6-1.6,1.9-3.6,3-5.4c0.8-1.3,1.9-2.3,3-3.3c0.8-1.1,1.8-2.2,3-3.2
		c2.7-2.2,5.9-4.4,8.8-6.1c1.7-1,3.4-2.1,5-3L402,241c-4.8,0.3-9.7,0.7-13.4-0.9c-2.4-0.9-4.2-2.8-7.1-3.6c-3-0.8-6.5-0.5-9.4-1.5
		c-2.9-1-5.3-2.2-8.3-3c-2.8-0.4-5.5-1.2-7.6-2.7c-3.8-2.4-9.2-3-14.1-4.1c-0.9,0.8-2.1,1.3-3.2,1.1c-0.5-0.2-0.9-0.4-1.4-0.5
		c-0.6,0.2-1.2,0.3-1.7,0.2c-2-0.8-4-1.4-6-2.3c-3.2-1.2-6.4-2.5-9.5-3.9c-3-0.3-6-0.8-8.3-1.7c-2.4-0.9-5-2.3-7-4.1
		c-1.1-0.8-2.2-1.6-3.2-2.4l-1.4,4c-0.7-0.3-1.5-0.6-2.2-1c-2.8-0.5-5.7-1.2-8.2-2.2c-2.6-1-5.5-2.5-8.1-4.3
		c-3.3-1.9-6.4-4.1-9.6-6.3c-0.1,0-0.2-0.1-0.3-0.1c-4.3-2.1-8.7-4.1-13-5.9c-16.7-7.4-33.5-14.3-50.2-22.2
		c-2.2-1.1-4.1-1.9-6.2-2.6c-0.7-0.3-1.4-0.5-2-0.7c2.5,1.6,4.7,3.1,5.8,4c0.9,0.6,1.3,0.9,0.9,0.9c0,0,0,0-0.1,0c0,0-0.2,0-0.5-0.1
		c-2.7-0.4-5.7-0.4-8.6-0.8c-0.7-0.1-1.4-0.2-2.1-0.3c3.3,2.3,5.2,3.8,2.3,2.7c-8.4-3-16.5-6.5-24.9-9.7
		c-8.8-3.6-17.4-6.8-25.7-10.2c-7.9-3.6-15.2-8-23-11.4c-2.2-1.1-4-1.7-6.2-2.8c-1.8-1.2-3.6-1.5-5.5-1.8c-1.7-0.1-3.1-0.7-4.8-1.5
		c-1.4-1-3.1-0.9-4.8-1.4c-55.5,68.2-35.6,186.4-32.2,206C74.1,342.9,77.8,344.6,80.4,346z M237.7,359.4c0.3-1.5,0.6-3.5,0.8-5.3
		c0.4-1.8,0.5-4,0.8-6c0.3-2.2,1.2-3.7,2.3-5.4c1.1-1.7,2.6-3.1,3.4-5c2.1-4.4,3.7-9.1,5.8-13.3c1.4-2,2.4-4,3.5-6.4s1.8-4.6,2.9-7
		c1.6-3.8,3.7-7.2,6.1-10.5c2.7-3.7,5.9-7,9.5-9.4l-3.1,8.4c-2.4,2.6-4.5,5.6-6.4,8.7c-2.3,3.7-3.8,7.7-5.6,11.8
		c-1.8,4.6-4.5,8.4-6.3,12.9c-0.9,2.4-1.6,4.5-2.8,6.7c-0.7,2.1-2,3.9-3.3,5.4c-1.1,1.5-2.1,2.5-2.3,4.2c-0.4,1.8-0.5,4-0.8,6
		c-0.3,3.7-1.1,6.8-1.2,10.4c-0.2,2.9-0.3,6.1,0.3,9.2c0.1,0,0.2,0.1,0.4,0.1c1.1,0.2,1.6,2,1.4,3c-0.3,1.3-1.3,1.5-2.4,1.3
		c-0.4,0.1-0.9,0-1.3-0.2c-0.5-0.4-1.1-1.2-1.3-1.8c-0.5-1.8-0.7-3.7-0.8-5.6C237,367.5,237.2,363.6,237.7,359.4z"/>
	<path class="st6" d="M178.3,423.6c-3.9-3-7.8-6-11.7-8.8c-6-4.5-12.4-8.7-18.5-13c-5.7-4.1-11.6-8.2-17.3-13
		c-4.6-3.1-9.2-6.2-13.9-9.1l63.3,46.3C179.6,425.3,179,424.5,178.3,423.6C178.4,423.7,178.4,423.6,178.3,423.6z"/>
	<path class="st6" d="M457.6,400.5c0.7-0.4,1.8-0.4,2.6-0.6c0.9,0,2.2,0.4,3,0c0.7-0.4,1.4-1.1,2.1-1.7c1.8-1.2,4.3-1.6,6.3-1.8
		c0.6,0,1.2-0.1,1.8-0.1c2.5-1.5,5-2.9,7.5-4.1c2.3-1.1,4.1-2.2,6.2-3.2c1.7-0.7,3.5-1.1,5.3-1.6c0.3-0.1,0.6-0.2,0.9-0.3
		c-0.3-0.5-0.5-1.2-0.5-1.9c0,0-0.1-0.8,0-0.3c-0.1-0.5-0.2-0.9-0.3-1.4c-0.3-0.4-0.3-0.4-0.4-0.9s-0.2-0.9-0.5-1.3
		c-0.8-2.2-1.7-4.2-2.9-5.6c-0.4-0.6-1-1.4-1.6-2c-0.1-0.2-0.6-0.6-0.1-0.2l-0.3-0.2c-0.3-0.2-0.5-0.4-0.3-0.2
		c-0.2,0-0.3-0.2-0.5-0.1c-1.5-0.8-3.6-0.8-5.5-0.8c-1.7-0.1-3.6,0.2-5.3-0.1c-2.4-0.1-4.5-0.3-6.8-0.2c-2.3,0.3-4.7,0.7-7,1
		c-1.8,0.4-3.6,0.9-5.2,2c-2.5,1.8-3.8,5.3-4.1,9c-0.2,2.5,0,5.1-0.2,7.5c-0.1,1.5-0.1,3.2,0.1,4.6c0.1,0.5,0.2,0.9,0.3,1.4
		c0,0,0.1,0.2,0.1,0.5c-0.3-0.4,0.1,0.2,0.1,0.2c0,0.1,0,0.2,0,0.2c0,0,0,0,0,0.1c0,0.2,0.2,0.2,0.2,0.3c0.1,0.1,0.3,0.3,0.3,0.3
		c0.3,0.2,0.3,0.2,0.5,0.4c0.8,0.8,1.6,1.3,2.5,1.5C456.6,400.7,456.8,400.7,457.6,400.5z"/>
	<path class="st6" d="M387.1,373.7c-0.5,0.3-1,0.6-1.4,0.9c0.5-0.2,1-0.4,1.5-0.7c1.3-0.7,2.6-1.5,4-2.3
		C389.8,372.2,388.4,372.9,387.1,373.7z"/>
	<path class="st6" d="M436.7,432.5c0,0.5,0,1.1,0,1.6c0.3-1.5,0.6-2.8,0.9-4.1c-0.3,0.2-0.7,0.5-1,0.7
		C436.6,431.3,436.7,431.9,436.7,432.5z"/>
	<path class="st6" d="M274.1,329.2C274.1,329.2,274.1,329.2,274.1,329.2C274.1,329.2,274.1,329.2,274.1,329.2
		C274.1,329.2,274.1,329.2,274.1,329.2C274.1,329.2,274.1,329.2,274.1,329.2z"/>
	<polygon class="st6" points="274.1,329.2 274.1,329.2 274.1,329.2 	"/>
	<path class="st6" d="M459.3,408.9c-2.9,1-5.7,2.1-8.1,4c-1.5,0.8-2.8,2.1-4,3.1C451.1,413.6,455.2,411.3,459.3,408.9z"/>
	<path class="st7" d="M274.1,329.3C274.1,329.3,274.1,329.3,274.1,329.3L274.1,329.3C274.1,329.3,274.1,329.3,274.1,329.3
		C274.1,329.3,274.1,329.3,274.1,329.3C274.1,329.3,274.1,329.3,274.1,329.3l0.1,0.2C274.1,329.4,274.1,329.3,274.1,329.3
		C274.1,329.3,274.1,329.3,274.1,329.3z"/>
	<path class="st7" d="M506.6,376.6c-0.6-4-2.7-7.3-5.3-10c-2-2.3-4.2-4-6.5-5.6c0,0,0,0,0,0c-3-3.4-6.4-5.9-9.9-8.2
		c-0.8-0.5-1.7-0.9-2.5-1.3c-2.9-2.2-6.1-4.3-9.4-5.4c-4.4-1.6-9.2-2-13.7-1.2c-2.7,0.4-5.1,1-7.7,1.4c-2.5,0.4-5,0.5-7.4,0.9
		c-4.8,0.2-9.4,1.4-13.8,3.2c-4.2,1.8-8.4,4.5-12.5,6.8c-1.3,0.8-2.6,1.6-4,2.4c-1.2,0.6-2.5,1.1-3.8,1.4c-2,0.5-3.7,1.2-5.6,2.1
		c-0.2,0.1-0.4,0.2-0.6,0.3c-1.4-0.6-2.6-1.1-4.1-1.8c0,0-0.1-0.1-0.1-0.1c-1.5-0.7-3-2.1-4.4-3.2c-0.1-0.1-0.2-0.2-0.3-0.3
		c-6.9-6.5-12.6-14.7-19.7-21.1c-6.6-5.8-13.8-9.2-20.9-13.2c-0.1,0-0.1,0-0.2,0c-2.9,0.8-9.4-2.9-16.6-7.3c1.5,0.3,2.9,0.5,4.4,0.8
		c4.5,2.5,9.3,4.7,14.4,6.1c3.3,0.9,6.7,1.5,10.4,1.7c1.6-0.1,3.2-1.7,3.8-3.2c0.4-1.1,0.3-2-0.6-2.3c0.8,0,1.5,0.1,2.3,0.1
		c3.2,0,6.3,0.3,9.5,0.1c5.6-0.6,11.5-2,17.1-2.8c0.9-0.1,1.8-0.3,2.7-0.4c2.2-0.2,4.4-0.4,6.5-0.6c-0.1,1.1,0.5,2.1,1.7,1.8
		l11.5-0.4l15.7-3c2.5-1.2,5.3-2.7,8-4.7c2.2-1.8,4.4-3.9,6.5-5.7c4.6-3.7,9.2-6.5,13.7-10.2c4.5-3.5,8.7-7.5,12.3-12.1
		c2.5-3.4,4.8-6.6,6.7-10.3c4.1-6.6,7.3-14.7,5.1-19.5c-1-2.8-3.9-4.1-6.8-3.9c-1.1,0.1-2.2,0.5-3.3,1c-0.8-0.4-1.7-0.7-2.6-1
		c-2.6-0.4-5-0.4-7.6-0.9c-1.4,0-2.4-0.9-3.6-1.3c-1.6-0.5-3.2-1-4.8-1.2c-2.9-0.5-5.8-0.8-9-0.7c-1.3-0.4-2.6-0.7-3.9-1.2
		c-5.4-1.7-10.8-3.5-16.5-5.1s-11.5-2.8-17.9-3.5c-12-1.7-24.1-2.9-35.2-6.3c-5.4-2-10.8-3.7-16.4-5.4c-5.7-1.7-11.2-2.9-17.2-4.2
		c-3-0.8-5.5-1.5-8.2-2.3c-0.9-0.1-1.9,0.1-2.8,0.9c-0.5-0.2-1.1-0.3-1.7-0.5c-1.5-0.4-3.2-0.8-4.9-1c-3.3-1.4-6.6-2.9-9.8-4.5
		c-5.3-2.5-10.3-5.5-15.4-8.2l-0.3,0.8l-1.8,5.6l-0.1,0.3c0.4,0.3,0.7,0.6,1.1,0.9c-3.1-1.4-6.2-2.8-9.2-4.2
		c-6.8-3.1-13.6-6.9-20.4-10.2c-3.7-2.6-7.5-5.2-11.7-6.9c-5.9-2.4-11.9-4.3-17.6-6.7c-6-2.6-11.7-5.3-17.1-9
		c-0.1-0.1-0.1-0.1-0.2-0.2c-2.3-1.8-4.3-3.8-6.8-5.1c-1.2-0.4-2.5-0.8-3.8-0.7c-1.5-0.1-2.8-1-4.1-1.9c-2.7-1.5-5.4-3-7.8-4.8
		c-2.5-2.3-5.1-2.6-7.8-3.9c-2.9-1.2-5.6-3.7-8.4-4.7c-3.1-1.2-6.2-0.9-9.2-1.3c-1.2-0.2,4.6,3.2,11.5,7.1c-0.4-0.1-0.9-0.1-1.3-0.2
		c-0.5-0.3-1-0.5-1.5-0.7c-1.5-0.6-3.1-0.7-4.7-0.8c-1.5,0-3,0-4.5-0.3c-0.7-0.1,1.6,1.3,5.2,3.4c0,0.8,0.2,1.7,0.8,2.2
		c0,0.2,0,0.4,0,0.6c0,0.7,1.3,1.8,2.3,1.4c0.4-0.1,0.5-0.4,0.9-0.5c0.4-0.3,0.7-0.5,1-0.8c3.1,1.8,6.5,3.7,9.7,5.5c0,0,0,0.1,0,0.1
		c-0.3-0.2,0.1,0.2,0.3,0.2c0.1,0.1,0.2,0.2,0.3,0.2c-0.5-0.1-1-0.2-1.5-0.3c-3.8-1.4-7.7-2.6-11.2-3.9c-1.8-0.7-1.7-0.3-0.5,0.6
		c-1-0.4-2-0.8-3-1.2c-6.1-2.3-12-5.5-17.7-8.9c-5.7-3.4-11.7-6.7-17.7-10.3c-1.7-1-3.3-2.2-5-3.3c-3.5-2.4-7-4.8-10.8-6.3
		c-2.4-1-4.7-1.7-7.1-2.3c-0.2-0.1-0.4-0.2-0.5-0.4c-0.4-0.2-0.8-0.5-1.2-0.7c-0.3-0.6-0.9-1-1.6-1.1c-0.4-0.1-0.8-0.2-1.2-0.3
		c-0.8-0.4-1.6-0.7-2.5-1c-1.8-0.8-3.7-1.6-5.6-1.7c0,0.3,0,0.6,0.1,0.9c-0.6,0.2-1,0.7-1.2,1.4c-2-0.4-3.9-0.7-6-1
		c0,0.3,0,0.6,0.1,0.8c-1.6,0.3-1.7,3.1-0.4,4.2c-0.7,1.2-0.5,3.2,1.1,3.7c0.2,0.1,0.3,0.1,0.5,0.2c1.7,0.5,3.4,0.4,4.8,1.4
		c1.7,0.8,3.1,1.4,4.8,1.5c2,0.2,3.7,0.5,5.5,1.8c2.2,1.1,4,1.7,6.2,2.8c7.8,3.4,15.1,7.8,23,11.4c8.3,3.5,16.9,6.6,25.7,10.2
		c8.4,3.2,16.5,6.7,24.9,9.7c2.9,1.1,1.1-0.4-2.3-2.7c0.7,0.1,1.4,0.2,2.1,0.3c2.9,0.4,5.9,0.4,8.6,0.8c0.3,0.1,0.4,0.1,0.5,0.1
		c0,0,0,0,0.1,0c0.4,0.1,0-0.3-0.9-0.9c-1.1-0.9-3.4-2.4-5.8-4c-0.7-0.2-1.4-0.5-2.1-0.7c-0.3-0.1-0.5-0.3-0.8-0.4
		c0.3,0,0.6-0.1,0.8-0.2c0,0,0,0,0,0c0.7,0.5,1.4,0.9,2.1,1.4c0.7,0.2,1.3,0.4,2,0.7c2.1,0.7,4,1.4,6.2,2.6
		c16.6,7.9,33.4,14.8,50.2,22.2c4.3,1.8,8.6,3.9,13,5.9c0.1,0,0.2,0.1,0.3,0.1c3.2,2.2,6.3,4.4,9.6,6.3c2.6,1.8,5.5,3.2,8.1,4.3
		c2.5,1,5.4,1.7,8.2,2.2c0.7,0.3,1.5,0.7,2.2,1l1.4-4c1,0.9,2.1,1.7,3.2,2.4c2,1.8,4.6,3.2,7,4.1c2.4,0.9,5.3,1.4,8.3,1.7
		c3.1,1.4,6.3,2.7,9.5,3.9c2,0.8,4,1.4,6,2.3c0.6,0.1,1.2,0,1.7-0.2c0.5,0.2,0.9,0.4,1.4,0.5c1.1,0.2,2.2-0.3,3.2-1.1
		c4.9,1.1,10.3,1.7,14.1,4.1c2.1,1.5,4.8,2.4,7.6,2.7c3,0.8,5.4,2,8.3,3c2.9,1,6.4,0.7,9.4,1.5c3,0.8,4.7,2.6,7.1,3.6
		c3.7,1.6,8.6,1.2,13.4,0.9l23.5,6.7c-1.6,0.9-3.2,2-5,3c-2.9,1.8-6.1,3.9-8.8,6.1c-1.2,1-2.1,2.1-3,3.2c-1.1,0.9-2.2,2-3,3.3
		c-1.2,1.8-2.4,3.8-3,5.4c-1.9,3.6-4.5,8.2-4.4,11.7c0.3,3.7,2.4,6.2,4.6,8.1c3,2.7,6.2,5.3,10.4,6.2c0.4,0.1,0.9,0.2,1.3,0.2
		c0.6,0.4,1.2,0.7,1.8,1c2.4,1.2,5.4,2,8.7,2.4c3.1,0.3,5.9,0.6,9.2,0.1c6.1-1.1,12.6-5.8,18.2-11.8c3.6-3.7,6.8-7.9,10.3-12
		c3.4-4.1,7-8.7,9.8-13.1c0.1-0.2,0.2-0.4,0.3-0.6c0,0,0,0,0,0c0.5-0.9,0.6-1.8,0.2-2.3c0.6-0.7,1.3-1.4,1.9-2c0,0,0-0.1,0.1-0.1
		c0.7,0.3,1.3,0.7,1.8,1.2c0.9,0.8,1.3,2.1,1.4,3.5c0,0.4,0,0.9,0,1.3c-0.2,2.4-1.2,5.2-2.5,7.9c-2.7,5.3-6.9,10.4-11.1,14.4
		c0,0,0,0,0-0.1c-0.2,0.2-0.4,0.5-0.7,0.7c-2.3,2.3-5.2,4.1-7.5,5.8c-2.9,1.8-5.8,3.8-8.9,5.5c-2.6,1.6-5.3,3-7.9,4.2
		c-0.1,0-0.1,0-0.2,0.1c-2.6,0.8-5.4,2.3-8.2,3.6c-0.1,0.1-0.2,0.1-0.3,0.2c-0.6,0.2-1.2,0.5-1.8,0.7c-6.2,2.5-12.7,5.2-18.2,5.6
		c-3.2,0.2-6.2,0.4-9.4,0.6c-3.2,0.2-6.8,1.1-10.1,1.5s-6.4,1.2-9.5,1.1c-3.2,0.2-6.3,0-9.2-0.1c-6-0.4-12.3-0.4-18.3-0.8
		c-2.7-0.3-5.4-0.7-8.1-1.2c-7.5-4.1-14.6-8.9-23.1-11.5c-4.1-1.2-8.8-1.9-13.4-2c-0.1,0-0.1,0-0.2,0c-0.2-0.1-0.3-0.2-0.5-0.3
		c-0.2-0.1-0.4-0.2-0.6-0.3c0.8-1.4,0.8-3-0.7-3c-4.2-0.3-9.2,1.5-14.1,3.5c-4.1,0.3-8.4,1.3-12.6,3.1c-2.5,1-5,2.4-7.4,3.9
		c-0.4-0.1-0.9-0.1-1.3-0.2c-1.5-0.2-3.1-0.2-4.6-0.2l-1.3,3.9l11,1.5c-2.6,4.2-5,8.1-6.5,13.3c-0.9,3.1-1.2,8.8,2.6,9.7
		c1.1,0.2,2.1,0,2.4-1.3c0.2-1-0.3-2.8-1.4-3c-0.2,0-0.3-0.2-0.5-0.1c0.2,0,0.1,0.5,0.1,0.2c-0.3-0.4-0.1-0.2,0,0c0-0.1,0-0.1,0-0.2
		c0,0,0,0,0,0c0,0,0,0,0,0c0,0,0,0,0,0c0,0,0,0,0,0l0,0c0.1,0,0-0.1,0-0.1c0,0,0,0.1,0,0.1c0,0,0-0.1,0-0.1c0,0,0,0,0,0l0,0
		c0,0,0,0,0,0c0,0,0,0,0,0c0,0,0,0,0,0c0,0,0-0.1,0-0.1c-0.1-0.2,0.1-0.5,0-1c-0.1-0.2-0.1-0.2,0.1-0.5c0-0.7,0.3-1.5,0.5-2.3
		c0.5-1.6,0.8-2.6,1.5-4c0.4-1.1,0.9-2.2,1.6-3c0.4-0.8,0.9-1.6,1.4-2.4c-0.6,2.4-1.2,4.8-1.6,7.3c-0.8,5.3-1.6,11.3-1.9,16.9
		c-0.1,4.8-0.1,12.3,5.1,13.7c0.3,0.1,0.6,0,0.8-0.1c2.5,2.2,5.5,3.3,8.3,5.1c4,2.4,8,5,12.2,7.3c4.2,2.3,8.4,4.9,12.8,7.2
		c3.9,1.9,8.3,2.7,12,5.7c1.8,1.2,3.3,2.8,5,3.8s3.7,2,5.6,2.9c0.2,0.1,0.5,0.2,0.7,0.3c2.7,1.7,5.4,3.3,8,4.8
		c7.4,4.2,17,9.3,23.3,1.4c2.6-3.3,4.6-7,7.3-10c0.2-0.2,0.3-0.3,0.5-0.5c2.2-0.7,4.5-1.2,6.7-2c4.1-1.5,8.1-3.5,11.5-5.8
		c2.6-1.7,5.2-3.3,8-5c0.4,0.2,0.7,0.3,1.1,0.5c1.9,1,3.5,1.3,5.5,1.8c1.8,0.5,3.2,1.9,5,2.4c1.1,0.2,2.1,0,2.4-1.3
		c0.4-0.8,0-2.6-1.2-3.1c-2.1-0.7-3.7-2-5.6-2.7c-0.5-0.1-1-0.3-1.5-0.4c1-0.3,1.9-0.4,2.9-0.7c2-0.5,3.8-1.7,5.7-2.9
		c1.9-1,3.5-2.1,5.5-2.6c2-0.5,4.2-1,6.1-1.8c1.9-0.7,3.6-1.9,5.3-2.5c1.9-1,3.7-1.4,5.7-1.7c4.2-1,8.7-1.7,13.1-1.8s8.9,0.9,13.4,1
		c4.2,0.4,8.3,0.5,12.6,1.9c2.4,1.9,4.7,4,7,5.8c2.8,2.1,5.9,3.9,8.6,6.3c1,1.3,2,2.6,2.9,4.1c1.2,1.4,1.8,2.9,1.8,4.8
		c0.1,1.9-0.1,3.7-0.7,5c-0.7,1.6-1.5,2.8-2.5,3.8c-0.4-3.3-2.1-6.6-3.5-9.1c-0.9-1.7-1.9-3.4-3.1-4.8c-1.3-1.6-3.1-2.4-4.8-2.4
		c-2.2-0.4-4.1-0.4-6.3-0.4s-4.1-0.2-6.1-0.4c-2.8-0.3-5.5-0.1-8.2,0.1c-2.7,0.2-5.4,0.6-7.9,1.7c-3.6,1.6-6.3,5.2-7.6,9.6
		c-0.7,2.3-0.8,4.5-1,7c-0.1,3.2-0.5,6.4-0.2,9.5c0.2,2.4,0.7,4.6,2.2,6.4c1,1.2,2.5,2.3,3.9,3c-2.1,0.9-4.1,1.9-6,3.3
		c-1.2,1-2.6,2.3-3.8,3.4c-1.5,0.9-3.1,1.3-4.6,1.9c-1.9,0.7-3.5,2.3-5.3,3.5c-2,1.2-3.9,2.9-6,4.1c-3.6,2.6-7.6,4.5-10.9,7.5
		c-1.6,1.4-3.1,2.9-4.7,4.1c-1.6,1.4-3.4,2.5-5.1,3.4c-3.9,2.4-7.4,5.2-11.1,8.1c-0.9,0.7-1.9,1.5-2.8,2.3c-1.4,0.4-2.7,0.9-4.1,1.4
		c-4.3,1.3-8.5,3.6-12.3,6.2c-1.9,1-3.7,2.4-5.7,2.9c-2.1,0.8-4.5,1.4-6.7,2.2c-2,0.5-4.2,1-6.3,1.1c-1.8,0.1-3.6,0-5.4-0.2
		c-0.3-0.1-0.6-0.3-0.9-0.4c-2.2-1.1-4-2.4-6.3-3.2c-2.2-1.1-4.2-1.6-6.4-2.7c-2.2-1.1-4.1-2.6-6.3-4c-2.1-1.6-4.3-2.8-6.4-4.2
		c-3.1-2-6.4-4.1-9.6-6.3c-1.3-1.2-2.6-2.4-3.9-3.6c-3.8-3.4-7.9-6-11.8-8.9c-3.9-2.9-7.7-6.1-10.9-9.8c-6-7-12.5-13.5-20.6-16.3
		c-4.2-1.4-8.4-1.5-12.7-1.6c-1.4,0-2.7,0-4-0.3c-2-0.8-3.9-1.7-5.7-2.7c-0.3-0.3-0.6-0.6-0.9-0.9c-2.5-3.2-4.6-6.3-7.6-8.5
		c-1.4-0.6-2.9,1-2.5,2.8c2.6,8,9.7,11.8,16.1,14.1c3.1,1.2,6.5,2.2,9.6,3.4c2.5,0.8,5.1,1.9,7.6,2.4c1,0.4,1.9,0.7,2.9,1.1
		c0.2,0.1,0.3,0.3,0.5,0.4c1.7,1.5,3.7,2.2,5.6,3.7c3.7,2.9,7.2,6.7,10.9,9.8c4,3.1,7.8,6.5,11.7,9.6c4.2,3.1,8.5,5.9,12.8,8.6
		c1,0.7,1.9,1.3,2.9,2c3,2.6,6,5.1,9.1,7.6c4,3.3,8.3,6.9,12.9,9.3c3.6,1.9,7.4,2.4,11.2,2.9c0.7,0.4,1.3,0.7,2.1,1
		c4,1.7,8.4,2,12.5,1.5s8.1-1.8,11.6-3.6s7-4.4,10.3-6.4c1.9-1,3.7-2.1,5.7-3.4c0.8-0.5,1.6-1.1,2.4-1.7c3.6-1.1,7.3-2.2,10.7-3.5
		c4.5-1.6,8.9-4.4,13.2-6.7c3.5-1.9,7.2-4.2,10.7-6.5c0,1.9,0.1,3.8,0.1,5.7c0.2,5-0.2,9.5-1,14.5c-0.3,1.4-0.5,2.8-0.7,4.2
		c-1.2,1.4-2.2,3.1-2.9,5.2c-0.9,2.4-1.7,4.3-2.8,6.7c-1.8,4.6-4.2,8.5-6.1,13.1c-1.5,4-3.3,8.1-5.4,11.7c-1.7,2.8-3.5,5.5-5.5,7.9
		c-1.4,1.7-3,3.2-4.7,4.5c-0.3,0.1-0.7,0.2-1.1,0.3c-0.9,0.2-1.8,0.4-2.7,0.4c-7,0.8-13.9-0.4-21-1.7c-2.9-0.5-5.6-0.8-8.5-1.6
		c-1.7-1.3-3.5-2.6-5.2-3.9c-3.9-2.7-7.8-4.8-11.7-7c-3.9-1.9-7.8-3.9-11.9-6c-2-1.2-3.7-2-5.5-3.4c-2.1-1.4-3.7-2.7-5.7-4.1
		c-1.4-0.9-2.8-1.7-4.2-2.5c-3-2-6-4-9.1-6.3c-7.5-5.4-14.8-10.8-22.2-16.1c-2.5-2.7-4.9-5.6-7.5-8.3c-3.2-3.3-6.5-6.3-10.2-8.3
		c-1.9-1-3.6-1.5-5.5-2.5c-1.9-1-3.5-1.1-5.5-1.8c-1.8-0.5-3.2-1.9-5-2.1c-1.1-0.2-2.1,0-2.4,1.3c-0.1,2.2,0.7,3.7,1.4,4
		c2.1,0.7,3.7,2,5.7,2.4c0.9,0.3,1.8,0.5,2.7,0.5c0.9,0.3,1.9,0.7,2.7,1.3c0.4,0.2,0.9,0.4,1.3,0.6c-0.1,0.5,0,1,0.1,1.5
		c1.2,3.1,4.2,4.8,6.8,6c1.2,0.4,2.4,1.1,3.4,1.6c1.5,0.8,2.7,2.2,4.1,3.6c2.1,2.2,4.6,4,7,5.7c2.4,2.7,4.9,5.3,7.5,7.5
		c7,5.9,14.9,9.4,22.7,13.9c2.4,1.5,4.7,3.1,7.1,5c1.6,1.3,3.1,2.9,4.6,4.2c1.8,1.2,3.5,2.3,5.7,3.2c3.6,1.5,7,4.1,10.5,6.3
		c5.7,4,11.9,7.6,18.2,9.2c0.5,0.4,1,0.7,1.5,1c4,2.4,8.1,3.5,12.8,4.3c1.2,0.2,2.5,0.3,3.7,0.4c0.9,0,1.9,0.1,2.7,0.2
		c-0.6,1-1.2,1.9-1.8,2.9c-0.2,0.3-0.4,0.6-0.6,0.9c-0.7,1.3-1.2,2.6-1.7,3.9c-1.2,0.8-2.4,1.6-3.4,2.4c-2.3,1.8-4.8,3.6-7.6,4.3
		c-3,0.7-6.4,0.6-9.6,0.5c-3.6-0.1-7-0.4-10.5-0.8c-3-0.4-6-0.9-9-1.6c-0.3-0.1-0.5-0.1-0.8-0.2c-1.8-0.7-3.7-1.5-5.5-2.3
		c-1.9-0.8-3.8-1.7-5.6-2.5c-2.7-1.2-5.3-2.4-8-3.6c-6.7-3.6-12.9-7.5-19.4-11.6c-3.1-2.1-6.2-4.3-9.4-6.1c-3.2-1.9-6.3-3.2-9.3-5.9
		c-2.7-2.5-5.4-4.5-8.5-6.1c-3.2-1.6-6.2-2.8-9.3-4c-2.5-0.7-4.8-1.4-7.2-2c-0.7-0.2-1.4-0.3-2.1-0.5c-0.9-0.2-1.8-0.5-2.7-0.7
		c-2.6-1.8-5.1-3.6-7.6-5.4c-1.4-1.3-2.7-2.7-4-4.1c0.6,0.3,1.3,0.7,2,1c7.7,3.9,17.7,9,14.1,6.7c-6.3-4-12.2-8.1-18-12.6
		c-5.6-4.6-11.4-9.2-16.9-14.1c-5.4-4.7-11.1-9.8-16.9-13.9c-6-4.5-12.2-8.8-18.1-13.6c-2.9-2.2-5.8-4.4-8.6-6.6
		c-1-1.4-2.1-2.8-3.4-4.1c-2.6-2.7-5.2-4.7-7.8-7.2c-2.6-2.7-5.3-5-8.3-6.9c-3-1.9-6.2-3.5-9.4-5.4c-8-4.6-15.6-9.9-23.4-15.2
		c-3.5-2.9-6.9-5.7-10.4-8.5c-2.7-2.2-5.6-4.4-8.6-6.3c-2.9-2.2-5.4-4.5-8.4-6.6c-2.8-2-5.8-3.6-8.6-5.3c-2.4-1.7-5-3.8-7.5-5.3
		c-1.8-2.3-4.5-3.8-6.7-5c-2.6-1.4-6.3-3.1-9.3-2.3c-0.5,0.1-0.9,0.3-1.4,0.6c-1.3,0.8-1.4,3,0,4.1c2.5,2.5,5.9,2.4,8.2,5.4
		c2.3,3.1,5.1,5,8,7.2c5.9,4.8,12.1,8.3,18.6,11.5c4.2,2.1,8.3,4.5,12.4,7.1c4.7,2.9,9.3,6,13.9,9.1c5.7,4.8,11.6,8.9,17.3,13
		c6.2,4.3,12.5,8.5,18.5,13c4,2.9,7.9,5.8,11.7,8.8c0,0,0,0,0,0.1c0.6,0.8,1.2,1.6,1.8,2.4c1.4,2,2.8,3.9,4.3,5.8
		c2.3,3.1,4.9,5.1,7.7,7c6,4.5,12.5,7.7,18.7,11.8c6.2,4.5,12.3,9.2,18.2,14.3c4.1,3.5,7.7,7.8,11.4,11.9c6.2,3.2,12.5,6.2,12.1,5.4
		c0.9,0.6,1.7,1.2,2.5,1.8c-2-0.8-4-1.7-5.9-2.6c-2.7-1.3-5.4-2.6-8.1-3.9c0,0,0.1,0.1,0.1,0.1c-5.2-2.6-9.1-4.5-6.6-2.9
		c3.7,2.4,7.3,4.9,10.8,7.5c2.4,2.5,5.1,4.6,7.9,6.5c0.7,0.3,1.4,0.5,2.2,0.7c4.8,3.3,9.8,5.9,14.7,8.8c6.4,3.7,12.3,7.6,18.7,11.3
		c11.1,6.5,22.4,11.4,33.6,16.4c5.3,2.9,10.6,5.7,16.1,7.4c0.3,0.1,0.6,0.2,0.9,0.2c2.4,1,4.8,1.9,7.2,2.6c6,1.9,12.2,2.3,18.3,3.4
		c5.6,1,11.9,1.8,17-1.8c3.3-2.4,4.8-6.6,6.5-10.6c0.5-0.5,1.1-1,1.6-1.6c1.1-1,2.1-2.3,2.8-3.7c0.1,0,0.3-0.1,0.4-0.2
		c0.3-0.3,0.9-0.7,1.2-1c-0.3-0.3-0.6-0.5-0.8-0.8c0.1-0.2,0.2-0.5,0.2-0.7c0-0.4,0-0.9-0.1-1.3c0.3,0,0.6,0,0.9-0.1
		c3.6-0.7,6.8-2.4,9.7-4.8c2.7-1.2,5.1-2.8,7.4-5c4.7-4.8,7.9-11.6,10.5-18.3c1.5-4,3.3-7.8,4.6-12c1.4-3.7,2.4-7.7,3.2-11.9
		c0.8-1.5,1.9-2.4,2.9-3.9c1.1-1.7,1.9-3.4,2.1-5.3c0.3-2,0.4-4.2,0.8-6c0.2-1.7,0.5-3.8,0.6-5.2c0.4-3.7,0.5-7.1,0.5-10.9
		c0-0.5,0-1,0-1.6c0-0.6-0.1-1.2-0.1-1.8c0.3-0.2,0.7-0.5,1-0.7c2.2-1.6,4.4-3.3,6.6-4.9c4.1-3,8.1-5.7,12.7-8
		c4.1-2.2,8.6-4.8,12.6-7.3s8.1-5.2,12.6-6.5c4.3-1.3,9.6-1.4,13.7-3.9c1.9-1,3.7-2.9,5.3-4.5c1.3-1.5,3-3.4,4-5.1
		C507.1,386.2,507.1,381.1,506.6,376.6z M483.1,260.6C483.1,260.5,483.1,260.6,483.1,260.6L483.1,260.6z M468.1,260.2
		c-1.4,1.8-3.7,4.2-5.3,6.5c-1.5,2-2.9,4.3-4.4,6.4c-1.7,2.1-3.5,4.1-5.3,6.1c-1.6,1.8-3.4,3.6-5.1,5.3c-1.1,0.8-2.2,1.5-3.3,2.2
		c-2,1.3-4.4,2.9-6.3,3.7c-1.3,0.5-2.7,0.7-4.1,0.9c-0.5,0-1,0-1.5,0c-1.9-0.1-3.7-0.3-5.5-0.5c-0.9-0.5-1.7-1.4-2.7-1.8
		c-1.4-0.8-3.3-0.5-5-0.5c-0.7-0.4-1.4-0.8-2.2-1.2c-1.7-1.2-2.8-2.5-4.4-3.9c-2.4-2.1-5.2-4.4-6.1-7.9c-0.3-1.6-0.1-3.5,0.9-5.7
		c0.3-1.3,1.4-2.8,1.7-4.1c0.3-0.6,0.5-1.3,0.8-2c0.9-1.1,2.2-1.9,3.5-2.6c1.8-1.5,4-2.4,6-3.4c2.5-1.2,5-2.4,7.4-3.4
		c1.4-0.6,1.6-0.7,2.7-1c1.1-0.3,1.9-0.8,2.9-0.8c1.2-0.5,2.4-1,3.7-1.6c0.8-0.4,1.5-0.9,2.2-1.5c0.1-0.1,0.3-0.3,0.4-0.4
		c1.4,0,2.7,0.1,4,0.1c7.3,2.3,14.7,4.4,22.8,5.8c1.4,0.2,2.9,0.3,4.4,0.5c0.5,0.1,0.9,0.1,1.4,0.2c-1.2,1.5-2.4,2.9-3.3,4.2
		C468.3,259.9,468.2,260,468.1,260.2z M423.4,243.9c0.6,0,1.2,0,1.9-0.1c1.2,0.3,2.3,0.6,3.5,0.9c0.2,0.2,0.3,0.5,0.3,0.9
		c0,0.2,0.1,0.3,0.2,0.4c-0.5,0.1-1.1,0.4-1.6,0.6c-0.7-0.1-1.4-0.2-2.1-0.2c-1.3-0.4-2.6-0.9-3.8-1.3c-3.9-1.4-7.7-2.7-11.7-4.1
		c2.4,0.2,4.4,0.8,6.4,1.7C418.6,243.6,420.7,244,423.4,243.9z M201.3,165.8c-0.1-0.1-0.1-0.1-0.2-0.2c-0.1-0.1-0.3-0.2-0.4-0.2
		c-1.1-0.6-2.3-1.3-3.5-2c-0.2-0.2-0.5-0.4-0.7-0.6c0.4,0.1,0.7,0.3,1,0.4c1.2,0.3,2.2,1.5,3.2,2.2c0.3,0.2,0.6,0.3,0.8,0.5
		C201.5,165.9,201.4,165.8,201.3,165.8z M131.7,143.7c-2-1.2-3.9-1.9-6-2.8c-2.1-0.9-4-1.4-6-2.6c-0.6-0.3-1.2-0.5-1.8-0.8
		c0.1,0,0.3,0,0.4,0.1c1.1,0.2,2.2,0.5,3.2,0.7c0.5,0.1,0.9,0.2,1.4,0.4c2.1,1.6,4.3,3,6.7,3.5c0.1,0.1,0.2,0.2,0.4,0.3
		c0-0.1,0-0.1,0-0.2c0.2,0,0.4,0.1,0.6,0.1c0.4,0,0.8-0.1,1.1-0.3c1.7,0.9,3.4,1.9,5.1,3.1c2.5,1.7,4.8,3.3,7.2,4.8
		c-0.3-0.2-0.7-0.3-1-0.5C139.4,147.3,135.5,145.4,131.7,143.7z M474.6,278.2c-1.7,2.3-3.3,4.5-5,6.4c-3.2,3.4-6.8,6.3-10.5,9
		c0.3-0.3,0.5-0.6,0.8-0.9c0.1-0.2,0.3-0.3,0.4-0.5C465.6,288.3,470.4,283.7,474.6,278.2z M274.1,329.2L274.1,329.2
		C274.1,329.2,274.1,329.2,274.1,329.2C274.1,329.2,274.1,329.2,274.1,329.2z M274.1,329.2C274.1,329.2,274.1,329.2,274.1,329.2
		C274.1,329.2,274.1,329.2,274.1,329.2C274,329.2,274,329.1,274.1,329.2z M95.5,361.6c2.4,1.6,4.8,3.1,7.1,4.7c-1.9-1-3.8-2-5.6-3.1
		c-2.8-1.8-5.7-4.2-8.7-6.2c0.1-0.1,0.1-0.1,0.2-0.2C90.8,358.3,93.1,360.2,95.5,361.6z M491.8,394.6c0.5-0.3,1-0.6,1.5-0.8
		c-0.6,0.4-1.2,0.8-1.8,1C491.6,394.7,491.7,394.7,491.8,394.6z M466.6,348.2c0.6,0.1,1.2,0.2,1.8,0.3c-2.1-0.2-4.1-0.4-6.2-0.6
		C463.6,347.9,465.1,348,466.6,348.2z M304.9,363.1c-4.2-2.3-8.4-4.9-12.5-7.7c-2-1.2-3.5-2-5.5-3.2c-1.7-0.8-3.2-1.9-4.7-3.4
		c-0.6-1.1-1.5-1.3-2.1-0.9c0-0.2-0.1-0.3-0.1-0.5c-0.1-0.5-0.2-0.9-0.3-1.4c0-0.1,0-0.1,0-0.2c0,0,0,0,0,0c-0.1-0.2-0.2-0.7,0-1
		c-0.1-1.2,0-2.4-0.1-3.6c-0.1-5.3,0.9-9.9,1.6-14.9c0.2-1.1,0.3-2.2,0.5-3.3c0.9-0.1,1.7-0.7,1.7-2.1c0.1-1.5,0.1-3.1,0.4-4.5
		c0.5-1.6,1.2-3.2,1.9-4.7l1.8,0.2c-0.4-0.4-0.9-0.8-1.3-1.2c0.3-0.5,0.5-1.1,0.7-1.6c0.3-0.8,0.5-1.6,0.8-2.4c1.6-0.6,3.2-1,4.7-1
		c2.2,0.1,4.1,0.2,5.5,1.5c1.4,1.2,3.5,1.6,5.9,1.8c2.6,0.2,5.2-0.3,7.6-0.1c2.4,0.3,4.5,0.6,6.8,1.1c2.1,0.5,4.1,1.1,6.2,1.6
		c1.4,0.7,2.6,1.5,3.9,2.1c1.4,0.7,2.8,1.2,4.3,1.6c1,0.5,2,1.1,2.9,1.7c2,1.2,3.5,2.3,5.5,3.4c2.1,1.4,3.7,2.7,5.7,4.1
		c3.9,2.7,8,4.8,12,7c3.7,2,7.4,4,10.9,6.6c2.7,2,5.3,4.4,7.7,6.9c4,4.2,7.8,8.9,11.8,13.3c2.8,2.9,5.6,5.8,8.8,7.6
		c-2,0.7-4.1,1.4-6.1,2.3c-4,2-7.9,4.1-11.2,7.1c-0.4,0.4-0.9,0.8-1.3,1.2c-1.2,0.3-2.5,0.7-3.7,1.1c-4.1,1.5-7.7,3.9-11.7,6.1
		c-3.5,2.1-7.2,2.8-11.3,2.3c-4.1-0.4-7.8-1.7-11.7-3.4c-0.2-0.1-0.3-0.1-0.5-0.2c-1.1-0.7-2.2-1.3-3.2-2c-4.1-2.8-8.8-5.5-12.5-9.4
		s-7.6-6.8-11.9-9.3c-2-1.2-3.9-2.2-6.1-3.1c-1.9-1-3.6-1.8-4.9-3.6c-1.1-1.3-3.3-0.9-3.3,0.9c-0.3,0.1-0.6,0.2-0.8,0.4
		c0.4,0.5,0.8,1,1.2,1.4c0.2,1.3,0.9,2.2,1.8,2.2c-0.1-0.2-0.1-0.4-0.1-0.7c2.6,1.9,5.6,2.9,8.2,4.4c3.1,1.7,6.1,3.8,8.9,6.2
		C313.2,368.1,309,365.4,304.9,363.1z M371.3,385.8c-1.8,2.9-3.7,6.2-6.9,7c-3.8,1-7.7-0.8-11.4-2.8c2.8,0.2,5.5,0.1,8-0.7
		c4.1-1.5,7.7-3.9,11.5-6c0.3-0.2,0.6-0.3,1-0.5C372.6,383.9,371.9,384.8,371.3,385.8z M385.7,374.6c0.5-0.3,0.9-0.6,1.4-0.9
		c1.3-0.8,2.6-1.5,4-2.1c-1.3,0.8-2.6,1.6-4,2.3C386.7,374.1,386.2,374.4,385.7,374.6z M453.1,398.7c0,0-0.2-0.2-0.3-0.3
		c-0.1-0.1-0.2-0.1-0.2-0.3c0,0,0,0,0-0.1c0,0,0,0,0-0.2c0,0-0.4-0.6-0.1-0.2c-0.1-0.2-0.1-0.5-0.1-0.5c-0.1-0.5-0.2-0.9-0.3-1.4
		c-0.1-1.4-0.1-3.1-0.1-4.6c0.2-2.5,0-5.1,0.2-7.5c0.3-3.7,1.6-7.2,4.1-9c1.6-1.1,3.4-1.6,5.2-2c2.3-0.3,4.7-0.7,7-1
		c2.3-0.1,4.5,0.1,6.8,0.2c1.8,0.3,3.6,0.1,5.3,0.1c1.9,0,4,0,5.5,0.8c0.2,0,0.3,0.2,0.5,0.1c-0.3-0.2,0,0,0.3,0.2l0.3,0.2
		c-0.5-0.4,0,0,0.1,0.2c0.6,0.6,1.2,1.4,1.6,2c1.2,1.4,2.1,3.3,2.9,5.6c0.3,0.4,0.4,0.9,0.5,1.3s0.1,0.5,0.4,0.9
		c0.1,0.5,0.2,0.9,0.3,1.4c-0.1-0.5-0.1,0.3,0,0.3c0,0.7,0.1,1.4,0.5,1.9c-0.3,0.1-0.6,0.2-0.9,0.3c-1.8,0.4-3.6,0.9-5.3,1.6
		c-2.1,1-3.9,2.2-6.2,3.2c-2.5,1.3-5.1,2.7-7.5,4.1c-0.6,0.1-1.2,0.1-1.8,0.1c-2.1,0.3-4.5,0.6-6.3,1.8c-0.7,0.7-1.4,1.3-2.1,1.7
		c-0.7,0.4-2.1,0-3,0c-0.8,0.2-1.9,0.2-2.6,0.6c-0.8,0.2-1,0.2-1.5,0.1c-0.9-0.3-1.7-0.8-2.5-1.5
		C453.3,398.9,453.3,398.9,453.1,398.7z M451.1,413c2.5-1.9,5.3-3.1,8.1-4c-4.1,2.4-8.2,4.6-12.1,7.1
		C448.3,415.1,449.7,413.8,451.1,413z M415.6,437.5c-0.7,0.4-1.4,0.8-2.2,1.2c2.2-1.7,4.4-3.6,6.6-5.4c3.1-2.8,6.7-4.6,10-6.9
		c0,0.6,0,1.2,0,1.8C425.3,431.5,420.5,434.6,415.6,437.5z M433.1,438.5c-0.1,2.7-0.4,5.1-0.7,7.6c0.1-3.9,0-7.9-0.1-11.8
		c0-0.2,0-0.4,0-0.6c0.3-0.2,0.6-0.4,0.9-0.6C433.3,434.9,433.2,436.8,433.1,438.5z M439.2,421.6c-1.5,1.2-3,2.3-4.6,3.4
		c0,0,0,0,0,0c-0.5-0.1-0.9-0.3-1.3-0.2c-0.2,0-0.3,0-0.5-0.1c0-0.1,0-0.2,0-0.3c1.4-1,2.9-2.2,4.3-3c1.6-1.1,3.4-2.5,5.1-3.2
		c1.1-0.5,2.4-0.8,3.6-1.4c-1.2,0.8-2.3,1.5-3.4,2.3c-0.8,0.6-1.6,1.2-2.4,1.8C439.7,421.3,439.5,421.4,439.2,421.6z"/>
	<path class="st7" d="M240.8,482.9c-6.3-3.2,26.8,15.3,20.6,11c-2.7-1.8-5.5-3.5-8.3-5.4c-0.7-0.2-1.3-0.5-2-0.7
		C247.8,486.5,244.1,484.5,240.8,482.9z"/>
	<path class="st7" d="M229.4,471.3c3.8,2.2,7.7,4.2,11.6,6.2c-0.2-0.2-0.4-0.4-0.6-0.7C233.3,473.2,226.4,469.5,229.4,471.3z"/>
	<path class="st7" d="M237.9,377.4c0.2,0.7,0.8,1.5,1.3,1.8c0.5,0.1,0.9,0.3,1.3,0.2c1.1,0.2,2.1,0,2.4-1.3c0.2-1-0.3-2.8-1.4-3
		c-0.1,0-0.2-0.1-0.4-0.1c-0.5-3.1-0.4-6.3-0.3-9.2c0.1-3.7,0.9-6.7,1.2-10.4c0.3-2,0.4-4.2,0.8-6c0.2-1.7,1.2-2.7,2.3-4.2
		c1.3-1.5,2.6-3.3,3.3-5.4c1.1-2.2,1.9-4.3,2.8-6.7c1.8-4.6,4.5-8.4,6.3-12.9c1.7-4.1,3.3-8.1,5.6-11.8c1.8-3.1,4-6.1,6.4-8.7
		l3.1-8.4c-3.6,2.4-6.8,5.7-9.5,9.4c-2.4,3.2-4.5,6.7-6.1,10.5c-1.1,2.4-1.8,4.6-2.9,7s-2.1,4.4-3.5,6.4c-2.1,4.2-3.7,8.9-5.8,13.3
		c-0.8,1.9-2.4,3.2-3.4,5c-1.1,1.7-2,3.1-2.3,5.4c-0.3,2-0.4,4.2-0.8,6c-0.2,1.7-0.5,3.8-0.8,5.3c-0.4,4.2-0.7,8.1-0.5,12.4
		C237.2,373.7,237.5,375.6,237.9,377.4z"/>
	<path class="st6" d="M326.7,215.4c1.7,0.3,3.3,0.6,4.9,1c-12-5.3-23.9-10.9-29.7-14.9l-0.4,1.1c5.1,2.7,10.1,5.8,15.4,8.2
		C320.1,212.4,323.4,213.9,326.7,215.4z"/>
	<path class="st6" d="M372.3,319.8c-0.8,0-1.6,0-2.3-0.1c1,0.2,1.1,1.2,0.6,2.3c7.3-0.8,16.8-2.2,28.3-4.9
		c-5.5,0.8-11.5,2.2-17.1,2.8C378.5,320.1,375.4,319.8,372.3,319.8z"/>
	<path class="st6" d="M470.3,255.3c-1.4-0.2-2.9-0.3-4.4-0.5c-8.1-1.4-15.4-3.6-22.8-5.8c-1.3-0.1-2.6-0.1-4-0.1
		c-0.1,0.1-0.2,0.3-0.4,0.4c-0.7,0.7-1.5,1.1-2.2,1.5c-1.2,0.7-2.5,1.1-3.7,1.6c-1,0.1-1.8,0.5-2.9,0.8c-1.1,0.3-1.3,0.4-2.7,1
		c-2.4,0.9-4.9,2.2-7.4,3.4c-2,1.1-4.1,1.9-6,3.4c-1.2,0.7-2.5,1.6-3.5,2.6c-0.3,0.7-0.6,1.3-0.8,2c-0.3,1.3-1.4,2.8-1.7,4.1
		c-1,2.2-1.3,4.2-0.9,5.7c0.8,3.5,3.7,5.8,6.1,7.9c1.6,1.4,2.7,2.8,4.4,3.9c0.7,0.4,1.4,0.8,2.2,1.2c1.7,0,3.5-0.4,5,0.5
		c0.9,0.4,1.8,1.3,2.7,1.8c1.8,0.2,3.6,0.5,5.5,0.5c0.5,0,1,0,1.5,0c1.4-0.2,2.8-0.4,4.1-0.9c1.9-0.8,4.3-2.4,6.3-3.7
		c1.1-0.7,2.2-1.4,3.3-2.2c1.8-1.6,3.5-3.4,5.1-5.3c1.8-2,3.6-4.1,5.3-6.1c1.5-2.2,2.9-4.4,4.4-6.4c1.6-2.4,3.8-4.7,5.3-6.5
		C468.2,260,470.3,255.5,470.3,255.3L470.3,255.3z"/>
	<path class="st6" d="M341.9,317.4c-1.5-0.3-2.9-0.5-4.4-0.8c7.2,4.5,13.7,8.1,16.6,7.3c0.1,0,0.1,0,0.2,0c0.6-0.1,1.3-0.3,2-0.4
		C351.2,322.1,346.5,319.9,341.9,317.4z"/>
	<path class="st6" d="M473.8,259.7c0.3-0.5,0.6-0.9,0.9-1.4C474.7,258.3,474.2,259,473.8,259.7z"/>
</g>
</svg>
