<?xml version="1.0" encoding="utf-8"?>
<!-- Generator: Adobe Illustrator 24.3.0, SVG Export Plug-In . SVG Version: 6.00 Build 0)  -->
<svg version="1.1" id="Layer_1" xmlns="http://www.w3.org/2000/svg" xmlns:xlink="http://www.w3.org/1999/xlink" x="0px" y="0px"
	 viewBox="0 0 780 560" style="enable-background:new 0 0 780 560;" xml:space="preserve">
<style type="text/css">
	.st0{fill:#FF9A22;}
	.st1{opacity:0.2;enable-background:new    ;}
	.st2{fill:#FF9000;}
	.st3{fill:#AF5F00;}
	.st4{fill:#455A64;}
	.st5{fill:none;}
	.st6{fill:#FFFFFF;}
	.st7{fill:#222221;}
</style>
<g id="freepik--Card--inject-3_2_">
	<g id="freepik--card--inject-3_2_">
		<path class="st0" d="M392.1,293.6l-0.6,4.9c-0.1,1.8,0.6,3.2,1.7,4.1l127.7,79.9c1.4,0.6,3,0.6,4.4-0.3l222.6-142.8
			c1.5-1,2.5-2.7,2.7-4.4l0.6-4.9c0.1-1.8-0.5-3.3-1.7-4.1l-127.7-79.9c-1.4-0.6-3-0.6-4.4,0.3L394.8,289.2
			C393.4,290.3,392.4,291.8,392.1,293.6z"/>
		<path class="st1" d="M526.6,371.9L749.1,229c1.4-0.8,1.5-2.1,0.3-2.8l-127.7-79.9c-1.4-0.6-3-0.6-4.4,0.3L394.8,289.4
			c-1.4,0.8-1.5,2.1-0.3,2.8l127.7,79.9C523.6,372.8,525.2,372.8,526.6,371.9z"/>
		<path class="st2" d="M526.6,371.9L749.1,229c1.4-0.8,1.5-2.1,0.3-2.8l-127.7-79.9c-1.4-0.6-3-0.6-4.4,0.3L394.8,289.4
			c-1.4,0.8-1.5,2.1-0.3,2.8l127.7,79.9C523.6,372.8,525.2,372.8,526.6,371.9z"/>
		<path class="st3" d="M524.4,372.5l-1.1,10.6c-0.8,0.1-1.6-0.1-2.1-0.5l-127.7-79.9c-1.3-0.9-1.9-2.4-1.7-4.1l0.6-4.9
			c0.3-1.5,1-2.9,2.3-4c-0.9,0.8-0.9,1.9,0.1,2.5l127.6,79.9C522.9,372.3,523.6,372.6,524.4,372.5z"/>
	</g>
	<path class="st4" d="M506.9,303.8l-19.2,9.9c-2.9,1.1-6.2,1.3-8.9-0.5l-5-3.1c-2.5-1.6-2.3-3.8,0.1-5l19.2-9.9
		c2.9-1.1,6.2-1.3,8.9,0.5l5,3.1C509.4,300.1,509.5,302.5,506.9,303.8z"/>
	<path class="st4" d="M542.2,284l-19.2,9.9c-2.9,1.1-6.2,1.3-8.9-0.5l-5-3.1c-2.5-1.6-2.3-3.8,0.1-5l19.2-9.9
		c2.9-1.1,6.2-1.3,8.9,0.5l5,3.1C544.8,280.5,544.6,282.7,542.2,284z"/>
	<path class="st4" d="M711.4,234.9l-89.7,56.6c-4.1,1.8-8.7,2-12.3-0.3l-6.9-4.3c-3.4-2.2-3-5.2,0.4-7.1l89.6-56.6
		c4.1-1.8,8.7-2,12.3,0.3l6.9,4.3C715,229.8,714.8,233,711.4,234.9z"/>
	<path class="st4" d="M683.3,217.3L625,253.2c-4.1,1.8-8.7,2-12.3-0.3l-6.9-4.3c-3.4-2.2-3-5.2,0.4-7.1l58.3-35.8
		c4.1-1.8,8.7-2,12.3,0.3l6.9,4.3C687,212.2,686.8,215.4,683.3,217.3z"/>
	<path class="st4" d="M445.6,286.3l141.8-90c2.5-1.5,2.7-3.9,0.6-5.2l-3.1-2c-2.4-1.4-5.5-1.1-8.4,0.4l-141.8,90
		c-2.5,1.6-2.7,3.9-0.6,5.2l3.1,2C439.7,288,442.9,287.8,445.6,286.3z"/>
	<path class="st4" d="M465.5,300l141.8-90c2.5-1.5,2.7-3.9,0.6-5.2l-3.1-2c-2.4-1.4-5.5-1.1-8.4,0.4l-141.8,90
		c-2.5,1.6-2.7,3.9-0.6,5.2l3.1,2C459.7,301.6,462.8,301.5,465.5,300z"/>
</g>
<g>
	<path class="st5" d="M461.9,244.1C461.9,244.1,461.9,244,461.9,244.1L461.9,244.1z"/>
	<path class="st5" d="M385.5,223.5c4.1,1.5,8.2,2.8,12.2,4.3c1.4,0.5,2.7,0.9,4,1.4c0.7,0.1,1.5,0.1,2.2,0.2
		c0.6-0.2,1.1-0.5,1.7-0.6c-0.1-0.1-0.1-0.3-0.2-0.4c-0.1-0.4-0.2-0.6-0.3-0.9c-1.3-0.3-2.4-0.6-3.7-0.9c-0.6,0-1.4,0.1-2,0.1
		c-2.8,0.1-5-0.2-7.3-1.4C390.1,224.3,388,223.7,385.5,223.5z"/>
	<path class="st5" d="M471,384.1c-0.1,0.1-0.2,0.1-0.3,0.2c0.6-0.3,1.3-0.6,1.9-1C471.9,383.5,471.4,383.8,471,384.1z"/>
	<path class="st5" d="M436.8,278.5c3.8-2.8,7.6-5.9,11-9.4c1.7-2,3.4-4.3,5.2-6.7c-4.3,5.7-9.4,10.6-14.9,14.6
		c-0.1,0.2-0.3,0.3-0.4,0.5C437.4,277.9,437.1,278.2,436.8,278.5z"/>
	<path class="st5" d="M448.5,238.5L448.5,238.5c0,0.1-2.3,4.9-2.4,5c0.1-0.1,0.2-0.2,0.3-0.4c1-1.4,2.2-2.8,3.4-4.4
		C449.6,238.7,449,238.6,448.5,238.5z"/>
	<path class="st5" d="M213.3,468.1c1.4,1.5,2.7,2.9,4.2,4.3c2.6,1.9,5.2,3.8,7.9,5.6c0.9,0.3,1.9,0.5,2.8,0.7
		c0.7,0.2,1.5,0.3,2.2,0.5c-6.1-4.1-11-7.4-15-10.2C214.7,468.7,213.9,468.4,213.3,468.1z"/>
	<path class="st5" d="M316.2,525.3c0.3,0.1,0.5,0.1,0.8,0.2c3.1,0.7,6.3,1.3,9.4,1.7c-4.8-0.9-10.1-2.3-15.9-4.2
		C312.4,523.8,314.3,524.5,316.2,525.3z"/>
	<path class="st5" d="M223.5,477.4c-0.8-0.6-1.8-1.3-2.6-1.9c0.4,0.8-6.2-2.3-12.6-5.6c0.2,0.2,0.4,0.4,0.6,0.7
		c2.8,1.4,5.6,2.7,8.5,4.1C219.4,475.7,221.4,476.7,223.5,477.4z"/>
	<path class="st5" d="M376.3,503.3c1.8-1.4,3.3-2.9,4.9-4.7c-2.1,1.9-4.1,3.6-6,5C375.6,503.5,376,503.4,376.3,503.3z"/>
	<path class="st5" d="M360.7,516.4c0.2-0.3,0.4-0.6,0.6-0.9c0.6-1,1.3-2,1.9-3c-0.9-0.1-1.9-0.1-2.8-0.2c-0.9,0.3-1.5,0.5-1.5,0.5
		S360,514.3,360.7,516.4z"/>
	<path class="st5" d="M442.7,269.5c4.4-4.3,8.8-9.5,11.6-15C450,258.7,446.9,265.1,442.7,269.5C442.7,269.4,442.7,269.5,442.7,269.5
		z"/>
	<path class="st5" d="M453.1,241.8c-0.3,0.4-0.6,0.9-0.9,1.5c-0.4,0.6-0.8,1.3-0.9,1.4l4.5-3c-0.1,0.9,0.6,2,1.3,3.3
		c0-1.6-0.5-2.8-1.5-3.7c-0.5-0.5-1.3-0.9-1.9-1.3c0,0,0,0-0.1,0.1c-0.6,0.7-1.4,1.4-2,2.1c0.4,0.5,0.2,1.5-0.2,2.4
		c0.3-0.5,0.6-0.9,0.9-1.4C452.6,242.4,453.1,241.7,453.1,241.8z"/>
	<path class="st5" d="M446.5,336c-0.6-0.1-1.3-0.3-1.9-0.3c-1.6-0.3-3-0.3-4.6-0.3C442.2,335.6,444.3,335.8,446.5,336z"/>
	<path class="st5" d="M343.1,325.3c-3.7-2.7-7.5-4.8-11.4-6.9l19.4,14.1C348.5,329.8,345.9,327.3,343.1,325.3z"/>
	<path class="st5" d="M416.1,411.7c0,0,0,0.2-0.1,0.7c0.3-0.2,0.5-0.4,0.8-0.6c0.8-0.6,1.7-1.3,2.5-1.9
		C417.4,410.9,416.1,411.7,416.1,411.7z"/>
	<path class="st6" d="M243.5,315.9c0,0,0,0.1,0,0.2V315.9L243.5,315.9z"/>
	<polygon class="st6" points="243.5,315.7 243.5,315.7 243.5,315.9 243.5,315.9 	"/>
	<path class="st6" d="M243.6,316.1C243.5,315.7,243.3,315.6,243.6,316.1L243.6,316.1z"/>
	<path class="st6" d="M126.7,133.5c6,3.6,12.1,6.8,18.5,9.3c1,0.4,2.1,0.8,3.1,1.3c-1.3-0.9-1.4-1.4,0.5-0.6
		c3.8,1.4,7.7,2.6,11.7,4.1c0.5,0.1,1,0.2,1.6,0.3c-0.1-0.1-0.2-0.2-0.3-0.2c-0.2,0-0.5-0.4-0.3-0.2c0-0.1,0-0.1,0-0.1
		c-3.3-1.9-6.9-3.9-10.1-5.7c-0.3,0.3-0.7,0.6-1,0.8c-0.4,0.1-0.5,0.4-0.9,0.5c-0.9,0.5-2.4-0.6-2.4-1.5c0-0.2,0-0.4,0-0.6
		c-0.6-0.5-0.8-1.5-0.8-2.3c-3.8-2.2-6.2-3.7-5.4-3.6c1.6,0.3,3.1,0.3,4.7,0.3c-15.3-5.7-30.1-11.3-42.4-15.9
		c1.7,1.1,3.4,2.3,5.2,3.4C114.6,126.5,120.7,130,126.7,133.5z"/>
	<path class="st6" d="M209.3,162.4c6,2.5,12.2,4.5,18.4,7c4.4,1.8,8.3,4.5,12.2,7.2c7.1,3.3,14.2,7.3,21.3,10.7
		c3.1,1.5,6.4,2.9,9.6,4.4c-0.4-0.3-0.7-0.6-1.1-0.9l0.1-0.3c-16-7.1-30.3-14.1-32.1-16.8c-1.5-2.3-21.2-10.7-46.6-20.6
		c0.1,0.1,0.1,0.1,0.2,0.2C197.1,156.8,203.2,159.6,209.3,162.4z"/>
	<path class="st6" d="M243.5,315.7C243.5,315.9,243.5,315.9,243.5,315.7C243.5,315.9,243.5,315.9,243.5,315.7
		C243.5,315.9,243.5,315.9,243.5,315.7z"/>
	<path class="st6" d="M370.1,346.4c1.5,1.3,3,2.6,4.6,3.3L370.1,346.4z"/>
	<path class="st6" d="M164.5,148c-0.2,0.2-0.5,0.2-0.8,0.2c0.3,0.2,0.5,0.3,0.8,0.4c0.7,0.2,1.5,0.5,2.2,0.7
		C166,149.1,165.2,148.6,164.5,148L164.5,148z"/>
	<path class="st6" d="M243.5,315.9L243.5,315.9c0,0.1,0,0.1,0.1,0.2C243.6,316.3,243.7,315.7,243.5,315.9L243.5,315.9L243.5,315.9z"
		/>
	<path class="st6" d="M100.1,123.3c-1.8-1.3-3.6-2.3-5.3-3.2c-0.3,0.2-0.7,0.3-1.1,0.3c-0.2,0-0.4,0-0.6-0.1c0,0.1,0,0.1,0,0.2
		c-0.1-0.1-0.2-0.2-0.4-0.3c-2.5-0.5-4.8-2-7-3.7c-0.5-0.1-0.9-0.2-1.5-0.4c-1.1-0.2-2.3-0.5-3.3-0.7c-0.1,0-0.3,0-0.4-0.1
		c0.6,0.2,1.3,0.5,1.9,0.8c2.1,1.3,4,1.8,6.3,2.7c2.2,0.9,4.2,1.8,6.3,2.9c4,1.8,8,3.8,11.9,5.9c0.3,0.2,0.7,0.3,1,0.5
		C105.3,126.7,102.7,125,100.1,123.3z"/>
	<path class="st6" d="M162.4,141.9c0.2,0.2,0.5,0.4,0.7,0.6c1.3,0.7,2.5,1.5,3.7,2.1c-1.1-0.7-2.1-2-3.3-2.3
		C163.1,142.2,162.8,142,162.4,141.9z"/>
	<path class="st6" d="M243.5,315.7L243.5,315.7L243.5,315.7z"/>
	<path class="st6" d="M408.8,425.6c0.1,4,0.2,8.2,0.1,12.3c0.3-2.6,0.6-5.1,0.7-7.9c0.1-1.8,0.2-3.7,0.1-5.6
		c-0.3,0.2-0.6,0.4-0.9,0.6C408.7,425.2,408.8,425.4,408.8,425.6z"/>
	<path class="st6" d="M406.5,417.3c-3.4,2.3-7.1,4.3-10.4,7.2c-2.3,1.9-4.6,3.9-6.9,5.6c0.7-0.4,1.6-0.8,2.3-1.3
		c5.1-3,10.1-6.3,15.2-9.7C406.5,418.6,406.5,417.9,406.5,417.3z"/>
	<path class="st6" d="M279.7,351.9c-2.7-1.7-5.9-2.6-8.6-4.6c0,0.2,0,0.4,0.1,0.7c-1,0-1.8-0.9-1.9-2.3c-0.4-0.4-0.8-0.9-1.3-1.5
		c0.3-0.1,0.5-0.2,0.8-0.4c0-1.9,2.3-2.3,3.4-0.9c1.4,1.9,3.1,2.7,5.1,3.8c2.2,0.9,4.3,2,6.4,3.2c4.4,2.7,8.6,5.6,12.4,9.7
		c3.9,4.1,8.8,6.9,13.1,9.8c1.1,0.7,2.3,1.4,3.3,2.1c0.2,0.1,0.3,0.1,0.5,0.2c4,1.8,7.8,3,12.2,3.6c4.3,0.4,8.2-0.3,11.8-2.4
		c4.1-2.3,7.9-4.7,12.2-6.4c1.3-0.4,2.6-0.7,3.9-1.1c0.4-0.4,0.9-0.8,1.4-1.3c3.4-3.1,7.5-5.4,11.7-7.4c2.1-0.9,4.3-1.8,6.4-2.4
		c-3.3-1.9-6.3-4.9-9.2-7.9c-4.2-4.6-8.2-9.5-12.3-13.9l-19.4-14.1c-4.3-2.3-8.6-4.5-12.5-7.3c-2.2-1.5-3.9-2.8-6-4.3
		c-2.1-1.3-3.7-2.4-5.7-3.6c-1-0.6-2.1-1.1-3-1.8c-1.6-0.4-3.1-0.9-4.5-1.7c-1.4-0.6-2.6-1.5-4.1-2.2c-2.1-0.5-4.3-1.1-6.5-1.7
		c-2.4-0.5-4.6-0.8-7.1-1.1c-2.5-0.3-5.1,0.3-7.9,0.1c-2.5-0.3-4.7-0.6-6.2-1.9c-1.5-1.3-3.4-1.5-5.7-1.6c-1.6,0-3.2,0.4-4.9,1
		c-0.2,0.8-0.5,1.7-0.8,2.5c-0.2,0.5-0.5,1.1-0.7,1.7c0.4,0.4,0.9,0.8,1.4,1.3l-1.9-0.2c-0.7,1.6-1.5,3.1-2,4.9
		c-0.2,1.5-0.3,3.1-0.4,4.7c0,1.5-0.8,2.2-1.8,2.2c-0.2,1.1-0.4,2.3-0.5,3.4c-0.7,5.2-1.7,10-1.7,15.6c0.1,1.3,0,2.5,0.1,3.8
		c-0.1,0.3,0,0.7,0,1c0,0.1,0,0.1,0,0c0,0,0,0.1,0,0.2c0.1,0.5,0.2,0.9,0.3,1.5c0,0.2,0.1,0.3,0.1,0.5c0.7-0.4,1.6-0.2,2.2,0.9
		c1.6,1.7,3.1,2.7,4.9,3.6c2.1,1.3,3.7,2.1,5.7,3.3c4.3,2.9,8.8,5.6,13.1,8c4.3,2.4,8.7,5.2,13.3,7.3
		C286,355.9,282.9,353.8,279.7,351.9z"/>
	<path class="st6" d="M419.4,409.8c1.1-0.8,2.4-1.7,3.6-2.4c-1.3,0.6-2.5,1-3.8,1.5c-1.8,0.7-3.7,2.2-5.3,3.3
		c-1.6,0.9-3,2.1-4.5,3.1c0,0.1,0,0.2,0,0.3c0.2,0,0.3,0,0.5,0.1c0.4-0.1,0.9,0,1.4,0.2l0,0c1.6-1.1,3.2-2.4,4.8-3.6
		c0.1-0.4,0.1-0.7,0.1-0.7S417.4,410.9,419.4,409.8z"/>
	<path class="st6" d="M243.5,315.7L243.5,315.7L243.5,315.7C243.4,315.6,243.4,315.7,243.5,315.7z"/>
	<path class="st6" d="M167.2,144.9c0.1,0.1,0.1,0.1,0.2,0.2c0.1,0,0.2,0.1,0.2,0.1c-0.3-0.2-0.5-0.3-0.8-0.5
		C167,144.7,167.1,144.8,167.2,144.9z"/>
	<path class="st6" d="M49.3,344.7c3.2,2.1,6.2,4.6,9.1,6.5c2,1.1,3.9,2.2,5.9,3.2c-2.4-1.7-4.9-3.1-7.4-4.9c-2.5-1.5-4.9-3.4-7.4-5
		C49.5,344.6,49.3,344.7,49.3,344.7z"/>
	<path class="st6" d="M334.2,378.7c-2.6,0.8-5.4,0.9-8.4,0.7c3.9,2.1,7.9,4,11.9,2.9c3.3-0.8,5.3-4.4,7.2-7.3c0.7-1,1.4-2.1,2.2-3
		c-0.3,0.1-0.6,0.3-1,0.5C342.3,374.6,338.5,377.1,334.2,378.7z"/>
	<path class="st6" d="M41.1,333.3c2.3,1.1,5.1,2.8,7,5.2c2.7,1.6,5.3,3.8,7.8,5.5c2.9,1.8,6,3.6,9,5.5c3.2,2.2,5.9,4.6,8.8,6.9
		c3.1,2,6.2,4.3,9,6.6c3.7,2.8,7.2,5.9,10.9,8.9c8,5.5,16.1,11.1,24.5,15.9c3.3,2,6.7,3.7,9.8,5.6s6,4.3,8.7,7.2
		c2.6,2.6,5.4,4.7,8.2,7.5c1.4,1.4,2.4,2.8,3.6,4.3c3,2.3,6.1,4.6,9,6.9c6.2,5,12.5,9.5,18.9,14.2c6,4.3,11.9,9.6,17.7,14.5
		c5.7,5.1,11.8,9.9,17.7,14.7c6.1,4.8,12.2,9.1,18.8,13.2c3.8,2.5-6.7-2.9-14.7-7c4.1,2.8,9,6.2,15,10.2c2.5,0.6,4.9,1.4,7.5,2.1
		c3.2,1.3,6.4,2.4,9.7,4.2c3.3,1.7,6.1,3.8,8.9,6.4c3.1,2.7,6.4,4.2,9.7,6.2c3.3,2,6.6,4.2,9.8,6.4c6.8,4.3,13.3,8.4,20.3,12.1
		c2.8,1.3,5.5,2.5,8.4,3.8c2,0.8,3.9,1.8,5.9,2.6c5.9,1.9,11.2,3.2,15.9,4.2c3.7,0.4,7.2,0.7,11,0.8c3.3,0.2,7,0.3,10-0.5
		c2.9-0.7,5.5-2.6,7.9-4.5c0.9-0.8,2.2-1.7,3.6-2.5c0.5-1.4,1-2.7,1.8-4.1c-0.7-2.1-1.9-3.7-1.9-3.7s0.5-0.2,1.5-0.5
		c-1.3-0.1-2.6-0.1-3.9-0.4c-4.9-0.8-9.2-2-13.4-4.5c-0.5-0.3-1-0.7-1.6-1c-6.7-1.7-13.1-5.5-19-9.6c-3.7-2.4-7.2-5-11-6.6
		c-2.2-0.9-4.1-2-6-3.3c-1.7-1.4-3.2-3-4.8-4.4c-2.5-2-5-3.7-7.4-5.2c-8-4.7-16.4-8.3-23.7-14.5c-2.8-2.4-5.3-5.1-7.8-7.8
		c-2.6-1.8-5.1-3.7-7.3-6c-1.5-1.4-2.7-2.8-4.3-3.8c-1-0.5-2.3-1.1-3.6-1.7c-2.8-1.4-5.9-3-7.1-6.3c-0.1-0.5-0.2-1-0.1-1.6
		c-0.4-0.2-0.8-0.4-1.4-0.6c-0.8-0.5-1.8-1-2.8-1.4c-0.9,0-1.9-0.3-2.8-0.5c-2.1-0.5-3.8-1.9-6-2.5c-0.7-0.3-1.6-1.9-1.5-4.2
		c0.3-1.4,1.4-1.6,2.5-1.4c1.9,0.3,3.3,1.7,5.2,2.2c2.2,0.7,3.8,0.8,5.7,1.9c2,1,3.8,1.6,5.7,2.6c3.9,2.1,7.3,5.2,10.7,8.7
		c2.6,2.9,5.2,5.9,7.8,8.7c7.8,5.6,15.5,11.3,23.2,16.8c3.2,2.4,6.4,4.4,9.5,6.6c1.5,0.8,2.9,1.7,4.4,2.6c2.2,1.5,3.9,2.8,6,4.3
		c2,1.6,3.7,2.4,5.7,3.6c4.3,2.2,8.4,4.2,12.4,6.3c4.1,2.3,8.3,4.5,12.2,7.3c1.9,1.4,3.7,2.8,5.4,4.1c3,0.8,5.9,1.1,8.9,1.7
		c7.4,1.5,14.6,2.6,21.9,1.8c0.9-0.1,1.9-0.2,2.8-0.4c1.9-1.5,4-3.1,6-5c2.2-2.5,4.1-5.4,5.7-8.3c2.2-3.9,4-8,5.6-12.2
		c1.9-4.8,4.4-8.9,6.4-13.7c1.1-2.5,2-4.5,2.9-7c0.6-2.2,1.8-3.9,3-5.4c0.2-1.5,0.5-2.9,0.7-4.4c0.9-5.2,1.3-9.9,1-15.2
		c-0.1-2-0.1-4-0.1-6c-3.7,2.4-7.5,4.8-11.2,6.8c-4.5,2.4-9.1,5.3-13.8,7c-3.7,1.4-7.5,2.5-11.2,3.7c-0.8,0.6-1.6,1.3-2.5,1.8
		c-2.1,1.3-4.1,2.5-6,3.6c-3.4,2.1-7,4.8-10.8,6.7c-3.8,1.9-7.8,3.2-12.1,3.8c-4.3,0.5-8.8,0.2-13.1-1.6c-0.7-0.3-1.5-0.7-2.2-1
		c-4-0.5-8-1-11.7-3c-4.8-2.6-9.3-6.3-13.5-9.7c-3.1-2.6-6.3-5.2-9.5-7.9c-1-0.7-2-1.4-3-2.1c-4.5-2.9-9-5.9-13.4-9
		c-4.2-3.2-8.2-6.8-12.2-10c-4-3.3-7.5-7.2-11.4-10.2c-2-1.6-4.1-2.3-5.9-3.9c-0.2-0.1-0.3-0.3-0.5-0.4c-0.9-0.4-2-0.8-3-1.1
		c-2.6-0.6-5.3-1.7-7.9-2.5c-3.2-1.3-6.8-2.3-10-3.6c-6.6-2.4-14-6.4-16.8-14.7c-0.5-1.9,1.1-3.6,2.6-2.9c3.2,2.2,5.3,5.4,7.9,8.9
		c0.3,0.3,0.6,0.6,0.9,0.9c1.9,1.1,3.9,2,6,2.8c1.4,0.2,2.7,0.2,4.2,0.3c4.5,0.1,9,0.3,13.3,1.7c8.5,2.9,15.4,9.8,21.5,17
		c3.4,4,7.3,7.2,11.4,10.2c4.1,3,8.4,5.7,12.3,9.3c1.4,1.3,2.7,2.5,4.1,3.8c3.3,2.3,6.8,4.5,10,6.6c2.2,1.5,4.4,2.7,6.7,4.4
		c2.4,1.5,4.3,2.9,6.6,4.2c2.3,1.1,4.4,1.7,6.7,2.8c2.4,0.9,4.3,2.2,6.6,3.3c0.3,0.2,0.6,0.3,0.9,0.4c1.9,0.2,3.9,0.3,5.6,0.2
		c2.2,0,4.5-0.6,6.6-1.1c2.2-0.8,4.7-1.5,7-2.3c2.1-0.5,4-2,6-3c4-2.7,8.3-5.1,12.9-6.5c1.5-0.5,2.8-0.9,4.3-1.5
		c1-0.8,2-1.7,2.9-2.4c3.9-3,7.6-6,11.6-8.5c1.8-0.9,3.7-2.2,5.3-3.6c1.7-1.1,3.2-2.8,4.9-4.3c3.4-3.1,7.6-5.2,11.4-7.8
		c2.1-1.3,4.1-3,6.3-4.3c1.9-1.3,3.4-2.9,5.5-3.7c1.6-0.6,3.2-1,4.8-2c1.3-1,2.7-2.4,4-3.6c1.9-1.5,4.1-2.5,6.3-3.4
		c-1.6-0.7-3-1.9-4.1-3.1c-1.6-1.9-2.2-4.3-2.3-6.7c-0.3-3.2,0.1-6.6,0.2-9.9c0.2-2.6,0.3-4.9,1-7.3c1.3-4.6,4.1-8.4,7.9-10
		c2.6-1.1,5.3-1.6,8.3-1.8c2.8-0.2,5.6-0.4,8.6-0.1c2.1,0.2,4.1,0.5,6.4,0.4c2.3-0.1,4.2,0,6.6,0.4c1.8,0.1,3.8,0.8,5,2.5
		c1.3,1.5,2.4,3.2,3.2,5c1.6,2.6,3.2,6.1,3.7,9.5c1-1,1.9-2.3,2.6-4c0.5-1.4,0.7-3.2,0.7-5.2c-0.1-2-0.7-3.7-1.9-5
		c-1-1.6-2-2.9-3-4.3c-2.8-2.5-6.1-4.4-9-6.6c-2.4-1.8-4.8-4-7.3-6.1c-4.5-1.5-8.8-1.7-13.2-2c-4.7-0.1-9.4-1.1-14-1
		c-4.6,0.1-9.3,0.8-13.7,1.9c-2.2,0.3-4.1,0.7-6,1.8c-1.8,0.7-3.6,1.9-5.5,2.6c-2,0.7-4.3,1.4-6.4,1.9c-2.1,0.5-3.8,1.7-5.7,2.7
		c-1.9,1.3-3.9,2.5-6,3c-1,0.2-2,0.4-3,0.7c0.5,0.1,1,0.3,1.6,0.4c2,0.7,3.7,2.1,5.9,2.8c1.3,0.4,1.7,2.3,1.3,3.2
		c-0.3,1.4-1.4,1.6-2.5,1.4c-1.9-0.5-3.3-2-5.2-2.5c-2.1-0.5-3.8-0.8-5.7-1.9c-0.4-0.2-0.7-0.4-1.1-0.5c-2.8,1.7-5.6,3.4-8.4,5.2
		c-3.7,2.4-7.7,4.5-12,6.1c-2.3,0.8-4.7,1.5-7,2.1c-0.2,0.2-0.3,0.3-0.5,0.5c-2.7,3.2-4.9,7-7.6,10.4c-6.6,8.3-16.6,2.9-24.3-1.5
		c-2.7-1.6-5.5-3.2-8.4-5c-0.2-0.1-0.5-0.2-0.7-0.3c-2-1-4.1-2-5.9-3c-1.8-1-3.3-2.7-5.2-4c-3.9-3-8.6-4-12.5-6
		c-4.6-2.4-9-5-13.4-7.5c-4.4-2.4-8.6-5.1-12.7-7.6c-2.8-1.9-6-3-8.7-5.3c-0.3,0.1-0.5,0.2-0.8,0.1c-5.4-1.5-5.4-9.2-5.3-14.3
		c0.3-5.9,1.1-12.1,2-17.7c0.5-2.6,1-5.1,1.7-7.6c-0.5,0.8-1,1.7-1.5,2.5c-0.6,0.9-1.3,2.1-1.7,3.1c-0.7,1.5-1.1,2.5-1.6,4.2
		c-0.2,0.8-0.5,1.7-0.5,2.4c-0.1,0.3-0.1,0.3-0.1,0.5c0.1,0.5,0,0.7,0,1c0,0.1,0,0.1,0,0.1c0.1,0,0.1,0.1,0,0.1
		c0.2,0,0.3,0.2,0.5,0.1c1.1,0.2,1.7,2.1,1.5,3.1c-0.3,1.4-1.4,1.6-2.5,1.4c-4.1-1-3.8-6.9-2.7-10.1c1.6-5.4,4.1-9.6,6.8-13.9
		l-11.5-1.6l1.4-4.1c1.6,0,3.2,0,4.8,0.2c0.4,0,0.9,0.1,1.4,0.2c2.5-1.6,5.1-3,7.7-4.1c4.5-1.9,8.9-2.9,13.2-3.2
		c5.1-2.2,10.2-4,14.7-3.7c1.6,0.1,1.6,1.7,0.7,3.1c0.2,0.1,0.4,0.2,0.6,0.3c0.2,0.1,0.3,0.2,0.5,0.3c0.1,0,0.1,0,0.2,0
		c4.8,0.1,9.7,0.8,14,2.1c8.9,2.7,16.3,7.6,24.1,12c2.8,0.5,5.6,0.9,8.5,1.3c6.3,0.4,12.9,0.4,19.1,0.8c3,0.1,6.3,0.4,9.6,0.1
		c3.3,0,6.5-0.6,9.9-1.1c3.4-0.5,7.2-1.4,10.6-1.6c3.3-0.2,6.5-0.4,9.8-0.6c5.7-0.4,12.5-3.1,19-5.9c0.6-0.2,1.3-0.5,1.9-0.7
		c0.1-0.1,0.2-0.1,0.3-0.2c2.9-1.4,5.9-2.9,8.6-3.8c0.1,0,0.1,0,0.2-0.1c2.7-1.4,5.5-2.7,8.3-4.4c3.2-1.7,6.3-3.9,9.3-5.7
		c2.5-1.7,5.4-3.6,7.8-6.1c0.2-0.2,0.5-0.5,0.7-0.7c4.3-4.4,7.3-10.7,11.6-15c1.4-2.8,2.4-5.7,2.6-8.3c0-0.5,0.1-0.9,0-1.4
		c-0.6-1.4-1.4-2.4-1.3-3.3l-4.5,3c0.1-0.1,0.5-0.7,0.9-1.4c-0.3,0.4-0.6,0.9-0.9,1.4l0,0c-0.1,0.2-0.2,0.4-0.3,0.6
		c-2.9,4.6-6.7,9.4-10.2,13.7c-3.6,4.3-7,8.8-10.8,12.5c-5.9,6.2-12.6,11.2-19,12.3c-3.4,0.5-6.4,0.1-9.6-0.1
		c-3.4-0.5-6.6-1.3-9.1-2.5c-0.6-0.3-1.3-0.7-1.9-1c-0.5,0-0.9-0.1-1.4-0.2c-4.4-0.9-7.7-3.7-10.9-6.5c-2.3-2.1-4.5-4.6-4.8-8.5
		c-0.1-3.7,2.6-8.5,4.6-12.2c0.6-1.7,2-3.8,3.1-5.6c0.8-1.4,2-2.4,3.1-3.4c0.8-1.1,1.9-2.3,3.1-3.3c2.8-2.3,6.2-4.6,9.2-6.4
		c1.8-1,3.6-2.2,5.2-3.1l-25-6.9c-5,0.3-10.1,0.7-14-0.9c-2.5-0.9-4.4-2.9-7.4-3.8c-3.1-0.8-6.8-0.5-9.8-1.6c-3-1-5.5-2.3-8.7-3.1
		c-2.9-0.4-5.7-1.3-7.9-2.8c-4-2.5-9.6-3.1-14.7-4.3c-0.9,0.8-2.2,1.4-3.3,1.1c-0.5-0.2-0.9-0.4-1.5-0.5c-0.6,0.2-1.3,0.3-1.8,0.2
		c-2.1-0.8-4.2-1.5-6.3-2.4c-3.3-1.3-6.7-2.6-9.9-4.1c-3.1-0.3-6.3-0.8-8.7-1.8c-2.5-0.9-5.2-2.4-7.3-4.3c-1.1-0.8-2.3-1.7-3.3-2.5
		L271,197c-0.7-0.3-1.6-0.6-2.3-1c-2.9-0.5-6-1.3-8.6-2.3c-2.7-1-5.7-2.6-8.5-4.5c-3.4-2-6.7-4.3-10-6.6c-0.1,0-0.2-0.1-0.3-0.1
		c-4.5-2.2-9.1-4.3-13.6-6.2c-17.5-7.7-35-14.9-52.5-23.2c-2.3-1.1-4.3-2-6.5-2.7c-0.7-0.3-1.5-0.5-2.1-0.7c2.6,1.7,4.9,3.2,6.1,4.2
		c0.9,0.6,1.4,0.9,0.9,0.9c0,0,0,0-0.1,0c0,0-0.2,0-0.5-0.1c-2.8-0.4-6-0.4-9-0.8c-0.7-0.1-1.5-0.2-2.2-0.3c3.4,2.4,5.4,4,2.4,2.8
		c-8.8-3.1-17.2-6.8-26-10.1c-9.2-3.8-18.2-7.1-26.9-10.7c-8.3-3.8-15.9-8.4-24-11.9c-2.3-1.1-4.2-1.8-6.5-2.9
		c-1.9-1.3-3.8-1.6-5.7-1.9c-1.8-0.1-3.2-0.7-5-1.6c-1.5-1-3.2-0.9-5-1.5c-58,71.3-37.2,194.8-33.6,215.3
		C34.5,330.1,38.4,331.8,41.1,333.3z M205.5,347.3c0.3-1.6,0.6-3.7,0.8-5.5c0.4-1.9,0.5-4.2,0.8-6.3c0.3-2.3,1.3-3.9,2.4-5.6
		s2.7-3.2,3.6-5.2c2.2-4.6,3.9-9.5,6.1-13.9c1.5-2.1,2.5-4.2,3.7-6.7c1.1-2.5,1.9-4.8,3-7.3c1.7-4,3.9-7.5,6.4-11
		c2.8-3.9,6.2-7.3,9.9-9.8l-3.2,8.8c-2.5,2.7-4.7,5.9-6.7,9.1c-2.4,3.9-4,8-5.9,12.3c-1.9,4.8-4.7,8.8-6.6,13.5
		c-0.9,2.5-1.7,4.7-2.9,7c-0.7,2.2-2.1,4.1-3.4,5.6c-1.1,1.6-2.2,2.6-2.4,4.4c-0.4,1.9-0.5,4.2-0.8,6.3c-0.3,3.9-1.1,7.1-1.3,10.9
		c-0.2,3-0.3,6.4,0.3,9.6c0.1,0,0.2,0.1,0.4,0.1c1.1,0.2,1.7,2.1,1.5,3.1c-0.3,1.4-1.4,1.6-2.5,1.4c-0.4,0.1-0.9,0-1.4-0.2
		c-0.5-0.4-1.1-1.3-1.4-1.9c-0.5-1.9-0.7-3.9-0.8-5.9C204.7,355.8,204.9,351.7,205.5,347.3z"/>
	<path class="st6" d="M143.4,414.4c-4.1-3.1-8.2-6.3-12.2-9.2c-6.3-4.7-13-9.1-19.3-13.6c-6-4.3-12.1-8.6-18.1-13.6
		c-4.8-3.2-9.6-6.5-14.5-9.5l66.1,48.4C144.8,416.2,144.1,415.3,143.4,414.4C143.5,414.5,143.5,414.4,143.4,414.4z"/>
	<path class="st6" d="M435.2,390.3c0.7-0.4,1.9-0.4,2.7-0.6c0.9,0,2.3,0.4,3.1,0c0.7-0.4,1.5-1.1,2.2-1.8c1.9-1.3,4.5-1.7,6.6-1.9
		c0.6,0,1.3-0.1,1.9-0.1c2.6-1.6,5.2-3,7.8-4.3c2.4-1.1,4.3-2.3,6.5-3.3c1.8-0.7,3.7-1.1,5.5-1.7c0.3-0.1,0.6-0.2,0.9-0.3
		c-0.3-0.5-0.5-1.3-0.5-2c0,0-0.1-0.8,0-0.3c-0.1-0.5-0.2-0.9-0.3-1.5c-0.3-0.4-0.3-0.4-0.4-0.9c-0.1-0.5-0.2-0.9-0.5-1.4
		c-0.8-2.3-1.8-4.4-3-5.9c-0.4-0.6-1-1.5-1.7-2.1c-0.1-0.2-0.6-0.6-0.1-0.2l-0.3-0.2c-0.3-0.2-0.5-0.4-0.3-0.2
		c-0.2,0-0.3-0.2-0.5-0.1c-1.6-0.8-3.8-0.8-5.7-0.8c-1.8-0.1-3.8,0.2-5.5-0.1c-2.5-0.1-4.7-0.3-7.1-0.2c-2.4,0.3-4.9,0.7-7.3,1
		c-1.9,0.4-3.8,0.9-5.4,2.1c-2.6,1.9-4,5.5-4.3,9.4c-0.2,2.6,0,5.3-0.2,7.8c-0.1,1.6-0.1,3.3,0.1,4.8c0.1,0.5,0.2,0.9,0.3,1.5
		c0,0,0.1,0.2,0.1,0.5c-0.3-0.4,0.1,0.2,0.1,0.2c0,0.1,0,0.2,0,0.2s0,0,0,0.1c0,0.2,0.2,0.2,0.2,0.3c0.1,0.1,0.3,0.3,0.3,0.3
		c0.3,0.2,0.3,0.2,0.5,0.4c0.8,0.8,1.7,1.4,2.6,1.6C434.2,390.5,434.4,390.5,435.2,390.3z"/>
	<path class="st6" d="M361.6,362.2c-0.5,0.3-1,0.6-1.5,0.9c0.5-0.2,1-0.4,1.6-0.7c1.4-0.7,2.7-1.6,4.2-2.4
		C364.4,360.7,362.9,361.4,361.6,362.2z"/>
	<path class="st6" d="M413.4,423.7c0,0.5,0,1.1,0,1.7c0.3-1.6,0.6-2.9,0.9-4.3c-0.3,0.2-0.7,0.5-1,0.7
		C413.3,422.4,413.4,423.1,413.4,423.7z"/>
	<path class="st6" d="M243.5,315.7L243.5,315.7L243.5,315.7L243.5,315.7L243.5,315.7z"/>
	<path class="st6" d="M243.5,315.7L243.5,315.7L243.5,315.7z"/>
	<path class="st6" d="M437,399c-3,1-6,2.2-8.5,4.2c-1.6,0.8-2.9,2.2-4.2,3.2C428.4,403.9,432.7,401.5,437,399z"/>
	<path class="st7" d="M243.5,315.9L243.5,315.9L243.5,315.9L243.5,315.9L243.5,315.9L243.5,315.9l0.1,0.2
		C243.5,316,243.5,315.9,243.5,315.9L243.5,315.9z"/>
	<path class="st7" d="M486.4,365.3c-0.6-4.2-2.8-7.6-5.5-10.4c-2.1-2.4-4.4-4.2-6.8-5.9l0,0c-3.1-3.6-6.7-6.2-10.3-8.6
		c-0.8-0.5-1.8-0.9-2.6-1.4c-3-2.3-6.4-4.5-9.8-5.6c-4.6-1.7-9.6-2.1-14.3-1.3c-2.8,0.4-5.3,1-8,1.5c-2.6,0.4-5.2,0.5-7.7,0.9
		c-5,0.2-9.8,1.5-14.4,3.3c-4.4,1.9-8.8,4.7-13.1,7.1c-1.4,0.8-2.7,1.7-4.2,2.5c-1.3,0.6-2.6,1.1-4,1.5c-2.1,0.5-3.9,1.3-5.9,2.2
		c-0.2,0.1-0.4,0.2-0.6,0.3c-1.5-0.6-2.7-1.1-4.3-1.9l-0.1-0.1c-1.6-0.7-3.1-2.2-4.6-3.3c-0.1-0.1-0.2-0.2-0.3-0.3
		c-7.2-6.8-13.2-15.4-20.6-22c-6.9-6.1-14.4-9.6-21.8-13.8c-0.1,0-0.1,0-0.2,0c-3,0.8-9.8-3-17.3-7.6c1.6,0.3,3,0.5,4.6,0.8
		c4.7,2.6,9.7,4.9,15,6.4c3.4,0.9,7,1.6,10.9,1.8c1.7-0.1,3.3-1.8,4-3.3c0.4-1.1,0.3-2.1-0.6-2.4c0.8,0,1.6,0.1,2.4,0.1
		c3.3,0,6.6,0.3,9.9,0.1c5.9-0.6,12-2.1,17.9-2.9c0.9-0.1,1.9-0.3,2.8-0.4c2.3-0.2,4.6-0.4,6.8-0.6c-0.1,1.1,0.5,2.2,1.8,1.9l12-0.4
		l16.4-3.1c2.6-1.3,5.5-2.8,8.4-4.9c2.3-1.9,4.6-4.1,6.8-6c4.8-3.9,9.6-6.8,14.3-10.7c4.7-3.7,9.1-7.8,12.9-12.6
		c2.6-3.6,5-6.9,7-10.8c4.3-6.9,7.6-15.4,5.3-20.4c-1-2.9-4.1-4.3-7.1-4.1c-1.1,0.1-2.3,0.5-3.4,1c-0.8-0.4-1.8-0.7-2.7-1
		c-2.7-0.4-5.2-0.4-7.9-0.9c-1.5,0-2.5-0.9-3.8-1.4c-1.7-0.5-3.3-1-5-1.3c-3-0.5-6.1-0.8-9.4-0.7c-1.4-0.4-2.7-0.7-4.1-1.3
		c-5.6-1.8-11.3-3.7-17.2-5.3s-12-2.9-18.7-3.7c-12.5-1.8-25.2-3-36.8-6.6c-5.6-2.1-11.3-3.9-17.1-5.6c-6-1.8-11.7-3-18-4.4
		c-3.1-0.8-5.7-1.6-8.6-2.4c-0.9-0.1-2,0.1-2.9,0.9c-0.5-0.2-1.1-0.3-1.8-0.5c-1.6-0.4-3.3-0.8-5.1-1c-3.4-1.5-6.9-3-10.2-4.7
		c-5.5-2.6-10.8-5.7-16.1-8.6l-0.3,0.8l-1.9,5.9l-0.1,0.3c0.4,0.3,0.7,0.6,1.1,0.9c-3.2-1.5-6.5-2.9-9.6-4.4
		c-7.1-3.2-14.2-7.2-21.3-10.7c-3.9-2.7-7.8-5.4-12.2-7.2c-6.2-2.5-12.4-4.5-18.4-7c-6.3-2.7-12.2-5.5-17.9-9.4
		c-0.1-0.1-0.1-0.1-0.2-0.2c-2.4-1.9-4.5-4-7.1-5.3c-1.3-0.4-2.6-0.8-4-0.7c-1.6-0.1-2.9-1-4.3-2c-2.8-1.6-5.6-3.1-8.2-5
		c-2.6-2.4-5.3-2.7-8.2-4.1c-3-1.3-5.9-3.9-8.8-4.9c-3.2-1.3-6.5-0.9-9.6-1.4c-1.3-0.2,4.8,3.3,12,7.4c-0.4-0.1-0.9-0.1-1.4-0.2
		c-0.5-0.3-1-0.5-1.6-0.7c-1.6-0.6-3.2-0.7-4.9-0.8c-1.6,0-3.1,0-4.7-0.3c-0.7-0.1,1.7,1.4,5.4,3.6c0,0.8,0.2,1.8,0.8,2.3
		c0,0.2,0,0.4,0,0.6c0,0.7,1.4,1.9,2.4,1.5c0.4-0.1,0.5-0.4,0.9-0.5c0.4-0.3,0.7-0.5,1-0.8c3.2,1.9,6.8,3.9,10.1,5.7v0.1
		c-0.3-0.2,0.1,0.2,0.3,0.2c0.1,0.1,0.2,0.2,0.3,0.2c-0.5-0.1-1-0.2-1.6-0.3c-4-1.5-8-2.7-11.7-4.1c-1.9-0.7-1.8-0.3-0.5,0.6
		c-1-0.4-2.1-0.8-3.1-1.3c-6.4-2.4-12.5-5.7-18.5-9.3c-6-3.6-12.2-7-18.5-10.8c-1.8-1-3.4-2.3-5.2-3.4c-3.7-2.5-7.3-5-11.3-6.6
		c-2.5-1-4.9-1.8-7.4-2.4c-0.2-0.1-0.4-0.2-0.5-0.4c-0.4-0.2-0.8-0.5-1.3-0.7c-0.3-0.6-0.9-1-1.7-1.1c-0.4-0.1-0.8-0.2-1.3-0.3
		c-0.8-0.4-1.7-0.7-2.6-1c-1.9-0.8-3.9-1.7-5.9-1.8c0,0.3,0,0.6,0.1,0.9c-0.6,0.2-1,0.7-1.3,1.5c-2.1-0.4-4.1-0.7-6.3-1
		c0,0.3,0,0.6,0.1,0.8c-1.7,0.3-1.8,3.2-0.4,4.4c-0.7,1.3-0.5,3.3,1.1,3.9c0.2,0.1,0.3,0.1,0.5,0.2c1.8,0.5,3.6,0.4,5,1.5
		c1.8,0.8,3.2,1.5,5,1.6c2.1,0.2,3.9,0.5,5.7,1.9c2.3,1.1,4.2,1.8,6.5,2.9c8.2,3.6,15.8,8.2,24,11.9c8.7,3.7,17.7,6.9,26.9,10.7
		c8.8,3.3,17.2,7,26,10.1c3,1.1,1.1-0.4-2.4-2.8c0.7,0.1,1.5,0.2,2.2,0.3c3,0.4,6.2,0.4,9,0.8c0.3,0.1,0.4,0.1,0.5,0.1
		c0,0,0,0,0.1,0c0.4,0.1,0-0.3-0.9-0.9c-1.1-0.9-3.6-2.5-6.1-4.2c-0.7-0.2-1.5-0.5-2.2-0.7c-0.3-0.1-0.5-0.3-0.8-0.4
		c0.3,0,0.6-0.1,0.8-0.2l0,0c0.7,0.5,1.5,0.9,2.2,1.5c0.7,0.2,1.4,0.4,2.1,0.7c2.2,0.7,4.2,1.5,6.5,2.7
		c17.3,8.3,34.9,15.5,52.5,23.2c4.5,1.9,9,4.1,13.6,6.2c0.1,0,0.2,0.1,0.3,0.1c3.3,2.3,6.6,4.6,10,6.6c2.7,1.9,5.7,3.3,8.5,4.5
		c2.6,1,5.6,1.8,8.6,2.3c0.7,0.3,1.6,0.7,2.3,1l1.5-4.2c1,0.9,2.2,1.8,3.3,2.5c2.1,1.9,4.8,3.3,7.3,4.3c2.5,0.9,5.5,1.5,8.7,1.8
		c3.2,1.5,6.6,2.8,9.9,4.1c2.1,0.8,4.2,1.5,6.3,2.4c0.6,0.1,1.3,0,1.8-0.2c0.5,0.2,0.9,0.4,1.5,0.5c1.1,0.2,2.3-0.3,3.3-1.1
		c5.1,1.1,10.8,1.8,14.7,4.3c2.2,1.6,5,2.5,7.9,2.8c3.1,0.8,5.6,2.1,8.7,3.1c3,1,6.7,0.7,9.8,1.6s4.9,2.7,7.4,3.8
		c3.9,1.7,9,1.3,14,0.9l24.6,7c-1.7,0.9-3.3,2.1-5.2,3.1c-3,1.9-6.4,4.1-9.2,6.4c-1.3,1-2.2,2.2-3.1,3.3c-1.1,0.9-2.3,2.1-3.1,3.4
		c-1.3,1.9-2.5,4-3.1,5.6c-2,3.8-4.7,8.6-4.6,12.2c0.3,3.9,2.5,6.5,4.8,8.5c3.1,2.8,6.5,5.5,10.9,6.5c0.4,0.1,0.9,0.2,1.4,0.2
		c0.6,0.4,1.3,0.7,1.9,1c2.5,1.3,5.6,2.1,9.1,2.5c3.2,0.3,6.2,0.6,9.6,0.1c6.4-1.1,13.2-6.1,19-12.3c3.8-3.9,7.1-8.3,10.8-12.5
		c3.6-4.3,7.3-9.1,10.2-13.7c0.1-0.2,0.2-0.4,0.3-0.6l0,0c0.5-0.9,0.6-1.9,0.2-2.4c0.6-0.7,1.4-1.5,2-2.1c0,0,0-0.1,0.1-0.1
		c0.7,0.3,1.4,0.7,1.9,1.3c0.9,0.8,1.4,2.2,1.5,3.7c0,0.4,0,0.9,0,1.4c-0.2,2.5-1.3,5.4-2.6,8.3c-2.8,5.5-7.2,10.9-11.6,15
		c0,0,0,0,0-0.1c-0.2,0.2-0.4,0.5-0.7,0.7c-2.4,2.4-5.4,4.3-7.8,6.1c-3,1.9-6.1,4-9.3,5.7c-2.7,1.7-5.5,3.1-8.3,4.4
		c-0.1,0-0.1,0-0.2,0.1c-2.7,0.8-5.6,2.4-8.6,3.8c-0.1,0.1-0.2,0.1-0.3,0.2c-0.6,0.2-1.3,0.5-1.9,0.7c-6.5,2.6-13.3,5.4-19,5.9
		c-3.3,0.2-6.5,0.4-9.8,0.6c-3.3,0.2-7.1,1.1-10.6,1.6s-6.7,1.3-9.9,1.1c-3.3,0.2-6.6,0-9.6-0.1c-6.3-0.4-12.9-0.4-19.1-0.8
		c-2.8-0.3-5.6-0.7-8.5-1.3c-7.8-4.3-15.3-9.3-24.1-12c-4.3-1.3-9.2-2-14-2.1c-0.1,0-0.1,0-0.2,0c-0.2-0.1-0.3-0.2-0.5-0.3
		c-0.2-0.1-0.4-0.2-0.6-0.3c0.8-1.5,0.8-3.1-0.7-3.1c-4.4-0.3-9.6,1.6-14.7,3.7c-4.3,0.3-8.8,1.4-13.2,3.2c-2.6,1-5.2,2.5-7.7,4.1
		c-0.4-0.1-0.9-0.1-1.4-0.2c-1.6-0.2-3.2-0.2-4.8-0.2l-1.4,4.1l11.5,1.6c-2.7,4.4-5.2,8.5-6.8,13.9c-0.9,3.2-1.3,9.2,2.7,10.1
		c1.1,0.2,2.2,0,2.5-1.4c0.2-1-0.3-2.9-1.5-3.1c-0.2,0-0.3-0.2-0.5-0.1c0.2,0,0.1,0.5,0.1,0.2c-0.3-0.4-0.1-0.2,0,0
		c0-0.1,0-0.1,0-0.2l0,0l0,0l0,0l0,0l0,0c0.1,0,0-0.1,0-0.1v0.1v-0.1l0,0l0,0l0,0l0,0l0,0v-0.1c-0.1-0.2,0.1-0.5,0-1
		c-0.1-0.2-0.1-0.2,0.1-0.5c0-0.7,0.3-1.6,0.5-2.4c0.5-1.7,0.8-2.7,1.6-4.2c0.4-1.1,0.9-2.3,1.7-3.1c0.4-0.8,0.9-1.7,1.5-2.5
		c-0.6,2.5-1.3,5-1.7,7.6c-0.8,5.5-1.7,11.8-2,17.7c-0.1,5-0.1,12.9,5.3,14.3c0.3,0.1,0.6,0,0.8-0.1c2.6,2.3,5.7,3.4,8.7,5.3
		c4.2,2.5,8.4,5.2,12.7,7.6c4.4,2.4,8.8,5.1,13.4,7.5c4.1,2,8.7,2.8,12.5,6c1.9,1.3,3.4,2.9,5.2,4s3.9,2.1,5.9,3
		c0.2,0.1,0.5,0.2,0.7,0.3c2.8,1.8,5.6,3.4,8.4,5c7.7,4.4,17.8,9.7,24.3,1.5c2.7-3.4,4.8-7.3,7.6-10.4c0.2-0.2,0.3-0.3,0.5-0.5
		c2.3-0.7,4.7-1.3,7-2.1c4.3-1.6,8.5-3.7,12-6.1c2.7-1.8,5.4-3.4,8.4-5.2c0.4,0.2,0.7,0.3,1.1,0.5c2,1,3.7,1.4,5.7,1.9
		c1.9,0.5,3.3,2,5.2,2.5c1.1,0.2,2.2,0,2.5-1.4c0.4-0.8,0-2.7-1.3-3.2c-2.2-0.7-3.9-2.1-5.9-2.8c-0.5-0.1-1-0.3-1.6-0.4
		c1-0.3,2-0.4,3-0.7c2.1-0.5,4-1.8,6-3c2-1,3.7-2.2,5.7-2.7s4.4-1,6.4-1.9c2-0.7,3.8-2,5.5-2.6c2-1,3.9-1.5,6-1.8
		c4.4-1,9.1-1.8,13.7-1.9s9.3,0.9,14,1c4.4,0.4,8.7,0.5,13.2,2c2.5,2,4.9,4.2,7.3,6.1c2.9,2.2,6.2,4.1,9,6.6c1,1.4,2.1,2.7,3,4.3
		c1.3,1.5,1.9,3,1.9,5c0.1,2-0.1,3.9-0.7,5.2c-0.7,1.7-1.6,2.9-2.6,4c-0.4-3.4-2.2-6.9-3.7-9.5c-0.9-1.8-2-3.6-3.2-5
		c-1.4-1.7-3.2-2.5-5-2.5c-2.3-0.4-4.3-0.4-6.6-0.4s-4.3-0.2-6.4-0.4c-2.9-0.3-5.7-0.1-8.6,0.1c-2.8,0.2-5.6,0.6-8.3,1.8
		c-3.8,1.7-6.6,5.4-7.9,10c-0.7,2.4-0.8,4.7-1,7.3c-0.1,3.3-0.5,6.7-0.2,9.9c0.2,2.5,0.7,4.8,2.3,6.7c1,1.3,2.6,2.4,4.1,3.1
		c-2.2,0.9-4.3,2-6.3,3.4c-1.3,1-2.7,2.4-4,3.6c-1.6,0.9-3.2,1.4-4.8,2c-2,0.7-3.7,2.4-5.5,3.7c-2.1,1.3-4.1,3-6.3,4.3
		c-3.8,2.7-7.9,4.7-11.4,7.8c-1.7,1.5-3.2,3-4.9,4.3c-1.7,1.5-3.6,2.6-5.3,3.6c-4.1,2.5-7.7,5.4-11.6,8.5c-0.9,0.7-2,1.6-2.9,2.4
		c-1.5,0.4-2.8,0.9-4.3,1.5c-4.5,1.4-8.9,3.8-12.9,6.5c-2,1-3.9,2.5-6,3c-2.2,0.8-4.7,1.5-7,2.3c-2.1,0.5-4.4,1-6.6,1.1
		c-1.9,0.1-3.8,0-5.6-0.2c-0.3-0.1-0.6-0.3-0.9-0.4c-2.3-1.1-4.2-2.5-6.6-3.3c-2.3-1.1-4.4-1.7-6.7-2.8c-2.3-1.1-4.3-2.7-6.6-4.2
		c-2.2-1.7-4.5-2.9-6.7-4.4c-3.2-2.1-6.7-4.3-10-6.6c-1.4-1.3-2.7-2.5-4.1-3.8c-4-3.6-8.3-6.3-12.3-9.3c-4.1-3-8-6.4-11.4-10.2
		c-6.3-7.3-13.1-14.1-21.5-17c-4.4-1.5-8.8-1.6-13.3-1.7c-1.5,0-2.8,0-4.2-0.3c-2.1-0.8-4.1-1.8-6-2.8c-0.3-0.3-0.6-0.6-0.9-0.9
		c-2.6-3.3-4.8-6.6-7.9-8.9c-1.5-0.6-3,1-2.6,2.9c2.7,8.4,10.1,12.3,16.8,14.7c3.2,1.3,6.8,2.3,10,3.6c2.6,0.8,5.3,2,7.9,2.5
		c1,0.4,2,0.7,3,1.1c0.2,0.1,0.3,0.3,0.5,0.4c1.8,1.6,3.9,2.3,5.9,3.9c3.9,3,7.5,7,11.4,10.2c4.2,3.2,8.2,6.8,12.2,10
		c4.4,3.2,8.9,6.2,13.4,9c1,0.7,2,1.4,3,2.1c3.1,2.7,6.3,5.3,9.5,7.9c4.2,3.4,8.7,7.2,13.5,9.7c3.8,2,7.7,2.5,11.7,3
		c0.7,0.4,1.4,0.7,2.2,1c4.2,1.8,8.8,2.1,13.1,1.6c4.3-0.5,8.5-1.9,12.1-3.8c3.7-1.9,7.3-4.6,10.8-6.7c2-1,3.9-2.2,6-3.6
		c0.8-0.5,1.7-1.1,2.5-1.8c3.8-1.1,7.6-2.3,11.2-3.7c4.7-1.7,9.3-4.6,13.8-7c3.7-2,7.5-4.4,11.2-6.8c0,2,0.1,4,0.1,6
		c0.2,5.2-0.2,9.9-1,15.2c-0.3,1.5-0.5,2.9-0.7,4.4c-1.3,1.5-2.3,3.2-3,5.4c-0.9,2.5-1.8,4.5-2.9,7c-1.9,4.8-4.4,8.9-6.4,13.7
		c-1.6,4.2-3.4,8.5-5.6,12.2c-1.8,2.9-3.7,5.7-5.7,8.3c-1.5,1.8-3.1,3.3-4.9,4.7c-0.3,0.1-0.7,0.2-1.1,0.3c-0.9,0.2-1.9,0.4-2.8,0.4
		c-7.3,0.8-14.5-0.4-21.9-1.8c-3-0.5-5.9-0.8-8.9-1.7c-1.8-1.4-3.7-2.7-5.4-4.1c-4.1-2.8-8.2-5-12.2-7.3c-4.1-2-8.2-4.1-12.4-6.3
		c-2.1-1.3-3.9-2.1-5.7-3.6c-2.2-1.5-3.9-2.8-6-4.3c-1.5-0.9-2.9-1.8-4.4-2.6c-3.1-2.1-6.3-4.2-9.5-6.6
		c-7.8-5.6-15.5-11.3-23.2-16.8c-2.6-2.8-5.1-5.9-7.8-8.7c-3.3-3.4-6.8-6.6-10.7-8.7c-2-1-3.8-1.6-5.7-2.6c-2-1-3.7-1.1-5.7-1.9
		c-1.9-0.5-3.3-2-5.2-2.2c-1.1-0.2-2.2,0-2.5,1.4c-0.1,2.3,0.7,3.9,1.5,4.2c2.2,0.7,3.9,2.1,6,2.5c0.9,0.3,1.9,0.5,2.8,0.5
		c0.9,0.3,2,0.7,2.8,1.4c0.4,0.2,0.9,0.4,1.4,0.6c-0.1,0.5,0,1,0.1,1.6c1.3,3.2,4.4,5,7.1,6.3c1.3,0.4,2.5,1.1,3.6,1.7
		c1.6,0.8,2.8,2.3,4.3,3.8c2.2,2.3,4.8,4.2,7.3,6c2.5,2.8,5.1,5.5,7.8,7.8c7.3,6.2,15.6,9.8,23.7,14.5c2.5,1.6,4.9,3.2,7.4,5.2
		c1.7,1.4,3.2,3,4.8,4.4c1.9,1.3,3.7,2.4,6,3.3c3.8,1.6,7.3,4.3,11,6.6c6,4.2,12.4,7.9,19,9.6c0.5,0.4,1,0.7,1.6,1
		c4.2,2.5,8.5,3.7,13.4,4.5c1.3,0.2,2.6,0.3,3.9,0.4c0.9,0,2,0.1,2.8,0.2c-0.6,1-1.3,2-1.9,3c-0.2,0.3-0.4,0.6-0.6,0.9
		c-0.7,1.4-1.3,2.7-1.8,4.1c-1.3,0.8-2.5,1.7-3.6,2.5c-2.4,1.9-5,3.8-7.9,4.5c-3.1,0.7-6.7,0.6-10,0.5c-3.8-0.1-7.3-0.4-11-0.8
		c-3.1-0.4-6.3-0.9-9.4-1.7c-0.3-0.1-0.5-0.1-0.8-0.2c-1.9-0.7-3.9-1.6-5.7-2.4c-2-0.8-4-1.8-5.9-2.6c-2.8-1.3-5.5-2.5-8.4-3.8
		c-7-3.8-13.5-7.8-20.3-12.1c-3.2-2.2-6.5-4.5-9.8-6.4c-3.3-2-6.6-3.3-9.7-6.2c-2.8-2.6-5.6-4.7-8.9-6.4c-3.3-1.7-6.5-2.9-9.7-4.2
		c-2.6-0.7-5-1.5-7.5-2.1c-0.7-0.2-1.5-0.3-2.2-0.5c-0.9-0.2-1.9-0.5-2.8-0.7c-2.7-1.9-5.3-3.8-7.9-5.6c-1.5-1.4-2.8-2.8-4.2-4.3
		c0.6,0.3,1.4,0.7,2.1,1c8,4.1,18.5,9.4,14.7,7c-6.6-4.2-12.7-8.5-18.8-13.2c-5.9-4.8-11.9-9.6-17.7-14.7
		c-5.6-4.9-11.6-10.2-17.7-14.5c-6.3-4.7-12.7-9.2-18.9-14.2c-3-2.3-6.1-4.6-9-6.9c-1-1.5-2.2-2.9-3.6-4.3c-2.7-2.8-5.4-4.9-8.2-7.5
		c-2.7-2.8-5.5-5.2-8.7-7.2c-3.1-2-6.5-3.7-9.8-5.6c-8.4-4.8-16.3-10.3-24.5-15.9c-3.7-3-7.2-6-10.9-8.9c-2.8-2.3-5.9-4.6-9-6.6
		c-3-2.3-5.6-4.7-8.8-6.9c-2.9-2.1-6.1-3.8-9-5.5c-2.5-1.8-5.2-4-7.8-5.5c-1.9-2.4-4.7-4-7-5.2c-2.7-1.5-6.6-3.2-9.7-2.4
		c-0.5,0.1-0.9,0.3-1.5,0.6c-1.4,0.8-1.5,3.1,0,4.3c2.6,2.6,6.2,2.5,8.6,5.6c2.4,3.2,5.3,5.2,8.4,7.5c6.2,5,12.6,8.7,19.4,12
		c4.4,2.2,8.7,4.7,13,7.4c4.9,3,9.7,6.3,14.5,9.5c6,5,12.1,9.3,18.1,13.6c6.5,4.5,13.1,8.9,19.3,13.6c4.2,3,8.3,6.1,12.2,9.2
		c0,0,0,0,0,0.1c0.6,0.8,1.3,1.7,1.9,2.5c1.5,2.1,2.9,4.1,4.5,6.1c2.4,3.2,5.1,5.3,8,7.3c6.3,4.7,13.1,8,19.5,12.3
		c6.5,4.7,12.9,9.6,19,14.9c4.3,3.7,8,8.2,11.9,12.4c6.5,3.3,13.1,6.5,12.6,5.6c0.9,0.6,1.8,1.3,2.6,1.9c-2.1-0.8-4.2-1.8-6.2-2.7
		c-2.8-1.4-5.6-2.7-8.5-4.1l0.1,0.1c-5.4-2.7-9.5-4.7-6.9-3c3.9,2.5,7.6,5.1,11.3,7.8c2.5,2.6,5.3,4.8,8.3,6.8
		c0.7,0.3,1.5,0.5,2.3,0.7c5,3.4,10.2,6.2,15.4,9.2c6.7,3.9,12.9,7.9,19.5,11.8c11.6,6.8,23.4,11.9,35.1,17.1c5.5,3,11.1,6,16.8,7.7
		c0.3,0.1,0.6,0.2,0.9,0.2c2.5,1,5,2,7.5,2.7c6.3,2,12.7,2.4,19.1,3.6c5.9,1,12.4,1.9,17.8-1.9c3.4-2.5,5-6.9,6.8-11.1
		c0.5-0.5,1.1-1,1.7-1.7c1.1-1,2.2-2.4,2.9-3.9c0.1,0,0.3-0.1,0.4-0.2c0.3-0.3,0.9-0.7,1.3-1c-0.3-0.3-0.6-0.5-0.8-0.8
		c0.1-0.2,0.2-0.5,0.2-0.7c0-0.4,0-0.9-0.1-1.4c0.3,0,0.6,0,0.9-0.1c3.8-0.7,7.1-2.5,10.1-5c2.8-1.3,5.3-2.9,7.7-5.2
		c4.9-5,8.3-12.1,11-19.1c1.6-4.2,3.4-8.2,4.8-12.5c1.5-3.9,2.5-8,3.3-12.4c0.8-1.6,2-2.5,3-4.1c1.1-1.8,2-3.6,2.2-5.5
		c0.3-2.1,0.4-4.4,0.8-6.3c0.2-1.8,0.5-4,0.6-5.4c0.4-3.9,0.5-7.4,0.5-11.4c0-0.5,0-1,0-1.7c0-0.6-0.1-1.3-0.1-1.9
		c0.3-0.2,0.7-0.5,1-0.7c2.3-1.7,4.6-3.4,6.9-5.1c4.3-3.1,8.5-6,13.3-8.4c4.3-2.3,9-5,13.2-7.6s8.5-5.4,13.2-6.8
		c4.5-1.4,10-1.5,14.3-4.1c2-1,3.9-3,5.5-4.7c1.4-1.6,3.1-3.6,4.2-5.3C487,375.3,487,370,486.4,365.3z M461.9,244.1
		C461.9,244,461.9,244.1,461.9,244.1L461.9,244.1z M446.2,243.6c-1.5,1.9-3.9,4.4-5.5,6.8c-1.6,2.1-3,4.5-4.6,6.7
		c-1.8,2.2-3.7,4.3-5.5,6.4c-1.7,1.9-3.6,3.8-5.3,5.5c-1.1,0.8-2.3,1.6-3.4,2.3c-2.1,1.4-4.6,3-6.6,3.9c-1.4,0.5-2.8,0.7-4.3,0.9
		c-0.5,0-1,0-1.6,0c-2-0.1-3.9-0.3-5.7-0.5c-0.9-0.5-1.8-1.5-2.8-1.9c-1.5-0.8-3.4-0.5-5.2-0.5c-0.7-0.4-1.5-0.8-2.3-1.3
		c-1.8-1.3-2.9-2.6-4.6-4.1c-2.5-2.2-5.4-4.6-6.4-8.3c-0.3-1.7-0.1-3.7,0.9-6c0.3-1.4,1.5-2.9,1.8-4.3c0.3-0.6,0.5-1.4,0.8-2.1
		c0.9-1.1,2.3-2,3.7-2.7c1.9-1.6,4.2-2.5,6.3-3.6c2.6-1.3,5.2-2.5,7.7-3.6c1.5-0.6,1.7-0.7,2.8-1c1.1-0.3,2-0.8,3-0.8
		c1.3-0.5,2.5-1,3.9-1.7c0.8-0.4,1.6-0.9,2.3-1.6c0.1-0.1,0.3-0.3,0.4-0.4c1.5,0,2.8,0.1,4.2,0.1c7.6,2.4,15.4,4.6,23.8,6.1
		c1.5,0.2,3,0.3,4.6,0.5c0.5,0.1,0.9,0.1,1.5,0.2c-1.3,1.6-2.5,3-3.4,4.4C446.4,243.3,446.3,243.4,446.2,243.6z M399.5,226.6
		c0.6,0,1.3,0,2-0.1c1.3,0.3,2.4,0.6,3.7,0.9c0.2,0.2,0.3,0.5,0.3,0.9c0,0.2,0.1,0.3,0.2,0.4c-0.5,0.1-1.1,0.4-1.7,0.6
		c-0.7-0.1-1.5-0.2-2.2-0.2c-1.4-0.4-2.7-0.9-4-1.4c-4.1-1.5-8-2.8-12.2-4.3c2.5,0.2,4.6,0.8,6.7,1.8
		C394.5,226.3,396.7,226.7,399.5,226.6z M167.4,145c-0.1-0.1-0.1-0.1-0.2-0.2c-0.1-0.1-0.3-0.2-0.4-0.2c-1.1-0.6-2.4-1.4-3.7-2.1
		c-0.2-0.2-0.5-0.4-0.7-0.6c0.4,0.1,0.7,0.3,1,0.4c1.3,0.3,2.3,1.6,3.3,2.3c0.3,0.2,0.6,0.3,0.8,0.5
		C167.6,145.1,167.5,145,167.4,145z M94.7,121.9c-2.1-1.3-4.1-2-6.3-2.9c-2.2-0.9-4.2-1.5-6.3-2.7c-0.6-0.3-1.3-0.5-1.9-0.8
		c0.1,0,0.3,0,0.4,0.1c1.1,0.2,2.3,0.5,3.3,0.7c0.5,0.1,0.9,0.2,1.5,0.4c2.2,1.7,4.5,3.1,7,3.7c0.1,0.1,0.2,0.2,0.4,0.3
		c0-0.1,0-0.1,0-0.2c0.2,0,0.4,0.1,0.6,0.1c0.4,0,0.8-0.1,1.1-0.3c1.8,0.9,3.6,2,5.3,3.2c2.6,1.8,5,3.4,7.5,5
		c-0.3-0.2-0.7-0.3-1-0.5C102.7,125.7,98.7,123.7,94.7,121.9z M453,262.5c-1.8,2.4-3.4,4.7-5.2,6.7c-3.3,3.6-7.1,6.6-11,9.4
		c0.3-0.3,0.5-0.6,0.8-0.9c0.1-0.2,0.3-0.3,0.4-0.5C443.6,273,448.6,268.2,453,262.5z M243.5,315.7L243.5,315.7L243.5,315.7
		L243.5,315.7z M243.5,315.7L243.5,315.7L243.5,315.7C243.4,315.7,243.4,315.6,243.5,315.7z M56.9,349.6c2.5,1.7,5,3.2,7.4,4.9
		c-2-1-4-2.1-5.9-3.2c-2.9-1.9-6-4.4-9.1-6.5c0.1-0.1,0.1-0.1,0.2-0.2C52,346.2,54.4,348.1,56.9,349.6z M471,384.1
		c0.5-0.3,1-0.6,1.6-0.8c-0.6,0.4-1.3,0.8-1.9,1C470.8,384.2,470.9,384.2,471,384.1z M444.6,335.6c0.6,0.1,1.3,0.2,1.9,0.3
		c-2.2-0.2-4.3-0.4-6.5-0.6C441.5,335.3,443.1,335.4,444.6,335.6z M275.7,351.2c-4.4-2.4-8.8-5.1-13.1-8c-2.1-1.3-3.7-2.1-5.7-3.3
		c-1.8-0.8-3.3-2-4.9-3.6c-0.6-1.1-1.6-1.4-2.2-0.9c0-0.2-0.1-0.3-0.1-0.5c-0.1-0.5-0.2-0.9-0.3-1.5c0-0.1,0-0.1,0-0.2l0,0
		c-0.1-0.2-0.2-0.7,0-1c-0.1-1.3,0-2.5-0.1-3.8c-0.1-5.5,0.9-10.3,1.7-15.6c0.2-1.1,0.3-2.3,0.5-3.4c0.9-0.1,1.8-0.7,1.8-2.2
		c0.1-1.6,0.1-3.2,0.4-4.7c0.5-1.7,1.3-3.3,2-4.9l1.9,0.2c-0.4-0.4-0.9-0.8-1.4-1.3c0.3-0.5,0.5-1.1,0.7-1.7
		c0.3-0.8,0.5-1.7,0.8-2.5c1.7-0.6,3.3-1,4.9-1c2.3,0.1,4.3,0.2,5.7,1.6c1.5,1.3,3.7,1.7,6.2,1.9c2.7,0.2,5.4-0.3,7.9-0.1
		c2.5,0.3,4.7,0.6,7.1,1.1c2.2,0.5,4.3,1.1,6.5,1.7c1.5,0.7,2.7,1.6,4.1,2.2c1.5,0.7,2.9,1.3,4.5,1.7c1,0.5,2.1,1.1,3,1.8
		c2.1,1.3,3.7,2.4,5.7,3.6c2.2,1.5,3.9,2.8,6,4.3c4.1,2.8,8.4,5,12.5,7.3c3.9,2.1,7.7,4.2,11.4,6.9c2.8,2.1,5.5,4.6,8,7.2
		c4.2,4.4,8.2,9.3,12.3,13.9c2.9,3,5.9,6.1,9.2,7.9c-2.1,0.7-4.3,1.5-6.4,2.4c-4.2,2.1-8.3,4.3-11.7,7.4c-0.4,0.4-0.9,0.8-1.4,1.3
		c-1.3,0.3-2.6,0.7-3.9,1.1c-4.3,1.6-8,4.1-12.2,6.4c-3.7,2.2-7.5,2.9-11.8,2.4c-4.3-0.4-8.2-1.8-12.2-3.6c-0.2-0.1-0.3-0.1-0.5-0.2
		c-1.1-0.7-2.3-1.4-3.3-2.1c-4.3-2.9-9.2-5.7-13.1-9.8c-3.9-4.1-7.9-7.1-12.4-9.7c-2.1-1.3-4.1-2.3-6.4-3.2c-2-1-3.8-1.9-5.1-3.8
		c-1.1-1.4-3.4-0.9-3.4,0.9c-0.3,0.1-0.6,0.2-0.8,0.4c0.4,0.5,0.8,1,1.3,1.5c0.2,1.4,0.9,2.3,1.9,2.3c-0.1-0.2-0.1-0.4-0.1-0.7
		c2.7,2,5.9,3,8.6,4.6c3.2,1.8,6.4,4,9.3,6.5C284.4,356.4,280,353.6,275.7,351.2z M345.1,374.9c-1.9,3-3.9,6.5-7.2,7.3
		c-4,1-8-0.8-11.9-2.9c2.9,0.2,5.7,0.1,8.4-0.7c4.3-1.6,8-4.1,12-6.3c0.3-0.2,0.6-0.3,1-0.5C346.4,372.9,345.7,373.8,345.1,374.9z
		 M360.1,363.2c0.5-0.3,0.9-0.6,1.5-0.9c1.4-0.8,2.7-1.6,4.2-2.2c-1.4,0.8-2.7,1.7-4.2,2.4C361.2,362.7,360.6,363,360.1,363.2z
		 M430.5,388.4c0,0-0.2-0.2-0.3-0.3c-0.1-0.1-0.2-0.1-0.2-0.3c0,0,0,0,0-0.1c0,0,0,0,0-0.2c0,0-0.4-0.6-0.1-0.2
		c-0.1-0.2-0.1-0.5-0.1-0.5c-0.1-0.5-0.2-0.9-0.3-1.5c-0.1-1.5-0.1-3.2-0.1-4.8c0.2-2.6,0-5.3,0.2-7.8c0.3-3.9,1.7-7.5,4.3-9.4
		c1.7-1.1,3.6-1.7,5.4-2.1c2.4-0.3,4.9-0.7,7.3-1c2.4-0.1,4.7,0.1,7.1,0.2c1.9,0.3,3.8,0.1,5.5,0.1c2,0,4.2,0,5.7,0.8
		c0.2,0,0.3,0.2,0.5,0.1c-0.3-0.2,0,0,0.3,0.2l0.3,0.2c-0.5-0.4,0,0,0.1,0.2c0.6,0.6,1.3,1.5,1.7,2.1c1.3,1.5,2.2,3.4,3,5.9
		c0.3,0.4,0.4,0.9,0.5,1.4s0.1,0.5,0.4,0.9c0.1,0.5,0.2,0.9,0.3,1.5c-0.1-0.5-0.1,0.3,0,0.3c0,0.7,0.1,1.5,0.5,2
		c-0.3,0.1-0.6,0.2-0.9,0.3c-1.9,0.4-3.8,0.9-5.5,1.7c-2.2,1-4.1,2.3-6.5,3.3c-2.6,1.4-5.3,2.8-7.8,4.3c-0.6,0.1-1.3,0.1-1.9,0.1
		c-2.2,0.3-4.7,0.6-6.6,1.9c-0.7,0.7-1.5,1.4-2.2,1.8c-0.7,0.4-2.2,0-3.1,0c-0.8,0.2-2,0.2-2.7,0.6c-0.8,0.2-1,0.2-1.6,0.1
		c-0.9-0.3-1.8-0.8-2.6-1.6C430.7,388.6,430.7,388.6,430.5,388.4z M428.4,403.3c2.6-2,5.5-3.2,8.5-4.2c-4.3,2.5-8.6,4.8-12.6,7.4
		C425.5,405.5,427,404.2,428.4,403.3z M391.4,428.9c-0.7,0.4-1.5,0.8-2.3,1.3c2.3-1.8,4.6-3.8,6.9-5.6c3.2-2.9,7-4.8,10.4-7.2
		c0,0.6,0,1.3,0,1.9C401.5,422.6,396.5,425.9,391.4,428.9z M409.6,430c-0.1,2.8-0.4,5.3-0.7,7.9c0.1-4.1,0-8.3-0.1-12.3
		c0-0.2,0-0.4,0-0.6c0.3-0.2,0.6-0.4,0.9-0.6C409.9,426.2,409.7,428.2,409.6,430z M416,412.3c-1.6,1.3-3.1,2.4-4.8,3.6l0,0
		c-0.5-0.1-0.9-0.3-1.4-0.2c-0.2,0-0.3,0-0.5-0.1c0-0.1,0-0.2,0-0.3c1.5-1,3-2.3,4.5-3.1c1.7-1.1,3.6-2.6,5.3-3.3
		c1.1-0.5,2.5-0.8,3.8-1.5c-1.3,0.8-2.4,1.6-3.6,2.4c-0.8,0.6-1.7,1.3-2.5,1.9C416.5,412,416.3,412.1,416,412.3z"/>
	<path class="st7" d="M208.7,476.4c-6.6-3.3,28,16,21.5,11.5c-2.8-1.9-5.7-3.7-8.7-5.6c-0.7-0.2-1.4-0.5-2.1-0.7
		C216,480.1,212.1,478,208.7,476.4z"/>
	<path class="st7" d="M196.8,464.2c4,2.3,8,4.4,12.1,6.5c-0.2-0.2-0.4-0.4-0.6-0.7C200.9,466.2,193.7,462.4,196.8,464.2z"/>
	<path class="st7" d="M205.7,366.1c0.2,0.7,0.8,1.6,1.4,1.9c0.5,0.1,0.9,0.3,1.4,0.2c1.1,0.2,2.2,0,2.5-1.4c0.2-1-0.3-2.9-1.5-3.1
		c-0.1,0-0.2-0.1-0.4-0.1c-0.5-3.2-0.4-6.6-0.3-9.6c0.1-3.9,0.9-7,1.3-10.9c0.3-2.1,0.4-4.4,0.8-6.3c0.2-1.8,1.3-2.8,2.4-4.4
		c1.4-1.6,2.7-3.4,3.4-5.6c1.1-2.3,2-4.5,2.9-7c1.9-4.8,4.7-8.8,6.6-13.5c1.8-4.3,3.4-8.5,5.9-12.3c1.9-3.2,4.2-6.4,6.7-9.1l3.2-8.8
		c-3.8,2.5-7.1,6-9.9,9.8c-2.5,3.3-4.7,7-6.4,11c-1.1,2.5-1.9,4.8-3,7.3c-1.1,2.5-2.2,4.6-3.7,6.7c-2.2,4.4-3.9,9.3-6.1,13.9
		c-0.8,2-2.5,3.3-3.6,5.2c-1.1,1.8-2.1,3.2-2.4,5.6c-0.3,2.1-0.4,4.4-0.8,6.3c-0.2,1.8-0.5,4-0.8,5.5c-0.4,4.4-0.7,8.5-0.5,13
		C204.9,362.2,205.3,364.2,205.7,366.1z"/>
	<path class="st6" d="M298.5,196.8c1.8,0.3,3.4,0.6,5.1,1c-12.5-5.5-25-11.4-31-15.6l-0.4,1.1c5.3,2.8,10.6,6.1,16.1,8.6
		C291.6,193.7,295,195.3,298.5,196.8z"/>
	<path class="st6" d="M346.1,305.9c-0.8,0-1.7,0-2.4-0.1c1,0.2,1.1,1.3,0.6,2.4c7.6-0.8,17.6-2.3,29.6-5.1c-5.7,0.8-12,2.3-17.9,2.9
		C352.6,306.2,349.3,305.9,346.1,305.9z"/>
	<path class="st6" d="M448.5,238.5c-1.5-0.2-3-0.3-4.6-0.5c-8.5-1.5-16.1-3.8-23.8-6.1c-1.4-0.1-2.7-0.1-4.2-0.1
		c-0.1,0.1-0.2,0.3-0.4,0.4c-0.7,0.7-1.6,1.1-2.3,1.6c-1.3,0.7-2.6,1.1-3.9,1.7c-1,0.1-1.9,0.5-3,0.8c-1.1,0.3-1.4,0.4-2.8,1
		c-2.5,0.9-5.1,2.3-7.7,3.6c-2.1,1.1-4.3,2-6.3,3.6c-1.3,0.7-2.6,1.7-3.7,2.7c-0.3,0.7-0.6,1.4-0.8,2.1c-0.3,1.4-1.5,2.9-1.8,4.3
		c-1,2.3-1.4,4.4-0.9,6c0.8,3.7,3.9,6.1,6.4,8.3c1.7,1.5,2.8,2.9,4.6,4.1c0.7,0.4,1.5,0.8,2.3,1.3c1.8,0,3.7-0.4,5.2,0.5
		c0.9,0.4,1.9,1.4,2.8,1.9c1.9,0.2,3.8,0.5,5.7,0.5c0.5,0,1,0,1.6,0c1.5-0.2,2.9-0.4,4.3-0.9c2-0.8,4.5-2.5,6.6-3.9
		c1.1-0.7,2.3-1.5,3.4-2.3c1.9-1.7,3.7-3.6,5.3-5.5c1.9-2.1,3.8-4.3,5.5-6.4c1.6-2.3,3-4.6,4.6-6.7c1.7-2.5,4-4.9,5.5-6.8
		C446.3,243.4,448.5,238.7,448.5,238.5L448.5,238.5z"/>
	<path class="st6" d="M314.3,303.4c-1.6-0.3-3-0.5-4.6-0.8c7.5,4.7,14.3,8.5,17.3,7.6c0.1,0,0.1,0,0.2,0c0.6-0.1,1.4-0.3,2.1-0.4
		C324.1,308.3,319.2,306,314.3,303.4z"/>
	<path class="st6" d="M452.2,243.1c0.3-0.5,0.6-0.9,0.9-1.5C453.1,241.7,452.6,242.4,452.2,243.1z"/>
</g>
</svg>
