<?xml version="1.0" encoding="utf-8"?>
<!-- Generator: Adobe Illustrator 24.3.0, SVG Export Plug-In . SVG Version: 6.00 Build 0)  -->
<svg version="1.1" id="Layer_1" xmlns="http://www.w3.org/2000/svg" xmlns:xlink="http://www.w3.org/1999/xlink" x="0px" y="0px"
	 viewBox="0 0 780 560" style="enable-background:new 0 0 780 560;" xml:space="preserve">
<style type="text/css">
	.st0{fill:#FF9A22;}
	.st1{opacity:0.2;enable-background:new    ;}
	.st2{fill:#FF9000;}
	.st3{fill:#AF5F00;}
	.st4{fill:#455A64;}
	.st5{fill:none;}
	.st6{fill:#FFFFFF;}
	.st7{fill:#222221;}
</style>
<g id="freepik--Card--inject-3_2_">
	<g id="freepik--card--inject-3_2_">
		<path class="st0" d="M377.2,282.5l-0.6,4.8c-0.1,1.8,0.6,3.2,1.7,4.1l126.2,78.9c1.4,0.6,3,0.6,4.3-0.3l219.9-141.1
			c1.5-1,2.5-2.7,2.7-4.3l0.6-4.8c0.1-1.8-0.5-3.3-1.7-4.1l-126.2-78.9c-1.4-0.6-3-0.6-4.3,0.3L379.9,278.1
			C378.5,279.2,377.5,280.7,377.2,282.5z"/>
		<path class="st1" d="M510.1,359.8l219.8-141.2c1.4-0.8,1.5-2.1,0.3-2.8L604,137c-1.4-0.6-3-0.6-4.3,0.3L379.9,278.3
			c-1.4,0.8-1.5,2.1-0.3,2.8L505.7,360C507.1,360.7,508.7,360.7,510.1,359.8z"/>
		<path class="st2" d="M510.1,359.8l219.8-141.2c1.4-0.8,1.5-2.1,0.3-2.8L604,137c-1.4-0.6-3-0.6-4.3,0.3L379.9,278.3
			c-1.4,0.8-1.5,2.1-0.3,2.8L505.7,360C507.1,360.7,508.7,360.7,510.1,359.8z"/>
		<path class="st3" d="M507.9,360.4l-1.1,10.5c-0.8,0.1-1.6-0.1-2.1-0.5l-126.2-78.9c-1.3-0.9-1.9-2.4-1.7-4.1l0.6-4.8
			c0.3-1.5,1-2.9,2.3-4c-0.9,0.8-0.9,1.9,0.1,2.5L505.9,360C506.4,360.2,507.1,360.5,507.9,360.4z"/>
	</g>
	<path class="st4" d="M490.6,292.6l-19,9.8c-2.9,1.1-6.1,1.3-8.8-0.5l-4.9-3.1c-2.5-1.6-2.3-3.8,0.1-4.9l19-9.8
		c2.9-1.1,6.1-1.3,8.8,0.5l4.9,3.1C493.1,288.9,493.2,291.3,490.6,292.6z"/>
	<path class="st4" d="M525.5,273l-19,9.8c-2.9,1.1-6.1,1.3-8.8-0.5l-4.9-3.1c-2.5-1.6-2.3-3.8,0.1-4.9l19-9.8
		c2.9-1.1,6.1-1.3,8.8,0.5l4.9,3.1C528.1,269.5,527.9,271.7,525.5,273z"/>
	<path class="st4" d="M692.7,224.5L604,280.4c-4.1,1.8-8.6,2-12.2-0.3l-6.8-4.2c-3.4-2.2-3-5.1,0.4-7l88.5-55.9
		c4.1-1.8,8.6-2,12.2,0.3l6.8,4.2C696.2,219.5,696,222.6,692.7,224.5z"/>
	<path class="st4" d="M664.9,207.1l-57.6,35.5c-4.1,1.8-8.6,2-12.2-0.3l-6.8-4.2c-3.4-2.2-3-5.1,0.4-7l57.6-35.4
		c4.1-1.8,8.6-2,12.2,0.3l6.8,4.2C668.6,202.1,668.4,205.2,664.9,207.1z"/>
	<path class="st4" d="M430.1,275.3l140.1-88.9c2.5-1.5,2.7-3.9,0.6-5.1l-3.1-2c-2.4-1.4-5.4-1.1-8.3,0.4l-140.1,88.9
		c-2.5,1.6-2.7,3.9-0.6,5.1l3.1,2C424.2,277,427.4,276.8,430.1,275.3z"/>
	<path class="st4" d="M449.7,288.8l140.1-88.9c2.5-1.5,2.7-3.9,0.6-5.1l-3.1-2c-2.4-1.4-5.4-1.1-8.3,0.4L439,282.1
		c-2.5,1.6-2.7,3.9-0.6,5.1l3.1,2C444,290.4,447.1,290.3,449.7,288.8z"/>
</g>
<g>
	<path class="st5" d="M457.5,240C457.5,240,457.5,239.9,457.5,240L457.5,240z"/>
	<path class="st5" d="M385.6,220.6c3.9,1.4,7.7,2.6,11.5,4.1c1.3,0.5,2.5,0.8,3.8,1.3c0.7,0.1,1.4,0.1,2.1,0.2
		c0.6-0.2,1-0.5,1.6-0.6c-0.1-0.1-0.1-0.3-0.2-0.4c-0.1-0.4-0.2-0.6-0.3-0.8c-1.2-0.3-2.3-0.6-3.5-0.8c-0.6,0-1.3,0.1-1.9,0.1
		c-2.6,0.1-4.7-0.2-6.9-1.3C389.9,221.3,387.9,220.8,385.6,220.6z"/>
	<path class="st5" d="M466.1,371.9c-0.1,0.1-0.2,0.1-0.3,0.2c0.6-0.3,1.2-0.6,1.8-0.9C466.9,371.3,466.5,371.6,466.1,371.9z"/>
	<path class="st5" d="M433.9,272.4c3.6-2.6,7.2-5.6,10.4-8.9c1.6-1.9,3.2-4.1,4.9-6.3c-4.1,5.4-8.9,10-14,13.8
		c-0.1,0.2-0.3,0.3-0.4,0.5C434.4,271.8,434.2,272.1,433.9,272.4z"/>
	<path class="st5" d="M444.9,234.7L444.9,234.7c0,0.1-2.2,4.6-2.3,4.7c0.1-0.1,0.2-0.2,0.3-0.4c0.9-1.3,2.1-2.6,3.2-4.1
		C445.9,234.9,445.4,234.8,444.9,234.7z"/>
	<path class="st5" d="M223.4,451c1.3,1.4,2.5,2.7,4,4.1c2.4,1.8,4.9,3.6,7.4,5.3c0.8,0.3,1.8,0.5,2.6,0.7c0.7,0.2,1.4,0.3,2.1,0.5
		c-5.7-3.9-10.4-7-14.1-9.6C224.7,451.5,223.9,451.3,223.4,451z"/>
	<path class="st5" d="M320.3,504.8c0.3,0.1,0.5,0.1,0.8,0.2c2.9,0.7,5.9,1.2,8.9,1.6c-4.5-0.8-9.5-2.2-15-4
		C316.7,503.4,318.5,504.1,320.3,504.8z"/>
	<path class="st5" d="M233,459.7c-0.8-0.6-1.7-1.2-2.4-1.8c0.4,0.8-5.8-2.2-11.9-5.3c0.2,0.2,0.4,0.4,0.6,0.7c2.6,1.3,5.3,2.5,8,3.9
		C229.1,458.1,231,459.1,233,459.7z"/>
	<path class="st5" d="M376.9,484.1c1.7-1.3,3.1-2.7,4.6-4.4c-2,1.8-3.9,3.4-5.7,4.7C376.2,484.3,376.6,484.2,376.9,484.1z"/>
	<path class="st5" d="M362.2,496.5c0.2-0.3,0.4-0.6,0.6-0.8c0.6-0.9,1.2-1.9,1.8-2.8c-0.8-0.1-1.8-0.1-2.6-0.2
		c-0.8,0.3-1.4,0.5-1.4,0.5S361.5,494.5,362.2,496.5z"/>
	<path class="st5" d="M439.4,263.9c4.1-4.1,8.3-8.9,10.9-14.1C446.3,253.7,443.4,259.8,439.4,263.9
		C439.4,263.8,439.4,263.9,439.4,263.9z"/>
	<path class="st5" d="M449.2,237.8c-0.3,0.4-0.6,0.8-0.8,1.4c-0.4,0.6-0.8,1.2-0.8,1.3l4.2-2.8c-0.1,0.8,0.6,1.9,1.2,3.1
		c0-1.5-0.5-2.6-1.4-3.5c-0.5-0.5-1.2-0.8-1.8-1.2c0,0,0,0-0.1,0.1c-0.6,0.7-1.3,1.3-1.9,2c0.4,0.5,0.2,1.4-0.2,2.3
		c0.3-0.5,0.6-0.8,0.8-1.3C448.8,238.4,449.2,237.7,449.2,237.8z"/>
	<path class="st5" d="M443,326.5c-0.6-0.1-1.2-0.3-1.8-0.3c-1.5-0.3-2.8-0.3-4.3-0.3C439,326.2,440.9,326.4,443,326.5z"/>
	<path class="st5" d="M345.6,316.5c-3.5-2.5-7.1-4.5-10.7-6.5l18.3,13.3C350.7,320.7,348.3,318.4,345.6,316.5z"/>
	<path class="st5" d="M414.4,397.8c0,0,0,0.2-0.1,0.7c0.3-0.2,0.5-0.4,0.8-0.6c0.8-0.6,1.6-1.2,2.4-1.8
		C415.6,397.1,414.4,397.8,414.4,397.8z"/>
	<path class="st6" d="M251.8,307.6c0,0,0,0.1,0,0.2V307.6L251.8,307.6z"/>
	<polygon class="st6" points="251.8,307.4 251.8,307.4 251.8,307.6 251.8,307.6 	"/>
	<path class="st6" d="M251.9,307.8C251.8,307.4,251.6,307.3,251.9,307.8L251.9,307.8z"/>
	<path class="st6" d="M141.8,135.8c5.7,3.4,11.4,6.4,17.4,8.8c0.9,0.4,2,0.8,2.9,1.2c-1.2-0.8-1.3-1.3,0.5-0.6
		c3.6,1.3,7.3,2.4,11,3.9c0.5,0.1,0.9,0.2,1.5,0.3c-0.1-0.1-0.2-0.2-0.3-0.2c-0.2,0-0.5-0.4-0.3-0.2c0-0.1,0-0.1,0-0.1
		c-3.1-1.8-6.5-3.7-9.5-5.4c-0.3,0.3-0.7,0.6-0.9,0.8c-0.4,0.1-0.5,0.4-0.8,0.5c-0.8,0.5-2.3-0.6-2.3-1.4c0-0.2,0-0.4,0-0.6
		c-0.6-0.5-0.8-1.4-0.8-2.2c-3.6-2.1-5.8-3.5-5.1-3.4c1.5,0.3,2.9,0.3,4.4,0.3c-14.4-5.4-28.4-10.6-39.9-15c1.6,1,3.2,2.2,4.9,3.2
		C130.4,129.2,136.1,132.5,141.8,135.8z"/>
	<path class="st6" d="M219.6,163c5.7,2.4,11.5,4.2,17.3,6.6c4.1,1.7,7.8,4.2,11.5,6.8c6.7,3.1,13.4,6.9,20.1,10.1
		c2.9,1.4,6,2.7,9,4.1c-0.4-0.3-0.7-0.6-1-0.8l0.1-0.3c-15.1-6.7-28.5-13.3-30.2-15.8c-1.4-2.2-20-10.1-43.9-19.4
		c0.1,0.1,0.1,0.1,0.2,0.2C208.1,157.8,213.8,160.4,219.6,163z"/>
	<path class="st6" d="M251.8,307.4C251.8,307.6,251.8,307.6,251.8,307.4C251.8,307.6,251.8,307.6,251.8,307.4
		C251.8,307.6,251.8,307.6,251.8,307.4z"/>
	<path class="st6" d="M371,336.3c1.4,1.2,2.8,2.4,4.3,3.1L371,336.3z"/>
	<path class="st6" d="M177.4,149.5c-0.2,0.2-0.5,0.2-0.8,0.2c0.3,0.2,0.5,0.3,0.8,0.4c0.7,0.2,1.4,0.5,2.1,0.7
		C178.8,150.5,178.1,150,177.4,149.5L177.4,149.5z"/>
	<path class="st6" d="M251.8,307.6L251.8,307.6c0,0.1,0,0.1,0.1,0.2C251.9,308,252,307.4,251.8,307.6L251.8,307.6L251.8,307.6z"/>
	<path class="st6" d="M116.7,126.2c-1.7-1.2-3.4-2.2-5-3c-0.3,0.2-0.7,0.3-1,0.3c-0.2,0-0.4,0-0.6-0.1c0,0.1,0,0.1,0,0.2
		c-0.1-0.1-0.2-0.2-0.4-0.3c-2.4-0.5-4.5-1.9-6.6-3.5c-0.5-0.1-0.8-0.2-1.4-0.4c-1-0.2-2.2-0.5-3.1-0.7c-0.1,0-0.3,0-0.4-0.1
		c0.6,0.2,1.2,0.5,1.8,0.8c2,1.2,3.8,1.7,5.9,2.5c2.1,0.8,4,1.7,5.9,2.7c3.8,1.7,7.5,3.6,11.2,5.6c0.3,0.2,0.7,0.3,0.9,0.5
		C121.6,129.4,119.2,127.8,116.7,126.2z"/>
	<path class="st6" d="M175.4,143.7c0.2,0.2,0.5,0.4,0.7,0.6c1.2,0.7,2.4,1.4,3.5,2c-1-0.7-2-1.9-3.1-2.2
		C176.1,144,175.8,143.8,175.4,143.7z"/>
	<path class="st6" d="M251.8,307.4L251.8,307.4L251.8,307.4z"/>
	<path class="st6" d="M407.5,410.9c0.1,3.8,0.2,7.7,0.1,11.6c0.3-2.4,0.6-4.8,0.7-7.4c0.1-1.7,0.2-3.5,0.1-5.3
		c-0.3,0.2-0.6,0.4-0.8,0.6C407.4,410.6,407.5,410.8,407.5,410.9z"/>
	<path class="st6" d="M405.3,403.1c-3.2,2.2-6.7,4.1-9.8,6.8c-2.2,1.8-4.3,3.7-6.5,5.3c0.7-0.4,1.5-0.8,2.2-1.2
		c4.8-2.8,9.5-5.9,14.3-9.1C405.3,404.3,405.3,403.7,405.3,403.1z"/>
	<path class="st6" d="M285.9,341.5c-2.5-1.6-5.6-2.4-8.1-4.3c0,0.2,0,0.4,0.1,0.7c-0.9,0-1.7-0.8-1.8-2.2c-0.4-0.4-0.8-0.8-1.2-1.4
		c0.3-0.1,0.5-0.2,0.8-0.4c0-1.8,2.2-2.2,3.2-0.8c1.3,1.8,2.9,2.5,4.8,3.6c2.1,0.8,4.1,1.9,6,3c4.1,2.5,8.1,5.3,11.7,9.1
		c3.7,3.9,8.3,6.5,12.3,9.2c1,0.7,2.2,1.3,3.1,2c0.2,0.1,0.3,0.1,0.5,0.2c3.8,1.7,7.3,2.8,11.5,3.4c4.1,0.4,7.7-0.3,11.1-2.3
		c3.9-2.2,7.4-4.4,11.5-6c1.2-0.4,2.4-0.7,3.7-1c0.4-0.4,0.8-0.8,1.3-1.2c3.2-2.9,7.1-5.1,11-7c2-0.8,4.1-1.7,6-2.3
		c-3.1-1.8-5.9-4.6-8.7-7.4c-4-4.3-7.7-8.9-11.6-13.1L334.9,310c-4.1-2.2-8.1-4.2-11.8-6.9c-2.1-1.4-3.7-2.6-5.7-4.1
		c-2-1.2-3.5-2.3-5.4-3.4c-0.9-0.6-2-1-2.8-1.7c-1.5-0.4-2.9-0.8-4.2-1.6c-1.3-0.6-2.4-1.4-3.9-2.1c-2-0.5-4.1-1-6.1-1.6
		c-2.3-0.5-4.3-0.8-6.7-1c-2.4-0.3-4.8,0.3-7.4,0.1c-2.4-0.3-4.4-0.6-5.8-1.8c-1.4-1.2-3.2-1.4-5.4-1.5c-1.5,0-3,0.4-4.6,0.9
		c-0.2,0.8-0.5,1.6-0.8,2.4c-0.2,0.5-0.5,1-0.7,1.6c0.4,0.4,0.8,0.8,1.3,1.2l-1.8-0.2c-0.7,1.5-1.4,2.9-1.9,4.6
		c-0.2,1.4-0.3,2.9-0.4,4.4c0,1.4-0.8,2.1-1.7,2.1c-0.2,1-0.4,2.2-0.5,3.2c-0.7,4.9-1.6,9.4-1.6,14.7c0.1,1.2,0,2.4,0.1,3.6
		c-0.1,0.3,0,0.7,0,0.9c0,0.1,0,0.1,0,0c0,0,0,0.1,0,0.2c0.1,0.5,0.2,0.8,0.3,1.4c0,0.2,0.1,0.3,0.1,0.5c0.7-0.4,1.5-0.2,2.1,0.8
		c1.5,1.6,2.9,2.5,4.6,3.4c2,1.2,3.5,2,5.4,3.1c4.1,2.7,8.3,5.3,12.3,7.5c4.1,2.3,8.2,4.9,12.5,6.9
		C291.8,345.3,288.9,343.3,285.9,341.5z"/>
	<path class="st6" d="M417.5,396.1c1-0.8,2.3-1.6,3.4-2.3c-1.2,0.6-2.4,0.9-3.6,1.4c-1.7,0.7-3.5,2.1-5,3.1c-1.5,0.8-2.8,2-4.2,2.9
		c0,0.1,0,0.2,0,0.3c0.2,0,0.3,0,0.5,0.1c0.4-0.1,0.8,0,1.3,0.2l0,0c1.5-1,3-2.3,4.5-3.4c0.1-0.4,0.1-0.7,0.1-0.7
		S415.6,397.1,417.5,396.1z"/>
	<path class="st6" d="M251.8,307.4L251.8,307.4L251.8,307.4C251.7,307.3,251.7,307.4,251.8,307.4z"/>
	<path class="st6" d="M179.9,146.5c0.1,0.1,0.1,0.1,0.2,0.2c0.1,0,0.2,0.1,0.2,0.1c-0.3-0.2-0.5-0.3-0.8-0.5
		C179.7,146.4,179.8,146.5,179.9,146.5z"/>
	<path class="st6" d="M68.9,334.7c3,2,5.8,4.3,8.6,6.1c1.9,1,3.7,2.1,5.6,3c-2.3-1.6-4.6-2.9-7-4.6c-2.4-1.4-4.6-3.2-7-4.7
		C69.1,334.6,68.9,334.7,68.9,334.7z"/>
	<path class="st6" d="M337.2,366.8c-2.4,0.8-5.1,0.8-7.9,0.7c3.7,2,7.4,3.8,11.2,2.7c3.1-0.8,5-4.1,6.8-6.9c0.7-0.9,1.3-2,2.1-2.8
		c-0.3,0.1-0.6,0.3-0.9,0.5C344.9,362.9,341.3,365.3,337.2,366.8z"/>
	<path class="st6" d="M61.2,324c2.2,1,4.8,2.6,6.6,4.9c2.5,1.5,5,3.6,7.3,5.2c2.7,1.7,5.7,3.4,8.5,5.2c3,2.1,5.6,4.3,8.3,6.5
		c2.9,1.9,5.8,4.1,8.5,6.2c3.5,2.6,6.8,5.6,10.3,8.4c7.5,5.2,15.2,10.5,23.1,15c3.1,1.9,6.3,3.5,9.2,5.3c2.9,1.8,5.7,4.1,8.2,6.8
		c2.4,2.4,5.1,4.4,7.7,7.1c1.3,1.3,2.3,2.6,3.4,4.1c2.8,2.2,5.7,4.3,8.5,6.5c5.8,4.7,11.8,8.9,17.8,13.4c5.7,4.1,11.2,9,16.7,13.7
		c5.4,4.8,11.1,9.3,16.7,13.8c5.7,4.5,11.5,8.6,17.7,12.4c3.6,2.4-6.3-2.7-13.8-6.6c3.9,2.6,8.5,5.8,14.1,9.6c2.4,0.6,4.6,1.3,7.1,2
		c3,1.2,6,2.3,9.1,4c3.1,1.6,5.7,3.6,8.4,6c2.9,2.5,6,4,9.1,5.8c3.1,1.9,6.2,4,9.2,6c6.4,4.1,12.5,7.9,19.1,11.4
		c2.6,1.2,5.2,2.4,7.9,3.6c1.9,0.8,3.7,1.7,5.6,2.4c5.6,1.8,10.5,3,15,4c3.5,0.4,6.8,0.7,10.4,0.8c3.1,0.2,6.6,0.3,9.4-0.5
		c2.7-0.7,5.2-2.4,7.4-4.2c0.8-0.8,2.1-1.6,3.4-2.4c0.5-1.3,0.9-2.5,1.7-3.9c-0.7-2-1.8-3.5-1.8-3.5s0.5-0.2,1.4-0.5
		c-1.2-0.1-2.4-0.1-3.7-0.4c-4.6-0.8-8.7-1.9-12.6-4.2c-0.5-0.3-0.9-0.7-1.5-0.9c-6.3-1.6-12.3-5.2-17.9-9
		c-3.5-2.3-6.8-4.7-10.4-6.2c-2.1-0.8-3.9-1.9-5.7-3.1c-1.6-1.3-3-2.8-4.5-4.1c-2.4-1.9-4.7-3.5-7-4.9c-7.5-4.4-15.4-7.8-22.3-13.7
		c-2.6-2.3-5-4.8-7.3-7.3c-2.4-1.7-4.8-3.5-6.9-5.7c-1.4-1.3-2.5-2.6-4.1-3.6c-0.9-0.5-2.2-1-3.4-1.6c-2.6-1.3-5.6-2.8-6.7-5.9
		c-0.1-0.5-0.2-0.9-0.1-1.5c-0.4-0.2-0.8-0.4-1.3-0.6c-0.8-0.5-1.7-0.9-2.6-1.3c-0.8,0-1.8-0.3-2.6-0.5c-2-0.5-3.6-1.8-5.7-2.4
		c-0.7-0.3-1.5-1.8-1.4-4c0.3-1.3,1.3-1.5,2.4-1.3c1.8,0.3,3.1,1.6,4.9,2.1c2.1,0.7,3.6,0.8,5.4,1.8c1.9,0.9,3.6,1.5,5.4,2.4
		c3.7,2,6.9,4.9,10.1,8.2c2.4,2.7,4.9,5.6,7.3,8.2c7.3,5.3,14.6,10.6,21.9,15.8c3,2.3,6,4.1,8.9,6.2c1.4,0.8,2.7,1.6,4.1,2.4
		c2.1,1.4,3.7,2.6,5.7,4.1c1.9,1.5,3.5,2.3,5.4,3.4c4.1,2.1,7.9,4,11.7,5.9c3.9,2.2,7.8,4.2,11.5,6.9c1.8,1.3,3.5,2.6,5.1,3.9
		c2.8,0.8,5.6,1,8.4,1.6c7,1.4,13.8,2.4,20.6,1.7c0.8-0.1,1.8-0.2,2.6-0.4c1.8-1.4,3.8-2.9,5.7-4.7c2.1-2.4,3.9-5.1,5.4-7.8
		c2.1-3.7,3.8-7.5,5.3-11.5c1.8-4.5,4.1-8.4,6-12.9c1-2.4,1.9-4.2,2.7-6.6c0.6-2.1,1.7-3.7,2.8-5.1c0.2-1.4,0.5-2.7,0.7-4.1
		c0.8-4.9,1.2-9.3,0.9-14.3c-0.1-1.9-0.1-3.8-0.1-5.7c-3.5,2.3-7.1,4.5-10.5,6.4c-4.2,2.3-8.6,5-13,6.6c-3.5,1.3-7.1,2.4-10.5,3.5
		c-0.8,0.6-1.5,1.2-2.4,1.7c-2,1.2-3.9,2.4-5.7,3.4c-3.2,2-6.6,4.5-10.2,6.3c-3.6,1.8-7.3,3-11.4,3.6c-4.1,0.5-8.3,0.2-12.3-1.5
		c-0.7-0.3-1.4-0.7-2.1-0.9c-3.8-0.5-7.5-0.9-11-2.8c-4.5-2.4-8.8-5.9-12.7-9.1c-2.9-2.4-5.9-4.9-8.9-7.4c-0.9-0.7-1.9-1.3-2.8-2
		c-4.2-2.7-8.5-5.6-12.6-8.5c-4-3-7.7-6.4-11.5-9.4c-3.8-3.1-7.1-6.8-10.7-9.6c-1.9-1.5-3.9-2.2-5.6-3.7c-0.2-0.1-0.3-0.3-0.5-0.4
		c-0.8-0.4-1.9-0.8-2.8-1c-2.4-0.6-5-1.6-7.4-2.4c-3-1.2-6.4-2.2-9.4-3.4c-6.2-2.3-13.2-6-15.8-13.8c-0.5-1.8,1-3.4,2.4-2.7
		c3,2.1,5,5.1,7.4,8.4c0.3,0.3,0.6,0.6,0.8,0.8c1.8,1,3.7,1.9,5.7,2.6c1.3,0.2,2.5,0.2,4,0.3c4.2,0.1,8.5,0.3,12.5,1.6
		c8,2.7,14.5,9.2,20.3,16c3.2,3.8,6.9,6.8,10.7,9.6c3.9,2.8,7.9,5.4,11.6,8.8c1.3,1.2,2.5,2.4,3.9,3.6c3.1,2.2,6.4,4.2,9.4,6.2
		c2.1,1.4,4.1,2.5,6.3,4.1c2.3,1.4,4.1,2.7,6.2,4c2.2,1,4.1,1.6,6.3,2.6c2.3,0.8,4.1,2.1,6.2,3.1c0.3,0.2,0.6,0.3,0.8,0.4
		c1.8,0.2,3.7,0.3,5.3,0.2c2.1,0,4.2-0.6,6.2-1c2.1-0.8,4.4-1.4,6.6-2.2c2-0.5,3.8-1.9,5.7-2.8c3.8-2.5,7.8-4.8,12.2-6.1
		c1.4-0.5,2.6-0.8,4.1-1.4c0.9-0.8,1.9-1.6,2.7-2.3c3.7-2.8,7.2-5.7,10.9-8c1.7-0.8,3.5-2.1,5-3.4c1.6-1,3-2.6,4.6-4.1
		c3.2-2.9,7.2-4.9,10.7-7.3c2-1.2,3.9-2.8,5.9-4.1c1.8-1.2,3.2-2.7,5.2-3.5c1.5-0.6,3-0.9,4.5-1.9c1.2-0.9,2.5-2.3,3.8-3.4
		c1.8-1.4,3.9-2.4,5.9-3.2c-1.5-0.7-2.8-1.8-3.9-2.9c-1.5-1.8-2.1-4.1-2.2-6.3c-0.3-3,0.1-6.2,0.2-9.3c0.2-2.4,0.3-4.6,0.9-6.9
		c1.2-4.3,3.9-7.9,7.4-9.4c2.4-1,5-1.5,7.8-1.7c2.6-0.2,5.3-0.4,8.1-0.1c2,0.2,3.9,0.5,6,0.4c2.2-0.1,4,0,6.2,0.4
		c1.7,0.1,3.6,0.8,4.7,2.4c1.2,1.4,2.3,3,3,4.7c1.5,2.4,3,5.7,3.5,8.9c0.9-0.9,1.8-2.2,2.4-3.8c0.5-1.3,0.7-3,0.7-4.9
		c-0.1-1.9-0.7-3.5-1.8-4.7c-0.9-1.5-1.9-2.7-2.8-4.1c-2.6-2.4-5.7-4.1-8.5-6.2c-2.3-1.7-4.5-3.8-6.9-5.7c-4.2-1.4-8.3-1.6-12.4-1.9
		c-4.4-0.1-8.9-1-13.2-0.9c-4.3,0.1-8.8,0.8-12.9,1.8c-2.1,0.3-3.9,0.7-5.7,1.7c-1.7,0.7-3.4,1.8-5.2,2.4c-1.9,0.7-4.1,1.3-6,1.8
		c-2,0.5-3.6,1.6-5.4,2.5c-1.8,1.2-3.7,2.4-5.7,2.8c-0.9,0.2-1.9,0.4-2.8,0.7c0.5,0.1,0.9,0.3,1.5,0.4c1.9,0.7,3.5,2,5.6,2.6
		c1.2,0.4,1.6,2.2,1.2,3c-0.3,1.3-1.3,1.5-2.4,1.3c-1.8-0.5-3.1-1.9-4.9-2.4c-2-0.5-3.6-0.8-5.4-1.8c-0.4-0.2-0.7-0.4-1-0.5
		c-2.6,1.6-5.3,3.2-7.9,4.9c-3.5,2.3-7.3,4.2-11.3,5.7c-2.2,0.8-4.4,1.4-6.6,2c-0.2,0.2-0.3,0.3-0.5,0.5c-2.5,3-4.6,6.6-7.2,9.8
		c-6.2,7.8-15.6,2.7-22.9-1.4c-2.5-1.5-5.2-3-7.9-4.7c-0.2-0.1-0.5-0.2-0.7-0.3c-1.9-0.9-3.9-1.9-5.6-2.8c-1.7-0.9-3.1-2.5-4.9-3.8
		c-3.7-2.8-8.1-3.8-11.8-5.7c-4.3-2.3-8.5-4.7-12.6-7.1c-4.1-2.3-8.1-4.8-12-7.2c-2.6-1.8-5.7-2.8-8.2-5c-0.3,0.1-0.5,0.2-0.8,0.1
		c-5.1-1.4-5.1-8.7-5-13.5c0.3-5.6,1-11.4,1.9-16.7c0.5-2.4,0.9-4.8,1.6-7.2c-0.5,0.8-0.9,1.6-1.4,2.4c-0.6,0.8-1.2,2-1.6,2.9
		c-0.7,1.4-1,2.4-1.5,4c-0.2,0.8-0.5,1.6-0.5,2.3c-0.1,0.3-0.1,0.3-0.1,0.5c0.1,0.5,0,0.7,0,0.9c0,0.1,0,0.1,0,0.1
		c0.1,0,0.1,0.1,0,0.1c0.2,0,0.3,0.2,0.5,0.1c1,0.2,1.6,2,1.4,2.9c-0.3,1.3-1.3,1.5-2.4,1.3c-3.9-0.9-3.6-6.5-2.5-9.5
		c1.5-5.1,3.9-9,6.4-13.1l-10.8-1.5l1.3-3.9c1.5,0,3,0,4.5,0.2c0.4,0,0.8,0.1,1.3,0.2c2.4-1.5,4.8-2.8,7.3-3.9
		c4.2-1.8,8.4-2.7,12.4-3c4.8-2.1,9.6-3.8,13.8-3.5c1.5,0.1,1.5,1.6,0.7,2.9c0.2,0.1,0.4,0.2,0.6,0.3c0.2,0.1,0.3,0.2,0.5,0.3
		c0.1,0,0.1,0,0.2,0c4.5,0.1,9.1,0.8,13.2,2c8.4,2.5,15.4,7.2,22.7,11.3c2.6,0.5,5.3,0.8,8,1.2c5.9,0.4,12.2,0.4,18,0.8
		c2.8,0.1,5.9,0.4,9,0.1c3.1,0,6.1-0.6,9.3-1s6.8-1.3,10-1.5c3.1-0.2,6.1-0.4,9.2-0.6c5.4-0.4,11.8-2.9,17.9-5.6
		c0.6-0.2,1.2-0.5,1.8-0.7c0.1-0.1,0.2-0.1,0.3-0.2c2.7-1.3,5.6-2.7,8.1-3.6c0.1,0,0.1,0,0.2-0.1c2.5-1.3,5.2-2.5,7.8-4.1
		c3-1.6,5.9-3.7,8.8-5.4c2.4-1.6,5.1-3.4,7.3-5.7c0.2-0.2,0.5-0.5,0.7-0.7c4.1-4.1,6.9-10.1,10.9-14.1c1.3-2.6,2.3-5.4,2.4-7.8
		c0-0.5,0.1-0.8,0-1.3c-0.6-1.3-1.3-2.3-1.2-3.1l-4.2,2.8c0.1-0.1,0.5-0.7,0.8-1.3c-0.3,0.4-0.6,0.8-0.8,1.3l0,0
		c-0.1,0.2-0.2,0.4-0.3,0.6c-2.7,4.3-6.3,8.9-9.6,12.9c-3.4,4.1-6.6,8.3-10.2,11.8c-5.6,5.8-11.9,10.5-17.9,11.6
		c-3.2,0.5-6,0.1-9-0.1c-3.2-0.5-6.2-1.2-8.6-2.4c-0.6-0.3-1.2-0.7-1.8-0.9c-0.5,0-0.8-0.1-1.3-0.2c-4.1-0.8-7.3-3.5-10.3-6.1
		c-2.2-2-4.2-4.3-4.5-8c-0.1-3.5,2.4-8,4.3-11.5c0.6-1.6,1.9-3.6,2.9-5.3c0.8-1.3,1.9-2.3,2.9-3.2c0.8-1,1.8-2.2,2.9-3.1
		c2.6-2.2,5.8-4.3,8.7-6c1.7-0.9,3.4-2.1,4.9-2.9l-23.5-6.5c-4.7,0.3-9.5,0.7-13.2-0.8c-2.4-0.8-4.1-2.7-7-3.6
		c-2.9-0.8-6.4-0.5-9.2-1.5c-2.8-0.9-5.2-2.2-8.2-2.9c-2.7-0.4-5.4-1.2-7.4-2.6c-3.8-2.4-9-2.9-13.8-4.1c-0.8,0.8-2.1,1.3-3.1,1
		c-0.5-0.2-0.8-0.4-1.4-0.5c-0.6,0.2-1.2,0.3-1.7,0.2c-2-0.8-4-1.4-5.9-2.3c-3.1-1.2-6.3-2.4-9.3-3.9c-2.9-0.3-5.9-0.8-8.2-1.7
		c-2.4-0.8-4.9-2.3-6.9-4.1c-1-0.8-2.2-1.6-3.1-2.4l-1.2,4.1c-0.7-0.3-1.5-0.6-2.2-0.9c-2.7-0.5-5.7-1.2-8.1-2.2
		c-2.5-0.9-5.4-2.4-8-4.2c-3.2-1.9-6.3-4.1-9.4-6.2c-0.1,0-0.2-0.1-0.3-0.1c-4.2-2.1-8.6-4.1-12.8-5.8c-16.5-7.3-33-14-49.5-21.9
		c-2.2-1-4.1-1.9-6.1-2.5c-0.7-0.3-1.4-0.5-2-0.7c2.4,1.6,4.6,3,5.7,4c0.8,0.6,1.3,0.8,0.8,0.8c0,0,0,0-0.1,0c0,0-0.2,0-0.5-0.1
		c-2.6-0.4-5.7-0.4-8.5-0.8c-0.7-0.1-1.4-0.2-2.1-0.3c3.2,2.3,5.1,3.8,2.3,2.6c-8.3-2.9-16.2-6.4-24.5-9.5
		c-8.7-3.6-17.1-6.7-25.3-10.1c-7.8-3.6-15-7.9-22.6-11.2c-2.2-1-4-1.7-6.1-2.7c-1.8-1.2-3.6-1.5-5.4-1.8c-1.7-0.1-3-0.7-4.7-1.5
		c-1.4-0.9-3-0.8-4.7-1.4c-54.6,67.2-35,183.5-31.6,202.8C54.9,321,58.6,322.6,61.2,324z M216,337.2c0.3-1.5,0.6-3.5,0.8-5.2
		c0.4-1.8,0.5-4,0.8-5.9c0.3-2.2,1.2-3.7,2.3-5.3s2.5-3,3.4-4.9c2.1-4.3,3.7-8.9,5.7-13.1c1.4-2,2.4-4,3.5-6.3
		c1-2.4,1.8-4.5,2.8-6.9c1.6-3.8,3.7-7.1,6-10.4c2.6-3.7,5.8-6.9,9.3-9.2l-3,8.3c-2.4,2.5-4.4,5.6-6.3,8.6
		c-2.3,3.7-3.8,7.5-5.6,11.6c-1.8,4.5-4.4,8.3-6.2,12.7c-0.8,2.4-1.6,4.4-2.7,6.6c-0.7,2.1-2,3.9-3.2,5.3c-1,1.5-2.1,2.4-2.3,4.1
		c-0.4,1.8-0.5,4-0.8,5.9c-0.3,3.7-1,6.7-1.2,10.3c-0.2,2.8-0.3,6,0.3,9c0.1,0,0.2,0.1,0.4,0.1c1,0.2,1.6,2,1.4,2.9
		c-0.3,1.3-1.3,1.5-2.4,1.3c-0.4,0.1-0.8,0-1.3-0.2c-0.5-0.4-1-1.2-1.3-1.8c-0.5-1.8-0.7-3.7-0.8-5.6
		C215.3,345.2,215.4,341.3,216,337.2z"/>
	<path class="st6" d="M157.5,400.4c-3.9-2.9-7.7-5.9-11.5-8.7c-5.9-4.4-12.2-8.6-18.2-12.8c-5.7-4.1-11.4-8.1-17-12.8
		c-4.5-3-9-6.1-13.7-8.9l62.3,45.6C158.8,402.1,158.2,401.2,157.5,400.4C157.6,400.5,157.6,400.4,157.5,400.4z"/>
	<path class="st6" d="M432.4,377.7c0.7-0.4,1.8-0.4,2.5-0.6c0.8,0,2.2,0.4,2.9,0c0.7-0.4,1.4-1,2.1-1.7c1.8-1.2,4.2-1.6,6.2-1.8
		c0.6,0,1.2-0.1,1.8-0.1c2.4-1.5,4.9-2.8,7.3-4.1c2.3-1,4.1-2.2,6.1-3.1c1.7-0.7,3.5-1,5.2-1.6c0.3-0.1,0.6-0.2,0.8-0.3
		c-0.3-0.5-0.5-1.2-0.5-1.9c0,0-0.1-0.8,0-0.3c-0.1-0.5-0.2-0.8-0.3-1.4c-0.3-0.4-0.3-0.4-0.4-0.8c-0.1-0.5-0.2-0.8-0.5-1.3
		c-0.8-2.2-1.7-4.1-2.8-5.6c-0.4-0.6-0.9-1.4-1.6-2c-0.1-0.2-0.6-0.6-0.1-0.2l-0.3-0.2c-0.3-0.2-0.5-0.4-0.3-0.2
		c-0.2,0-0.3-0.2-0.5-0.1c-1.5-0.8-3.6-0.8-5.4-0.8c-1.7-0.1-3.6,0.2-5.2-0.1c-2.4-0.1-4.4-0.3-6.7-0.2c-2.3,0.3-4.6,0.7-6.9,0.9
		c-1.8,0.4-3.6,0.8-5.1,2c-2.4,1.8-3.8,5.2-4.1,8.9c-0.2,2.4,0,5-0.2,7.3c-0.1,1.5-0.1,3.1,0.1,4.5c0.1,0.5,0.2,0.8,0.3,1.4
		c0,0,0.1,0.2,0.1,0.5c-0.3-0.4,0.1,0.2,0.1,0.2c0,0.1,0,0.2,0,0.2s0,0,0,0.1c0,0.2,0.2,0.2,0.2,0.3c0.1,0.1,0.3,0.3,0.3,0.3
		c0.3,0.2,0.3,0.2,0.5,0.4c0.8,0.8,1.6,1.3,2.4,1.5C431.4,377.9,431.6,377.9,432.4,377.7z"/>
	<path class="st6" d="M363,351.2c-0.5,0.3-0.9,0.6-1.4,0.8c0.5-0.2,0.9-0.4,1.5-0.7c1.3-0.7,2.5-1.5,4-2.3
		C365.7,349.8,364.3,350.5,363,351.2z"/>
	<path class="st6" d="M411.8,409.2c0,0.5,0,1,0,1.6c0.3-1.5,0.6-2.7,0.8-4.1c-0.3,0.2-0.7,0.5-0.9,0.7
		C411.7,407.9,411.8,408.6,411.8,409.2z"/>
	<path class="st6" d="M251.8,307.4L251.8,307.4L251.8,307.4L251.8,307.4L251.8,307.4z"/>
	<path class="st6" d="M251.8,307.4L251.8,307.4L251.8,307.4z"/>
	<path class="st6" d="M434.1,385.9c-2.8,0.9-5.7,2.1-8,4c-1.5,0.8-2.7,2.1-4,3C426,390.5,430,388.2,434.1,385.9z"/>
	<path class="st7" d="M251.8,307.6L251.8,307.6L251.8,307.6L251.8,307.6L251.8,307.6L251.8,307.6l0.1,0.2
		C251.8,307.7,251.8,307.6,251.8,307.6L251.8,307.6z"/>
	<path class="st7" d="M480.6,354.1c-0.6-4-2.6-7.2-5.2-9.8c-2-2.3-4.1-4-6.4-5.6l0,0c-2.9-3.4-6.3-5.8-9.7-8.1
		c-0.8-0.5-1.7-0.8-2.4-1.3c-2.8-2.2-6-4.2-9.2-5.3c-4.3-1.6-9-2-13.5-1.2c-2.6,0.4-5,0.9-7.5,1.4c-2.4,0.4-4.9,0.5-7.3,0.8
		c-4.7,0.2-9.2,1.4-13.6,3.1c-4.1,1.8-8.3,4.4-12.3,6.7c-1.3,0.8-2.5,1.6-4,2.4c-1.2,0.6-2.4,1-3.8,1.4c-2,0.5-3.7,1.2-5.6,2.1
		c-0.2,0.1-0.4,0.2-0.6,0.3c-1.4-0.6-2.5-1-4.1-1.8l-0.1-0.1c-1.5-0.7-2.9-2.1-4.3-3.1c-0.1-0.1-0.2-0.2-0.3-0.3
		c-6.8-6.4-12.4-14.5-19.4-20.7c-6.5-5.7-13.6-9-20.5-13c-0.1,0-0.1,0-0.2,0c-2.8,0.8-9.2-2.8-16.3-7.2c1.5,0.3,2.8,0.5,4.3,0.8
		c4.4,2.4,9.1,4.6,14.1,6c3.2,0.8,6.6,1.5,10.3,1.7c1.6-0.1,3.1-1.7,3.8-3.1c0.4-1,0.3-2-0.6-2.3c0.8,0,1.5,0.1,2.3,0.1
		c3.1,0,6.2,0.3,9.3,0.1c5.6-0.6,11.3-2,16.9-2.7c0.8-0.1,1.8-0.3,2.6-0.4c2.2-0.2,4.3-0.4,6.4-0.6c-0.1,1,0.5,2.1,1.7,1.8l11.3-0.4
		l15.4-2.9c2.4-1.2,5.2-2.6,7.9-4.6c2.2-1.8,4.3-3.9,6.4-5.7c4.5-3.7,9-6.4,13.5-10.1c4.4-3.5,8.6-7.3,12.2-11.9
		c2.4-3.4,4.7-6.5,6.6-10.2c4.1-6.5,7.2-14.5,5-19.2c-0.9-2.7-3.9-4.1-6.7-3.9c-1,0.1-2.2,0.5-3.2,0.9c-0.8-0.4-1.7-0.7-2.5-0.9
		c-2.5-0.4-4.9-0.4-7.4-0.8c-1.4,0-2.4-0.8-3.6-1.3c-1.6-0.5-3.1-0.9-4.7-1.2c-2.8-0.5-5.7-0.8-8.9-0.7c-1.3-0.4-2.5-0.7-3.9-1.2
		c-5.3-1.7-10.6-3.5-16.2-5c-5.6-1.5-11.3-2.7-17.6-3.5c-11.8-1.7-23.7-2.8-34.7-6.2c-5.3-2-10.6-3.7-16.1-5.3
		c-5.7-1.7-11-2.8-17-4.1c-2.9-0.8-5.4-1.5-8.1-2.3c-0.8-0.1-1.9,0.1-2.7,0.8c-0.5-0.2-1-0.3-1.7-0.5c-1.5-0.4-3.1-0.8-4.8-0.9
		c-3.2-1.4-6.5-2.8-9.6-4.4c-5.2-2.4-10.2-5.4-15.2-8.1l-0.3,0.8l-1.8,5.6l-0.1,0.3c0.4,0.3,0.7,0.6,1,0.8c-3-1.4-6.1-2.7-9-4.1
		c-6.7-3-13.4-6.8-20.1-10.1c-3.7-2.5-7.3-5.1-11.5-6.8c-5.8-2.4-11.7-4.2-17.3-6.6c-5.9-2.5-11.5-5.2-16.9-8.9
		c-0.1-0.1-0.1-0.1-0.2-0.2c-2.3-1.8-4.2-3.8-6.7-5c-1.2-0.4-2.4-0.8-3.8-0.7c-1.5-0.1-2.7-0.9-4.1-1.9c-2.6-1.5-5.3-2.9-7.7-4.7
		c-2.4-2.3-5-2.5-7.7-3.9c-2.8-1.2-5.6-3.7-8.3-4.6c-3-1.2-6.1-0.8-9-1.3c-1.2-0.2,4.5,3.1,11.3,7c-0.4-0.1-0.8-0.1-1.3-0.2
		c-0.5-0.3-0.9-0.5-1.5-0.7c-1.5-0.6-3-0.7-4.6-0.8c-1.5,0-2.9,0-4.4-0.3c-0.7-0.1,1.6,1.3,5.1,3.4c0,0.8,0.2,1.7,0.8,2.2
		c0,0.2,0,0.4,0,0.6c0,0.7,1.3,1.8,2.3,1.4c0.4-0.1,0.5-0.4,0.8-0.5c0.4-0.3,0.7-0.5,0.9-0.8c3,1.8,6.4,3.7,9.5,5.4v0.1
		c-0.3-0.2,0.1,0.2,0.3,0.2c0.1,0.1,0.2,0.2,0.3,0.2c-0.5-0.1-0.9-0.2-1.5-0.3c-3.8-1.4-7.5-2.5-11-3.9c-1.8-0.7-1.7-0.3-0.5,0.6
		c-0.9-0.4-2-0.8-2.9-1.2c-6-2.3-11.8-5.4-17.4-8.8c-5.7-3.4-11.5-6.6-17.4-10.2c-1.7-0.9-3.2-2.2-4.9-3.2
		c-3.5-2.4-6.9-4.7-10.6-6.2c-2.4-0.9-4.6-1.7-7-2.3c-0.2-0.1-0.4-0.2-0.5-0.4c-0.4-0.2-0.8-0.5-1.2-0.7c-0.3-0.6-0.8-0.9-1.6-1
		c-0.4-0.1-0.8-0.2-1.2-0.3c-0.8-0.4-1.6-0.7-2.4-0.9c-1.8-0.8-3.7-1.6-5.6-1.7c0,0.3,0,0.6,0.1,0.8c-0.6,0.2-0.9,0.7-1.2,1.4
		c-2-0.4-3.9-0.7-5.9-0.9c0,0.3,0,0.6,0.1,0.8c-1.6,0.3-1.7,3-0.4,4.1c-0.7,1.2-0.5,3.1,1,3.7c0.2,0.1,0.3,0.1,0.5,0.2
		c1.7,0.5,3.4,0.4,4.7,1.4c1.7,0.8,3,1.4,4.7,1.5c2,0.2,3.7,0.5,5.4,1.8c2.2,1,4,1.7,6.1,2.7c7.7,3.4,14.9,7.7,22.6,11.2
		c8.2,3.5,16.7,6.5,25.3,10.1c8.3,3.1,16.2,6.6,24.5,9.5c2.8,1,1-0.4-2.3-2.6c0.7,0.1,1.4,0.2,2.1,0.3c2.8,0.4,5.8,0.4,8.5,0.8
		c0.3,0.1,0.4,0.1,0.5,0.1c0,0,0,0,0.1,0c0.4,0.1,0-0.3-0.8-0.8c-1-0.8-3.4-2.4-5.7-4c-0.7-0.2-1.4-0.5-2.1-0.7
		c-0.3-0.1-0.5-0.3-0.8-0.4c0.3,0,0.6-0.1,0.8-0.2l0,0c0.7,0.5,1.4,0.8,2.1,1.4c0.7,0.2,1.3,0.4,2,0.7c2.1,0.7,4,1.4,6.1,2.5
		c16.3,7.8,32.9,14.6,49.5,21.9c4.2,1.8,8.5,3.9,12.8,5.8c0.1,0,0.2,0.1,0.3,0.1c3.1,2.2,6.2,4.3,9.4,6.2c2.5,1.8,5.4,3.1,8,4.2
		c2.4,0.9,5.3,1.7,8.1,2.2c0.7,0.3,1.5,0.7,2.2,0.9l1.4-4c0.9,0.8,2.1,1.7,3.1,2.4c2,1.8,4.5,3.1,6.9,4.1c2.4,0.8,5.2,1.4,8.2,1.7
		c3,1.4,6.2,2.6,9.3,3.9c2,0.8,4,1.4,5.9,2.3c0.6,0.1,1.2,0,1.7-0.2c0.5,0.2,0.8,0.4,1.4,0.5c1,0.2,2.2-0.3,3.1-1
		c4.8,1,10.2,1.7,13.8,4.1c2.1,1.5,4.7,2.4,7.4,2.6c2.9,0.8,5.3,2,8.2,2.9c2.8,0.9,6.3,0.7,9.2,1.5c2.9,0.8,4.6,2.5,7,3.6
		c3.7,1.6,8.5,1.2,13.2,0.8l23.2,6.6c-1.6,0.8-3.1,2-4.9,2.9c-2.8,1.8-6,3.9-8.7,6c-1.2,0.9-2.1,2.1-2.9,3.1c-1,0.8-2.2,2-2.9,3.2
		c-1.2,1.8-2.4,3.8-2.9,5.3c-1.9,3.6-4.4,8.1-4.3,11.5c0.3,3.7,2.4,6.1,4.5,8c2.9,2.6,6.1,5.2,10.3,6.1c0.4,0.1,0.8,0.2,1.3,0.2
		c0.6,0.4,1.2,0.7,1.8,0.9c2.4,1.2,5.3,2,8.6,2.4c3,0.3,5.8,0.6,9,0.1c6-1,12.4-5.7,17.9-11.6c3.6-3.7,6.7-7.8,10.2-11.8
		c3.4-4.1,6.9-8.6,9.6-12.9c0.1-0.2,0.2-0.4,0.3-0.6l0,0c0.5-0.8,0.6-1.8,0.2-2.3c0.6-0.7,1.3-1.4,1.9-2c0,0,0-0.1,0.1-0.1
		c0.7,0.3,1.3,0.7,1.8,1.2c0.8,0.8,1.3,2.1,1.4,3.5c0,0.4,0,0.8,0,1.3c-0.2,2.4-1.2,5.1-2.4,7.8c-2.6,5.2-6.8,10.3-10.9,14.1
		c0,0,0,0,0-0.1c-0.2,0.2-0.4,0.5-0.7,0.7c-2.3,2.3-5.1,4.1-7.3,5.7c-2.8,1.8-5.7,3.8-8.8,5.4c-2.5,1.6-5.2,2.9-7.8,4.1
		c-0.1,0-0.1,0-0.2,0.1c-2.5,0.8-5.3,2.3-8.1,3.6c-0.1,0.1-0.2,0.1-0.3,0.2c-0.6,0.2-1.2,0.5-1.8,0.7c-6.1,2.4-12.5,5.1-17.9,5.6
		c-3.1,0.2-6.1,0.4-9.2,0.6c-3.1,0.2-6.7,1-10,1.5c-3.3,0.5-6.3,1.2-9.3,1c-3.1,0.2-6.2,0-9-0.1c-5.9-0.4-12.2-0.4-18-0.8
		c-2.6-0.3-5.3-0.7-8-1.2c-7.3-4.1-14.4-8.8-22.7-11.3c-4.1-1.2-8.7-1.9-13.2-2c-0.1,0-0.1,0-0.2,0c-0.2-0.1-0.3-0.2-0.5-0.3
		c-0.2-0.1-0.4-0.2-0.6-0.3c0.8-1.4,0.8-2.9-0.7-2.9c-4.1-0.3-9,1.5-13.8,3.5c-4.1,0.3-8.3,1.3-12.4,3c-2.4,0.9-4.9,2.4-7.3,3.9
		c-0.4-0.1-0.8-0.1-1.3-0.2c-1.5-0.2-3-0.2-4.5-0.2l-1.3,3.9l10.8,1.5c-2.5,4.1-4.9,8-6.4,13.1c-0.8,3-1.2,8.7,2.5,9.5
		c1,0.2,2.1,0,2.4-1.3c0.2-0.9-0.3-2.7-1.4-2.9c-0.2,0-0.3-0.2-0.5-0.1c0.2,0,0.1,0.5,0.1,0.2c-0.3-0.4-0.1-0.2,0,0
		c0-0.1,0-0.1,0-0.2l0,0l0,0l0,0l0,0l0,0c0.1,0,0-0.1,0-0.1v0.1V307l0,0l0,0l0,0l0,0l0,0V307c-0.1-0.2,0.1-0.5,0-0.9
		c-0.1-0.2-0.1-0.2,0.1-0.5c0-0.7,0.3-1.5,0.5-2.3c0.5-1.6,0.8-2.5,1.5-4c0.4-1,0.8-2.2,1.6-2.9c0.4-0.8,0.8-1.6,1.4-2.4
		c-0.6,2.4-1.2,4.7-1.6,7.2c-0.8,5.2-1.6,11.1-1.9,16.7c-0.1,4.7-0.1,12.2,5,13.5c0.3,0.1,0.6,0,0.8-0.1c2.4,2.2,5.4,3.2,8.2,5
		c4,2.4,7.9,4.9,12,7.2c4.1,2.3,8.3,4.8,12.6,7.1c3.9,1.9,8.2,2.6,11.8,5.7c1.8,1.2,3.2,2.7,4.9,3.8c1.7,1,3.7,2,5.6,2.8
		c0.2,0.1,0.5,0.2,0.7,0.3c2.6,1.7,5.3,3.2,7.9,4.7c7.3,4.1,16.8,9.1,22.9,1.4c2.5-3.2,4.5-6.9,7.2-9.8c0.2-0.2,0.3-0.3,0.5-0.5
		c2.2-0.7,4.4-1.2,6.6-2c4.1-1.5,8-3.5,11.3-5.7c2.5-1.7,5.1-3.2,7.9-4.9c0.4,0.2,0.7,0.3,1,0.5c1.9,0.9,3.5,1.3,5.4,1.8
		c1.8,0.5,3.1,1.9,4.9,2.4c1,0.2,2.1,0,2.4-1.3c0.4-0.8,0-2.5-1.2-3c-2.1-0.7-3.7-2-5.6-2.6c-0.5-0.1-0.9-0.3-1.5-0.4
		c0.9-0.3,1.9-0.4,2.8-0.7c2-0.5,3.8-1.7,5.7-2.8c1.9-0.9,3.5-2.1,5.4-2.5s4.1-0.9,6-1.8c1.9-0.7,3.6-1.9,5.2-2.4
		c1.9-0.9,3.7-1.4,5.7-1.7c4.1-0.9,8.6-1.7,12.9-1.8c4.3-0.1,8.8,0.8,13.2,0.9c4.1,0.4,8.2,0.5,12.4,1.9c2.4,1.9,4.6,4,6.9,5.7
		c2.7,2.1,5.8,3.9,8.5,6.2c0.9,1.3,2,2.5,2.8,4.1c1.2,1.4,1.8,2.8,1.8,4.7c0.1,1.9-0.1,3.7-0.7,4.9c-0.7,1.6-1.5,2.7-2.4,3.8
		c-0.4-3.2-2.1-6.5-3.5-8.9c-0.8-1.7-1.9-3.4-3-4.7c-1.3-1.6-3-2.4-4.7-2.4c-2.2-0.4-4.1-0.4-6.2-0.4s-4.1-0.2-6-0.4
		c-2.7-0.3-5.4-0.1-8.1,0.1c-2.6,0.2-5.3,0.6-7.8,1.7c-3.6,1.6-6.2,5.1-7.4,9.4c-0.7,2.3-0.8,4.4-0.9,6.9c-0.1,3.1-0.5,6.3-0.2,9.3
		c0.2,2.4,0.7,4.5,2.2,6.3c0.9,1.2,2.4,2.3,3.9,2.9c-2.1,0.8-4.1,1.9-5.9,3.2c-1.2,0.9-2.5,2.3-3.8,3.4c-1.5,0.8-3,1.3-4.5,1.9
		c-1.9,0.7-3.5,2.3-5.2,3.5c-2,1.2-3.9,2.8-5.9,4.1c-3.6,2.5-7.4,4.4-10.7,7.3c-1.6,1.4-3,2.8-4.6,4.1c-1.6,1.4-3.4,2.4-5,3.4
		c-3.9,2.4-7.3,5.1-10.9,8c-0.8,0.7-1.9,1.5-2.7,2.3c-1.4,0.4-2.6,0.8-4.1,1.4c-4.2,1.3-8.4,3.6-12.2,6.1c-1.9,0.9-3.7,2.4-5.7,2.8
		c-2.1,0.8-4.4,1.4-6.6,2.2c-2,0.5-4.1,0.9-6.2,1c-1.8,0.1-3.6,0-5.3-0.2c-0.3-0.1-0.6-0.3-0.8-0.4c-2.2-1-4-2.4-6.2-3.1
		c-2.2-1-4.1-1.6-6.3-2.6c-2.2-1-4.1-2.5-6.2-4c-2.1-1.6-4.2-2.7-6.3-4.1c-3-2-6.3-4.1-9.4-6.2c-1.3-1.2-2.5-2.4-3.9-3.6
		c-3.8-3.4-7.8-5.9-11.6-8.8c-3.9-2.8-7.5-6-10.7-9.6c-5.9-6.9-12.3-13.3-20.3-16c-4.1-1.4-8.3-1.5-12.5-1.6c-1.4,0-2.6,0-4-0.3
		c-2-0.8-3.9-1.7-5.7-2.6c-0.3-0.3-0.6-0.6-0.8-0.8c-2.4-3.1-4.5-6.2-7.4-8.4c-1.4-0.6-2.8,0.9-2.4,2.7c2.5,7.9,9.5,11.6,15.8,13.8
		c3,1.2,6.4,2.2,9.4,3.4c2.4,0.8,5,1.9,7.4,2.4c0.9,0.4,1.9,0.7,2.8,1c0.2,0.1,0.3,0.3,0.5,0.4c1.7,1.5,3.7,2.2,5.6,3.7
		c3.7,2.8,7.1,6.6,10.7,9.6c4,3,7.7,6.4,11.5,9.4c4.1,3,8.4,5.8,12.6,8.5c0.9,0.7,1.9,1.3,2.8,2c2.9,2.5,5.9,5,8.9,7.4
		c4,3.2,8.2,6.8,12.7,9.1c3.6,1.9,7.3,2.4,11,2.8c0.7,0.4,1.3,0.7,2.1,0.9c4,1.7,8.3,2,12.3,1.5s8-1.8,11.4-3.6
		c3.5-1.8,6.9-4.3,10.2-6.3c1.9-0.9,3.7-2.1,5.7-3.4c0.8-0.5,1.6-1,2.4-1.7c3.6-1,7.2-2.2,10.5-3.5c4.4-1.6,8.8-4.3,13-6.6
		c3.5-1.9,7.1-4.1,10.5-6.4c0,1.9,0.1,3.8,0.1,5.7c0.2,4.9-0.2,9.3-0.9,14.3c-0.3,1.4-0.5,2.7-0.7,4.1c-1.2,1.4-2.2,3-2.8,5.1
		c-0.8,2.4-1.7,4.2-2.7,6.6c-1.8,4.5-4.1,8.4-6,12.9c-1.5,4-3.2,8-5.3,11.5c-1.7,2.7-3.5,5.4-5.4,7.8c-1.4,1.7-2.9,3.1-4.6,4.4
		c-0.3,0.1-0.7,0.2-1,0.3c-0.8,0.2-1.8,0.4-2.6,0.4c-6.9,0.8-13.7-0.4-20.6-1.7c-2.8-0.5-5.6-0.8-8.4-1.6c-1.7-1.3-3.5-2.5-5.1-3.9
		c-3.9-2.6-7.7-4.7-11.5-6.9c-3.9-1.9-7.7-3.9-11.7-5.9c-2-1.2-3.7-2-5.4-3.4c-2.1-1.4-3.7-2.6-5.7-4.1c-1.4-0.8-2.7-1.7-4.1-2.4
		c-2.9-2-5.9-4-8.9-6.2c-7.3-5.3-14.6-10.6-21.9-15.8c-2.4-2.6-4.8-5.6-7.3-8.2c-3.1-3.2-6.4-6.2-10.1-8.2c-1.9-0.9-3.6-1.5-5.4-2.4
		c-1.9-0.9-3.5-1-5.4-1.8c-1.8-0.5-3.1-1.9-4.9-2.1c-1-0.2-2.1,0-2.4,1.3c-0.1,2.2,0.7,3.7,1.4,4c2.1,0.7,3.7,2,5.7,2.4
		c0.8,0.3,1.8,0.5,2.6,0.5c0.8,0.3,1.9,0.7,2.6,1.3c0.4,0.2,0.8,0.4,1.3,0.6c-0.1,0.5,0,0.9,0.1,1.5c1.2,3,4.1,4.7,6.7,5.9
		c1.2,0.4,2.4,1,3.4,1.6c1.5,0.8,2.6,2.2,4.1,3.6c2.1,2.2,4.5,4,6.9,5.7c2.4,2.6,4.8,5.2,7.3,7.3c6.9,5.8,14.7,9.2,22.3,13.7
		c2.4,1.5,4.6,3,7,4.9c1.6,1.3,3,2.8,4.5,4.1c1.8,1.2,3.5,2.3,5.7,3.1c3.6,1.5,6.9,4.1,10.4,6.2c5.7,4,11.7,7.4,17.9,9
		c0.5,0.4,0.9,0.7,1.5,0.9c4,2.4,8,3.5,12.6,4.2c1.2,0.2,2.4,0.3,3.7,0.4c0.8,0,1.9,0.1,2.6,0.2c-0.6,0.9-1.2,1.9-1.8,2.8
		c-0.2,0.3-0.4,0.6-0.6,0.8c-0.7,1.3-1.2,2.5-1.7,3.9c-1.2,0.8-2.4,1.6-3.4,2.4c-2.3,1.8-4.7,3.6-7.4,4.2c-2.9,0.7-6.3,0.6-9.4,0.5
		c-3.6-0.1-6.9-0.4-10.4-0.8c-2.9-0.4-5.9-0.8-8.9-1.6c-0.3-0.1-0.5-0.1-0.8-0.2c-1.8-0.7-3.7-1.5-5.4-2.3c-1.9-0.8-3.8-1.7-5.6-2.4
		c-2.6-1.2-5.2-2.4-7.9-3.6c-6.6-3.6-12.7-7.3-19.1-11.4c-3-2.1-6.1-4.2-9.2-6c-3.1-1.9-6.2-3.1-9.1-5.8c-2.6-2.4-5.3-4.4-8.4-6
		c-3.1-1.6-6.1-2.7-9.1-4c-2.4-0.7-4.7-1.4-7.1-2c-0.7-0.2-1.4-0.3-2.1-0.5c-0.8-0.2-1.8-0.5-2.6-0.7c-2.5-1.8-5-3.6-7.4-5.3
		c-1.4-1.3-2.6-2.6-4-4.1c0.6,0.3,1.3,0.7,2,0.9c7.5,3.9,17.4,8.9,13.8,6.6c-6.2-4-12-8-17.7-12.4c-5.6-4.5-11.2-9-16.7-13.8
		c-5.3-4.6-10.9-9.6-16.7-13.7c-5.9-4.4-12-8.7-17.8-13.4c-2.8-2.2-5.7-4.3-8.5-6.5c-0.9-1.4-2.1-2.7-3.4-4.1
		c-2.5-2.6-5.1-4.6-7.7-7.1c-2.5-2.6-5.2-4.9-8.2-6.8c-2.9-1.9-6.1-3.5-9.2-5.3c-7.9-4.5-15.4-9.7-23.1-15
		c-3.5-2.8-6.8-5.7-10.3-8.4c-2.6-2.2-5.6-4.3-8.5-6.2c-2.8-2.2-5.3-4.4-8.3-6.5c-2.7-2-5.7-3.6-8.5-5.2c-2.4-1.7-4.9-3.8-7.3-5.2
		c-1.8-2.3-4.4-3.8-6.6-4.9c-2.5-1.4-6.2-3-9.1-2.3c-0.5,0.1-0.8,0.3-1.4,0.6c-1.3,0.8-1.4,2.9,0,4.1c2.4,2.4,5.8,2.4,8.1,5.3
		c2.3,3,5,4.9,7.9,7.1c5.8,4.7,11.9,8.2,18.3,11.3c4.1,2.1,8.2,4.4,12.2,7c4.6,2.8,9.1,5.9,13.7,8.9c5.7,4.7,11.4,8.8,17,12.8
		c6.1,4.2,12.3,8.4,18.2,12.8c4,2.8,7.8,5.7,11.5,8.7c0,0,0,0,0,0.1c0.6,0.8,1.2,1.6,1.8,2.4c1.4,2,2.7,3.9,4.2,5.7
		c2.3,3,4.8,5,7.5,6.9c5.9,4.4,12.3,7.5,18.4,11.6c6.1,4.4,12.2,9,17.9,14c4.1,3.5,7.5,7.7,11.2,11.7c6.1,3.1,12.3,6.1,11.9,5.3
		c0.8,0.6,1.7,1.2,2.4,1.8c-2-0.8-4-1.7-5.8-2.5c-2.6-1.3-5.3-2.5-8-3.9l0.1,0.1c-5.1-2.5-8.9-4.4-6.5-2.8c3.7,2.4,7.2,4.8,10.6,7.3
		c2.4,2.4,5,4.5,7.8,6.4c0.7,0.3,1.4,0.5,2.2,0.7c4.7,3.2,9.6,5.8,14.5,8.7c6.3,3.7,12.2,7.4,18.4,11.1c10.9,6.4,22,11.2,33.1,16.1
		c5.2,2.8,10.5,5.7,15.8,7.3c0.3,0.1,0.6,0.2,0.8,0.2c2.4,0.9,4.7,1.9,7.1,2.5c5.9,1.9,12,2.3,18,3.4c5.6,0.9,11.7,1.8,16.8-1.8
		c3.2-2.4,4.7-6.5,6.4-10.5c0.5-0.5,1-0.9,1.6-1.6c1-0.9,2.1-2.3,2.7-3.7c0.1,0,0.3-0.1,0.4-0.2c0.3-0.3,0.8-0.7,1.2-0.9
		c-0.3-0.3-0.6-0.5-0.8-0.8c0.1-0.2,0.2-0.5,0.2-0.7c0-0.4,0-0.8-0.1-1.3c0.3,0,0.6,0,0.8-0.1c3.6-0.7,6.7-2.4,9.5-4.7
		c2.6-1.2,5-2.7,7.3-4.9c4.6-4.7,7.8-11.4,10.4-18c1.5-4,3.2-7.7,4.5-11.8c1.4-3.7,2.4-7.5,3.1-11.7c0.8-1.5,1.9-2.4,2.8-3.9
		c1-1.7,1.9-3.4,2.1-5.2c0.3-2,0.4-4.1,0.8-5.9c0.2-1.7,0.5-3.8,0.6-5.1c0.4-3.7,0.5-7,0.5-10.7c0-0.5,0-0.9,0-1.6
		c0-0.6-0.1-1.2-0.1-1.8c0.3-0.2,0.7-0.5,0.9-0.7c2.2-1.6,4.3-3.2,6.5-4.8c4.1-2.9,8-5.7,12.5-7.9c4.1-2.2,8.5-4.7,12.4-7.2
		c4-2.4,8-5.1,12.4-6.4c4.2-1.3,9.4-1.4,13.5-3.9c1.9-0.9,3.7-2.8,5.2-4.4c1.3-1.5,2.9-3.4,4-5C481.2,363.6,481.2,358.6,480.6,354.1
		z M457.5,240C457.5,239.9,457.5,240,457.5,240L457.5,240z M442.7,239.5c-1.4,1.8-3.7,4.1-5.2,6.4c-1.5,2-2.8,4.2-4.3,6.3
		c-1.7,2.1-3.5,4.1-5.2,6c-1.6,1.8-3.4,3.6-5,5.2c-1,0.8-2.2,1.5-3.2,2.2c-2,1.3-4.3,2.8-6.2,3.7c-1.3,0.5-2.6,0.7-4.1,0.8
		c-0.5,0-0.9,0-1.5,0c-1.9-0.1-3.7-0.3-5.4-0.5c-0.8-0.5-1.7-1.4-2.6-1.8c-1.4-0.8-3.2-0.5-4.9-0.5c-0.7-0.4-1.4-0.8-2.2-1.2
		c-1.7-1.2-2.7-2.4-4.3-3.9c-2.4-2.1-5.1-4.3-6-7.8c-0.3-1.6-0.1-3.5,0.8-5.7c0.3-1.3,1.4-2.7,1.7-4.1c0.3-0.6,0.5-1.3,0.8-2
		c0.8-1,2.2-1.9,3.5-2.5c1.8-1.5,4-2.4,5.9-3.4c2.4-1.2,4.9-2.4,7.3-3.4c1.4-0.6,1.6-0.7,2.6-0.9s1.9-0.8,2.8-0.8
		c1.2-0.5,2.4-0.9,3.7-1.6c0.8-0.4,1.5-0.8,2.2-1.5c0.1-0.1,0.3-0.3,0.4-0.4c1.4,0,2.6,0.1,4,0.1c7.2,2.3,14.5,4.3,22.4,5.7
		c1.4,0.2,2.8,0.3,4.3,0.5c0.5,0.1,0.8,0.1,1.4,0.2c-1.2,1.5-2.4,2.8-3.2,4.1C442.9,239.2,442.8,239.3,442.7,239.5z M398.7,223.5
		c0.6,0,1.2,0,1.9-0.1c1.2,0.3,2.3,0.6,3.5,0.8c0.2,0.2,0.3,0.5,0.3,0.8c0,0.2,0.1,0.3,0.2,0.4c-0.5,0.1-1,0.4-1.6,0.6
		c-0.7-0.1-1.4-0.2-2.1-0.2c-1.3-0.4-2.5-0.8-3.8-1.3c-3.9-1.4-7.5-2.6-11.5-4.1c2.4,0.2,4.3,0.8,6.3,1.7
		C394,223.2,396.1,223.6,398.7,223.5z M180.1,146.6c-0.1-0.1-0.1-0.1-0.2-0.2s-0.3-0.2-0.4-0.2c-1-0.6-2.3-1.3-3.5-2
		c-0.2-0.2-0.5-0.4-0.7-0.6c0.4,0.1,0.7,0.3,0.9,0.4c1.2,0.3,2.2,1.5,3.1,2.2C179.7,146.5,180,146.5,180.1,146.6
		C180.3,146.7,180.2,146.6,180.1,146.6z M111.6,124.9c-2-1.2-3.9-1.9-5.9-2.7c-2.1-0.8-4-1.4-5.9-2.5c-0.6-0.3-1.2-0.5-1.8-0.8
		c0.1,0,0.3,0,0.4,0.1c1,0.2,2.2,0.5,3.1,0.7c0.5,0.1,0.8,0.2,1.4,0.4c2.1,1.6,4.2,2.9,6.6,3.5c0.1,0.1,0.2,0.2,0.4,0.3
		c0-0.1,0-0.1,0-0.2c0.2,0,0.4,0.1,0.6,0.1c0.4,0,0.8-0.1,1-0.3c1.7,0.8,3.4,1.9,5,3c2.4,1.7,4.7,3.2,7.1,4.7
		c-0.3-0.2-0.7-0.3-0.9-0.5C119.2,128.5,115.4,126.6,111.6,124.9z M449.1,257.3c-1.7,2.3-3.2,4.4-4.9,6.3c-3.1,3.4-6.7,6.2-10.4,8.9
		c0.3-0.3,0.5-0.6,0.8-0.8c0.1-0.2,0.3-0.3,0.4-0.5C440.3,267.2,445,262.7,449.1,257.3z M251.8,307.4L251.8,307.4L251.8,307.4
		L251.8,307.4z M251.8,307.4L251.8,307.4L251.8,307.4C251.7,307.4,251.7,307.3,251.8,307.4z M76,339.4c2.4,1.6,4.7,3,7,4.6
		c-1.9-0.9-3.8-2-5.6-3c-2.7-1.8-5.7-4.1-8.6-6.1c0.1-0.1,0.1-0.1,0.2-0.2C71.4,336.2,73.7,337.9,76,339.4z M466.1,371.9
		c0.5-0.3,0.9-0.6,1.5-0.8c-0.6,0.4-1.2,0.8-1.8,0.9C465.9,371.9,466,371.9,466.1,371.9z M441.2,326.2c0.6,0.1,1.2,0.2,1.8,0.3
		c-2.1-0.2-4.1-0.4-6.1-0.6C438.3,325.9,439.8,326,441.2,326.2z M282.1,340.9c-4.1-2.3-8.3-4.8-12.3-7.5c-2-1.2-3.5-2-5.4-3.1
		c-1.7-0.8-3.1-1.9-4.6-3.4c-0.6-1-1.5-1.3-2.1-0.8c0-0.2-0.1-0.3-0.1-0.5c-0.1-0.5-0.2-0.8-0.3-1.4c0-0.1,0-0.1,0-0.2l0,0
		c-0.1-0.2-0.2-0.7,0-0.9c-0.1-1.2,0-2.4-0.1-3.6c-0.1-5.2,0.8-9.7,1.6-14.7c0.2-1,0.3-2.2,0.5-3.2c0.8-0.1,1.7-0.7,1.7-2.1
		c0.1-1.5,0.1-3,0.4-4.4c0.5-1.6,1.2-3.1,1.9-4.6l1.8,0.2c-0.4-0.4-0.8-0.8-1.3-1.2c0.3-0.5,0.5-1,0.7-1.6c0.3-0.8,0.5-1.6,0.8-2.4
		c1.6-0.6,3.1-0.9,4.6-0.9c2.2,0.1,4.1,0.2,5.4,1.5c1.4,1.2,3.5,1.6,5.8,1.8c2.5,0.2,5.1-0.3,7.4-0.1c2.4,0.3,4.4,0.6,6.7,1
		c2.1,0.5,4.1,1,6.1,1.6c1.4,0.7,2.5,1.5,3.9,2.1c1.4,0.7,2.7,1.2,4.2,1.6c0.9,0.5,2,1,2.8,1.7c2,1.2,3.5,2.3,5.4,3.4
		c2.1,1.4,3.7,2.6,5.7,4.1c3.9,2.6,7.9,4.7,11.8,6.9c3.7,2,7.3,4,10.7,6.5c2.6,2,5.2,4.3,7.5,6.8c4,4.1,7.7,8.8,11.6,13.1
		c2.7,2.8,5.6,5.7,8.7,7.4c-2,0.7-4.1,1.4-6,2.3c-4,2-7.8,4.1-11,7c-0.4,0.4-0.8,0.8-1.3,1.2c-1.2,0.3-2.4,0.7-3.7,1
		c-4.1,1.5-7.5,3.9-11.5,6c-3.5,2.1-7.1,2.7-11.1,2.3c-4.1-0.4-7.7-1.7-11.5-3.4c-0.2-0.1-0.3-0.1-0.5-0.2c-1-0.7-2.2-1.3-3.1-2
		c-4.1-2.7-8.7-5.4-12.3-9.2c-3.7-3.9-7.4-6.7-11.7-9.1c-2-1.2-3.9-2.2-6-3c-1.9-0.9-3.6-1.8-4.8-3.6c-1-1.3-3.2-0.8-3.2,0.8
		c-0.3,0.1-0.6,0.2-0.8,0.4c0.4,0.5,0.8,0.9,1.2,1.4c0.2,1.3,0.8,2.2,1.8,2.2c-0.1-0.2-0.1-0.4-0.1-0.7c2.5,1.9,5.6,2.8,8.1,4.3
		c3,1.7,6,3.8,8.8,6.1C290.3,345.8,286.2,343.1,282.1,340.9z M347.5,363.2c-1.8,2.8-3.7,6.1-6.8,6.9c-3.8,0.9-7.5-0.8-11.2-2.7
		c2.7,0.2,5.4,0.1,7.9-0.7c4.1-1.5,7.5-3.9,11.3-5.9c0.3-0.2,0.6-0.3,0.9-0.5C348.7,361.3,348.1,362.2,347.5,363.2z M361.6,352.2
		c0.5-0.3,0.8-0.6,1.4-0.8c1.3-0.8,2.5-1.5,4-2.1c-1.3,0.8-2.5,1.6-4,2.3C362.7,351.7,362.1,352,361.6,352.2z M427.9,375.9
		c0,0-0.2-0.2-0.3-0.3c-0.1-0.1-0.2-0.1-0.2-0.3c0,0,0,0,0-0.1c0,0,0,0,0-0.2c0,0-0.4-0.6-0.1-0.2c-0.1-0.2-0.1-0.5-0.1-0.5
		c-0.1-0.5-0.2-0.8-0.3-1.4c-0.1-1.4-0.1-3-0.1-4.5c0.2-2.4,0-5,0.2-7.3c0.3-3.7,1.6-7.1,4.1-8.9c1.6-1,3.4-1.6,5.1-2
		c2.3-0.3,4.6-0.7,6.9-0.9c2.3-0.1,4.4,0.1,6.7,0.2c1.8,0.3,3.6,0.1,5.2,0.1c1.9,0,4,0,5.4,0.8c0.2,0,0.3,0.2,0.5,0.1
		c-0.3-0.2,0,0,0.3,0.2l0.3,0.2c-0.5-0.4,0,0,0.1,0.2c0.6,0.6,1.2,1.4,1.6,2c1.2,1.4,2.1,3.2,2.8,5.6c0.3,0.4,0.4,0.8,0.5,1.3
		c0.1,0.5,0.1,0.5,0.4,0.8c0.1,0.5,0.2,0.8,0.3,1.4c-0.1-0.5-0.1,0.3,0,0.3c0,0.7,0.1,1.4,0.5,1.9c-0.3,0.1-0.6,0.2-0.8,0.3
		c-1.8,0.4-3.6,0.8-5.2,1.6c-2.1,0.9-3.9,2.2-6.1,3.1c-2.4,1.3-5,2.6-7.3,4.1c-0.6,0.1-1.2,0.1-1.8,0.1c-2.1,0.3-4.4,0.6-6.2,1.8
		c-0.7,0.7-1.4,1.3-2.1,1.7c-0.7,0.4-2.1,0-2.9,0c-0.8,0.2-1.9,0.2-2.5,0.6c-0.8,0.2-0.9,0.2-1.5,0.1c-0.8-0.3-1.7-0.8-2.4-1.5
		C428.1,376.1,428.1,376.1,427.9,375.9z M426,389.9c2.4-1.9,5.2-3,8-4c-4.1,2.4-8.1,4.5-11.9,7C423.2,392,424.6,390.8,426,389.9z
		 M391.1,414c-0.7,0.4-1.4,0.8-2.2,1.2c2.2-1.7,4.3-3.6,6.5-5.3c3-2.7,6.6-4.5,9.8-6.8c0,0.6,0,1.2,0,1.8
		C400.6,408.1,395.9,411.2,391.1,414z M408.3,415.1c-0.1,2.6-0.4,5-0.7,7.4c0.1-3.9,0-7.8-0.1-11.6c0-0.2,0-0.4,0-0.6
		c0.3-0.2,0.6-0.4,0.8-0.6C408.5,411.5,408.3,413.4,408.3,415.1z M414.3,398.4c-1.5,1.2-2.9,2.3-4.5,3.4l0,0
		c-0.5-0.1-0.8-0.3-1.3-0.2c-0.2,0-0.3,0-0.5-0.1c0-0.1,0-0.2,0-0.3c1.4-0.9,2.8-2.2,4.2-2.9c1.6-1,3.4-2.4,5-3.1
		c1-0.5,2.4-0.8,3.6-1.4c-1.2,0.8-2.3,1.5-3.4,2.3c-0.8,0.6-1.6,1.2-2.4,1.8C414.8,398.1,414.6,398.2,414.3,398.4z"/>
	<path class="st7" d="M219,458.8c-6.2-3.1,26.4,15.1,20.3,10.8c-2.6-1.8-5.4-3.5-8.2-5.3c-0.7-0.2-1.3-0.5-2-0.7
		C225.9,462.3,222.2,460.3,219,458.8z"/>
	<path class="st7" d="M207.8,447.3c3.8,2.2,7.5,4.1,11.4,6.1c-0.2-0.2-0.4-0.4-0.6-0.7C211.7,449.2,204.9,445.6,207.8,447.3z"/>
	<path class="st7" d="M216.2,354.9c0.2,0.7,0.8,1.5,1.3,1.8c0.5,0.1,0.8,0.3,1.3,0.2c1,0.2,2.1,0,2.4-1.3c0.2-0.9-0.3-2.7-1.4-2.9
		c-0.1,0-0.2-0.1-0.4-0.1c-0.5-3-0.4-6.2-0.3-9c0.1-3.7,0.8-6.6,1.2-10.3c0.3-2,0.4-4.1,0.8-5.9c0.2-1.7,1.2-2.6,2.3-4.1
		c1.3-1.5,2.5-3.2,3.2-5.3c1-2.2,1.9-4.2,2.7-6.6c1.8-4.5,4.4-8.3,6.2-12.7c1.7-4.1,3.2-8,5.6-11.6c1.8-3,4-6,6.3-8.6l3-8.3
		c-3.6,2.4-6.7,5.7-9.3,9.2c-2.4,3.1-4.4,6.6-6,10.4c-1,2.4-1.8,4.5-2.8,6.9c-1,2.4-2.1,4.3-3.5,6.3c-2.1,4.1-3.7,8.8-5.7,13.1
		c-0.8,1.9-2.4,3.1-3.4,4.9c-1,1.7-2,3-2.3,5.3c-0.3,2-0.4,4.1-0.8,5.9c-0.2,1.7-0.5,3.8-0.8,5.2c-0.4,4.1-0.7,8-0.5,12.2
		C215.4,351.2,215.8,353.1,216.2,354.9z"/>
	<path class="st6" d="M303.6,195.4c1.7,0.3,3.2,0.6,4.8,0.9c-11.8-5.2-23.5-10.7-29.2-14.7l-0.4,1c5,2.6,10,5.7,15.2,8.1
		C297.1,192.5,300.3,194,303.6,195.4z"/>
	<path class="st6" d="M348.4,298.2c-0.8,0-1.6,0-2.3-0.1c0.9,0.2,1,1.2,0.6,2.3c7.2-0.8,16.6-2.2,27.9-4.8
		c-5.4,0.8-11.3,2.2-16.9,2.7C354.6,298.5,351.5,298.2,348.4,298.2z"/>
	<path class="st6" d="M444.9,234.7c-1.4-0.2-2.8-0.3-4.3-0.5c-8-1.4-15.2-3.6-22.4-5.7c-1.3-0.1-2.5-0.1-4-0.1
		c-0.1,0.1-0.2,0.3-0.4,0.4c-0.7,0.7-1.5,1-2.2,1.5c-1.2,0.7-2.4,1-3.7,1.6c-0.9,0.1-1.8,0.5-2.8,0.8s-1.3,0.4-2.6,0.9
		c-2.4,0.8-4.8,2.2-7.3,3.4c-2,1-4.1,1.9-5.9,3.4c-1.2,0.7-2.4,1.6-3.5,2.5c-0.3,0.7-0.6,1.3-0.8,2c-0.3,1.3-1.4,2.7-1.7,4.1
		c-0.9,2.2-1.3,4.1-0.8,5.7c0.8,3.5,3.7,5.7,6,7.8c1.6,1.4,2.6,2.7,4.3,3.9c0.7,0.4,1.4,0.8,2.2,1.2c1.7,0,3.5-0.4,4.9,0.5
		c0.8,0.4,1.8,1.3,2.6,1.8c1.8,0.2,3.6,0.5,5.4,0.5c0.5,0,0.9,0,1.5,0c1.4-0.2,2.7-0.4,4.1-0.8c1.9-0.8,4.2-2.4,6.2-3.7
		c1-0.7,2.2-1.4,3.2-2.2c1.8-1.6,3.5-3.4,5-5.2c1.8-2,3.6-4.1,5.2-6c1.5-2.2,2.8-4.3,4.3-6.3c1.6-2.4,3.8-4.6,5.2-6.4
		C442.8,239.3,444.9,234.9,444.9,234.7L444.9,234.7z"/>
	<path class="st6" d="M318.5,295.8c-1.5-0.3-2.8-0.5-4.3-0.8c7.1,4.4,13.5,8,16.3,7.2c0.1,0,0.1,0,0.2,0c0.6-0.1,1.3-0.3,2-0.4
		C327.7,300.5,323.1,298.3,318.5,295.8z"/>
	<path class="st6" d="M448.4,239c0.3-0.5,0.6-0.8,0.8-1.4C449.2,237.7,448.8,238.4,448.4,239z"/>
</g>
</svg>
