<?xml version="1.0" encoding="utf-8"?>
<!-- Generator: Adobe Illustrator 24.3.0, SVG Export Plug-In . SVG Version: 6.00 Build 0)  -->
<svg version="1.1" id="_x2018_ëîé_x5F_1" xmlns="http://www.w3.org/2000/svg" xmlns:xlink="http://www.w3.org/1999/xlink"
	 x="0px" y="0px" viewBox="0 0 1500 1700" style="enable-background:new 0 0 1500 1700;" xml:space="preserve">
<style type="text/css">
	.st0{fill:#282A2D;}
	.st1{fill:#1179FE;}
	.st2{fill:#FFFFFF;}
	.st3{fill:#30545D;}
	.st4{fill:#F2BEB7;}
	.st5{fill:#4A7DF5;}
	.st6{fill:#23393D;}
	.st7{fill:#495A63;}
	.st8{fill:#3C5FB6;}
	.st9{fill:#EDA8A2;}
	.st10{fill:#4A190C;}
	.st11{opacity:0.2;enable-background:new    ;}
	.st12{fill:#424750;}
	.st13{fill:#37474F;}
	.st14{opacity:0.4;fill:#FFFFFF;enable-background:new    ;}
	.st15{fill:#BA68C8;}
	.st16{fill:#E0E0E0;}
	.st17{fill:#263238;}
	.st18{fill:#455A64;}
	.st19{opacity:0.5;fill:#FFFFFF;enable-background:new    ;}
	.st20{opacity:0.3;enable-background:new    ;}
	.st21{opacity:0.2;fill:#FFFFFF;enable-background:new    ;}
	.st22{opacity:0.4;enable-background:new    ;}
	.st23{fill:#E8BABA;}
	.st24{fill:#E29F9F;}
	.st25{opacity:0.6;fill:#FFFFFF;enable-background:new    ;}
	.st26{fill:#A37C00;}
	.st27{fill:#D8A400;}
	.st28{fill:#5E4800;}
	.st29{fill:#E5BEBE;}
	.st30{opacity:0.7;fill:#FFFFFF;enable-background:new    ;}
	.st31{opacity:0.3;fill:#BA68C8;enable-background:new    ;}
	.st32{fill:#EFBBBB;}
	.st33{opacity:0.1;enable-background:new    ;}
</style>
<path class="st0" d="M-330.4,2098v1261.3c0,22.1-15.9,40-35.6,40h-1819.8c-19.6,0-35.6-17.9-35.6-40V2098c0-22.1,15.9-40,35.6-40
	H-366C-346.3,2058-330.4,2075.9-330.4,2098z"/>
<path class="st1" d="M-420.4,2025.9v102.3h-2030.9v-102.3c0-21.1,17.1-38.2,38.2-38.2h1954.5
	C-437.5,1987.7-420.4,2004.8-420.4,2025.9z"/>
<g>
	<path class="st2" d="M-2389.2,2058c0-9.8,8-17.8,17.8-17.8s17.8,8,17.8,17.8s-8,17.8-17.8,17.8S-2389.2,2067.8-2389.2,2058z"/>
	<path class="st2" d="M-2319.1,2058c0-9.8,8-17.8,17.8-17.8s17.8,8,17.8,17.8s-8,17.8-17.8,17.8S-2319.1,2067.8-2319.1,2058z"/>
	<path class="st2" d="M-2247.2,2058c0-9.8,8-17.8,17.8-17.8s17.8,8,17.8,17.8s-8,17.8-17.8,17.8
		C-2239.3,2075.8-2247.2,2067.8-2247.2,2058z"/>
</g>
<path class="st2" d="M-569.8,2242c2.5,18.2-2.5,35.8-12.6,49.4c-10.1,13.6-25.2,23.3-43,25.7l-753.4,103.5
	c-38.5,5.3-74-20.2-79-56.6c-2.5-18.2,3.1-35.8,14.1-49.6c11-13.7,27.5-23.6,46.7-26.2l753.4-103.5
	C-608,2179.8-574.8,2205.6-569.8,2242z"/>
<path class="st1" d="M-568.8,2242.9c2.5,18.2-2.5,35.8-12.6,49.4c-10.1,13.6-25.2,23.3-43,25.7l-136.3,18.7l-18.2-132.4l136.3-18.7
	C-607,2180.7-573.8,2206.5-568.8,2242.9z"/>
<g>
	<g>
		<path class="st2" d="M-656.7,2272.8c-1.7,0.2-3.4,0.3-5.1,0.3c-9.1-0.1-17.6-3.7-24-10.3c-13.1-13.4-12.9-35,0.6-48.2l0,0
			c13.4-13.1,35-12.9,48.2,0.6c13.1,13.4,12.9,35-0.6,48.2C-642.9,2268.6-649.6,2271.9-656.7,2272.8z M-681.3,2218.7
			c-11.2,11-11.4,29-0.5,40.2c5.3,5.4,12.4,8.5,20,8.6s14.8-2.8,20.2-8.1c11.2-11,11.4-29,0.5-40.2
			C-652.1,2208-670.1,2207.8-681.3,2218.7L-681.3,2218.7z"/>
	</g>
	
		<rect x="-723.6" y="2274.4" transform="matrix(0.7152 -0.6989 0.6989 0.7152 -1790.9802 159.0466)" class="st2" width="46.5" height="5.6"/>
	<path class="st2" d="M-728.6,2304.7L-728.6,2304.7c-1.9-2-1.9-5.2,0.1-7.1l19.6-19.1c2-1.9,5.1-1.9,7.1,0.1l0,0
		c1.9,2,1.9,5.2-0.1,7.1l-19.6,19.1C-723.5,2306.7-726.7,2306.7-728.6,2304.7z"/>
</g>
<path class="st1" d="M-1941.8,2942.1h-162.5c-1.9,0-3.4-1.5-3.4-3.4v-7.6c0-1.9,1.5-3.4,3.4-3.4h162.5c1.9,0,3.4,1.5,3.4,3.4v7.6
	C-1938.4,2940.6-1939.9,2942.1-1941.8,2942.1z"/>
<g>
	<path class="st1" d="M-2025.1,2991.5h-77.7c-2.7,0-4.9-2.2-4.9-4.9l0,0c0-2.7,2.2-4.9,4.9-4.9h77.7c2.7,0,4.9,2.2,4.9,4.9l0,0
		C-2020.2,2989.3-2022.4,2991.5-2025.1,2991.5z"/>
	<g>
		<path class="st1" d="M-1963.7,2971h-141.4c-1.4,0-2.6-1.2-2.6-2.6v-4.6c0-1.4,1.2-2.6,2.6-2.6h141.4c1.4,0,2.6,1.2,2.6,2.6v4.6
			C-1961.1,2969.8-1962.2,2971-1963.7,2971z"/>
		<path class="st1" d="M-1813.3,2971h-131.9c-1.4,0-2.5-1.1-2.5-2.5v-4.8c0-1.4,1.1-2.5,2.5-2.5h131.9c1.4,0,2.5,1.1,2.5,2.5v4.8
			C-1810.8,2969.8-1811.9,2971-1813.3,2971z"/>
		<path class="st1" d="M-1928.2,2991.5h-77.7c-2.7,0-4.9-2.2-4.9-4.9l0,0c0-2.7,2.2-4.9,4.9-4.9h77.7c2.7,0,4.9,2.2,4.9,4.9l0,0
			C-1923.3,2989.3-1925.5,2991.5-1928.2,2991.5z"/>
	</g>
</g>
<path class="st1" d="M-1750.1,2942.1h-162.5c-1.9,0-3.4-1.5-3.4-3.4v-7.6c0-1.9,1.5-3.4,3.4-3.4h162.5c1.9,0,3.4,1.5,3.4,3.4v7.6
	C-1746.7,2940.6-1748.2,2942.1-1750.1,2942.1z"/>
<path class="st1" d="M-1941.8,3050.3h-162.5c-1.9,0-3.4-1.5-3.4-3.4v-7.6c0-1.9,1.5-3.4,3.4-3.4h162.5c1.9,0,3.4,1.5,3.4,3.4v7.6
	C-1938.4,3048.8-1939.9,3050.3-1941.8,3050.3z"/>
<path class="st1" d="M-2025.1,3099.6h-77.7c-2.7,0-4.9-2.2-4.9-4.9l0,0c0-2.7,2.2-4.9,4.9-4.9h77.7c2.7,0,4.9,2.2,4.9,4.9l0,0
	C-2020.2,3097.5-2022.4,3099.6-2025.1,3099.6z"/>
<g>
	<path class="st1" d="M-1963.7,3079.1h-141.4c-1.4,0-2.6-1.2-2.6-2.6v-4.6c0-1.4,1.2-2.6,2.6-2.6h141.4c1.4,0,2.6,1.2,2.6,2.6v4.6
		C-1961.1,3077.9-1962.2,3079.1-1963.7,3079.1z"/>
	<path class="st1" d="M-1813.3,3079.1h-131.9c-1.4,0-2.5-1.1-2.5-2.5v-4.8c0-1.4,1.1-2.5,2.5-2.5h131.9c1.4,0,2.5,1.1,2.5,2.5v4.8
		C-1810.8,3078-1811.9,3079.1-1813.3,3079.1z"/>
	<path class="st1" d="M-1928.2,3099.6h-77.7c-2.7,0-4.9-2.2-4.9-4.9l0,0c0-2.7,2.2-4.9,4.9-4.9h77.7c2.7,0,4.9,2.2,4.9,4.9l0,0
		C-1923.3,3097.5-1925.5,3099.6-1928.2,3099.6z"/>
</g>
<path class="st1" d="M-1750.1,3050.3h-162.5c-1.9,0-3.4-1.5-3.4-3.4v-7.6c0-1.9,1.5-3.4,3.4-3.4h162.5c1.9,0,3.4,1.5,3.4,3.4v7.6
	C-1746.7,3048.8-1748.2,3050.3-1750.1,3050.3z"/>
<g>
	<polygon class="st1" points="-762.6,2405.2 -857.4,2426.2 -904.4,2507.4 -940.2,2322.4 	"/>
	<polygon class="st1" points="-876.5,2418.2 -862.7,2408.2 -802,2484.2 -815.9,2494.2 	"/>
</g>
<path class="st2" d="M-1178,2774.1h-235.1c-5.1,0-9.2-4.1-9.2-9.2v-235c0-5.1,4.1-9.2,9.2-9.2h235.1c5.1,0,9.2,4.1,9.2,9.2v235
	C-1168.8,2770-1173,2774.1-1178,2774.1z"/>
<g>
	<path class="st1" d="M-1389.9,2721.1l49.2-88.8c5.7-10.3,20.2-11.3,27.2-1.7l28.4,38.7c6,8.2,18.1,8.9,25,1.4l0,0
		c7.2-7.8,19.8-6.8,25.5,2.1l30.7,47.3c7,10.8-0.8,25-13.6,25h-158.3C-1388.1,2745.2-1395.9,2731.9-1389.9,2721.1z"/>
	<path class="st1" d="M-1292.7,2590.8c0-10.7,8.7-19.4,19.4-19.4c10.7,0,19.4,8.7,19.4,19.4s-8.7,19.4-19.4,19.4
		S-1292.7,2601.5-1292.7,2590.8z"/>
</g>
<path class="st2" d="M-860.8,2780.9l-219,29.9c-8.9,1.2-17-5-18.2-13.9l-29.9-219c-1.2-8.9,5-17,13.9-18.2l219-29.9
	c8.9-1.2,17,5,18.2,13.9l29.9,219C-845.7,2771.6-851.9,2779.7-860.8,2780.9z"/>
<g>
	<path class="st1" d="M-1071,2756.1l36.8-94.6c4.3-11,18.5-13.9,26.7-5.4l33.4,34.6c7.1,7.4,19.2,6.4,25-2l0,0
		c6-8.7,18.7-9.4,25.6-1.3l36.8,42.8c8.4,9.7,2.6,24.9-10.1,26.6l-156.9,21.4C-1065.9,2779.7-1075.4,2767.6-1071,2756.1z"/>
	<path class="st1" d="M-992.3,2613.9c-1.4-10.6,6-20.4,16.6-21.8c10.6-1.4,20.4,6,21.8,16.6c1.4,10.6-6,20.4-16.6,21.8
		C-981.1,2631.9-990.8,2624.5-992.3,2613.9z"/>
</g>
<g>
	<path class="st3" d="M-1560.1,2784.1h-13.9c-1.3,0-2.3-1-2.3-2.3s1-2.3,2.3-2.3h13.8c1.3,0,2.3,1,2.3,2.3
		C-1557.8,2783.1-1558.8,2784.1-1560.1,2784.1z M-1587.8,2784.1h-13.8c-1.3,0-2.3-1-2.3-2.3s1-2.3,2.3-2.3h13.8c1.3,0,2.3,1,2.3,2.3
		S-1586.5,2784.1-1587.8,2784.1z M-1615.4,2784.1h-13.8c-1.3,0-2.3-1-2.3-2.3s1-2.3,2.3-2.3h13.8c1.3,0,2.3,1,2.3,2.3
		S-1614.1,2784.1-1615.4,2784.1z M-1643,2784.1h-13.8c-1.3,0-2.3-1-2.3-2.3s1-2.3,2.3-2.3h13.8c1.3,0,2.3,1,2.3,2.3
		S-1641.7,2784.1-1643,2784.1z M-1670.6,2784.1h-13.8c-1.3,0-2.3-1-2.3-2.3s1-2.3,2.3-2.3h13.8c1.3,0,2.3,1,2.3,2.3
		S-1669.4,2784.1-1670.6,2784.1z M-1698.2,2784.1h-13.8c-1.3,0-2.3-1-2.3-2.3s1-2.3,2.3-2.3h13.8c1.3,0,2.3,1,2.3,2.3
		C-1695.9,2783.1-1697,2784.1-1698.2,2784.1z M-1725.8,2784.1h-13.8c-1.3,0-2.3-1-2.3-2.3s1-2.3,2.3-2.3h13.8c1.3,0,2.3,1,2.3,2.3
		S-1724.6,2784.1-1725.8,2784.1z M-1753.4,2784.1h-13.8c-1.3,0-2.3-1-2.3-2.3s1-2.3,2.3-2.3h13.8c1.3,0,2.3,1,2.3,2.3
		C-1751.2,2783.1-1752.2,2784.1-1753.4,2784.1z M-1781,2784.1h-13.8c-1.3,0-2.3-1-2.3-2.3s1-2.3,2.3-2.3h13.8c1.3,0,2.3,1,2.3,2.3
		C-1778.8,2783.1-1779.8,2784.1-1781,2784.1z M-1808.7,2784.1h-13.8c-1.3,0-2.3-1-2.3-2.3s1-2.3,2.3-2.3h13.8c1.3,0,2.3,1,2.3,2.3
		S-1807.4,2784.1-1808.7,2784.1z M-1836.3,2784.1h-13.8c-1.3,0-2.3-1-2.3-2.3s1-2.3,2.3-2.3h13.8c1.3,0,2.3,1,2.3,2.3
		S-1835,2784.1-1836.3,2784.1z M-1863.9,2784.1h-13.8c-1.3,0-2.3-1-2.3-2.3s1-2.3,2.3-2.3h13.8c1.3,0,2.3,1,2.3,2.3
		S-1862.6,2784.1-1863.9,2784.1z M-1891.5,2784.1h-13.8c-1.3,0-2.3-1-2.3-2.3s1-2.3,2.3-2.3h13.8c1.3,0,2.3,1,2.3,2.3
		S-1890.2,2784.1-1891.5,2784.1z M-1919.1,2784.1h-13.8c-1.3,0-2.3-1-2.3-2.3s1-2.3,2.3-2.3h13.8c1.3,0,2.3,1,2.3,2.3
		S-1917.8,2784.1-1919.1,2784.1z M-1946.7,2784.1h-13.8c-1.3,0-2.3-1-2.3-2.3s1-2.3,2.3-2.3h13.8c1.3,0,2.3,1,2.3,2.3
		S-1945.4,2784.1-1946.7,2784.1z M-1974.3,2784.1h-13.8c-1.3,0-2.3-1-2.3-2.3s1-2.3,2.3-2.3h13.8c1.3,0,2.3,1,2.3,2.3
		S-1973.1,2784.1-1974.3,2784.1z M-2001.9,2784.1h-13.8c-1.3,0-2.3-1-2.3-2.3s1-2.3,2.3-2.3h13.8c1.3,0,2.3,1,2.3,2.3
		S-2000.7,2784.1-2001.9,2784.1z M-2029.5,2784.1h-12.3c-0.6,0-1.1,0-1.6-0.1c-1.3-0.1-2.2-1.2-2.1-2.4c0.1-1.3,1.2-2.2,2.4-2.1
		c0.4,0,0.9,0,1.4,0h12.3c1.3,0,2.3,1,2.3,2.3C-2027.2,2783.1-2028.3,2784.1-2029.5,2784.1z M-1547.1,2780.1c-0.7,0-1.4-0.4-1.9-1
		c-0.7-1-0.4-2.5,0.6-3.2c3.5-2.4,6.1-5.7,7.7-9.5c0.5-1.2,1.8-1.7,3-1.3c1.2,0.5,1.7,1.8,1.3,3c-1.9,4.7-5.1,8.7-9.4,11.6
		C-1546.2,2779.9-1546.6,2780.1-1547.1,2780.1z M-2056.1,2779.2c-0.5,0-1-0.2-1.4-0.5c-4.1-3.1-7.1-7.3-8.7-12.2
		c-0.4-1.2,0.2-2.5,1.4-2.9s2.5,0.2,2.9,1.4c1.3,4,3.8,7.4,7.1,10c1,0.8,1.2,2.2,0.4,3.2
		C-2054.7,2778.9-2055.4,2779.2-2056.1,2779.2z M-1536.9,2755.9c-1.3,0-2.3-1-2.3-2.3v-13.8c0-1.3,1-2.3,2.3-2.3s2.3,1,2.3,2.3v13.8
		C-1534.6,2754.9-1535.6,2755.9-1536.9,2755.9z M-2065.2,2754.5c-1.3,0-2.3-1-2.3-2.3v-13.8c0-1.3,1-2.3,2.3-2.3s2.3,1,2.3,2.3v13.8
		C-2062.9,2753.5-2063.9,2754.5-2065.2,2754.5z M-1536.9,2728.3c-1.3,0-2.3-1-2.3-2.3v-13.8c0-1.3,1-2.3,2.3-2.3s2.3,1,2.3,2.3v13.8
		C-1534.6,2727.3-1535.6,2728.3-1536.9,2728.3z M-2065.2,2726.9c-1.3,0-2.3-1-2.3-2.3v-13.8c0-1.3,1-2.3,2.3-2.3s2.3,1,2.3,2.3v13.8
		C-2062.9,2725.8-2063.9,2726.9-2065.2,2726.9z M-1536.9,2700.7c-1.3,0-2.3-1-2.3-2.3v-13.8c0-1.3,1-2.3,2.3-2.3s2.3,1,2.3,2.3v13.8
		C-1534.6,2699.6-1535.6,2700.7-1536.9,2700.7z M-2065.2,2699.3c-1.3,0-2.3-1-2.3-2.3v-13.8c0-1.3,1-2.3,2.3-2.3s2.3,1,2.3,2.3v13.8
		C-2062.9,2698.2-2063.9,2699.3-2065.2,2699.3z M-1536.9,2673.1c-1.3,0-2.3-1-2.3-2.3V2657c0-1.3,1-2.3,2.3-2.3s2.3,1,2.3,2.3v13.8
		C-1534.6,2672-1535.6,2673.1-1536.9,2673.1z M-2065.2,2671.7c-1.3,0-2.3-1-2.3-2.3v-13.8c0-1.3,1-2.3,2.3-2.3s2.3,1,2.3,2.3v13.8
		C-2062.9,2670.6-2063.9,2671.7-2065.2,2671.7z M-1536.9,2645.4c-1.3,0-2.3-1-2.3-2.3v-13.8c0-1.3,1-2.3,2.3-2.3s2.3,1,2.3,2.3v13.8
		C-1534.6,2644.4-1535.6,2645.4-1536.9,2645.4z M-2065.2,2644c-1.3,0-2.3-1-2.3-2.3v-13.8c0-1.3,1-2.3,2.3-2.3s2.3,1,2.3,2.3v13.8
		C-2062.9,2643-2063.9,2644-2065.2,2644z M-1536.9,2617.8c-1.3,0-2.3-1-2.3-2.3v-13.8c0-1.3,1-2.3,2.3-2.3s2.3,1,2.3,2.3v13.8
		C-1534.6,2616.8-1535.6,2617.8-1536.9,2617.8z M-2065.2,2616.4c-1.3,0-2.3-1-2.3-2.3v-13.8c0-1.3,1-2.3,2.3-2.3s2.3,1,2.3,2.3v13.8
		C-2062.9,2615.4-2063.9,2616.4-2065.2,2616.4z M-1536.9,2590.2c-1.3,0-2.3-1-2.3-2.3v-13.8c0-1.3,1-2.3,2.3-2.3s2.3,1,2.3,2.3v13.8
		C-1534.6,2589.2-1535.6,2590.2-1536.9,2590.2z M-2065.2,2588.8c-1.3,0-2.3-1-2.3-2.3v-13.8c0-1.3,1-2.3,2.3-2.3s2.3,1,2.3,2.3v13.8
		C-2062.9,2587.8-2063.9,2588.8-2065.2,2588.8z M-1536.9,2562.6c-1.3,0-2.3-1-2.3-2.3v-13.8c0-1.3,1-2.3,2.3-2.3s2.3,1,2.3,2.3v13.8
		C-1534.6,2561.6-1535.6,2562.6-1536.9,2562.6z M-2065.2,2561.2c-1.3,0-2.3-1-2.3-2.3v-13.8c0-1.3,1-2.3,2.3-2.3s2.3,1,2.3,2.3v13.8
		C-2062.9,2560.2-2063.9,2561.2-2065.2,2561.2z M-1536.9,2535c-1.3,0-2.3-1-2.3-2.3v-13.8c0-1.3,1-2.3,2.3-2.3s2.3,1,2.3,2.3v13.8
		C-1534.6,2534-1535.6,2535-1536.9,2535z M-2065.2,2533.6c-1.3,0-2.3-1-2.3-2.3v-13.8c0-1.3,1-2.3,2.3-2.3s2.3,1,2.3,2.3v13.8
		C-2062.9,2532.6-2063.9,2533.6-2065.2,2533.6z M-1536.9,2507.4c-1.3,0-2.3-1-2.3-2.3v-6.2c0-2.3-0.4-4.6-1.1-6.7
		c-0.4-1.2,0.2-2.5,1.4-2.9c1.2-0.4,2.5,0.2,2.9,1.4c0.9,2.6,1.3,5.4,1.3,8.2v6.2C-1534.6,2506.4-1535.6,2507.4-1536.9,2507.4z
		 M-2065.2,2506c-1.3,0-2.3-1-2.3-2.3v-4.8c0-3.3,0.6-6.6,1.9-9.6c0.5-1.2,1.8-1.7,3-1.3c1.2,0.5,1.7,1.8,1.3,3
		c-1,2.5-1.5,5.2-1.5,7.9v4.8C-2062.9,2505-2063.9,2506-2065.2,2506z M-1546,2482.7c-0.5,0-1-0.2-1.4-0.5c-3.3-2.6-7.3-4-11.5-4.3
		c-1.3-0.1-2.2-1.2-2.1-2.4c0.1-1.3,1.2-2.2,2.4-2.1c5.1,0.3,9.9,2.1,14,5.2c1,0.8,1.2,2.2,0.4,3.2
		C-1544.6,2482.4-1545.3,2482.7-1546,2482.7z M-2054.9,2481.8c-0.7,0-1.5-0.4-1.9-1c-0.7-1-0.4-2.5,0.6-3.2
		c4.2-2.9,9.2-4.4,14.3-4.4l0,0c1.3,0,2.3,1,2.3,2.3s-1,2.3-2.3,2.3c-4.2,0-8.3,1.3-11.7,3.6
		C-2054,2481.7-2054.4,2481.8-2054.9,2481.8z M-1572.5,2477.9h-13.8c-1.3,0-2.3-1-2.3-2.3s1-2.3,2.3-2.3h13.8c1.3,0,2.3,1,2.3,2.3
		C-1570.2,2476.8-1571.3,2477.9-1572.5,2477.9z M-1600.1,2477.9h-13.8c-1.3,0-2.3-1-2.3-2.3s1-2.3,2.3-2.3h13.8c1.3,0,2.3,1,2.3,2.3
		C-1597.9,2476.8-1598.9,2477.9-1600.1,2477.9z M-1627.7,2477.9h-13.9c-1.3,0-2.3-1-2.3-2.3s1-2.3,2.3-2.3h13.8c1.3,0,2.3,1,2.3,2.3
		C-1625.5,2476.8-1626.5,2477.9-1627.7,2477.9z M-1655.4,2477.9h-13.8c-1.3,0-2.3-1-2.3-2.3s1-2.3,2.3-2.3h13.8c1.3,0,2.3,1,2.3,2.3
		C-1653.1,2476.8-1654.1,2477.9-1655.4,2477.9z M-1683,2477.9h-13.8c-1.3,0-2.3-1-2.3-2.3s1-2.3,2.3-2.3h13.8c1.3,0,2.3,1,2.3,2.3
		C-1680.7,2476.8-1681.7,2477.9-1683,2477.9z M-1710.6,2477.9h-13.8c-1.3,0-2.3-1-2.3-2.3s1-2.3,2.3-2.3h13.8c1.3,0,2.3,1,2.3,2.3
		C-1708.3,2476.8-1709.3,2477.9-1710.6,2477.9z M-1738.2,2477.9h-13.8c-1.3,0-2.3-1-2.3-2.3s1-2.3,2.3-2.3h13.8c1.3,0,2.3,1,2.3,2.3
		C-1735.9,2476.8-1736.9,2477.9-1738.2,2477.9z M-1765.8,2477.9h-13.8c-1.3,0-2.3-1-2.3-2.3s1-2.3,2.3-2.3h13.8c1.3,0,2.3,1,2.3,2.3
		C-1763.5,2476.8-1764.5,2477.9-1765.8,2477.9z M-1793.4,2477.9h-13.8c-1.3,0-2.3-1-2.3-2.3s1-2.3,2.3-2.3h13.8c1.3,0,2.3,1,2.3,2.3
		C-1791.1,2476.8-1792.1,2477.9-1793.4,2477.9z M-1821,2477.9h-13.8c-1.3,0-2.3-1-2.3-2.3s1-2.3,2.3-2.3h13.8c1.3,0,2.3,1,2.3,2.3
		C-1818.7,2476.8-1819.7,2477.9-1821,2477.9z M-1848.6,2477.9h-13.8c-1.3,0-2.3-1-2.3-2.3s1-2.3,2.3-2.3h13.8c1.3,0,2.3,1,2.3,2.3
		C-1846.3,2476.8-1847.4,2477.9-1848.6,2477.9z M-1876.2,2477.9h-13.8c-1.3,0-2.3-1-2.3-2.3s1-2.3,2.3-2.3h13.8c1.3,0,2.3,1,2.3,2.3
		C-1873.9,2476.8-1875,2477.9-1876.2,2477.9z M-1903.8,2477.9h-13.8c-1.3,0-2.3-1-2.3-2.3s1-2.3,2.3-2.3h13.8c1.3,0,2.3,1,2.3,2.3
		C-1901.6,2476.8-1902.6,2477.9-1903.8,2477.9z M-1931.4,2477.9h-13.8c-1.3,0-2.3-1-2.3-2.3s1-2.3,2.3-2.3h13.8c1.3,0,2.3,1,2.3,2.3
		C-1929.2,2476.8-1930.2,2477.9-1931.4,2477.9z M-1959.1,2477.9h-13.8c-1.3,0-2.3-1-2.3-2.3s1-2.3,2.3-2.3h13.8c1.3,0,2.3,1,2.3,2.3
		C-1956.8,2476.8-1957.8,2477.9-1959.1,2477.9z M-1986.7,2477.9h-13.8c-1.3,0-2.3-1-2.3-2.3s1-2.3,2.3-2.3h13.8c1.3,0,2.3,1,2.3,2.3
		C-1984.4,2476.8-1985.4,2477.9-1986.7,2477.9z M-2014.3,2477.9h-13.8c-1.3,0-2.3-1-2.3-2.3s1-2.3,2.3-2.3h13.8c1.3,0,2.3,1,2.3,2.3
		C-2012,2476.8-2013,2477.9-2014.3,2477.9z"/>
</g>
<g>
	<path class="st2" d="M-775.4,3167.2h-12.3c-1.1,0-2-0.9-2-2s0.9-2,2-2h12.2c1.1,0,2.1,0.9,2.1,2S-774.2,3167.2-775.4,3167.2z
		 M-799.9,3167.2h-12.2c-1.1,0-2-0.9-2-2s0.9-2,2-2h12.2c1.1,0,2,0.9,2,2S-798.8,3167.2-799.9,3167.2z M-824.4,3167.2h-12.2
		c-1.1,0-2-0.9-2-2s0.9-2,2-2h12.2c1.1,0,2,0.9,2,2C-822.3,3166.3-823.2,3167.2-824.4,3167.2z M-876.2,3193.2h-34.4
		c-1.5,0-2.8-1.2-2.8-2.8c0-1.5,1.2-2.8,2.8-2.8h34.4c1.5,0,2.8,1.2,2.8,2.8C-873.5,3192-874.7,3193.2-876.2,3193.2z M-927.4,3193.2
		h-16.7c-1.5,0-2.8-1.2-2.8-2.8c0-1.5,1.2-2.8,2.8-2.8h16.7c1.5,0,2.8,1.2,2.8,2.8S-925.8,3193.2-927.4,3193.2z M-960.9,3193.2
		h-16.7c-1.5,0-2.8-1.2-2.8-2.8c0-1.5,1.2-2.8,2.8-2.8h16.7c1.5,0,2.8,1.2,2.8,2.8S-959.3,3193.2-960.9,3193.2z M-994.3,3193.2
		h-16.7c-1.5,0-2.8-1.2-2.8-2.8c0-1.5,1.2-2.8,2.8-2.8h16.7c1.5,0,2.8,1.2,2.8,2.8C-991.6,3192-992.8,3193.2-994.3,3193.2z
		 M-1027.8,3193.2h-16.8c-1.5,0-2.8-1.2-2.8-2.8c0-1.5,1.2-2.8,2.8-2.8h16.7c1.5,0,2.8,1.2,2.8,2.8S-1026.3,3193.2-1027.8,3193.2z
		 M-1061.3,3193.2h-16.7c-1.5,0-2.8-1.2-2.8-2.8c0-1.5,1.2-2.8,2.8-2.8h16.7c1.5,0,2.8,1.2,2.8,2.8S-1059.8,3193.2-1061.3,3193.2z
		 M-1094.8,3193.2h-16.2c-0.2,0-0.5,0-0.7,0c-1.5-0.1-2.7-1.4-2.6-2.9s1.3-2.7,2.9-2.6c0.1,0,0.3,0,0.4,0h16.2
		c1.5,0,2.8,1.2,2.8,2.8C-1092,3192-1093.3,3193.2-1094.8,3193.2z M-767.4,3159.4C-767.5,3159.4-767.5,3159.4-767.4,3159.4
		c-1.2,0-2.1-1-2-2.1v-0.2v-12c0-1.1,0.9-2,2-2s2,0.9,2,2v12.3C-765.5,3158.6-766.4,3159.4-767.4,3159.4z M-1121.9,3182.2
		c-1.5,0-2.8-1.2-2.8-2.8v-16.7c0-1.5,1.2-2.8,2.8-2.8c1.5,0,2.8,1.2,2.8,2.8v16.7C-1119.2,3180.9-1120.4,3182.2-1121.9,3182.2z
		 M-767.4,3135c-1.1,0-2-0.9-2-2v-12.2c0-1.1,0.9-2,2-2s2,0.9,2,2v12.2C-765.4,3134.1-766.3,3135-767.4,3135z M-1121.9,3148.7
		c-1.5,0-2.8-1.2-2.8-2.8v-16.7c0-1.5,1.2-2.8,2.8-2.8c1.5,0,2.8,1.2,2.8,2.8v16.7C-1119.2,3147.4-1120.4,3148.7-1121.9,3148.7z
		 M-767.4,3110.5c-1.1,0-2-0.9-2-2v-12.2c0-1.1,0.9-2,2-2s2,0.9,2,2v12.2C-765.4,3109.6-766.3,3110.5-767.4,3110.5z M-1121.9,3115.2
		c-1.5,0-2.8-1.2-2.8-2.8v-16.3c0-0.2,0-0.4,0-0.5c0.1-1.5,1.3-2.7,2.9-2.7c1.5,0.1,2.7,1.4,2.7,2.9v0.3v16.3
		C-1119.2,3113.9-1120.4,3115.2-1121.9,3115.2z M-775.1,3090.3L-775.1,3090.3h-0.4h-11.9c-1.1,0-2-0.9-2-2s0.9-2,2-2h11.9
		c0.2,0,0.3,0,0.5,0c1.1,0,2,1,1.9,2.1C-773.1,3089.4-774,3090.3-775.1,3090.3z M-799.5,3090.3h-12.2c-1.1,0-2-0.9-2-2s0.9-2,2-2
		h12.2c1.1,0,2,0.9,2,2C-797.5,3089.4-798.4,3090.3-799.5,3090.3z M-824,3090.3h-12.2c-1.1,0-2-0.9-2-2s0.9-2,2-2h12.2
		c1.1,0,2,0.9,2,2C-822,3089.4-822.9,3090.3-824,3090.3z M-875.7,3087.9h-34.4c-1.5,0-2.8-1.2-2.8-2.8c0-1.5,1.2-2.8,2.8-2.8h34.4
		c1.5,0,2.8,1.2,2.8,2.8C-873,3086.7-874.2,3087.9-875.7,3087.9z M-926.9,3087.9h-16.7c-1.5,0-2.8-1.2-2.8-2.8
		c0-1.5,1.2-2.8,2.8-2.8h16.7c1.5,0,2.8,1.2,2.8,2.8S-925.3,3087.9-926.9,3087.9z M-960.3,3087.9H-977c-1.5,0-2.8-1.2-2.8-2.8
		c0-1.5,1.2-2.8,2.8-2.8h16.7c1.5,0,2.8,1.2,2.8,2.8C-957.6,3086.7-958.8,3087.9-960.3,3087.9z M-993.8,3087.9h-16.8
		c-1.5,0-2.8-1.2-2.8-2.8c0-1.5,1.2-2.8,2.8-2.8h16.7c1.5,0,2.8,1.2,2.8,2.8S-992.3,3087.9-993.8,3087.9z M-1027.3,3087.9h-16.7
		c-1.5,0-2.8-1.2-2.8-2.8c0-1.5,1.2-2.8,2.8-2.8h16.7c1.5,0,2.8,1.2,2.8,2.8S-1025.8,3087.9-1027.3,3087.9z M-1060.8,3087.9h-16.7
		c-1.5,0-2.8-1.2-2.8-2.8c0-1.5,1.2-2.8,2.8-2.8h16.7c1.5,0,2.8,1.2,2.8,2.8S-1059.3,3087.9-1060.8,3087.9z M-1094.3,3087.9h-16.7
		c-1.5,0-2.8-1.2-2.8-2.8c0-1.5,1.2-2.8,2.7-2.8h16.7c1.5,0,2.8,1.2,2.8,2.8C-1091.5,3086.7-1092.8,3087.9-1094.3,3087.9z"/>
</g>
<g>
	<path class="st2" d="M-1648.8,2437.4h-13.6c-1.3,0-2.3-1-2.3-2.3s1-2.3,2.3-2.3h13.5c1.3,0,2.3,1,2.3,2.3
		S-1647.6,2437.4-1648.8,2437.4z M-1676,2437.4h-13.5c-1.3,0-2.3-1-2.3-2.3s1-2.3,2.3-2.3h13.5c1.3,0,2.3,1,2.3,2.3
		S-1674.7,2437.4-1676,2437.4z M-1703.1,2437.4h-13.5c-1.3,0-2.3-1-2.3-2.3s1-2.3,2.3-2.3h13.5c1.3,0,2.3,1,2.3,2.3
		C-1700.8,2436.4-1701.8,2437.4-1703.1,2437.4z M-1730.1,2437.4h-13.5c-1.3,0-2.3-1-2.3-2.3s1-2.3,2.3-2.3h13.5c1.3,0,2.3,1,2.3,2.3
		C-1727.8,2436.4-1728.9,2437.4-1730.1,2437.4z M-1757.2,2437.4h-13.5c-1.3,0-2.3-1-2.3-2.3s1-2.3,2.3-2.3h13.5c1.3,0,2.3,1,2.3,2.3
		C-1754.9,2436.4-1755.9,2437.4-1757.2,2437.4z M-1784.2,2437.4h-13.5c-1.3,0-2.3-1-2.3-2.3s1-2.3,2.3-2.3h13.5c1.3,0,2.3,1,2.3,2.3
		C-1782,2436.4-1783,2437.4-1784.2,2437.4z M-1811.3,2437.4h-13.5c-1.3,0-2.3-1-2.3-2.3s1-2.3,2.3-2.3h13.5c1.3,0,2.3,1,2.3,2.3
		S-1810.1,2437.4-1811.3,2437.4z M-1838.1,2435.9c-0.4,0-0.8-0.1-1.1-0.3c-4.2-2.4-6.9-6.9-6.9-11.8v-1.7c0-1.3,1-2.3,2.3-2.3
		s2.3,1,2.3,2.3v1.7c0,3.2,1.7,6.2,4.5,7.8c1.1,0.6,1.5,2,0.9,3.1C-1836.6,2435.5-1837.3,2435.9-1838.1,2435.9z M-1638.4,2430.1
		c-0.3,0-0.5,0-0.8-0.1c-1.2-0.4-1.8-1.8-1.3-2.9c0.4-1,0.6-2.1,0.6-3.2v-9.5c0-1.3,1-2.3,2.3-2.3s2.3,1,2.3,2.3v9.5
		c0,1.6-0.3,3.2-0.9,4.8C-1636.6,2429.5-1637.5,2430.1-1638.4,2430.1z M-1843.8,2411c-1.3,0-2.3-1-2.3-2.3v-13.5
		c0-1.3,1-2.3,2.3-2.3s2.3,1,2.3,2.3v13.5C-1841.5,2409.9-1842.6,2411-1843.8,2411z M-1637.7,2403.1c-1.3,0-2.3-1-2.3-2.3v-13.5
		c0-1.3,1-2.3,2.3-2.3s2.3,1,2.3,2.3v13.5C-1635.4,2402.1-1636.4,2403.1-1637.7,2403.1z M-1843.8,2383.9c-1.3,0-2.3-1-2.3-2.3v-13.5
		c0-1.3,1-2.3,2.3-2.3s2.3,1,2.3,2.3v13.5C-1841.5,2382.9-1842.6,2383.9-1843.8,2383.9z M-1637.7,2376.1c-1.3,0-2.3-1-2.3-2.3v-13.5
		c0-1.3,1-2.3,2.3-2.3s2.3,1,2.3,2.3v13.5C-1635.4,2375-1636.4,2376.1-1637.7,2376.1z M-1843.8,2356.8c-1.3,0-2.3-1-2.3-2.3V2341
		c0-1.3,1-2.3,2.3-2.3s2.3,1,2.3,2.3v13.5C-1841.5,2355.8-1842.6,2356.8-1843.8,2356.8z M-1637.7,2349c-1.3,0-2.3-1-2.3-2.3v-13.5
		c0-1.3,1-2.3,2.3-2.3s2.3,1,2.3,2.3v13.5C-1635.4,2348-1636.4,2349-1637.7,2349z M-1843.8,2329.8c-1.3,0-2.3-1-2.3-2.3v-13.6
		c0-1.3,1-2.3,2.3-2.3s2.3,1,2.3,2.3v13.5C-1841.5,2328.7-1842.6,2329.8-1843.8,2329.8z M-1637.7,2321.9c-1.3,0-2.3-1-2.3-2.3v-13.5
		c0-1.3,1-2.3,2.3-2.3s2.3,1,2.3,2.3v13.5C-1635.4,2320.9-1636.4,2321.9-1637.7,2321.9z M-1843.8,2302.7c-1.3,0-2.3-1-2.3-2.3v-13.5
		c0-1.3,1-2.3,2.3-2.3s2.3,1,2.3,2.3v13.5C-1841.5,2301.7-1842.6,2302.7-1843.8,2302.7z M-1637.7,2294.9c-1.3,0-2.3-1-2.3-2.3v-13.5
		c0-1.3,1-2.3,2.3-2.3s2.3,1,2.3,2.3v13.5C-1635.4,2293.8-1636.4,2294.9-1637.7,2294.9z M-1843.8,2275.6c-1.3,0-2.3-1-2.3-2.3v-9.4
		c0-1.7,0.3-3.3,0.9-4.8c0.4-1.2,1.8-1.8,2.9-1.3c1.2,0.4,1.8,1.8,1.3,2.9c-0.4,1-0.6,2.1-0.6,3.2v9.4
		C-1841.5,2274.6-1842.6,2275.6-1843.8,2275.6z M-1637.7,2267.8c-1.3,0-2.3-1-2.3-2.3v-1.6c0-3.2-1.8-6.2-4.6-7.8
		c-1.1-0.6-1.5-2-0.9-3.1s2-1.5,3.1-0.9c4.3,2.4,6.9,6.9,6.9,11.8v1.6C-1635.4,2266.8-1636.4,2267.8-1637.7,2267.8z M-1656.7,2254.9
		h-13.5c-1.3,0-2.3-1-2.3-2.3s1-2.3,2.3-2.3h13.5c1.3,0,2.3,1,2.3,2.3C-1654.4,2253.9-1655.4,2254.9-1656.7,2254.9z M-1683.8,2254.9
		h-13.5c-1.3,0-2.3-1-2.3-2.3s1-2.3,2.3-2.3h13.5c1.3,0,2.3,1,2.3,2.3S-1682.5,2254.9-1683.8,2254.9z M-1710.8,2254.9h-13.5
		c-1.3,0-2.3-1-2.3-2.3s1-2.3,2.3-2.3h13.5c1.3,0,2.3,1,2.3,2.3C-1708.6,2253.9-1709.6,2254.9-1710.8,2254.9z M-1737.9,2254.9h-13.5
		c-1.3,0-2.3-1-2.3-2.3s1-2.3,2.3-2.3h13.5c1.3,0,2.3,1,2.3,2.3S-1736.6,2254.9-1737.9,2254.9z M-1765,2254.9h-13.5
		c-1.3,0-2.3-1-2.3-2.3s1-2.3,2.3-2.3h13.5c1.3,0,2.3,1,2.3,2.3S-1763.7,2254.9-1765,2254.9z M-1792,2254.9h-13.6
		c-1.3,0-2.3-1-2.3-2.3s1-2.3,2.3-2.3h13.5c1.3,0,2.3,1,2.3,2.3C-1789.7,2253.9-1790.8,2254.9-1792,2254.9z M-1819.1,2254.9h-13.5
		c-1.3,0-2.3-1-2.3-2.3s1-2.3,2.3-2.3h13.5c1.3,0,2.3,1,2.3,2.3C-1816.8,2253.9-1817.8,2254.9-1819.1,2254.9z"/>
</g>
<g>
	<path class="st2" d="M-775.4,3280.1h-12.3c-1.1,0-2-0.9-2-2s0.9-2,2-2h12.2c1.1,0,2.1,0.9,2.1,2
		C-773.4,3279.2-774.2,3280.1-775.4,3280.1z M-799.9,3280.1h-12.2c-1.1,0-2-0.9-2-2s0.9-2,2-2h12.2c1.1,0,2,0.9,2,2
		C-797.9,3279.2-798.8,3280.1-799.9,3280.1z M-824.4,3280.1h-12.2c-1.1,0-2-0.9-2-2s0.9-2,2-2h12.2c1.1,0,2,0.9,2,2
		C-822.3,3279.2-823.2,3280.1-824.4,3280.1z M-876.2,3347.7h-34.4c-1.5,0-2.8-1.2-2.8-2.8c0-1.5,1.2-2.8,2.8-2.8h34.4
		c1.5,0,2.8,1.2,2.8,2.8C-873.5,3346.5-874.7,3347.7-876.2,3347.7z M-927.4,3347.7h-16.7c-1.5,0-2.8-1.2-2.8-2.8
		c0-1.5,1.2-2.8,2.8-2.8h16.7c1.5,0,2.8,1.2,2.8,2.8S-925.8,3347.7-927.4,3347.7z M-960.9,3347.7h-16.7c-1.5,0-2.8-1.2-2.8-2.8
		c0-1.5,1.2-2.8,2.8-2.8h16.7c1.5,0,2.8,1.2,2.8,2.8S-959.3,3347.7-960.9,3347.7z M-994.3,3347.7h-16.7c-1.5,0-2.8-1.2-2.8-2.8
		c0-1.5,1.2-2.8,2.8-2.8h16.7c1.5,0,2.8,1.2,2.8,2.8C-991.6,3346.5-992.8,3347.7-994.3,3347.7z M-1027.8,3347.7h-16.8
		c-1.5,0-2.8-1.2-2.8-2.8c0-1.5,1.2-2.8,2.8-2.8h16.7c1.5,0,2.8,1.2,2.8,2.8S-1026.3,3347.7-1027.8,3347.7z M-1061.3,3347.7h-16.7
		c-1.5,0-2.8-1.2-2.8-2.8c0-1.5,1.2-2.8,2.8-2.8h16.7c1.5,0,2.8,1.2,2.8,2.8S-1059.8,3347.7-1061.3,3347.7z M-1094.8,3347.7h-16.2
		c-0.2,0-0.5,0-0.7,0c-1.5-0.1-2.7-1.4-2.6-2.9s1.3-2.7,2.9-2.6c0.1,0,0.3,0,0.4,0h16.2c1.5,0,2.8,1.2,2.8,2.8
		C-1092,3346.5-1093.3,3347.7-1094.8,3347.7z M-767.4,3272.3C-767.5,3272.3-767.5,3272.3-767.4,3272.3c-1.2,0-2.1-1-2-2.1v-0.2v-12
		c0-1.1,0.9-2,2-2s2,0.9,2,2v12.3C-765.5,3271.4-766.4,3272.3-767.4,3272.3z M-1121.9,3336.7c-1.5,0-2.8-1.2-2.8-2.8v-16.7
		c0-1.5,1.2-2.8,2.8-2.8c1.5,0,2.8,1.2,2.8,2.8v16.7C-1119.2,3335.4-1120.4,3336.7-1121.9,3336.7z M-767.4,3247.9c-1.1,0-2-0.9-2-2
		v-12.2c0-1.1,0.9-2,2-2s2,0.9,2,2v12.2C-765.4,3246.9-766.3,3247.9-767.4,3247.9z M-1121.9,3303.2c-1.5,0-2.8-1.2-2.8-2.8v-16.7
		c0-1.5,1.2-2.8,2.8-2.8c1.5,0,2.8,1.2,2.8,2.8v16.7C-1119.2,3302-1120.4,3303.2-1121.9,3303.2z M-767.4,3223.4c-1.1,0-2-0.9-2-2
		v-12.2c0-1.1,0.9-2,2-2s2,0.9,2,2v12.2C-765.4,3222.5-766.3,3223.4-767.4,3223.4z M-1121.9,3269.7c-1.5,0-2.8-1.2-2.8-2.8v-16.3
		c0-0.2,0-0.4,0-0.5c0.1-1.5,1.3-2.7,2.9-2.7c1.5,0.1,2.7,1.4,2.7,2.9v0.3v16.3C-1119.2,3268.5-1120.4,3269.7-1121.9,3269.7z
		 M-775.1,3203.1L-775.1,3203.1h-0.4h-11.9c-1.1,0-2-0.9-2-2s0.9-2,2-2h11.9c0.2,0,0.3,0,0.5,0c1.1,0,2,1,1.9,2.1
		C-773.1,3202.3-774,3203.1-775.1,3203.1z M-799.5,3203.1h-12.2c-1.1,0-2-0.9-2-2s0.9-2,2-2h12.2c1.1,0,2,0.9,2,2
		C-797.5,3202.2-798.4,3203.1-799.5,3203.1z M-824,3203.1h-12.2c-1.1,0-2-0.9-2-2s0.9-2,2-2h12.2c1.1,0,2,0.9,2,2
		C-822,3202.2-822.9,3203.1-824,3203.1z M-875.7,3242.4h-34.4c-1.5,0-2.8-1.2-2.8-2.8c0-1.5,1.2-2.8,2.8-2.8h34.4
		c1.5,0,2.8,1.2,2.8,2.8C-873,3241.2-874.2,3242.4-875.7,3242.4z M-926.9,3242.4h-16.7c-1.5,0-2.8-1.2-2.8-2.8
		c0-1.5,1.2-2.8,2.8-2.8h16.7c1.5,0,2.8,1.2,2.8,2.8S-925.3,3242.4-926.9,3242.4z M-960.3,3242.4H-977c-1.5,0-2.8-1.2-2.8-2.8
		c0-1.5,1.2-2.8,2.8-2.8h16.7c1.5,0,2.8,1.2,2.8,2.8C-957.6,3241.2-958.8,3242.4-960.3,3242.4z M-993.8,3242.4h-16.8
		c-1.5,0-2.8-1.2-2.8-2.8c0-1.5,1.2-2.8,2.8-2.8h16.7c1.5,0,2.8,1.2,2.8,2.8S-992.3,3242.4-993.8,3242.4z M-1027.3,3242.4h-16.7
		c-1.5,0-2.8-1.2-2.8-2.8c0-1.5,1.2-2.8,2.8-2.8h16.7c1.5,0,2.8,1.2,2.8,2.8S-1025.8,3242.4-1027.3,3242.4z M-1060.8,3242.4h-16.7
		c-1.5,0-2.8-1.2-2.8-2.8c0-1.5,1.2-2.8,2.8-2.8h16.7c1.5,0,2.8,1.2,2.8,2.8S-1059.3,3242.4-1060.8,3242.4z M-1094.3,3242.4h-16.7
		c-1.5,0-2.8-1.2-2.8-2.8c0-1.5,1.2-2.8,2.7-2.8h16.7c1.5,0,2.8,1.2,2.8,2.8C-1091.5,3241.2-1092.8,3242.4-1094.3,3242.4z"/>
</g>
<g>
	<path class="st2" d="M-1740.4,3195h-12.2c-1.1,0-2-0.9-2-2s0.9-2,2-2h12.1c1.1,0,2.1,0.9,2.1,2S-1739.3,3195-1740.4,3195z
		 M-1764.8,3195h-12.1c-1.1,0-2-0.9-2-2s0.9-2,2-2h12.1c1.1,0,2,0.9,2,2C-1762.7,3194.1-1763.6,3195-1764.8,3195z M-1789,3195h-12.1
		c-1.1,0-2-0.9-2-2s0.9-2,2-2h12.1c1.1,0,2,0.9,2,2S-1787.9,3195-1789,3195z M-1813.3,3195h-12.1c-1.1,0-2-0.9-2-2s0.9-2,2-2h12.1
		c1.1,0,2,0.9,2,2C-1811.2,3194.1-1812.1,3195-1813.3,3195z M-1837.5,3195h-12.1c-1.1,0-2-0.9-2-2s0.9-2,2-2h12.1c1.1,0,2,0.9,2,2
		S-1836.4,3195-1837.5,3195z M-1861.7,3195h-12.1c-1.1,0-2-0.9-2-2s0.9-2,2-2h12.1c1.1,0,2,0.9,2,2S-1860.6,3195-1861.7,3195z
		 M-1886,3195h-12.1c-1.1,0-2-0.9-2-2s0.9-2,2-2h12.1c1.1,0,2,0.9,2,2S-1884.9,3195-1886,3195z M-1910.2,3195h-12.1
		c-1.1,0-2-0.9-2-2s0.9-2,2-2h12.1c1.1,0,2,0.9,2,2S-1909.1,3195-1910.2,3195z M-1934.5,3195h-12.1c-1.1,0-2-0.9-2-2s0.9-2,2-2h12.1
		c1.1,0,2,0.9,2,2S-1933.4,3195-1934.5,3195z M-1958.7,3195h-12.1c-1.1,0-2-0.9-2-2s0.9-2,2-2h12.1c1.1,0,2,0.9,2,2
		S-1957.6,3195-1958.7,3195z M-1983,3195h-12.1c-1.1,0-2-0.9-2-2s0.9-2,2-2h12.1c1.1,0,2,0.9,2,2S-1981.9,3195-1983,3195z
		 M-2007.2,3195h-12.1c-1.1,0-2-0.9-2-2s0.9-2,2-2h12.1c1.1,0,2,0.9,2,2S-2006.1,3195-2007.2,3195z M-2031.5,3195h-12.1
		c-1.1,0-2-0.9-2-2s0.9-2,2-2h12.1c1.1,0,2,0.9,2,2S-2030.4,3195-2031.5,3195z M-2055.7,3195h-12.1c-1.1,0-2-0.9-2-2s0.9-2,2-2h12.1
		c1.1,0,2,0.9,2,2S-2054.6,3195-2055.7,3195z M-2080,3195h-12.1c-1.1,0-2-0.9-2-2s0.9-2,2-2h12.1c1.1,0,2,0.9,2,2
		C-2077.9,3194.1-2078.9,3195-2080,3195z M-2104.2,3195h-9.7c-0.9,0-1.8-0.1-2.7-0.2c-1.1-0.1-1.9-1.1-1.8-2.2
		c0.1-1.1,1.1-1.9,2.2-1.8c0.7,0.1,1.5,0.1,2.2,0.1h9.7c1.1,0,2,0.9,2,2C-2102.2,3194.1-2103.1,3195-2104.2,3195z M-1729,3191.5
		c-0.7,0-1.3-0.3-1.7-0.9c-0.6-0.9-0.4-2.2,0.6-2.8c3.1-2.1,5.4-4.9,6.8-8.3c0.4-1,1.6-1.5,2.6-1.1s1.5,1.6,1.1,2.6
		c-1.7,4.1-4.6,7.6-8.3,10.1C-1728.2,3191.4-1728.6,3191.5-1729,3191.5z M-2127.3,3190.1c-0.5,0-0.9-0.2-1.3-0.5
		c-3.4-2.9-5.9-6.7-7.1-11c-0.3-1.1,0.3-2.2,1.4-2.5s2.2,0.3,2.5,1.4c1,3.5,3,6.7,5.8,9.1c0.9,0.7,1,2,0.2,2.9
		C-2126.1,3189.9-2126.7,3190.1-2127.3,3190.1z M-1719.9,3170.4c-1.1,0-2-0.9-2-2v-12.1c0-1.1,0.9-2,2-2s2,0.9,2,2v12.1
		C-1717.8,3169.5-1718.7,3170.4-1719.9,3170.4z M-2134.5,3168c-1.1,0-2-0.9-2-2v-12.1c0-1.1,0.9-2,2-2s2,0.9,2,2v12.1
		C-2132.5,3167.1-2133.4,3168-2134.5,3168z M-1719.9,3146.1c-1.1,0-2-0.9-2-2V3132c0-1.1,0.9-2,2-2s2,0.9,2,2v12.1
		C-1717.8,3145.2-1718.7,3146.1-1719.9,3146.1z M-2134.5,3143.8c-1.1,0-2-0.9-2-2v-12.1c0-1.1,0.9-2,2-2s2,0.9,2,2v12.1
		C-2132.5,3142.9-2133.4,3143.8-2134.5,3143.8z M-1719.9,3121.9c-1.1,0-2-0.9-2-2v-12.1c0-1.1,0.9-2,2-2s2,0.9,2,2v12.1
		C-1717.8,3121-1718.7,3121.9-1719.9,3121.9z M-2134.5,3119.5c-1.1,0-2-0.9-2-2v-12.1c0-1.1,0.9-2,2-2s2,0.9,2,2v12.1
		C-2132.5,3118.6-2133.4,3119.5-2134.5,3119.5z M-1719.9,3097.6c-1.1,0-2-0.9-2-2v-12.1c0-1.1,0.9-2,2-2s2,0.9,2,2v12.1
		C-1717.8,3096.7-1718.7,3097.6-1719.9,3097.6z M-2134.5,3095.3c-1.1,0-2-0.9-2-2v-12.1c0-1.1,0.9-2,2-2s2,0.9,2,2v12.1
		C-2132.5,3094.4-2133.4,3095.3-2134.5,3095.3z M-1719.9,3073.4c-1.1,0-2-0.9-2-2v-12.1c0-1.1,0.9-2,2-2s2,0.9,2,2v12.1
		C-1717.8,3072.5-1718.7,3073.4-1719.9,3073.4z M-2134.5,3071c-1.1,0-2-0.9-2-2v-12.1c0-1.1,0.9-2,2-2s2,0.9,2,2v12.1
		C-2132.5,3070.1-2133.4,3071-2134.5,3071z M-1719.9,3049.1c-1.1,0-2-0.9-2-2V3035c0-1.1,0.9-2,2-2s2,0.9,2,2v12.1
		C-1717.8,3048.2-1718.7,3049.1-1719.9,3049.1z M-2134.5,3046.8c-1.1,0-2-0.9-2-2v-12.1c0-1.1,0.9-2,2-2s2,0.9,2,2v12.1
		C-2132.5,3045.9-2133.4,3046.8-2134.5,3046.8z M-1719.9,3024.9c-1.1,0-2-0.9-2-2v-12.1c0-1.1,0.9-2,2-2s2,0.9,2,2v12.1
		C-1717.8,3024-1718.7,3024.9-1719.9,3024.9z M-2134.5,3022.5c-1.1,0-2-0.9-2-2v-12.1c0-1.1,0.9-2,2-2s2,0.9,2,2v12.1
		C-2132.5,3021.6-2133.4,3022.5-2134.5,3022.5z M-1719.9,3000.6c-1.1,0-2-0.9-2-2v-12.1c0-1.1,0.9-2,2-2s2,0.9,2,2v12.1
		C-1717.8,2999.7-1718.7,3000.6-1719.9,3000.6z M-2134.5,2998.3c-1.1,0-2-0.9-2-2v-12.1c0-1.1,0.9-2,2-2s2,0.9,2,2v12.1
		C-2132.5,2997.4-2133.4,2998.3-2134.5,2998.3z M-1719.9,2976.4c-1.1,0-2-0.9-2-2v-12.1c0-1.1,0.9-2,2-2s2,0.9,2,2v12.1
		C-1717.8,2975.5-1718.7,2976.4-1719.9,2976.4z M-2134.5,2974c-1.1,0-2-0.9-2-2v-12.1c0-1.1,0.9-2,2-2s2,0.9,2,2v12.1
		C-2132.5,2973.1-2133.4,2974-2134.5,2974z M-1719.9,2952.2c-1.1,0-2-0.9-2-2v-12.1c0-1.1,0.9-2,2-2s2,0.9,2,2v12.1
		C-1717.8,2951.2-1718.7,2952.2-1719.9,2952.2z M-2134.5,2949.8c-1.1,0-2-0.9-2-2v-12.1c0-1.1,0.9-2,2-2s2,0.9,2,2v12.1
		C-2132.5,2948.9-2133.4,2949.8-2134.5,2949.8z M-1719.9,2927.9c-1.1,0-2-0.9-2-2v-12.1c0-1.1,0.9-2,2-2s2,0.9,2,2v12.1
		C-1717.8,2927-1718.7,2927.9-1719.9,2927.9z M-2134.5,2925.5c-1.1,0-2-0.9-2-2v-12.1c0-1.1,0.9-2,2-2s2,0.9,2,2v12.1
		C-2132.5,2924.6-2133.4,2925.5-2134.5,2925.5z M-1720.7,2903.7c-0.9,0-1.7-0.6-1.9-1.5c-1-3.5-3-6.7-5.9-9c-0.9-0.7-1-2-0.2-2.9
		c0.7-0.9,2-1,2.9-0.2c3.4,2.9,5.9,6.7,7.1,11c0.3,1.1-0.3,2.2-1.4,2.5C-1720.3,2903.7-1720.5,2903.7-1720.7,2903.7z M-2133,2901.5
		c-0.3,0-0.5-0.1-0.8-0.2c-1-0.4-1.5-1.6-1.1-2.6c1.7-4.1,4.6-7.6,8.3-10.1c0.9-0.6,2.2-0.4,2.8,0.6c0.6,0.9,0.4,2.2-0.6,2.8
		c-3.1,2-5.4,4.9-6.9,8.3C-2131.4,2901-2132.2,2901.5-2133,2901.5z M-1738.1,2889c-0.1,0-0.2,0-0.2,0c-0.7-0.1-1.4-0.1-2.2-0.1h-9.7
		c-1.1,0-2-0.9-2-2s0.9-2,2-2h9.7c0.9,0,1.8,0.1,2.6,0.1c1.1,0.1,1.9,1.1,1.8,2.2C-1736.2,2888.2-1737.1,2889-1738.1,2889z
		 M-1762.4,2888.8h-12.1c-1.1,0-2-0.9-2-2s0.9-2,2-2h12.1c1.1,0,2,0.9,2,2C-1760.3,2887.9-1761.2,2888.8-1762.4,2888.8z
		 M-1786.6,2888.8h-12.1c-1.1,0-2-0.9-2-2s0.9-2,2-2h12.1c1.1,0,2,0.9,2,2C-1784.6,2887.9-1785.5,2888.8-1786.6,2888.8z
		 M-1810.9,2888.8h-12.1c-1.1,0-2-0.9-2-2s0.9-2,2-2h12.1c1.1,0,2,0.9,2,2C-1808.8,2887.9-1809.7,2888.8-1810.9,2888.8z
		 M-1835.1,2888.8h-12.1c-1.1,0-2-0.9-2-2s0.9-2,2-2h12.1c1.1,0,2,0.9,2,2C-1833.1,2887.9-1834,2888.8-1835.1,2888.8z
		 M-1859.3,2888.8h-12.1c-1.1,0-2-0.9-2-2s0.9-2,2-2h12.1c1.1,0,2,0.9,2,2C-1857.3,2887.9-1858.2,2888.8-1859.3,2888.8z
		 M-1883.6,2888.8h-12.1c-1.1,0-2-0.9-2-2s0.9-2,2-2h12.1c1.1,0,2,0.9,2,2C-1881.6,2887.9-1882.5,2888.8-1883.6,2888.8z
		 M-1907.8,2888.8h-12.1c-1.1,0-2-0.9-2-2s0.9-2,2-2h12.1c1.1,0,2,0.9,2,2C-1905.8,2887.9-1906.7,2888.8-1907.8,2888.8z
		 M-1932.1,2888.8h-12.1c-1.1,0-2-0.9-2-2s0.9-2,2-2h12.1c1.1,0,2,0.9,2,2C-1930.1,2887.9-1931,2888.8-1932.1,2888.8z
		 M-1956.3,2888.8h-12.1c-1.1,0-2-0.9-2-2s0.9-2,2-2h12.1c1.1,0,2,0.9,2,2C-1954.3,2887.9-1955.2,2888.8-1956.3,2888.8z
		 M-1980.6,2888.8h-12.1c-1.1,0-2-0.9-2-2s0.9-2,2-2h12.1c1.1,0,2,0.9,2,2C-1978.6,2887.9-1979.5,2888.8-1980.6,2888.8z
		 M-2004.8,2888.8h-12.1c-1.1,0-2-0.9-2-2s0.9-2,2-2h12.1c1.1,0,2,0.9,2,2C-2002.8,2887.9-2003.7,2888.8-2004.8,2888.8z
		 M-2029.1,2888.8h-12.1c-1.1,0-2-0.9-2-2s0.9-2,2-2h12.1c1.1,0,2,0.9,2,2C-2027,2887.9-2028,2888.8-2029.1,2888.8z M-2053.3,2888.8
		h-12.1c-1.1,0-2-0.9-2-2s0.9-2,2-2h12.1c1.1,0,2,0.9,2,2C-2051.3,2887.9-2052.2,2888.8-2053.3,2888.8z M-2077.6,2888.8h-12.1
		c-1.1,0-2-0.9-2-2s0.9-2,2-2h12.1c1.1,0,2,0.9,2,2C-2075.5,2887.9-2076.4,2888.8-2077.6,2888.8z M-2101.8,2888.8h-12.1
		c-1.1,0-2-0.9-2-2s0.9-2,2-2h12.1c1.1,0,2,0.9,2,2C-2099.8,2887.9-2100.7,2888.8-2101.8,2888.8z"/>
</g>
<path class="st2" d="M-1614.3,2823.4h-506.6c-6,0-10.9-4.9-10.9-10.9v-284.4c0-6,4.9-10.9,10.9-10.9h506.6c6,0,10.9,4.9,10.9,10.9
	v284.5C-1603.4,2818.6-1608.3,2823.4-1614.3,2823.4z"/>
<path class="st1" d="M-1927.2,2609.6v121.5c0,7.6,8.4,12.1,14.8,8l92.3-60.7c5.7-3.8,5.7-12.2,0-15.9l-92.3-60.7
	C-1918.8,2597.4-1927.2,2602-1927.2,2609.6z"/>
<g>
	<path class="st3" d="M-2104.3,2795.8c0-5.2,4.2-9.5,9.5-9.5c5.2,0,9.5,4.2,9.5,9.5c0,5.2-4.2,9.5-9.5,9.5
		C-2100,2805.3-2104.3,2801-2104.3,2795.8z"/>
	<path class="st3" d="M-1663.4,2798.4h-428.8c-1.4,0-2.6-1.1-2.6-2.6l0,0c0-1.4,1.1-2.6,2.6-2.6h428.8c1.4,0,2.6,1.1,2.6,2.6l0,0
		C-1660.9,2797.2-1662,2798.4-1663.4,2798.4z"/>
</g>
<rect x="-1637.7" y="2886.8" class="st2" width="273.3" height="408"/>
<g>
	<path class="st2" d="M-414.3,2194.5h-94.4c-4,0-7.2-3.2-7.2-7.2l0,0c0-4,3.2-7.2,7.2-7.2h94.4c4,0,7.2,3.2,7.2,7.2l0,0
		C-407.1,2191.3-410.3,2194.5-414.3,2194.5z"/>
	<path class="st2" d="M-414.3,2222.7h-94.4c-4,0-7.2-3.2-7.2-7.2l0,0c0-4,3.2-7.2,7.2-7.2h94.4c4,0,7.2,3.2,7.2,7.2l0,0
		C-407.1,2219.5-410.3,2222.7-414.3,2222.7z"/>
	<path class="st2" d="M-414.3,2251.6h-94.4c-4,0-7.2-3.2-7.2-7.2l0,0c0-4,3.2-7.2,7.2-7.2h94.4c4,0,7.2,3.2,7.2,7.2l0,0
		C-407.1,2248.4-410.3,2251.6-414.3,2251.6z"/>
</g>
<path class="st1" d="M-574,2885.9h-412.8c-9.1,0-16.6-5.9-16.6-13.1l0,0c0-7.2,7.5-13.1,16.6-13.1H-574c9.1,0,16.6,5.9,16.6,13.1
	l0,0C-557.3,2880-564.8,2885.9-574,2885.9z"/>
<path class="st2" d="M-1883,2275.7h-224.8c-5.3,0-9.6-4.3-9.6-9.6l0,0c0-5.3,4.3-9.6,9.6-9.6h224.8c5.3,0,9.6,4.3,9.6,9.6l0,0
	C-1873.4,2271.4-1877.7,2275.7-1883,2275.7z"/>
<path class="st1" d="M-574,3015.9h-412.8c-9.1,0-16.6-5.9-16.6-13.1l0,0c0-7.2,7.5-13.1,16.6-13.1H-574c9.1,0,16.6,5.9,16.6,13.1
	l0,0C-557.3,3010-564.8,3015.9-574,3015.9z"/>
<path class="st1" d="M-596.4,2950.9h-467c13.2,0,5.7-5.9,5.7-13.1l0,0c0-7.2,7.5-13.1-5.7-13.1h467c31.5,0,38.9,5.9,38.9,13.1l0,0
	C-557.3,2945-564.8,2950.9-596.4,2950.9z"/>
<g>
	<path class="st2" d="M-1946.6,2335.9h-133.1c-2.3,0-4.1-1.9-4.1-4.1v-10.9c0-2.3,1.9-4.1,4.1-4.1h133.1c2.3,0,4.1,1.9,4.1,4.1v10.9
		C-1942.4,2334-1944.3,2335.9-1946.6,2335.9z"/>
	<path class="st2" d="M-2125.9,2326.3c0-5.3,4.3-9.6,9.6-9.6s9.6,4.3,9.6,9.6s-4.3,9.6-9.6,9.6
		C-2121.6,2335.9-2125.9,2331.6-2125.9,2326.3z"/>
</g>
<g>
	<path class="st2" d="M-1922.2,2373.9h-157.2c-2.5,0-4.5-2-4.5-4.5v-10.2c0-2.5,2-4.5,4.5-4.5h157.2c2.5,0,4.5,2,4.5,4.5v10.2
		C-1917.7,2371.9-1919.8,2373.9-1922.2,2373.9z"/>
	<path class="st2" d="M-2125.9,2364.4c0-5.3,4.3-9.6,9.6-9.6s9.6,4.3,9.6,9.6s-4.3,9.6-9.6,9.6
		C-2121.6,2373.9-2125.9,2369.7-2125.9,2364.4z"/>
</g>
<g>
	<path class="st2" d="M-1946.6,2415.3h-133.1c-2.3,0-4.1-1.9-4.1-4.1v-10.9c0-2.3,1.9-4.1,4.1-4.1h133.1c2.3,0,4.1,1.9,4.1,4.1v10.9
		C-1942.4,2413.4-1944.3,2415.3-1946.6,2415.3z"/>
	<path class="st2" d="M-2125.9,2405.7c0-5.3,4.3-9.6,9.6-9.6s9.6,4.3,9.6,9.6s-4.3,9.6-9.6,9.6S-2125.9,2411-2125.9,2405.7z"/>
</g>
<g>
	<path class="st2" d="M-2860.3,1226.4L-2860.3,1226.4c-4.3,0-8.8-3.1-10.1-7l-259.4-789.8c-1.3-3.9,1.2-7,5.5-7l0,0
		c4.3,0,8.8,3.1,10.1,7l259.4,789.8C-2853.5,1223.3-2856,1226.4-2860.3,1226.4z"/>
	<path class="st2" d="M-2651.2,1225.2L-2651.2,1225.2c-4.3,0-8.8-3.1-10.1-7l-259.4-789.8c-1.3-3.9,1.2-7,5.5-7l0,0
		c4.3,0,8.8,3.1,10.1,7l259.4,789.8C-2644.4,1222-2646.9,1225.2-2651.2,1225.2z"/>
	<path class="st2" d="M-2876.3,538.5l-209.9,1.2c-4,0-8.3-2.9-9.5-6.6l0,0c-1.2-3.6,1.1-6.6,5.2-6.6l209.9-1.2c4,0,8.3,2.9,9.5,6.6
		l0,0C-2869.9,535.5-2872.3,538.5-2876.3,538.5z"/>
	<path class="st2" d="M-2831,676.4l-209.9,1.2c-4,0-8.3-2.9-9.5-6.6l0,0c-1.2-3.6,1.1-6.6,5.2-6.6l209.9-1.2c4,0,8.3,2.9,9.5,6.6
		l0,0C-2824.6,673.4-2827,676.4-2831,676.4z"/>
	<path class="st2" d="M-2787.4,809.2l-209.9,1.2c-4,0-8.3-2.9-9.5-6.6l0,0c-1.2-3.6,1.1-6.6,5.2-6.6l209.9-1.2c4,0,8.3,2.9,9.5,6.6
		l0,0C-2781,806.2-2783.3,809.2-2787.4,809.2z"/>
	<path class="st2" d="M-2738.3,958.7l-209.9,1.2c-4,0-8.3-2.9-9.5-6.6l0,0c-1.2-3.6,1.1-6.6,5.2-6.6l209.9-1.2c4,0,8.3,2.9,9.5,6.6
		l0,0C-2731.9,955.7-2734.2,958.7-2738.3,958.7z"/>
	<path class="st2" d="M-2686.9,1115.2l-209.9,1.2c-4,0-8.3-2.9-9.5-6.6l0,0c-1.2-3.6,1.1-6.6,5.2-6.6l209.9-1.2c4,0,8.3,2.9,9.5,6.6
		l0,0C-2680.5,1112.2-2682.8,1115.2-2686.9,1115.2z"/>
</g>
<g>
	<path class="st3" d="M-3164.7,60.6L-3164.7,60.6c-1.6,0.3-3.3-0.8-3.6-2.4l-3.4-17.4c-0.3-1.6,0.8-3.3,2.4-3.6l0,0
		c1.6-0.3,3.3,0.8,3.6,2.4l3.4,17.4C-3162,58.6-3163.1,60.2-3164.7,60.6z"/>
	
		<rect x="-3173.6" y="7.9" transform="matrix(0.9818 -0.19 0.19 0.9818 -61.717 -602.4078)" class="st3" width="2.1" height="25.5"/>
	<path class="st4" d="M-3173.9-133.4c0,0-2-17.3-6.2-23.9c-4.2-6.6-20-10.8-21-9.9c-3.1,3,9.2,13.6,9.6,17.5c0.5,3.9-6.2,1.2-3,8.8
		c2.7,6.4,11.7,14.8,11.7,14.8L-3173.9-133.4z"/>
	<path class="st5" d="M-3181.5-135.4c5.8-4.5,7-4.4,7-4.4s53.4,46.2,58.6,50.4c5.2,4.1,85.4,27.4,85.4,27.4l12.7,65.2
		c0,0-108.5-52.4-121.4-63.1c-21.4-17.7-48.4-67.1-48.4-67.1S-3186.1-131.8-3181.5-135.4z"/>
	<path class="st2" d="M-3028.9,491c0,0-0.9,22.3-5.2,27.7l-59.5,0.3c0.4-2.3,0.7-7.6,8.9-9c10.4-1.8,22.6-9.1,28.9-22.8
		C-3049.1,472.7-3028.9,491-3028.9,491z"/>
	<path class="st2" d="M-2912.1,487.8c0,0,4.1,29.6-1.5,30.1c-0.7,0.1-24,0.4-34,0.6c-11.8,0.2-31.3-0.2-31.3-0.2
		c-2.4,0.1-4-2.5-2.8-4.7c1.4-2.3,4-4.8,8.9-5.7c10.4-2,27.6-9.6,33.7-23.5C-2932.7,469.9-2912.1,487.8-2912.1,487.8z"/>
	<path class="st6" d="M-3059.8,184.6c0,0,16.5,57.9,64,158.4c47.4,100.5,49.5,149,49.5,149s7.2,2.5,16.7,1.5
		c10.3-1.1,17.6-5.7,17.6-5.7s-3.1-119.7-25.5-170.4s-27-189.6-27-189.6L-3059.8,184.6z"/>
	<path class="st7" d="M-3086.4,134.7c0,0-1.3,89.6,14.2,199.7s8.3,161.3,8.3,161.3s4.1,3,16.8,2.9c14.8-0.1,22.4-6.2,22.4-6.2
		s22.2-110.1,15.8-165.2s30.4-189.1,30.4-189.1L-3086.4,134.7z"/>
	<path class="st4" d="M-3013.1-75l-17.5,13l-25.3-5.3c0.4-2.3,2-11.9,3.5-20.5c0.1-0.5,0.2-1,0.3-1.5c1.3-7.4,2.4-13.7,2.4-13.7
		l23.7-11.8l8.8-4.4c0,0.2-0.7,8.2-0.8,9.4C-3019.6-89.2-3013.1-75-3013.1-75z"/>
	<path class="st8" d="M-2962.9,145.8c-5.7,26.2-128.3,14.7-126.7-1.3c0.1-0.5,0.4-7.9,0.8-17.9c0.9-21.6,2.3-55.3,2.5-57.9v-0.1
		c2.2-22.3,4.3-44.1,4.5-58.3c0.1-12.3,1.8-25,4.1-36.4c2.1-10.6,4.6-20.2,6.9-27.6c1.6-5.3,4.5-9.9,8.4-13.5c2.8-2.6,6-4.7,9.6-6.1
		c1-0.4,2-0.7,3-1c14.4-4.2,34.4-9.4,39.8-7.8c14.7,4.3,25.5,30.1,33.3,63C-2962.5,42.3-2959.1,128.7-2962.9,145.8z"/>
	<path class="st9" d="M-3019.7-109.6c-5.2,9.9-24.5,18.5-32.6,21.7c0.1-0.5,0.2-1,0.3-1.5c1.3-7.4,2.4-13.7,2.4-13.7l23.7-11.8
		C-3020.8-115-3017.6-113.7-3019.7-109.6z"/>
	<path class="st4" d="M-3061.1-104.6c0,0,42.7,13.3,50.5-13.4c7.9-26.7,18.7-43-8.2-52.6s-35.2-1-40,7.3S-3072-108.7-3061.1-104.6z"
		/>
	<path class="st10" d="M-3057.2-165.9c0,0,2.7,31.1,9.1,29.7c6.4-1.3,12.3-2.3,11.3,7c-0.9,9.4-9.9,20.2,10,21.8
		c19.8,1.7,48.3-49.4,42.8-59.1C-2999.6-194.3-3079.9-199.9-3057.2-165.9z"/>
	<path class="st11" d="M-3088.8,126.6c0.9-21.6,2.3-55.3,2.5-57.9v-0.1l72.4-43.3C-3013.8,25.2-3011,126.3-3088.8,126.6z"/>
	<path class="st4" d="M-3146.4,36c0,0-14.7-10-17.5-10.8c-2.8-0.9-11.9-1.8-12.4-1.1c-0.4,0.7-1.7,2.9-0.1,3.7c1.6,0.8,3.6,0.5,3,1
		s-6.6-2.3-8,0.7c-1.4,3.1-2.6,13.6,4.5,16.8s24.5,0.3,25.7,0.7C-3140.5,50-3146.4,36-3146.4,36z"/>
	<path class="st5" d="M-3146.5,33.3c0,0,71.8,12.2,78.2,9.1c10.2-4.9-3.9-77.8-3.9-77.8s-0.6-16.5,18.7-20.4c16.8-3.4,33,9.2,33,9.2
		s14.7,13.2,12.8,27.8c-4.2,32.4-10.7,98.2-32.3,108.3c-27.9,13-108.7-36.1-108.7-36.1s-2.7-3.3-2.3-9.4
		C-3150.8,38.5-3146.5,33.3-3146.5,33.3z"/>
	<path class="st4" d="M-3194.8-141.7c0,0-4.6-9.1-5.3-10.9c-0.7-1.7,1.1-1.3,2.8-0.4c1.8,1,4.2,6.3,6.9,5.6
		C-3188.2-147.8-3194.8-141.7-3194.8-141.7z"/>
</g>
<g id="freepik--Shadow--inject-243">
	<ellipse id="freepik--path--inject-243" class="st12" cx="-2536.6" cy="1061.5" rx="635.1" ry="37"/>
</g>
<g>
	<path class="st8" d="M3731.2,520.8L3731.2,520.8l-7.8-4.1l0,0c-1.1-0.7-2.5-0.8-3.6-0.2l-134.2,76.4c-2.2,1.2-3.6,3.5-3.6,6v159.3
		c0.1,1.4,0.9,2.7,2.2,3.2l0,0l7.9,4.2l0,0c1,0.6,2.3,0.6,3.3,0l134.2-76.4c2.2-1.2,3.6-3.5,3.6-6V523.9
		C3733.2,522.6,3732.4,521.4,3731.2,520.8z"/>
	<path class="st13" d="M3581.9,598.9v159.3c0.1,1.4,0.9,2.7,2.2,3.2l0,0l7.9,4.2c-1-0.6-1.7-1.7-1.7-3V603.3c0-0.9,0.2-1.8,0.6-2.7
		l-8.2-4.7C3582.2,596.8,3581.9,597.8,3581.9,598.9z"/>
	<path class="st14" d="M3723.4,516.7L3723.4,516.7c-1.1-0.7-2.5-0.8-3.6-0.2l-134.2,76.4c-1.2,0.7-2.2,1.7-2.8,3l8.2,4.7
		c0.6-1.4,1.7-2.5,3-3.3l134.2-76.4c1-0.6,2.2-0.6,3.2,0l0,0L3723.4,516.7z"/>
	<path class="st2" d="M3674.4,576.6c1.9-1.1,3.9-2.2,6.1-3.3c2.2-1,4.3-2.1,6.3-2.9v18.8c-0.7,0.1-1.3,0.4-1.9,0.7l-2.5,1.3
		c-1.7,1-3.2,2.4-4.3,4c-1.2,1.7-1.9,3.8-1.8,5.9v5.5l10.5-6.1v20.1l-10.5,6.1v69.9l-26,15l-0.2-69.8l-8.9,5.2v-20.1l9-5.2v-6.4
		c-0.1-4.1,0.4-8.2,1.2-12.2c0.8-3.5,2.2-6.8,4.1-9.9c2-3.2,4.4-6,7.3-8.5C3666.3,581.5,3670.2,578.9,3674.4,576.6z"/>
</g>
<g id="freepik--like-icon--inject-2">
	<path class="st15" d="M-1646.3-395.3c0.1-3.5-0.4-7.1-1.4-10.5l38-43.6l-48.8-27.4c-4.6-3.2-11.2-3.6-20.1,1.6l-84.5,49.1
		l-11.4,6.5c2-9.8,3.3-19.7,4-29.7c0.3-4.2,0.4-8.1,0.4-12.1l1.6,0.8l28.5-33.4l-48.8-27.4l0,0c-16.4-10-44.1,9.8-44.1,17.8
		c0,9.6,4.2,60,0,74.5c-4.2,14.4-47.7,114-47.7,114v6.5v201l159-92c20.9-12.1,35.4-37.8,35.4-55.3c0.2-7.8-1.2-15.6-4.2-22.8
		c13.5-7.8,27-36,27-48c0-18.1-6.2-22.8-6.2-22.8C-1655.9-360.3-1647.5-377.2-1646.3-395.3z"/>
	<path class="st8" d="M-1646.3-395.3c0.1-3.5-0.4-7.1-1.4-10.5l38-43.6l-48.8-27.4c-4.6-3.2-11.2-3.6-20.1,1.6l-84.5,49.1l-11.4,6.5
		c2-9.8,3.3-19.7,4-29.7c0.3-4.2,0.4-8.1,0.4-12.1l1.6,0.8l28.5-33.4l-48.8-27.4l0,0c-16.4-10-44.1,9.8-44.1,17.8
		c0,9.6,4.2,60,0,74.5c-4.2,14.4-47.7,114-47.7,114v6.5v201l159-92c20.9-12.1,35.4-37.8,35.4-55.3c0.2-7.8-1.2-15.6-4.2-22.8
		c13.5-7.8,27-36,27-48c0-18.1-6.2-22.8-6.2-22.8C-1655.9-360.3-1647.5-377.2-1646.3-395.3z"/>
	<polygon class="st16" points="-1830.3,-79.1 -1880.6,-108.1 -1880.7,-315.7 -1830.5,-286.6 	"/>
	<polygon class="st15" points="-1830.3,-79.1 -1880.6,-108.1 -1880.7,-315.7 -1830.5,-286.6 	"/>
	<polygon class="st8" points="-1830.3,-79.1 -1880.6,-108.1 -1880.7,-315.7 -1830.5,-286.6 	"/>
	<path class="st5" d="M-1611.3-293.2c0,26.8-15.3,36.2-28.8,44c2.9,7.3,4.3,15.1,4.1,22.9c0,17.3-14.4,43.2-35.2,55.1l-159,92
		v-198.7v-8.8c0,0,43.7-99.6,47.8-114.1c4.1-14.5,0-65,0-74.3s39.5-36,52-8.5s13.6,55.7,6.5,92.3l96.1-55.6
		c20.3-11.7,28.6,5.1,28.6,18.2c0,18.7-8.7,37.1-20.3,44.1c0,0,22.1,1.1,22.1,26.9c-0.4,16.5-8.2,31.9-21.3,41.9
		C-1618.7-315.7-1611.3-311.1-1611.3-293.2z"/>
	<g>
		<polygon class="st13" points="-1937.6,3.2 -1868.1,-36.8 -1868.3,-278.4 -1937.6,-238.4 		"/>
		<polygon class="st17" points="-1937.6,3.2 -1987.9,-25.8 -1987.9,-267.4 -1937.6,-238.4 		"/>
		<polygon class="st18" points="-1918.6,-307.4 -1868.3,-278.4 -1937.6,-238.4 -1987.9,-267.4 		"/>
	</g>
	<path class="st15" d="M-1782.7-400.7c-4.1,14.5-47.8,114.1-47.8,114.1l-50.2-28.3c0,0,43.6-99.6,47.7-114c4.2-14.4,0-65,0-74.5
		l50.3,28.4C-1782.7-465.2-1778.5-415.1-1782.7-400.7z"/>
	<path class="st8" d="M-1782.7-400.7c-4.1,14.5-47.8,114.1-47.8,114.1l-50.2-28.3c0,0,43.6-99.6,47.7-114c4.2-14.4,0-65,0-74.5
		l50.3,28.4C-1782.7-465.2-1778.5-415.1-1782.7-400.7z"/>
</g>
<g>
	<path class="st13" d="M848,2454.1l-17.3-44.3l13.9-40.1v-24.8l-42.6,24.6v24.6l18.3,43.5c0.3,0.5,0.7,0.9,1.2,1.1l0,0L848,2454.1z"
		/>
	<path class="st8" d="M950.7,2265.9c-0.5-9-5.2-17.2-12.8-22.1l-4.7-3.1c-8-4.1-17.5-4.1-25.5,0l-173.4,100.2
		c-7.5,4.9-12.3,13.1-12.8,22.1v58.6c0.5,9,5.2,17.2,12.8,22.1l4.9,3c8,4.1,17.5,4.1,25.5,0l64.1-37.1l18.2,43.5
		c0.7,1.3,2.4,1.7,3.7,1c0.6-0.3,1-0.9,1.2-1.4l19.3-67.7l66.7-38.5c7.5-4.9,12.3-13.1,12.8-22.1L950.7,2265.9L950.7,2265.9z"/>
	<path class="st11" d="M721.4,2421.7c0.5,9,5.2,17.2,12.8,22.1l4.9,3c7.3,3.7,15.8,4.1,23.3,1c-6,2.2-10.6-1.1-10.6-8.4V2381
		c0.1-4.4,1.4-8.8,3.7-12.6l-30.4-17.7c-2.3,3.8-3.6,8.1-3.7,12.6V2421.7L721.4,2421.7z"/>
	<path class="st19" d="M950.4,2262.3c-1.5-5.4-6.5-7.2-12.3-3.8l-173.5,100.2c-3.8,2.3-6.9,5.6-9,9.5l-30.4-17.7
		c2.1-3.9,5.2-7.2,9-9.6l173.4-100.2c8-4.1,17.5-4.1,25.5,0l4.9,3C944.4,2248.1,948.9,2254.7,950.4,2262.3z"/>
	<path class="st2" d="M775.5,2419.8c-1.5,0.6-3.2,0.6-4.7,0c-0.6-0.4-0.9-1.1-0.9-1.8c0.1-1.5,0.4-3,1-4.4c0.4-1.3,1.2-2.4,2.2-3.3
		c0.6-0.2,1.1-0.4,1.7-0.3h1.7c1.7-0.1,3.2-0.6,4.6-1.4c1.4-0.8,2.7-1.8,3.6-3.1c1-1.2,1.6-2.8,1.5-4.3c0.1-0.9-0.2-1.9-0.8-2.7
		c-0.6-0.6-1.2-0.9-2-0.9c-1.1-0.1-2.3-0.1-3.4,0c-2.7,0.2-5.2-0.4-7.5-1.8c-1.8-2-2.6-4.7-2.3-7.4c0.1-4.3,1.5-8.4,4-11.8
		c2.7-3.9,6.2-7.1,10.3-9.4c1.5-0.9,3.2-1.6,4.9-2.1c1.3-0.5,2.7-0.7,4-0.6c0.9,0,1.2,0.6,1.2,1.7c-0.1,1.4-0.4,2.7-0.8,4
		c-0.2,1.2-0.9,2.3-1.9,3.1c-0.6,0.3-1.3,0.5-2,0.6c-1.5,0.2-3,0.7-4.4,1.5c-1.5,0.7-2.8,1.9-3.7,3.3c-0.6,1-1,2.1-1,3.2
		c0,1.7,0.4,2.7,1.3,3.1c1.3,0.4,2.7,0.6,4,0.5h1.5c2.4-0.2,4.8,0.5,6.7,1.9c1.6,2,2.3,4.5,2,7c0,2.8-0.6,5.5-1.6,8
		c-1.2,3-2.8,5.7-4.9,8c-2.3,2.7-5.1,4.9-8.2,6.7C780,2418.3,777.8,2419.2,775.5,2419.8z"/>
	<path class="st2" d="M801.5,2403.2v-43.3c0-1.4,1.3-2.9,4-4.4l2.8-1.7c2.6-1.5,4-1.5,4,0v16.7l11.6-6.7v-16.7c0-1.4,1.3-2.9,4-4.4
		l2.8-1.6c2.6-1.5,4-1.5,4,0v43.3c0,1.4-1.3,2.9-4,4.4l-2.8,1.6c-2.6,1.5-4,1.5-4,0v-17.6l-11.6,6.7v17.5c0,1.4-1.3,2.9-4,4.4
		l-2.8,1.7C802.8,2404.6,801.5,2404.7,801.5,2403.2z"/>
	<path class="st2" d="M838.4,2382.6c0-0.4,0.1-0.9,0.2-1.3l10.4-49.1c0.3-1.4,1.7-2.8,4-4.3l4.4-2.6c2.5-1.4,4-1.6,4-0.5l10.4,37
		c0,0.6,0,1,0,1.2c0,1-1,2-2.9,3.1l-3.6,2.1c-2.2,1.2-3.4,1.4-3.6,0.6l-1.8-7.3l-10.2,5.9l-1.8,9.3c0,1.1-1.2,2.2-3.1,3.3l-3.5,2
		C839.5,2383.5,838.4,2383.6,838.4,2382.6z M859.3,2354.1l-3-12.6c-0.3-1.4-0.6-3-0.9-4.7l-0.3,0.2c-0.2,1.9-0.5,3.8-0.8,5.6l-3,16
		L859.3,2354.1z"/>
	<path class="st2" d="M876.1,2360.1v-42.6c0-0.9,0.2-1.7,0.6-2.4c0.6-0.7,1.2-1.4,2.1-1.8l11.3-6.5c2.9-2.1,6.5-3.1,10-2.7
		c2.5,0.6,3.8,3.3,3.8,8c-0.2,5.7-2.5,11.1-6.5,15.1v0.3c1,0,2,0.4,2.7,1.2c0.8,0.9,1.4,1.8,1.8,3l4,10.7l0.2,0.7
		c0,1.2-1.4,2.6-4.2,4.2l-2.3,1.4c-2.3,1.4-3.7,1.5-4,0.5l-3.6-10.8c-0.2-0.6-0.7-1.1-1.4-1.3c-0.9,0-1.8,0.3-2.5,0.9l-1.6,0.9v15.3
		c0,1.4-1.4,3-4,4.5l-2.3,1.3C877.4,2361.6,876.1,2361.6,876.1,2360.1z M890.3,2326.8c1.1-0.7,2-1.7,2.6-3c0.7-1.5,1.1-3.2,1-4.9
		c0-1.9-0.4-3-1-3.5c-0.9-0.5-2-0.4-2.8,0.2l-3.6,2.1v11.2L890.3,2326.8z"/>
	<path class="st2" d="M911.6,2340.9c-0.4,0-0.6-0.8-0.6-1.7v-41.8c0-0.9,0.2-1.7,0.6-2.5c0.5-0.7,1.1-1.3,1.9-1.7l20-11.5
		c0.7-0.4,1.2-0.4,1.5,0c0.4,0.7,0.6,1.5,0.5,2.3v2.1c0.1,1-0.1,1.9-0.5,2.8c-0.3,0.7-0.8,1.3-1.5,1.7l-12,6.8v9.8l10.5-6.1
		c0.7-0.4,1.2-0.4,1.5,0c0.4,0.7,0.6,1.5,0.5,2.3v2.1c0.1,1-0.1,1.9-0.5,2.8c-0.3,0.7-0.8,1.3-1.5,1.7l-10.5,6.1v11l12-6.9
		c0.7-0.4,1.2-0.4,1.4,0c0.4,0.7,0.5,1.5,0.4,2.3v2.1c0,1-0.1,1.9-0.4,2.8c-0.3,0.7-0.8,1.3-1.4,1.7l-20,11.5
		C912.9,2341.1,912.2,2341.2,911.6,2340.9z"/>
</g>
<g id="freepik--Mobile--inject-267">
	<path class="st15" d="M1154.6,964.6c-1.3-0.7-2.8-0.7-3.8,0.3l-134.3,59.6c-4,2.2-7.5,5.7-9.4,10l-98.2,265.4
		c-0.7,2.2-0.7,3.5,0.3,4.4l16,11.9c1.3,0.7,2.8,0.7,3.8-0.3l134.3-59.6c4-2.2,7.5-5.7,9.4-10l98.2-265.4c0.7-2.2,0.7-3.5-0.3-4.4
		L1154.6,964.6z"/>
	<path class="st11" d="M1027.2,1040.2c-1.9,1.5-3.2,3.8-4,6l-98.2,265.4c-0.7,1.9-0.7,3.5,0,4l-16-11.6c-1-0.7-1.3-2.2-0.3-4.4
		l98.2-265.4c1-2.2,2.2-4.4,4-6L1027.2,1040.2z"/>
	<path class="st15" d="M929,1315.7l134.2-59.7c4-2.2,7.5-5.7,9.4-10l98.2-265.4c1.5-3.8-0.3-5.7-4.4-4l-134.3,59.6
		c-4,2.2-7.5,5.7-9.4,10l-98.2,265.4C923.3,1315.3,925.1,1317.2,929,1315.7z"/>
	<path class="st20" d="M929,1315.7l134.2-59.7c4-2.2,7.5-5.7,9.4-10l98.2-265.4c1.5-3.8-0.3-5.7-4.4-4l-134.3,59.6
		c-4,2.2-7.5,5.7-9.4,10l-98.2,265.4C923.3,1315.3,925.1,1317.2,929,1315.7z"/>
	<path class="st17" d="M1023,1089.5l10-27c2.2-5,6-9.1,11-11.6l5.3-2.2c6.9-3.2,10.4,0.3,7.8,7.2l-10,27c-2.2,5-6,9.1-11,11.6
		l-5.3,2.2C1024,1099.8,1020.5,1096.7,1023,1089.5z"/>
	<path class="st18" d="M1028.7,1086.3c2.2-4.7,5.7-8.5,10.4-10.7c4.4-1.9,6.5-0.3,5,3.8c-2.2,4.7-5.7,8.5-10.4,10.7
		C1029.4,1092,1027.2,1090,1028.7,1086.3z"/>
	<path class="st21" d="M1032.5,1084.5c1-2.2,2.8-4.4,5.3-5.3c2.2-1,3.5,0,2.5,1.9c-1,2.5-2.8,4.4-5.3,5.3
		C1032.8,1087.5,1031.5,1086.7,1032.5,1084.5z"/>
	<path class="st18" d="M1036.2,1066.3c2.2-4.7,5.7-8.5,10.4-10.7c4-1.9,6.5-0.3,5,3.8c-2.2,4.7-5.7,8.5-10.4,10.7
		C1037.2,1071.9,1034.7,1070.3,1036.2,1066.3z"/>
	<path class="st21" d="M1040,1064.6c1-2.5,2.8-4.4,5.3-5.3c2.2-1,3.5,0,2.5,1.9c-1,2.2-2.8,4.4-5.3,5.3
		C1040.4,1067.5,1039.4,1066.6,1040,1064.6z"/>
	<path class="st15" d="M1007.7,1065l-2.2-1.5c-0.7-0.7-1.5-0.7-2.2-0.3l-2.5,1.3c-0.7,0.3-1,0.7-1.3,1.3l-8.8,24.2
		c-0.7,1.5,0,3.5,1.3,4.7l2.2,1.5c0.7,0.7,1.5,0.7,2.2,0.3l2.5-1.3c0.7-0.3,1-0.7,1.3-1.3l8.8-24.2
		C1009.6,1068.1,1009.3,1066.3,1007.7,1065z"/>
	<path class="st22" d="M1007.7,1065l-2.2-1.5c-0.7-0.7-1.5-0.7-2.2-0.3l-2.5,1.3c-0.7,0.3-1,0.7-1.3,1.3l-8.8,24.2
		c-0.7,1.5,0,3.5,1.3,4.7l2.2,1.5c0.7,0.7,1.5,0.7,2.2,0.3l2.5-1.3c0.7-0.3,1-0.7,1.3-1.3l8.8-24.2
		C1009.6,1068.1,1009.3,1066.3,1007.7,1065z"/>
	<path class="st15" d="M997.6,1094.8l9.1-24.2c0.7-1.5,0-3.5-1.3-4.7l-2.2-1.5c-1-0.7-2.2-0.7-3.2,0.3c-0.3,0.3-0.3,0.7-0.3,1
		l-8.8,24.2c-0.7,1.5,0,3.5,1.3,4.7l2.2,1.5c1,0.7,2.2,0.7,2.8,0C997.3,1095.4,997.6,1095.1,997.6,1094.8z"/>
	<path class="st15" d="M993.3,1104.5l-2.2-1.5c-0.7-0.7-1.5-0.7-2.2-0.3l-2.5,1.3c-0.7,0.3-1,0.7-1.3,1.3l-9.1,24.2
		c-0.7,1.5,0,3.5,1.5,4.7l2.2,1.5c0.7,0.7,1.5,0.7,2.2,0.3l2.5-1.3c0.7-0.3,1-0.7,1.3-1.3l8.8-24.2
		C995.1,1107.7,994.6,1105.7,993.3,1104.5z"/>
	<path class="st22" d="M993.3,1104.5l-2.2-1.5c-0.7-0.7-1.5-0.7-2.2-0.3l-2.5,1.3c-0.7,0.3-1,0.7-1.3,1.3l-9.1,24.2
		c-0.7,1.5,0,3.5,1.5,4.7l2.2,1.5c0.7,0.7,1.5,0.7,2.2,0.3l2.5-1.3c0.7-0.3,1-0.7,1.3-1.3l8.8-24.2
		C995.1,1107.7,994.6,1105.7,993.3,1104.5z"/>
	<path class="st15" d="M982.9,1134.3l8.8-24.2c0.7-1.5,0-3.5-1.3-4.7l-2.2-1.5c-1-0.7-2.2-0.7-3.2,0.3c-0.3,0.3-0.3,0.7-0.3,1
		l-9.1,24.2c-0.7,1.5,0,3.5,1.5,4.7l2.2,1.5c1,1,2.2,0.7,3.2,0C982.9,1134.9,982.9,1134.6,982.9,1134.3z"/>
	<path class="st19" d="M1150.8,964.9l-50.5,22.9l-50.8,22.6l-25.4,11.3l-6.3,2.8c-2.2,1-4,2.2-5.7,3.8c-1.5,1.5-3.2,3.5-4,5.3
		c-1,1.9-1.5,4.4-2.5,6.3l-19.2,52.1L947.8,1196l-19.4,52.1l-19.7,51.8l18.9-52.1l19.2-52.1l38.3-104.2l19.2-52.1
		c1-2.2,1.5-4.4,2.5-6.5c1.3-2.2,2.5-4,4.4-5.7c1.5-1.5,3.8-2.8,6-3.8l6.3-2.8l25.4-11.3l50.8-22.2L1150.8,964.9z"/>
</g>
<path class="st17" d="M574.4,871.4c-4-0.7-7.8-1.5-11.3-3.2c-12.2-5.3-22.6-16-23.9-31.1c-7.8,7.5-7.5,20.7-3.2,30.4
	c-16.9-1-31.7-13.8-37.6-29.8c-6-16-3.8-33.9,3.2-49.6c-10,5-21.9,5.7-32.3,1c14.4-2.8,23.9-17.6,26.1-32
	c2.2-14.4-0.7-29.2-1.9-43.6c-5.7-55.8-1-133.3,54.9-149.3c44.9-131.8,193.6-118.9,256-78.2c158.5,102.6,59.6,216.1,59.6,216.1
	c-2.8,3.2-11.3,5.3-15,7.2l-99.7,48.3l-33.2,16c-3.8,1.3-7.2,2.8-10.7,5c-3.5,2.8-6,9.1-8.2,12.9c-2.5,5-5.3,10-8.8,14.7
	c-11.6,14.2-31.4,19.2-48.3,12.2c-0.7-0.3-1.3-0.3-1.9-0.3c-1.5,0-2.5,1.9-3.2,3.8c-1.5,7.8-4.7,15-8.5,21.9
	c-4.4,6.3-9.4,11.6-15.7,15.7c-5.3,4-11,7.5-17.2,10C587.2,871.7,580.7,872.4,574.4,871.4z"/>
<path class="st23" d="M955.9,1119.6c-0.7-58.6-70.6-124.3-107.6-166.3c-22.6-26.1-31.4-27.6-54-33.6c-19.7-5.3-53.3-11.3-53.3-27.3
	l0,0l0.3-20.7c21.9,3.5,53,6.5,71.8-3.5c17.2-9.1,48.9-50.5,55.5-151.2c4.7-71-2.2-107.3-14.2-127.7c-17.6-30.7-35.4,13.5-63.3,14.7
	c-37.9,1.5-54-29.8-89.1-18.5c-9.1,2.8-16.9,11.6-22.2,22.9c-4.4,9.4-6,26.1-13.8,38.3c-16,24.7-33.9,16.7-38.9,46.8
	c-1,5.3-1.9,13.8-6.3,20.1c-4.4,5.3-12.2,6.3-17.6,1.9c0,0,0,0-0.3-0.3c-3.5-2.8-6.3-6.3-8.2-10l-9.7-14.7
	c-12.2-18.9-36.4-25.4-53.6-8.8c-21.9,21-13.2,60.8,12.5,86.5c22.9,22.9,46.4,10.7,48.9,0l1.9,99.7c-0.3,18.9-6.3,23.9-41.1,49.9
	c-29.2,21.7-39.6,26.7-79,53.6c-37.4,25.4-42.4,106.7-25.7,153.1c16.7,46.4,47.4,132.4,62.8,197.1c4.4,18.5,0,48.6,0,48.6
	l195.8,80.7L917.3,1330l-13.8-121.4C936.2,1191.7,956.5,1157.2,955.9,1119.6z"/>
<path class="st24" d="M740.7,871.4c-65.6-17.2-120.8-36.7-131.1-65.6c3.8,16.3,12.5,31.1,25.1,42.4c21,19.1,106,43.9,106,43.9V871.4
	z"/>
<path class="st25" d="M682.3,854.2c24.7,7.8,35.4,11.9,58.3,17.6l0,0c21.9,3.5,53,6.5,71.8-3.5c17.2-9.1,48.9-50.5,55.5-151.2
	c3.2-48.3,1-80.3-4.4-102.6c6,52.8,1.9,102.6-9.1,159.4c-11,56.8-32.6,85.7-56.5,93.2C774.3,874.9,712.8,863.5,682.3,854.2z"/>
<path class="st25" d="M818.9,495.9c44.3,36.1,68.4,79,70.3,118.6c1.9,39.6-11.9,64.6-18.2,78.5l0,0
	C889.7,664.3,932.1,578.1,818.9,495.9z"/>
<path class="st13" d="M799,919.4c25.4,2.5,61.5,4.4,95.4,38.9c17.9,18.2,112.3,164,112.3,164s-24.5,82.5-141.8,73.7
	C864.3,1192.7,799,919.4,799,919.4z"/>
<path class="st18" d="M959.4,1119.6c0-37.1-63.7-106.4-108.9-152.8c-16-16.7-33.2-32.3-51.4-47.1c0,0-19.4-4.4-27-5.7
	c9.1,84.7-122.6,71.2-219,3.8c-19.2,11.3-30.4,17.6-45.2,27c-9.4,6.3-20.4,13.2-35.8,23.9c-40.1,27.3-42.6,112.6-27,157.2l0.3,0.7
	c16.7,46.1,47.1,131.8,62.5,195.8c4,17.6,0,46.8,0,47.1l-0.3,2.8l199.9,82.5l213.3-123l-3.8-111.1
	C933.6,1208.7,959.4,1177.9,959.4,1119.6z"/>
<path class="st25" d="M916.8,1220.6c16.7-11.9,42.4-42.6,42.4-101c0-37.1-63.7-106.4-108.9-152.8c-6.3-6.3-12.5-12.5-18.9-18.5
	c44.6,53,107.9,110.7,117.1,181.4C955.9,1184.2,916.8,1220.6,916.8,1220.6z"/>
<path class="st18" d="M916.8,1220.6c16.7-11.9,42.4-42.6,42.4-101c0-37.1-63.7-106.4-108.9-152.8c-6.3-6.3-12.5-12.5-18.9-18.5
	c44.6,53,107.9,110.7,117.1,181.4C955.9,1184.2,916.8,1220.6,916.8,1220.6z"/>
<path class="st13" d="M571.3,904.1c25.4,28.9,91.3,65.8,153.1,56.1c53.3-8.5,28.9-53,28.9-53l18.5,6.5c0,0,28.9,56.5-40.1,68.4
	c-69,11.9-138.7-18.2-178.5-64.6L571.3,904.1z"/>
<g id="freepik--mobile--inject-267">
	<path class="st26" d="M1154.6,964.6c-1.3-0.7-2.8-0.7-3.8,0.3l-134.3,59.6c-4,2.2-7.5,5.7-9.4,10l-98.2,265.4
		c-0.7,2.2-0.7,3.5,0.3,4.4l16,11.9c1.3,0.7,2.8,0.7,3.8-0.3l134.3-59.6c4-2.2,7.5-5.7,9.4-10l98.2-265.4c0.7-2.2,0.7-3.5-0.3-4.4
		L1154.6,964.6z"/>
	<path class="st15" d="M929,1315.7l134.2-59.7c4-2.2,7.5-5.7,9.4-10l98.2-265.4c1.5-3.8-0.3-5.7-4.4-4l-134.3,59.6
		c-4,2.2-7.5,5.7-9.4,10l-98.2,265.4C923.3,1315.3,925.1,1317.2,929,1315.7z"/>
	<path class="st27" d="M929,1315.7l134.2-59.7c4-2.2,7.5-5.7,9.4-10l98.2-265.4c1.5-3.8-0.3-5.7-4.4-4l-134.3,59.6
		c-4,2.2-7.5,5.7-9.4,10l-98.2,265.4C923.3,1315.3,925.1,1317.2,929,1315.7z"/>
	<path class="st28" d="M1023,1089.5l10-27c2.2-5,6-9.1,11-11.6l5.3-2.2c6.9-3.2,10.4,0.3,7.8,7.2l-10,27c-2.2,5-6,9.1-11,11.6
		l-5.3,2.2C1024,1099.8,1020.5,1096.7,1023,1089.5z"/>
	<path class="st18" d="M1028.7,1086.3c2.2-4.7,5.7-8.5,10.4-10.7c4.4-1.9,6.5-0.3,5,3.8c-2.2,4.7-5.7,8.5-10.4,10.7
		C1029.4,1092,1027.2,1090,1028.7,1086.3z"/>
	<path class="st21" d="M1032.5,1084.5c1-2.2,2.8-4.4,5.3-5.3c2.2-1,3.5,0,2.5,1.9c-1,2.5-2.8,4.4-5.3,5.3
		C1032.8,1087.5,1031.5,1086.7,1032.5,1084.5z"/>
	<path class="st18" d="M1036.2,1066.3c2.2-4.7,5.7-8.5,10.4-10.7c4-1.9,6.5-0.3,5,3.8c-2.2,4.7-5.7,8.5-10.4,10.7
		C1037.2,1071.9,1034.7,1070.3,1036.2,1066.3z"/>
	<path class="st21" d="M1040,1064.6c1-2.5,2.8-4.4,5.3-5.3c2.2-1,3.5,0,2.5,1.9c-1,2.2-2.8,4.4-5.3,5.3
		C1040.4,1067.5,1039.4,1066.6,1040,1064.6z"/>
	<path class="st15" d="M1007.7,1065l-2.2-1.5c-0.7-0.7-1.5-0.7-2.2-0.3l-2.5,1.3c-0.7,0.3-1,0.7-1.3,1.3l-8.8,24.2
		c-0.7,1.5,0,3.5,1.3,4.7l2.2,1.5c0.7,0.7,1.5,0.7,2.2,0.3l2.5-1.3c0.7-0.3,1-0.7,1.3-1.3l8.8-24.2
		C1009.6,1068.1,1009.3,1066.3,1007.7,1065z"/>
	<path class="st22" d="M1007.7,1065l-2.2-1.5c-0.7-0.7-1.5-0.7-2.2-0.3l-2.5,1.3c-0.7,0.3-1,0.7-1.3,1.3l-8.8,24.2
		c-0.7,1.5,0,3.5,1.3,4.7l2.2,1.5c0.7,0.7,1.5,0.7,2.2,0.3l2.5-1.3c0.7-0.3,1-0.7,1.3-1.3l8.8-24.2
		C1009.6,1068.1,1009.3,1066.3,1007.7,1065z"/>
	<path class="st28" d="M997.6,1094.8l9.1-24.2c0.7-1.5,0-3.5-1.3-4.7l-2.2-1.5c-1-0.7-2.2-0.7-3.2,0.3c-0.3,0.3-0.3,0.7-0.3,1
		l-8.8,24.2c-0.7,1.5,0,3.5,1.3,4.7l2.2,1.5c1,0.7,2.2,0.7,2.8,0C997.3,1095.4,997.6,1095.1,997.6,1094.8z"/>
	<path class="st15" d="M993.3,1104.5l-2.2-1.5c-0.7-0.7-1.5-0.7-2.2-0.3l-2.5,1.3c-0.7,0.3-1,0.7-1.3,1.3l-9.1,24.2
		c-0.7,1.5,0,3.5,1.5,4.7l2.2,1.5c0.7,0.7,1.5,0.7,2.2,0.3l2.5-1.3c0.7-0.3,1-0.7,1.3-1.3l8.8-24.2
		C995.1,1107.7,994.6,1105.7,993.3,1104.5z"/>
	<path class="st22" d="M993.3,1104.5l-2.2-1.5c-0.7-0.7-1.5-0.7-2.2-0.3l-2.5,1.3c-0.7,0.3-1,0.7-1.3,1.3l-9.1,24.2
		c-0.7,1.5,0,3.5,1.5,4.7l2.2,1.5c0.7,0.7,1.5,0.7,2.2,0.3l2.5-1.3c0.7-0.3,1-0.7,1.3-1.3l8.8-24.2
		C995.1,1107.7,994.6,1105.7,993.3,1104.5z"/>
	<path class="st28" d="M982.9,1134.3l8.8-24.2c0.7-1.5,0-3.5-1.3-4.7l-2.2-1.5c-1-0.7-2.2-0.7-3.2,0.3c-0.3,0.3-0.3,0.7-0.3,1
		l-9.1,24.2c-0.7,1.5,0,3.5,1.5,4.7l2.2,1.5c1,1,2.2,0.7,3.2,0C982.9,1134.9,982.9,1134.6,982.9,1134.3z"/>
	<path class="st19" d="M1150.8,964.9l-50.5,22.9l-50.8,22.6l-25.4,11.3l-6.3,2.8c-2.2,1-4,2.2-5.7,3.8c-1.5,1.5-3.2,3.5-4,5.3
		c-1,1.9-1.5,4.4-2.5,6.3l-19.2,52.1L947.8,1196l-19.4,52.1l-19.7,51.8l18.9-52.1l19.2-52.1l38.3-104.2l19.2-52.1
		c1-2.2,1.5-4.4,2.5-6.5c1.3-2.2,2.5-4,4.4-5.7c1.5-1.5,3.8-2.8,6-3.8l6.3-2.8l25.4-11.3l50.8-22.2L1150.8,964.9z"/>
</g>
<path class="st29" d="M972.2,1127.7l4.7-12.5c1-20.1-13.8-28.6-23.2-5.7c-7.5,18.2-38.3,48-45.5,71.2s-6.3,45.8-33.2,71
	c-28.2,26.7-226.2,93.8-226.2,93.8l-67.5-218.1c0,0-25.4-117.1-95.4-165.4c-37.4,21.7-72.5,37.9-86.5,89.4
	c-13.8,51.4,9.7,118.6,51.8,223.3c40.1,100.1,69.3,158.7,92.2,193.9c28.2,43.6,55.3,60.8,138.7,28.2s161.5-94.2,248.8-149.3
	c42.1-26.7,69.7-40.4,101.4-69c15.7-14.2,23.9-23.9,31.7-36.4c8.2-12.5,13.2-26.7,14.4-41.4c0-2.8,0.3-5.3,1-8.2
	c1-2.5,2.2-5,3.5-7.2c2.8-4.4,5-9.1,6.3-13.8c0.7-5.3,1-10.7,0.3-16c-0.3-2.5-0.3-5,0-7.5c0.3-2.5,1-5,1.9-7.5
	c2.2-6.3,4.7-12.9,4.7-19.4c0-3.8-2.2-6.9-5.3-8.8c0,0,4-7.8,5-10.4c1.5-3.8,2.8-7.8,3.8-11.9c0.7-1.5,0.3-3.2-0.7-4.7
	c-0.7-0.7-1.5-1.3-2.5-1.5c-14.4-5-26.4,5.3-35.8,15c-24.5,25.1-34.5,46.1-62.1,68.7c-37.6,31.1-45.5,11.3-45.5,11.3L972.2,1127.7z"
	/>
<path class="st25" d="M907.9,1181c-7.5,23.2-6.3,45.8-33.2,71c-25.4,23.9-186.4,80-220,91.9c38.6-13.2,148.7-48.6,191.1-66.2
	c44.9-18.5,54-41.4,57.4-60.8c4.7-24.7,6.9-42.4,12.2-51.4C912.6,1170,910.1,1175.4,907.9,1181z"/>
<path class="st30" d="M959.4,1100.2c6.9-2.5,8.5,11,8.2,23.9s-8.2,38.3-8.2,38.6l7.8-21.7l9.1-24.7l0.3-1
	C977.6,1098.9,968.2,1090.4,959.4,1100.2z"/>
<path class="st31" d="M959.4,1100.2c6.9-2.5,8.5,11,8.2,23.9s-8.2,38.3-8.2,38.6l7.8-21.7l9.1-24.7l0.3-1
	C977.6,1098.9,968.2,1090.4,959.4,1100.2z"/>
<path class="st25" d="M648.5,1345.7c-37.1,13.2-58.1,28.2-58.1,28.2c13.5-19.2,32-33.6,54-42.1L648.5,1345.7z"/>
<path class="st32" d="M1090.5,1113c-3.8,7.8-8.2,15.7-12.5,23.2c-4.4,7.5-9.1,15-13.5,22.6c-2.2,3.8-4.4,7.5-6.9,11.3
	c-2.5,3.8-5,7.2-7.8,10.7c-5.3,6.9-11,13.8-17.2,20.1l7.5-10.7c2.5-3.5,5-7.2,7.5-10.7s5-7.2,7.2-11s4.4-7.5,6.5-11.3
	c4.7-7.5,9.4-14.7,14.4-21.9L1090.5,1113z"/>
<path class="st32" d="M1089.6,1145.9c-1.9,6.5-4,12.9-7.2,19.2c-2.8,6.3-6,12.2-9.4,17.9s-6.9,11.6-10.7,17.2
	c-3.8,5.7-7.8,11-12.2,16.3c3.5-6,6.5-11.6,10-17.6l10-17.6l10-17.6C1083.6,1158.2,1086.8,1152.2,1089.6,1145.9z"/>
<path class="st13" d="M487.8,958.4c-26.1,11.9-65.8,32.3-88.5,78.2c-18.5,37.4-14.2,75.3,0,147.8c10.4,54.3,27.9,137.4,27.9,137.4
	s33.9,19.2,103.2-2.5c69.3-21.7,92.9-67.8,92.9-67.8l-46.4-161.5C576.9,1089.8,556.2,987.1,487.8,958.4z"/>
<path class="st19" d="M576.6,1089.8c-3.5-14.7-7.8-29.2-13.8-43.3c21.7,86.5,49.6,200.8,49.6,200.8c-10.7,25.4-29.5,46.8-53.3,60.3
	l0,0c47.1-23.2,63.7-56.5,63.7-56.5L576.6,1089.8z"/>
<path class="st18" d="M576.6,1089.8c-3.5-14.7-7.8-29.2-13.8-43.3c21.7,86.5,49.6,200.8,49.6,200.8c-10.7,25.4-29.5,46.8-53.3,60.3
	l0,0c47.1-23.2,63.7-56.5,63.7-56.5L576.6,1089.8z"/>
<g id="freepik--Line--inject-280">
	<g id="freepik--Lines--inject-280">
		<path class="st18" d="M937.5,252c45.5,13.8,88.2,58.3,75.3,105.7c-11,40.4-64,68.4-103.2,43.3c-33.2-21.7-89.1-94.4-26.4-115.4
			c39.6-13.2,91.9,6.5,121.4,31.4c17.2,14.7,30.7,35.8,20.7,57.8c-10,21.9-36.4,31.1-59.6,32C916.4,408.7,865,376.3,864,327
			c-1-21.7,9.1-42.4,27-56.1c19.2-14.2,44.3-17.2,67.8-14.7c46.8,5,96.9,31.4,119.6,71c21.4,37.4,13.2,91.3-30.7,111.1
			c-39.6,17.2-93.5,9.7-132.8-5c-39.2-14.7-76-43.3-88.2-82.8c-13.8-44.7,11.3-96.5,66.5-92.7c51.8,3.5,96.9,46.8,107,93.2
			c9.4,42.6-14.4,92.2-60.3,106.7c-42.4,13.2-98.5-11.6-99.4-56.8c-1-40.8,44.3-80.7,86.3-55.5c18.2,11,31.4,32,26.7,52.8
			c-5,20.7-31.7,40.4-53,25.4c-14.2-11.3-20.1-28.9-15.7-45.5c5.3-20.7,28.9-31.7,49.9-33.6c23.2-2.2,46.4,3.8,65.6,16.3
			c10.7,7.5,18.5,20.1,10,31.7c-11,15.4-27.6,1.5-31.4-11.6c-5-17.9,4-37.1,21.7-45.5c22.6-9.7,47.1,8.8,50.5,30.1
			c1.5,9.7-1.3,21-12.2,24.5c-11,3.2-22.9-1-29.2-10.4c-12.9-21.9,24.2-41.1,42.4-28.9c22.9,15,13.8,47.4-8.2,58.1
			c-21,10-46.4,5.3-61.8-11.6c-15-16.7-19.4-39.2-11.9-59.6c8.2-18.2,24.5-32.3,44.6-38.3c47.4-15.4,103.2,16.3,104.8,65
			c1.3,41.1-35.8,79.4-78.5,85.3C992.5,456,942,427.7,920,387.6c-10.4-17.9-13.2-38.9-7.5-58.6c8.5-24.7,36.1-33.9,62.1-31.1
			c47.4,5.3,81,45.8,74.7,90c-0.7,4.4-1.5,8.8-2.8,12.9c-7.2,22.2-24.2,36.1-42.1,51.1c-15,12.9-28.9,28.9-27.3,48.9
			c1.3,16,12.2,24.5,27.6,30.1c7.5,2.8,22.2,5.7,22.6,15.7c0,10-12.2,13.2-20.1,16.3c-13.2,5-26.7,11.6-25.1,27.3
			c1.3,12.9,12.2,22.9,26.1,23.5c5,0,2.2-6.3-1.9-6.3c-16-0.3-22.2-20.7-11.3-30.4c7.8-6.9,19.7-8.5,28.9-13.8
			c15.7-9.1,11.6-25.1-3.2-32.3c-11-5.3-25.4-6.9-32.3-17.2c-8.8-12.9-3.2-30.7,6.3-42.1c16.9-21,42.6-33.2,54.6-58.1
			c20.7-44.6-1-96.4-48.3-115.8c-0.3,0-0.7-0.3-1-0.3c-22.9-9.1-53.6-11-75,3.2c-17.9,12.2-23.2,33.2-21.4,53
			c4.7,46.1,47.7,86,94.4,98.2c47.4,12.9,97.6-8.2,118.9-49.6c20.1-39.9,2.2-87.2-40.1-106.1c-1.9-0.7-3.5-1.5-5.3-2.2
			c-41.7-16.3-99.4,3.2-109.8,47.1c-9.4,39.2,25.4,85.3,71,77.2c21.7-3.8,39.2-19.7,38.9-41.1c0-17.2-12.5-35.4-32.3-37.4
			c-17.9-1.9-37.9,11.6-37.9,28.9c0,16,16.9,27.3,32.9,27c20.7-0.7,26.4-20.1,21.7-36.1c-5.3-17.2-22.2-32.6-42.1-33.9
			c-39.9-2.2-58.1,53.6-26.1,74.3c16.9,11,34.8-5.3,32-22.2c-3.5-20.4-29.2-31.4-47.7-36.7c-38.6-11-99.2,1-94.7,48.9
			c1,16.3,10.4,31.1,25.4,39.6c18.9,9.1,40.1-1,50.5-16.9c22.9-35.8-15.7-83.2-57.1-82.5c-44.9,0.3-72.5,50.8-58.1,87.9
			c15.4,39.9,69.7,57.8,110.1,42.1c47.4-18.5,68.4-71.5,55.5-116.4c-13.2-45.8-57.8-86.9-109.2-92.2c-24.7-3.5-49.6,6.5-64.3,25.7
			c-12.5,19.2-16.3,42.4-11,64.3c9.4,43.9,47.1,76.5,89.4,93.8c22.2,9.1,45.8,14.4,69.7,16.3c26.1,1.9,55.5,0.7,78.5-12.2
			c42.1-23.2,47.1-78.5,24.7-115.4c-24.7-41.4-76.5-69.3-126.4-73.7c-24.7-2.2-51.4,1.9-71,17.2c-17.6,15-27.3,36.7-26.1,59
			c1.9,48,47.7,81.9,96.9,85c22.9,1.5,48-4,64.3-19.7c15-14.7,17.9-37.1,7.2-54.9c-21-37.9-77.2-60.6-121.1-60.3
			c-19.4,0-40.1,5.7-50.5,23.2c-13.2,21.4-2.2,46.1,11.3,65c13.5,18.9,33.9,42.1,58.6,49.3c20.4,5.3,42.4,1.5,59.3-10.4
			c41.7-27.3,43.3-78.5,14.2-114.8c-35.1-44.3-96-54-151.2-43.9"/>
		<path class="st18" d="M1050.7,354.1c1.5,8.2,6.3,15.7,12.9,21.4c6.9,5,15,8.2,23.5,9.1c19.7,2.5,45.5-1.3,56.8-18.2
			c6-10,9.1-21,9.4-32.6c2.2-32.6-11-64.3-35.4-87.2c-25.4-23.2-66.8-40.4-102.2-28.9c-19.2,6.5-34.2,21-40.1,39.2
			c-3.8,9.4-4,20.1-0.7,29.8c3.5,8.5,8.5,16.3,15.4,22.6c14.2,13.8,32.6,22.6,53,25.4c20.7,2.5,44.9-5.3,51.8-25.7
			c6.9-20.1-2.2-44.6-14.4-61.5c-27-38.9-79.4-54.9-125.8-38.6c-20.7,7.2-38.3,20.4-50.8,37.4c-11.6,16.3-16.7,37.4-7.2,55.8
			c10.4,18.9,31.1,30.7,53.6,30.7c22.6,0,47.7-10.4,59-29.5c11.3-19.2,1-39.9-18.5-48.9c-20.7-9.4-46.8-1.9-62.5,12.5
			c-14.4,13.2-21,32-17.6,50.5c2.2,9.4,7.2,18.5,14.4,25.4c2.2,2.2,7.5,0.3,4.7-2.5c-13.5-13.2-17.6-32.3-11-49.3
			c6.5-17.2,21.9-30.4,40.8-34.8c10.7-2.8,21.9-1.5,31.4,3.5c8.5,4.7,14.4,12.5,16.7,21.4c4,20.4-17.2,36.7-35.8,42.6
			c-20.4,7.5-43.6,3.5-59.6-10.7c-14.2-13.5-18.2-33.2-10.4-50.5c7.8-16.9,21.4-31.4,38.3-40.8c17.9-10.7,38.9-15.4,59.9-13.8
			c43.6,3.5,79.7,32.9,89.1,73.1c2.8,10,1.9,20.7-2.5,30.4c-5,8.8-13.8,15-24.5,17.2c-17.2,4-36.1-1.5-50.8-10
			c-14.7-8.5-29.2-21.7-32.3-37.9c-3.8-18.2,7.5-38.6,22.2-49.9c27.6-20.7,66.8-11.6,94.2,5c34.2,20.4,54.3,56.1,53,94.2
			c0,10.4-2.2,20.7-6.5,30.1c-5,9.4-14.2,16.3-25.1,18.5c-16,4-37.1,4.7-51.1-5c-6.9-5-11.6-12.2-13.8-20.1
			C1051.4,352.4,1050.1,353.4,1050.7,354.1L1050.7,354.1z"/>
	</g>
</g>
<path id="freepik--Shadow--inject-267" class="st33" d="M1096.5,1084.5c-10.7-3.8-19.4,0.7-27.3,7.2c13.2-1.9,12.9,8.8-12.9,45.2
	c-8.8,11.9-17.9,23.5-27.9,34.5c-6.3,7.2-17.2,14.2-10,24.7c1.5,1.9,3.2,4,4.4,6.3c1.9,5-1.9,11-1,16.3c1,5.3,7.5,9.1,8.2,14.7
	c0.3,5-3.8,9.1-5.3,13.8c-1,3.2-0.7,6.5-1.9,10c-1,2.5-2.2,5-4,6.9c-7.8,10-12.5,13.5-28.2,25.1c-15.7,11.6-113.6,65.8-146.8,81.9
	c-79,38.6-204.6,96.7-246,83.2c-22.9-7.5-49.6-76.8-63.7-116.4c54.9-23.5,63.7-45.5,76-67.1c-25.1,22.9-108.6,48-142.1-53.3
	c-33.6-101.4-22.9-160.3,15.4-197.4c38.3-37.1,95.7-81.9,123-105.4c14.2-12.2,6.3-25.1,1-51.4c-5-24.5-7.2-61.5-14.4-94.4
	c0,0,6-23.2-12.5-25.4c-9.4-1.3,3.5,16.9-7.8,19.2c-9.7,2.2-25.4,0-34.2-24.5c-8.8-24.5-6.9-65.3,28.2-63.1
	c-11.9-5-26.1-2.5-35.1,6.9c-21.9,21-13.2,60.8,12.5,86.5c22.9,22.9,46.4,10.7,48.9,0l1.9,99.7c0,14.7-4,21.4-23.2,36.4l-17.9,13.5
	c-19.2,11.3-30.4,17.6-45.2,27c-6,3.8-12.2,8.2-20.1,13.2c-26.1,11.9-65.8,32.3-88.5,78.2c-18.5,37.4-14.2,75.3,0,147.8
	c10.4,54.3,27.9,137.4,27.9,137.4s15.4,8.5,46.1,7.8c28.9,68.1,51.4,111.7,70,140c28.2,43.6,55.3,60.8,138.7,28.2
	s161.5-94.2,248.8-149.3c42.1-26.7,69.7-40.4,101.4-69c15.7-14.2,23.9-23.9,31.7-36.4c8.2-12.5,13.2-26.7,14.4-41.4
	c0-2.8,0.3-5.3,1-8.2c1-2.5,2.2-5,3.5-7.2c2.8-4.4,5-9.1,6.3-13.8c0.7-5.3,1-10.7,0.3-16c-0.3-2.5-0.3-5,0-7.5s1-5,1.9-7.5
	c2.2-6.3,4.7-12.9,4.7-19.4c0-3.8-2.2-6.9-5.3-8.8c0,0,4-7.8,5-10.4c1.5-3.8,2.8-7.8,3.8-11.9c0.7-1.5,0.3-3.2-0.7-4.7
	C1098.3,1085.3,1097.5,1084.8,1096.5,1084.5z"/>
</svg>
